<?xml version="1.0" encoding="utf-8"?>
<!-- Generator: Adobe Illustrator 18.0.0, SVG Export Plug-In . SVG Version: 6.00 Build 0)  -->
<!DOCTYPE svg PUBLIC "-//W3C//DTD SVG 1.1//EN" "http://www.w3.org/Graphics/SVG/1.1/DTD/svg11.dtd">
<svg version="1.1" id="Layer_1" xmlns="http://www.w3.org/2000/svg" xmlns:xlink="http://www.w3.org/1999/xlink" x="0px" y="0px"
	 viewBox="0 0 392.144 191.932" enable-background="new 0 0 392.144 191.932" xml:space="preserve">
<g>
	<g>
		<g>
			<rect x="7.48" y="7.481" fill="#812926" width="176.972" height="176.971"/>
		</g>
		<g>
			<g>
				<path fill="#FFFFFF" d="M30.482,106.382h10.971v19.166h16.389v-19.166h10.971v47.406H57.842v-18.827H41.453v18.827H30.482
					V106.382z"/>
				<path fill="#FFFFFF" d="M78.566,137.738v-31.356H89.47v30.678c0,5.418,3.25,8.466,8.194,8.466c5.011,0,8.195-3.048,8.195-8.466
					v-30.678h10.971v31.356c0,11.039-7.517,17.269-19.166,17.269S78.566,148.777,78.566,137.738z"/>
				<path fill="#FFFFFF" d="M162.069,140.65c0,8.127-5.756,13.138-15.17,13.138H126.65v-47.406h19.504
					c9.413,0,15.238,4.673,15.238,12.326c0,6.163-3.589,9.82-9.075,10.836C157.803,130.086,162.069,134.081,162.069,140.65z
					 M137.621,114.306v11.512h6.095c4.199,0,6.705-2.167,6.705-5.756c0-3.59-2.438-5.757-6.705-5.757H137.621z M151.031,139.228
					c0-3.522-2.641-5.824-6.569-5.824h-6.84v12.054h6.84C148.525,145.459,151.031,143.156,151.031,139.228z"/>
			</g>
			<g>
				<path fill="#FFFFFF" d="M30.482,77.149h6.285v21.152h-6.285V77.149z"/>
				<path fill="#FFFFFF" d="M43.205,77.149h7.977l4.502,13.809l4.472-13.809h7.796v21.152h-6.044V84.885l-3.868,13.417h-4.653
					l-4.14-13.477v13.477h-6.043V77.149z"/>
				<path fill="#FFFFFF" d="M92.433,85.036c0,4.533-3.324,7.856-7.856,7.856h-3.928v5.409h-6.285V77.149h10.213
					C89.109,77.149,92.433,80.504,92.433,85.036z M86.057,85.036c0-1.722-1.209-2.991-2.78-2.991h-2.629v5.983h2.599
					C84.849,88.028,86.057,86.759,86.057,85.036z"/>
				<g>
					<path fill="#FFFFFF" d="M107.868,95.853h-6.829l-0.665,2.448h-6.527l7.222-21.152h6.799l7.192,21.152h-6.527L107.868,95.853z
						 M106.659,91.291l-2.206-8.219l-2.206,8.219H106.659z"/>
					<path fill="#FFFFFF" d="M117.571,87.725c0-6.557,4.774-11.24,11.724-11.24c6.587,0,10.878,3.232,11.392,8.793h-6.648
						c-0.423-1.934-2.115-3.203-4.714-3.203c-3.264,0-5.198,2.175-5.198,5.65s1.934,5.651,5.198,5.651
						c2.598,0,4.291-1.269,4.714-3.203h6.648c-0.514,5.56-4.805,8.793-11.392,8.793C122.345,98.966,117.571,94.283,117.571,87.725z"
						/>
					<path fill="#FFFFFF" d="M149.696,82.558h-5.439v-5.409h17.194v5.409h-5.439v15.743h-6.315V82.558z"/>
				</g>
			</g>
		</g>
	</g>
</g>
<g>
	<path fill="#404040" d="M242.842,140.651c0,8.127-5.756,13.138-15.169,13.138h-20.248v-47.403h19.503
		c9.413,0,15.236,4.673,15.236,12.325c0,6.162-3.589,9.819-9.074,10.835C238.576,130.087,242.842,134.083,242.842,140.651z
		 M218.396,114.309v11.512h6.095c4.199,0,6.704-2.167,6.704-5.756s-2.438-5.756-6.704-5.756H218.396z M231.804,139.229
		c0-3.521-2.641-5.823-6.568-5.823h-6.84v12.054h6.84C229.299,145.46,231.804,143.157,231.804,139.229z"/>
	<path fill="#404040" d="M281.377,140.313H257.27c0.203,4.266,3.047,6.704,7.652,6.704c3.183,0,5.214-1.017,6.095-3.048h10.158
		c-1.016,6.434-7.584,10.835-16.252,10.835c-11.105,0-17.945-6.434-17.945-17.336c0-10.699,6.975-17.268,17.607-17.268
		c10.158,0,17.065,6.365,17.065,15.575C281.648,137.537,281.58,138.417,281.377,140.313z M271.423,133.879
		c-0.067-4.334-2.505-6.771-6.907-6.771c-4.469,0-7.178,2.776-7.246,6.771H271.423z"/>
	<path fill="#404040" d="M287.353,121.148h10.361v6.84c1.151-4.876,5.012-7.381,9.007-7.381c1.219,0,1.896,0.067,2.709,0.271v9.616
		c-1.219-0.136-1.829-0.203-3.115-0.203c-5.079,0-8.601,3.047-8.601,10.902v12.596h-10.361V121.148z"/>
	<path fill="#404040" d="M313.847,106.385h10.36v47.403h-10.36V106.385z"/>
	<path fill="#404040" d="M330.643,111.939c0-3.521,2.641-6.366,6.365-6.366s6.434,2.845,6.434,6.366
		c0,3.453-2.709,6.298-6.434,6.298S330.643,115.392,330.643,111.939z M331.794,121.148h10.36v32.641h-10.36V121.148z"/>
	<path fill="#404040" d="M349.754,121.148h10.36v4.74c1.896-3.656,5.621-5.62,10.564-5.62c7.923,0,11.918,4.47,11.918,13.341v20.18
		h-10.429v-16.794c0-5.485-1.557-7.991-5.756-7.991c-4.131,0-6.298,2.709-6.298,7.72v17.065h-10.36V121.148z"/>
</g>
</svg>
