<?xml version="1.0" encoding="utf-8"?>
<!-- Generator: Adobe Illustrator 27.0.1, SVG Export Plug-In . SVG Version: 6.00 Build 0)  -->
<svg version="1.1" id="Ebene_1" xmlns="http://www.w3.org/2000/svg" xmlns:xlink="http://www.w3.org/1999/xlink" x="0px" y="0px"
	 viewBox="0 0 216 126" style="enable-background:new 0 0 216 126;" xml:space="preserve">
<style type="text/css">
	.st0{fill:#BE1646;}
	.st1{fill:#FFFFFF;}
</style>
<polygon class="st0" points="144,0 144,0 90,0 90,0 0,0 0,18 0,18 0,108 0,108 0,126 90,126 144,126 216,126 216,108 216,18 216,0 
	"/>
<g>
	<polygon class="st1" points="36,18 18,18 18,90 18,90 18,108 18,108 18,108 36,108 36,108 54,108 54,90 36,90 	"/>
	<polygon class="st1" points="72,18 54,18 54,36 72,36 72,108 90,108 90,18 72,18 	"/>
	<polygon class="st1" points="144,18 144,36 180,36 180,54 144,54 144,72 144,90 144,108 162,108 180,108 198,108 198,90 180,90 
		162,90 162,72 198,72 198,54 198,36 198,18 	"/>
	<rect x="108" y="36" class="st1" width="18" height="54"/>
</g>
</svg>
