<?xml version="1.0" encoding="utf-8"?>
<svg version="1.1" id="Ebene_1" xmlns="http://www.w3.org/2000/svg"
	xmlns:xlink="http://www.w3.org/1999/xlink" x="0px" y="0px"
	width="580.5px" height="322.8px" viewBox="0 0 580.5 322.8"
	style="enable-background:new 0 0 580.5 322.8;" xml:space="preserve"
>
<style type="text/css">
	.st0{fill:#DC5539;}
</style>
<path class="st0" d="M150.4,22.6c4.4,0,8.4,0.4,11.9,1.4c3.5,0.9,6.2,2.8,7.9,5.7c1.8,2.9,2.4,7,2,12.4c-0.5,5.4-2.4,12.6-5.9,21.4
	c-1.9,4.9-4.1,9.2-6.6,13.1c-2.5,3.9-5.1,7.2-7.8,10.1c-2.8,2.9-5.6,5.4-8.6,7.4c-2.9,2-5.8,3.5-8.6,4.6c6.9,1.3,11.2,5.3,12.8,11.8
	c1.6,6.6,0.1,15.9-4.8,28.1c-3.7,9.5-7.6,17.4-11.7,23.7c-4.1,6.3-8.4,11.5-13,15.4c-4.6,3.9-9.4,6.7-14.4,8.4
	c-5.1,1.6-10.5,2.5-16.2,2.4l-55.4-0.2l5.3-13.1c7.4,0,12.4-3.4,15.2-10.4l47.7-118.2c2.7-6.7,0.4-10.1-6.8-10.1l5.5-13.6
	L150.4,22.6z M94.1,108.2l-24.6,61.3l23.3,0.1c3.2,0,6.3-0.8,9.1-2.4c2.8-1.6,5.5-3.8,8-6.6c2.5-2.9,4.8-6.3,7-10.3
	c2.2-4,4.2-8.4,6.2-13.4c4.1-10.3,5.6-17.7,4.4-22.1c-1.1-4.4-4.6-6.6-10.2-6.6H94.1z M120.8,41.8l-20.7,51.5l20,0
	c4.9,0,9.5-2.2,13.7-6.5c4.2-4.3,8.1-11.1,11.8-20.4c3.3-8.4,4.5-14.6,3.6-18.7c-0.9-4-3.8-6-8.5-6L120.8,41.8z M256.7,163.8
	c-2.9,7.6-6.6,13.9-10.9,19c-4.4,5.1-9.5,7.6-15.4,7.6c-6.6,0-10.2-2.8-10.8-8.4c-0.6-5.6,0.6-12.4,3.8-20.6l6.6-17
	c4.9-12.6,7.4-21.9,7.6-27.6c0.2-5.8-2.3-8.6-7.7-8.6l-19,0L188.8,165c-2.7,7,0.6,10.5,9.9,10.5l-5.1,13.2l-44.3-0.2l5.2-13.2
	c7.4,0,12.5-3.4,15.2-10.4l46.8-119.6c2.6-6.8,0.3-10.1-7-10.1l5.1-13l53-0.2c4.1,0,7.9,0.4,11.4,1.4c3.5,0.9,6.2,2.9,8.1,5.8
	c1.9,2.9,2.7,7.1,2.5,12.5c-0.2,5.4-2.1,12.5-5.5,21.4c-2.2,5.8-4.7,10.9-7.4,15.3c-2.7,4.4-5.5,8.2-8.3,11.3
	c-2.8,3.1-5.7,5.7-8.5,7.6c-2.8,1.9-5.6,3.4-8.1,4.3c1.6,1.3,2.9,3.1,3.9,5.3s1.3,4.9,1.2,8.3c-0.1,3.4-0.7,7.5-1.9,12.3
	c-1.2,4.8-3.1,10.5-5.6,17.2l-8,20.9c-1.3,3.3-1.9,5.8-1.7,7.4c0.1,1.6,0.8,2.4,2,2.4c1.3,0,2.6-0.8,3.9-2.4c1.4-1.6,2.7-4.1,4-7.4
	l4.2-10.9l6.7,0L256.7,163.8z M237.2,40.7l-20.4,52.5l20.5,0c5,0,9.6-2.1,13.9-6.2s8.3-11.1,12-20.9c6.6-17,4.7-25.5-5.6-25.5
	L237.2,40.7z M370.6,34.7c-7.5,0-12.5,3.4-15,10.3l-45.3,120.3c-2.6,7-0.2,10.5,7.4,10.5l-5,13.3l-42.1-0.1l5-13.3
	c7.6,0,12.7-3.5,15.4-10.5L336.4,45c2.6-6.8,0.1-10.2-7.4-10.2l5-13.1l41.5-0.2L370.6,34.7z M494.7,34.2c-3.2,0.2-6.4,1.2-9.7,3.2
	s-6.6,4.6-10,7.9L441.3,78l0.3,86.4c0,4.1,0.5,7.1,1.7,9c1.2,1.9,3.3,2.8,6.3,2.8l3.6,0l-4.8,13.4l-50.2-0.2L403,176l9.2,0
	c1.5,0,2.6-0.4,3.6-1.4c0.9-0.9,1.7-2.1,2.2-3.7c0.7-2,1.1-4.2,1.1-6.7l0.9-65.8l-28.4,28.1l-14.3,38.8c-2.6,7-0.1,10.6,7.5,10.6
	l-4.9,13.3l-42.3-0.1l5-13.3c7.6,0,12.6-3.5,15.3-10.5l44.8-120.6c2.5-6.8,0.1-10.2-7.4-10.2l4.9-13.1l41.7-0.2L437,34.4
	c-7.5,0-12.5,3.5-15,10.3l-22.2,60l57.1-56.1c2.2-2.1,3.8-4.5,4.8-7.2c0.8-2.1,1-3.8,0.5-5.1c-0.4-1.3-1.5-2-3.4-2l-5.6,0l4.8-13.1
	l41.4-0.2L494.7,34.2z M0,210.9l463.5,2.1L540,0L84.8,2.4L0,210.9z M43.7,228.3c1.3,0,2.6,0.1,3.9,0.3c1.2,0.2,2.4,0.5,3.5,1
	c1.1,0.5,2.1,1.3,3,2.2c0.9,1,1.7,2.2,2.3,3.8c0.3,0.9,0.5,1.6,0.5,2.3c0,0.7-0.2,1.3-0.4,1.8c-0.3,0.5-0.7,0.9-1.2,1.3
	c-0.5,0.4-1.1,0.6-1.7,0.8c2.3,0.2,4.4,0.9,6.1,2.1c1.7,1.2,3,2.8,3.9,4.9c0.7,1.6,1,3,1,4.1c0,1.1-0.3,2-1,2.7
	c-0.6,0.7-1.5,1.1-2.7,1.4s-2.6,0.4-4.3,0.4l-16.5-0.1l-0.9-2.3c2.2,0,3-0.6,2.6-1.8l-8.6-20.9c-0.5-1.2-1.9-1.8-4-1.8l-1-2.4
	L43.7,228.3z M43.3,243.4l4.4,10.7l7,0.1c1,0,1.7-0.1,2.3-0.4c0.5-0.3,0.9-0.7,1.1-1.2c0.2-0.5,0.2-1.1,0.1-1.8s-0.3-1.5-0.7-2.3
	c-0.7-1.8-1.7-3.1-2.9-3.9c-1.2-0.8-2.6-1.2-4.3-1.2L43.3,243.4z M38.4,231.7l3.8,9.2l6,0c1.5,0,2.4-0.4,2.9-1.1
	c0.4-0.8,0.3-2-0.4-3.6c-0.6-1.5-1.5-2.6-2.5-3.3c-1.1-0.7-2.3-1.1-3.8-1.1L38.4,231.7z M88.2,253.8c0.5,1.1,1.1,1.7,1.8,1.7
	c0.3,0,0.5-0.2,0.6-0.5c0-0.3-0.1-0.8-0.2-1.2l-0.9-2.3l1.8,0l0.7,1.8c0.3,0.9,0.6,1.6,0.6,2.2c0.1,0.6,0,1.1-0.3,1.4
	c-0.2,0.4-0.6,0.6-1,0.8c-0.4,0.1-1,0.2-1.6,0.2c-0.7,0-1.3-0.1-1.8-0.3c-0.6-0.2-1.1-0.5-1.6-0.9s-0.9-0.8-1.3-1.3s-0.7-1-1-1.5
	c0,0.6-0.2,1.1-0.5,1.6c-0.3,0.5-0.7,1-1.2,1.4c-0.5,0.4-1.1,0.7-1.9,0.9c-0.8,0.2-1.6,0.3-2.6,0.3c-2.3,0-4.2-0.5-5.7-1.5
	c-1.5-1-2.6-2.4-3.3-4.1c-0.4-1.1-0.6-1.9-0.5-2.6s0.4-1.3,0.9-1.7c0.5-0.5,1.1-0.8,1.9-1.1c0.8-0.3,1.7-0.5,2.6-0.7
	c0.9-0.2,1.9-0.4,2.9-0.6c1-0.2,2-0.5,3-0.8l-0.5-1.2c-0.3-0.7-0.6-1.3-1-1.9s-0.9-1.1-1.4-1.5c-0.5-0.4-1.1-0.8-1.8-1
	S73.7,239,73,239c-1.3,0-2.3,0.1-3,0.4s-1.3,0.6-1.6,1.1c0.6,0.1,1.2,0.3,1.7,0.6c0.5,0.3,0.9,0.8,1.2,1.5c0.3,0.7,0.3,1.3,0.1,1.8
	c-0.3,0.5-0.8,0.7-1.7,0.7c-0.9,0-1.6-0.2-2.2-0.7c-0.6-0.5-1.1-1.2-1.5-2c-0.3-0.7-0.3-1.3-0.2-2c0.1-0.7,0.5-1.2,1-1.7
	s1.3-0.9,2.3-1.2c1-0.3,2.2-0.5,3.6-0.4c1.1,0,2.3,0.1,3.5,0.4c1.2,0.2,2.3,0.6,3.3,1.2c1,0.5,2,1.3,2.9,2.2
	c0.9,0.9,1.6,2.1,2.2,3.5L88.2,253.8z M80.4,246.6c-1.4,0.4-2.6,0.8-3.7,1.1c-1,0.4-1.8,0.7-2.4,1.1c-0.6,0.4-1,0.9-1.1,1.4
	c-0.2,0.5-0.1,1.2,0.2,2c0.4,0.9,1,1.7,1.8,2.2c0.8,0.5,1.9,0.8,3.2,0.8c1.3,0,2.3-0.3,3-0.9c0.7-0.6,1.1-1.4,1.3-2.2L80.4,246.6z
	 M98,241.5c0.1-1.5,0.6-2.6,1.3-3.2c0.8-0.7,1.7-1,2.9-1c0.6,0,1.2,0.1,1.8,0.3c0.7,0.2,1.3,0.5,1.9,0.9c0.6,0.4,1.2,0.9,1.8,1.5
	c0.6,0.6,1,1.4,1.3,2.2c0.4,1,0.5,1.8,0.2,2.5s-0.8,1-1.7,1c-0.9,0-1.6-0.2-2.3-0.7s-1.1-1.1-1.4-1.8c-0.3-0.7-0.3-1.2-0.1-1.7
	c0.2-0.4,0.8-0.7,1.6-0.7c-0.4-0.4-0.8-0.7-1.3-0.9c-0.5-0.2-1.1-0.3-1.6-0.3c-0.4,0-0.9,0.1-1.3,0.3c-0.4,0.2-0.8,0.6-1.1,1.1
	c-0.3,0.5-0.5,1.1-0.7,1.8c-0.1,0.8-0.2,1.6-0.1,2.6l3.4,8.4c0.2,0.6,0.7,1,1.5,1.3c0.7,0.3,1.7,0.4,2.9,0.4l0.9,2.2l-12-0.1
	l-0.9-2.2c2.1,0,3-0.6,2.5-1.8l-4.9-12c-0.5-1.2-1.8-1.8-3.9-1.8l-0.9-2.2l8.3,0L98,241.5z M138.5,254c0.5,1.2,1.7,1.8,3.7,1.8
	l0.9,2.2l-8-0.1l-1.6-4c-0.1,0.6-0.3,1.1-0.6,1.7c-0.3,0.5-0.6,1-1.1,1.4s-1.1,0.7-1.7,0.9c-0.7,0.2-1.5,0.3-2.5,0.3
	c-2,0-3.6-0.5-4.9-1.4c-1.3-0.9-2.4-2.4-3.2-4.5l-4.3-10.6c-0.5-1.2-1.8-1.8-4-1.8l-0.9-2.2l8.2,0l5.2,12.9c0.7,1.6,1.4,2.8,2.1,3.5
	c0.7,0.7,1.6,1.1,2.5,1.1c1.2,0,2.1-0.5,2.7-1.4c0.6-1,0.9-2.2,0.9-3.7l-3.3-8.2c-0.2-0.6-0.7-1.1-1.3-1.4c-0.7-0.3-1.5-0.5-2.7-0.5
	l-0.9-2.2l8.3,0.1L138.5,254z M146.3,238l5,0l0.9,2.8c-0.8-0.2-1.6-0.3-2.4-0.3c-0.8-0.1-1.7-0.1-2.6-0.1l5.5,13.8
	c0.5,1.2,1.3,1.8,2.4,1.8c0.6,0,0.9-0.2,1-0.5c0.1-0.3,0-0.8-0.2-1.3l-0.9-2.3l1.8,0l0.7,1.7c0.3,0.7,0.5,1.4,0.6,1.9
	c0.1,0.6,0,1.1-0.2,1.5s-0.6,0.7-1.1,1c-0.5,0.2-1.2,0.4-2.1,0.3c-1.9,0-3.5-0.5-4.7-1.4c-1.2-0.9-2.1-2.2-2.8-3.9l-5.1-12.7l-3.3,0
	l-0.8-1.9c0.7-0.1,1.3-0.1,1.8-0.3c0.6-0.1,1-0.4,1.3-0.8s0.4-0.9,0.4-1.7c0-0.7-0.3-1.6-0.7-2.8l-0.4-0.9l3.2-0.3L146.3,238z
	 M164.1,242.2c0.4-1.3,1.2-2.3,2.2-3.2c1-0.8,2.5-1.2,4.3-1.2c1.9,0,3.5,0.5,4.8,1.4c1.3,0.9,2.4,2.4,3.3,4.5l4.2,10.6
	c0.5,1.2,1.8,1.8,4,1.8l0.9,2.2l-10.9-0.1L176,256c1.7,0,2.3-0.6,1.8-1.8l-3.5-8.8c-0.7-1.7-1.4-2.9-2.1-3.6
	c-0.7-0.7-1.5-1.1-2.3-1.1c-0.6,0-1.2,0.1-1.7,0.4c-0.5,0.3-0.9,0.6-1.3,1.1c-0.4,0.5-0.7,1-0.9,1.7s-0.3,1.3-0.3,2.1l3.3,8.2
	c0.5,1.2,1.5,1.8,3.2,1.8l0.9,2.2l-10.9-0.1l-0.9-2.2c2.1,0,3-0.6,2.5-1.8l-8.9-22.4c-0.5-1.2-1.8-1.8-3.9-1.8l-0.9-2.3l8.3,0
	L164.1,242.2z M191.8,248c1.1,2.7,2.4,4.8,3.9,6.3c1.5,1.5,3.1,2.2,5,2.2c1.4,0,2.6-0.3,3.4-1.1c0.8-0.7,1.1-1.9,0.9-3.6l2.5,0.5
	c0.1,0.9,0.1,1.7,0,2.5c-0.1,0.8-0.4,1.5-0.9,2.2c-0.4,0.6-1.1,1.1-1.9,1.5s-1.9,0.6-3.2,0.6c-1.3,0-2.6-0.2-4-0.5s-2.7-0.9-4-1.7
	c-1.3-0.8-2.5-1.9-3.6-3.3s-2.1-3.1-3-5.2c-0.6-1.6-1-3.1-1.1-4.4c-0.1-1.3,0.1-2.5,0.7-3.4c0.5-0.9,1.3-1.7,2.3-2.2
	c1.1-0.5,2.4-0.8,4-0.8c6.3,0,10.9,3.6,13.7,10.6L191.8,248z M201,246c-0.3-0.9-0.8-1.7-1.3-2.4s-1.1-1.4-1.7-2
	c-0.6-0.6-1.3-1-2-1.4c-0.7-0.3-1.5-0.5-2.2-0.5c-1.4,0-2.3,0.5-2.9,1.4c-0.6,1-0.5,2.6,0.2,4.8L201,246z M215.5,242.2
	c0.1-1.5,0.6-2.6,1.4-3.2c0.8-0.7,1.8-1,3-1c0.6,0,1.2,0.1,1.8,0.3c0.7,0.2,1.3,0.5,1.9,0.9c0.6,0.4,1.2,0.9,1.8,1.5s1,1.4,1.3,2.2
	c0.4,1,0.5,1.8,0.2,2.5c-0.3,0.6-0.8,1-1.7,1c-0.9,0-1.6-0.2-2.3-0.7c-0.6-0.5-1.1-1.1-1.4-1.8c-0.3-0.7-0.3-1.2,0-1.7
	c0.2-0.4,0.8-0.7,1.6-0.7c-0.4-0.4-0.8-0.7-1.3-0.9c-0.5-0.2-1.1-0.3-1.6-0.3c-0.4,0-0.9,0.1-1.3,0.4c-0.4,0.2-0.8,0.6-1.1,1.1
	s-0.5,1.1-0.7,1.8s-0.2,1.6-0.1,2.7l3.3,8.5c0.2,0.6,0.7,1.1,1.5,1.3s1.7,0.4,2.9,0.4l0.9,2.2l-12.1-0.1l-0.9-2.2
	c2.2,0,3-0.6,2.5-1.8l-4.8-12.1c-0.5-1.2-1.8-1.8-3.9-1.8l-0.9-2.3l8.4,0.1L215.5,242.2z M276.5,254.6c0.5,1.3,0.6,2.4,0.2,3.3
	c-0.4,0.9-1.5,1.3-3.2,1.3c-2,0-3.6-0.5-4.8-1.5c-1.2-1-2.1-2.2-2.6-3.6l-1.1-3c-0.9-2.2-1.8-3.8-2.8-4.9c-1-1-2.3-1.5-3.9-1.6
	l-5.8,0l3.9,10c0.5,1.2,2.1,1.8,4.9,1.8l0.9,2.3l-13.3-0.1l-0.9-2.3c2.2,0,3.1-0.6,2.6-1.8l-8.3-21.2c-0.5-1.2-1.8-1.8-4.1-1.9
	l-0.9-2.3l16.2,0.1c1.2,0,2.5,0.1,3.7,0.3c1.3,0.2,2.5,0.5,3.6,1.1c1.1,0.5,2.2,1.3,3.1,2.3s1.7,2.2,2.3,3.8c0.4,1,0.6,1.9,0.6,2.7
	s-0.1,1.4-0.4,2s-0.7,1-1.2,1.3s-1.1,0.6-1.7,0.7c0.8,0.2,1.5,0.6,2.1,0.9c0.7,0.4,1.3,0.9,1.9,1.5c0.6,0.6,1.1,1.3,1.7,2.2
	c0.5,0.9,1,1.9,1.4,3l1.4,3.6c0.2,0.6,0.5,1,0.8,1.3c0.3,0.3,0.7,0.4,1,0.4c0.4,0,0.6-0.1,0.8-0.4c0.1-0.3,0.1-0.7-0.2-1.3l-0.7-1.9
	l2,0L276.5,254.6z M247.7,232.7l3.6,9.4l6.2,0c1.5,0,2.5-0.3,3.1-1.1c0.5-0.7,0.5-2-0.2-3.7c-1.2-3-3.3-4.6-6.5-4.6L247.7,232.7z
	 M298.4,255.2c0.5,1.2,1,1.8,1.8,1.8c0.4,0,0.5-0.2,0.6-0.5c0-0.4,0-0.8-0.2-1.2l-0.9-2.3l1.8,0l0.7,1.8c0.3,0.9,0.5,1.6,0.5,2.2
	c0,0.6-0.1,1.1-0.3,1.5s-0.6,0.6-1,0.8c-0.5,0.2-1,0.2-1.6,0.2c-0.7,0-1.3-0.1-1.9-0.4c-0.6-0.2-1.1-0.5-1.6-0.9
	c-0.5-0.4-0.9-0.8-1.2-1.3c-0.4-0.5-0.7-1-1-1.5c0,0.6-0.2,1.1-0.5,1.7c-0.3,0.5-0.7,1-1.2,1.4s-1.2,0.7-1.9,1
	c-0.8,0.2-1.6,0.3-2.6,0.3c-2.4,0-4.3-0.5-5.8-1.6c-1.5-1-2.6-2.4-3.2-4.2c-0.4-1.1-0.5-1.9-0.4-2.6s0.4-1.3,1-1.8s1.2-0.8,2-1.1
	c0.8-0.3,1.7-0.5,2.7-0.7c1-0.2,2-0.4,3-0.6c1-0.2,2.1-0.5,3-0.8l-0.5-1.2c-0.3-0.7-0.6-1.3-1-1.9s-0.9-1.1-1.4-1.5
	c-0.5-0.4-1.1-0.8-1.8-1c-0.6-0.3-1.4-0.4-2.1-0.4c-1.3,0-2.3,0.1-3.1,0.4s-1.3,0.6-1.7,1.1c0.6,0.1,1.2,0.3,1.7,0.6
	c0.5,0.3,0.9,0.8,1.2,1.5c0.3,0.7,0.3,1.3,0,1.8c-0.3,0.5-0.9,0.7-1.7,0.7c-0.9,0-1.6-0.2-2.3-0.8c-0.6-0.5-1.1-1.2-1.5-2.1
	c-0.3-0.7-0.3-1.3-0.2-2c0.1-0.7,0.5-1.2,1.1-1.8c0.6-0.5,1.3-0.9,2.3-1.2c1-0.3,2.2-0.5,3.7-0.5c1.2,0,2.3,0.1,3.5,0.4
	c1.2,0.2,2.3,0.6,3.3,1.2c1,0.6,2,1.3,2.9,2.2c0.9,0.9,1.6,2.1,2.1,3.6L298.4,255.2z M290.6,247.9c-1.5,0.4-2.7,0.8-3.8,1.2
	c-1,0.3-1.9,0.7-2.5,1.1c-0.6,0.4-1,0.9-1.2,1.4s-0.1,1.2,0.2,2c0.4,0.9,1,1.7,1.8,2.2c0.8,0.5,1.9,0.8,3.2,0.8c1.3,0,2.3-0.3,3.1-1
	c0.8-0.6,1.2-1.4,1.4-2.2L290.6,247.9z M327.1,255.2c0.5,1.2,1.7,1.8,3.7,1.8l0.9,2.3l-8.2,0l-1.5-4.1c-0.1,0.6-0.3,1.1-0.6,1.7
	s-0.7,1-1.2,1.4c-0.5,0.4-1.1,0.7-1.8,1c-0.7,0.2-1.5,0.4-2.5,0.3c-2,0-3.7-0.5-5-1.4c-1.3-0.9-2.4-2.4-3.2-4.5l-4.1-10.7
	c-0.5-1.2-1.8-1.8-4-1.8l-0.9-2.3l8.4,0.1l5,13c0.6,1.7,1.3,2.8,2,3.6c0.7,0.7,1.6,1.1,2.5,1.1c1.2,0,2.2-0.5,2.8-1.4
	c0.7-1,1-2.2,1-3.8l-3.1-8.2c-0.2-0.6-0.7-1.1-1.3-1.4s-1.5-0.5-2.7-0.5l-0.9-2.3l8.5,0.1L327.1,255.2z M368.2,255.5
	c0.5,1.2,1.8,1.8,3.9,1.8l0.9,2.3l-11-0.1l-0.9-2.3c1.7,0,2.3-0.6,1.8-1.8l-3.3-8.8c-0.6-1.7-1.3-2.9-1.9-3.6s-1.3-1.1-2.1-1.1
	c-1.1,0-2.1,0.4-2.7,1.4c-0.7,0.9-1.1,2.2-1.1,3.9l3.1,8.2c0.5,1.2,1.5,1.8,3.1,1.8l0.9,2.3l-10.1-0.1l-0.9-2.3
	c1.7,0,2.3-0.6,1.8-1.8l-3.4-8.8c-0.6-1.7-1.3-2.9-1.9-3.6s-1.4-1.1-2.2-1.1c-1.1,0-2.1,0.4-2.8,1.4c-0.7,0.9-1.1,2.2-1.1,3.9
	l3.1,8.2c0.5,1.2,1.5,1.8,3.2,1.8l0.9,2.3l-10.9-0.1l-0.9-2.3c2.1,0,3-0.6,2.5-1.8l-4.6-12.1c-0.5-1.2-1.8-1.8-3.9-1.8l-0.9-2.3
	l8.4,0.1l1.6,4.2c0.2-0.6,0.4-1.2,0.7-1.7c0.3-0.5,0.7-1,1.2-1.5c0.5-0.4,1.1-0.8,1.8-1c0.7-0.2,1.5-0.4,2.5-0.4
	c1.5,0,2.8,0.4,4,1.2c1.2,0.8,2.3,1.9,3.1,3.5c0.4-1.3,1-2.4,2-3.3c1-0.9,2.4-1.3,4.1-1.3c1.7,0,3.2,0.5,4.5,1.4
	c1.3,0.9,2.4,2.5,3.2,4.6L368.2,255.5z M397.1,242.3c-1.7-0.2-3-0.3-4-0.4c-1-0.1-1.7-0.1-2.1-0.1l5.2,13.8c0.5,1.2,2.4,1.8,5.8,1.8
	l0.9,2.3l-13.6-0.1l-0.9-2.3c2.2,0,3.1-0.6,2.6-1.8l-5.2-13.8l-3.3,0l-0.7-1.9c0.4-0.1,0.8-0.2,1.3-0.3c0.5-0.1,1.1-0.2,1.7-0.2
	l-1.5-4.1c-0.5-1.2-0.7-2.2-0.6-3.1c0-0.9,0.2-1.6,0.7-2.1c0.4-0.5,1.1-0.9,1.9-1.2c0.8-0.2,1.8-0.3,2.9-0.3c1,0,2,0.1,2.9,0.3
	c0.9,0.2,1.8,0.5,2.5,0.9c0.8,0.4,1.4,0.9,2,1.5c0.6,0.6,1,1.3,1.3,2.2c0.3,0.8,0.3,1.5,0.1,2.1c-0.2,0.6-0.8,0.9-1.8,0.9
	c-0.9,0-1.6-0.2-2.2-0.7c-0.6-0.5-1-1-1.2-1.6c-0.2-0.7-0.2-1.2,0-1.6c0.3-0.4,0.7-0.6,1.3-0.7c-0.8-0.8-2.1-1.1-3.6-1.1
	c-0.8,0-1.4,0.2-1.7,0.8c-0.3,0.5-0.3,1.3,0.1,2.4l2.1,5.6l6.1,0L397.1,242.3z M428.4,255.9c0.4,1.2,1.7,1.8,3.7,1.8l0.8,2.3l-8.3,0
	l-1.5-4.1c-0.1,0.6-0.4,1.1-0.7,1.7c-0.3,0.5-0.7,1-1.2,1.4c-0.5,0.4-1.1,0.7-1.8,1c-0.7,0.2-1.6,0.4-2.5,0.3c-2,0-3.7-0.5-5-1.4
	c-1.3-0.9-2.4-2.5-3.1-4.6l-4-10.7c-0.5-1.2-1.8-1.8-4-1.8l-0.9-2.3l8.5,0.1l4.9,13c0.6,1.7,1.3,2.9,2,3.6c0.7,0.7,1.6,1.1,2.6,1.1
	c1.2,0,2.2-0.5,2.9-1.4c0.7-1,1-2.2,1-3.8l-3.1-8.3c-0.2-0.6-0.7-1.1-1.3-1.4c-0.6-0.3-1.6-0.5-2.7-0.5l-0.9-2.3l8.6,0L428.4,255.9z
	 M417,233.9c0.3,0.8,0.3,1.4,0,1.9c-0.3,0.5-0.8,0.8-1.5,0.8s-1.4-0.3-2.1-0.8s-1.2-1.2-1.4-1.9s-0.3-1.4,0-1.9
	c0.3-0.5,0.8-0.8,1.5-0.8c0.7,0,1.4,0.3,2.1,0.8C416.2,232.5,416.7,233.1,417,233.9L417,233.9z M408.3,233.8c0.3,0.8,0.3,1.4,0,1.9
	c-0.3,0.5-0.8,0.8-1.5,0.8s-1.4-0.3-2.1-0.8c-0.7-0.5-1.2-1.2-1.4-1.9s-0.3-1.4,0-1.9c0.3-0.5,0.8-0.8,1.5-0.8
	c0.7,0,1.4,0.3,2.1,0.8C407.5,232.4,408,233.1,408.3,233.8L408.3,233.8z M438.4,243.5c0.2-1.5,0.7-2.6,1.5-3.3c0.8-0.7,1.8-1,3.1-1
	c0.6,0,1.2,0.1,1.9,0.3c0.7,0.2,1.3,0.5,2,0.9c0.6,0.4,1.2,0.9,1.8,1.6s1,1.4,1.3,2.2c0.4,1,0.4,1.8,0.1,2.5c-0.3,0.6-0.9,1-1.8,1
	c-0.9,0-1.7-0.3-2.3-0.8c-0.6-0.5-1.1-1.1-1.4-1.8c-0.2-0.7-0.2-1.2,0-1.7c0.3-0.4,0.8-0.7,1.7-0.7c-0.4-0.4-0.8-0.7-1.3-0.9
	s-1.1-0.3-1.6-0.3c-0.5,0-0.9,0.1-1.4,0.4c-0.4,0.2-0.8,0.6-1.1,1.1c-0.3,0.5-0.6,1.1-0.8,1.9c-0.2,0.8-0.2,1.6-0.2,2.7l3.2,8.6
	c0.2,0.6,0.7,1.1,1.5,1.4c0.8,0.3,1.7,0.4,3,0.5l0.8,2.3l-12.4-0.1l-0.8-2.3c2.2,0,3.1-0.6,2.6-1.8l-4.5-12.2
	c-0.4-1.2-1.8-1.8-4-1.8l-0.9-2.3l8.6,0.1L438.4,243.5z M58.7,272c-2.2,0-3,0.6-2.6,1.8l8.6,20.8c0.5,1.2,1.8,1.8,4,1.8l0.9,2.2
	l-12.3-0.1l-0.9-2.2c2.2,0,3.1-0.6,2.6-1.8l-8.6-20.8c-0.5-1.2-1.8-1.8-4.1-1.8l-1-2.3l12.3,0.1L58.7,272z M93.7,294.8
	c0.5,1.2,1.8,1.8,4,1.8l0.9,2.2l-10.8-0.1l-0.9-2.2c1.7,0,2.2-0.6,1.8-1.7l-3.5-8.6c-0.7-1.6-1.4-2.8-2.2-3.5
	c-0.8-0.7-1.6-1.1-2.4-1.1c-0.6,0-1.2,0.1-1.8,0.4c-0.5,0.3-1,0.6-1.3,1.1c-0.4,0.5-0.7,1-0.9,1.6s-0.3,1.3-0.3,2l3.3,8
	c0.5,1.2,1.5,1.8,3.2,1.8l0.9,2.2l-10.7-0.1l-0.9-2.2c2.1,0,2.9-0.6,2.5-1.7l-4.9-11.9c-0.5-1.2-1.8-1.8-3.9-1.8l-0.9-2.2l8.3,0.1
	l1.6,4c0.4-1.3,1.2-2.3,2.2-3.1s2.5-1.2,4.3-1.2c1.8,0,3.5,0.5,4.9,1.4c1.4,0.9,2.5,2.4,3.4,4.5L93.7,294.8z M122.3,295.1
	c0.5,1.2,1.8,1.8,4,1.8l0.9,2.2l-10.8-0.1l-0.9-2.2c1.7,0,2.2-0.6,1.8-1.7l-3.5-8.6c-0.7-1.6-1.4-2.8-2.2-3.5
	c-0.8-0.7-1.6-1.1-2.4-1.1c-0.6,0-1.2,0.1-1.8,0.4c-0.5,0.3-1,0.6-1.4,1.1s-0.7,1-0.9,1.6c-0.2,0.6-0.3,1.3-0.3,2l3.3,8
	c0.5,1.2,1.5,1.8,3.2,1.8l0.9,2.2l-10.8-0.1l-0.9-2.2c2.1,0,2.9-0.6,2.5-1.7l-4.8-11.9c-0.5-1.2-1.8-1.8-3.9-1.8l-0.9-2.2l8.3,0.1
	l1.6,4c0.4-1.3,1.2-2.3,2.2-3.1s2.5-1.2,4.3-1.2c1.9,0,3.5,0.5,4.9,1.4c1.4,0.9,2.5,2.4,3.3,4.5L122.3,295.1z M146.6,289.3
	c1.4,3.4,1.5,6,0.5,7.9c-1,1.8-3.3,2.8-6.6,2.7c-1.3,0-2.7-0.2-4-0.5c-1.4-0.3-2.6-0.9-3.9-1.7c-1.2-0.8-2.4-1.9-3.4-3.2
	c-1.1-1.3-2-2.9-2.8-4.9c-1.4-3.6-1.7-6.3-0.8-8.2c0.9-1.9,3.2-2.8,6.7-2.8c1.4,0,2.7,0.2,4.1,0.6c1.4,0.4,2.7,1,3.9,1.8
	c1.2,0.8,2.4,1.9,3.5,3.3C144.9,285.6,145.8,287.2,146.6,289.3L146.6,289.3z M133.3,281.1c-1.9,0-3,0.6-3.3,1.9
	c-0.3,1.3,0,3.1,0.9,5.4c0.7,1.8,1.4,3.2,2.1,4.4c0.7,1.1,1.4,2,2.1,2.7c0.7,0.7,1.4,1.1,2.1,1.4c0.7,0.3,1.5,0.4,2.3,0.4
	c2,0,3.1-0.7,3.3-2c0.2-1.4-0.2-3.3-1.2-5.8c-0.7-1.6-1.3-3-2-4.1c-0.7-1.1-1.3-1.9-2.1-2.5c-0.7-0.6-1.4-1.1-2.1-1.3
	C134.8,281.3,134,281.1,133.3,281.1L133.3,281.1z M168.6,281.8c-0.7,0-1.3,0.1-1.7,0.3s-0.6,0.5-0.6,1l0.1,16.3l-4.8,0l-13-16.3
	c-0.7-0.9-1.8-1.4-3.2-1.4l-0.9-2.2l10.8,0.1l0.9,2.2l-2,0c-0.7,0-1,0.2-0.8,0.7c0.1,0.2,0.2,0.4,0.4,0.6l10.2,13l0-12.6
	c0-0.2,0-0.4-0.1-0.6c-0.3-0.7-1-1.1-2-1.1l-1.4,0l-0.9-2.2l8.2,0.1L168.6,281.8z M194,295.8c0.5,1.1,1.1,1.7,1.8,1.7
	c0.4,0,0.5-0.2,0.6-0.5c0-0.4,0-0.8-0.2-1.2l-0.9-2.3l1.8,0l0.7,1.8c0.3,0.9,0.5,1.6,0.6,2.2c0,0.6-0.1,1.1-0.3,1.4s-0.6,0.6-1,0.8
	c-0.4,0.2-1,0.2-1.6,0.2c-0.7,0-1.3-0.1-1.9-0.3c-0.6-0.2-1.1-0.5-1.6-0.9s-0.9-0.8-1.2-1.3c-0.4-0.5-0.7-1-1-1.5
	c-0.1,0.6-0.2,1.1-0.5,1.6s-0.7,1-1.2,1.4c-0.5,0.4-1.1,0.7-1.9,0.9c-0.8,0.2-1.6,0.3-2.6,0.3c-2.3,0-4.2-0.5-5.7-1.5
	c-1.5-1-2.6-2.4-3.3-4.1c-0.4-1-0.6-1.9-0.5-2.6c0.1-0.7,0.4-1.3,0.9-1.7c0.5-0.5,1.1-0.8,1.9-1.1c0.8-0.3,1.7-0.5,2.6-0.7
	c0.9-0.2,1.9-0.4,3-0.6c1-0.2,2-0.4,3-0.8l-0.5-1.2c-0.3-0.6-0.6-1.3-1-1.8c-0.4-0.6-0.9-1.1-1.4-1.5c-0.5-0.4-1.1-0.8-1.8-1
	c-0.6-0.2-1.4-0.4-2.1-0.4c-1.3,0-2.3,0.1-3,0.4c-0.8,0.2-1.3,0.6-1.6,1c0.6,0.1,1.2,0.3,1.7,0.6s0.9,0.8,1.2,1.4
	c0.3,0.7,0.3,1.3,0,1.8c-0.3,0.5-0.8,0.7-1.7,0.7c-0.9,0-1.6-0.2-2.2-0.7c-0.6-0.5-1.1-1.2-1.5-2c-0.3-0.6-0.3-1.3-0.2-1.9
	c0.1-0.7,0.5-1.2,1-1.7c0.5-0.5,1.3-0.9,2.3-1.2c1-0.3,2.2-0.5,3.6-0.4c1.1,0,2.3,0.1,3.5,0.4c1.2,0.2,2.3,0.6,3.3,1.2
	c1,0.5,2,1.3,2.8,2.2c0.9,0.9,1.6,2.1,2.1,3.5L194,295.8z M186.3,288.6c-1.4,0.4-2.7,0.8-3.7,1.1c-1,0.3-1.9,0.7-2.5,1.1
	s-1,0.9-1.2,1.4c-0.2,0.5-0.1,1.2,0.2,2c0.4,0.9,1,1.7,1.8,2.2s1.9,0.8,3.1,0.8c1.3,0,2.3-0.3,3-0.9s1.2-1.4,1.3-2.2L186.3,288.6z
	 M201.3,279.9l5,0l0.9,2.8c-0.8-0.2-1.6-0.3-2.4-0.4s-1.7-0.1-2.6-0.1l5.4,13.7c0.5,1.2,1.2,1.8,2.4,1.8c0.6,0,0.9-0.1,1-0.5
	c0.1-0.3,0-0.8-0.2-1.3l-0.9-2.3l1.8,0l0.7,1.7c0.3,0.7,0.5,1.3,0.6,1.9c0.1,0.6,0,1.1-0.2,1.5s-0.6,0.7-1.1,0.9
	c-0.5,0.2-1.2,0.3-2.1,0.3c-1.9,0-3.5-0.5-4.7-1.4c-1.2-0.9-2.1-2.2-2.8-3.8l-5-12.6l-3.3,0l-0.8-1.9c0.7,0,1.3-0.1,1.8-0.3
	s1-0.4,1.3-0.8c0.3-0.4,0.4-0.9,0.4-1.6c0-0.7-0.2-1.6-0.7-2.8l-0.3-0.9l3.2-0.2L201.3,279.9z M223.8,295.9c0.4,1.2,1.7,1.8,4,1.8
	l0.9,2.2l-11.6-0.1l-0.9-2.2c2.1,0,3-0.6,2.5-1.7l-4.7-11.9c-0.5-1.2-1.8-1.8-3.9-1.8l-0.9-2.2l8.4,0.1L223.8,295.9z M215.3,273.4
	c0.4,0.9,0.4,1.7,0,2.4c-0.4,0.7-1,1-1.9,1c-0.4,0-0.9-0.1-1.4-0.3c-0.5-0.2-0.9-0.4-1.3-0.7s-0.8-0.7-1.1-1.1
	c-0.3-0.4-0.6-0.9-0.8-1.3c-0.4-0.9-0.4-1.7,0-2.4c0.4-0.6,1-0.9,1.9-0.9c0.9,0,1.8,0.3,2.6,1C214.4,271.7,215,272.5,215.3,273.4
	L215.3,273.4z M248.4,290.1c1.3,3.4,1.5,6.1,0.4,7.9c-1.1,1.9-3.3,2.8-6.8,2.7c-1.4,0-2.7-0.2-4.1-0.5c-1.4-0.3-2.6-0.9-3.9-1.7
	c-1.2-0.8-2.4-1.9-3.4-3.2c-1.1-1.3-2-3-2.8-4.9c-1.4-3.6-1.6-6.3-0.7-8.2s3.2-2.9,6.8-2.8c1.4,0,2.8,0.2,4.1,0.6
	c1.4,0.4,2.7,1,3.9,1.8c1.2,0.8,2.4,1.9,3.5,3.3C246.6,286.3,247.6,288,248.4,290.1z M235,281.9c-1.9,0-3,0.6-3.4,1.9
	c-0.4,1.3-0.1,3.1,0.9,5.5c0.7,1.8,1.4,3.2,2.1,4.4c0.7,1.1,1.4,2.1,2.1,2.7c0.7,0.7,1.4,1.1,2.1,1.4c0.7,0.3,1.5,0.4,2.3,0.4
	c2,0,3.1-0.7,3.4-2s-0.1-3.3-1.1-5.9c-0.6-1.6-1.3-3-2-4.1c-0.7-1.1-1.3-1.9-2-2.6c-0.7-0.6-1.4-1.1-2.1-1.3
	C236.5,282,235.8,281.9,235,281.9L235,281.9z M276.4,296.4c0.5,1.2,1.8,1.8,4,1.8l0.9,2.2l-11-0.1l-0.9-2.2c1.7,0,2.3-0.6,1.8-1.7
	l-3.4-8.7c-0.6-1.6-1.4-2.8-2.1-3.5s-1.6-1.1-2.4-1.1c-0.6,0-1.2,0.1-1.8,0.4c-0.5,0.3-1,0.6-1.4,1.1c-0.4,0.5-0.7,1-0.9,1.7
	c-0.2,0.6-0.4,1.3-0.4,2.1l3.2,8.1c0.5,1.2,1.5,1.8,3.2,1.8l0.9,2.2l-10.9-0.1l-0.9-2.2c2.2,0,3-0.6,2.5-1.7l-4.7-12
	c-0.5-1.2-1.8-1.8-3.9-1.8l-0.9-2.2l8.4,0.1l1.6,4c0.4-1.3,1.2-2.3,2.3-3.1c1.1-0.8,2.6-1.2,4.4-1.2c1.9,0,3.5,0.5,4.9,1.4
	s2.5,2.4,3.3,4.5L276.4,296.4z M295.9,287.8l-2.1,0.3c-1-1.8-2.2-3.2-3.8-4.1c-1.5-0.9-3.2-1.4-5-1.4c-1.1,0-1.8,0.2-2.3,0.6
	c-0.5,0.4-0.6,1-0.3,1.7c0.3,0.8,0.9,1.5,1.7,1.9c0.8,0.4,1.8,0.8,2.9,1c1.1,0.3,2.3,0.5,3.5,0.8c1.2,0.2,2.5,0.6,3.6,1
	c1.2,0.4,2.2,1.1,3.2,1.9c1,0.8,1.7,1.9,2.3,3.3c0.4,1,0.5,1.9,0.5,2.6c-0.1,0.8-0.3,1.4-0.8,1.9c-0.4,0.5-1.1,0.9-1.8,1.1
	c-0.8,0.2-1.7,0.4-2.8,0.4c-1.5,0-2.8-0.1-3.9-0.4c-1.1-0.3-2.1-0.7-2.9-1.2c-0.2-0.1-0.4-0.2-0.7-0.3c-0.2-0.1-0.4-0.2-0.6-0.2
	c0,0-0.1,0.1-0.2,0.5c-0.1,0.3-0.1,0.7,0,1.3l-2.2,0l-2.9-7.5l2.1-0.2c0.5,0.9,1.1,1.7,1.8,2.4c0.7,0.7,1.5,1.3,2.4,1.8
	s1.8,0.9,2.8,1.1c1,0.3,1.9,0.4,2.8,0.4c1.2,0,2-0.2,2.4-0.7c0.4-0.5,0.5-1.1,0.2-1.9c-0.3-0.8-0.9-1.4-1.7-1.8
	c-0.8-0.4-1.8-0.8-2.9-1s-2.3-0.5-3.5-0.8c-1.2-0.2-2.5-0.6-3.6-1.1s-2.2-1.1-3.2-1.9c-1-0.8-1.8-1.9-2.3-3.4
	c-0.7-1.8-0.6-3.2,0.2-4.2c0.8-1,2.3-1.5,4.5-1.5c1.2,0,2.3,0.2,3.4,0.5c1.1,0.4,2,0.7,2.8,1.1c0.2,0.1,0.5,0.2,0.7,0.3
	c0.2,0.1,0.4,0.1,0.6,0.1c0.1,0,0.2-0.1,0.2-0.4s0.1-0.7,0-1.2l2.1,0L295.9,287.8z M323.2,283c-0.9,0.1-1.8,0.2-2.5,0.5
	c-0.8,0.2-1.4,0.6-1.8,1.1l-2.9,3l10.4,9.6c0.5,0.5,1,0.8,1.6,1c0.6,0.2,1.3,0.3,2.1,0.4l0.9,2.2l-12.1-0.1l-0.9-2.2l2.3,0
	c0.6,0,0.9-0.2,0.7-0.6c-0.1-0.2-0.3-0.4-0.6-0.7l-7.2-6.7l-2.8,2.7l1.3,3.5c0.5,1.2,1.8,1.8,3.9,1.8l0.9,2.2l-11.6-0.1l-0.9-2.2
	c2.2,0,3-0.6,2.6-1.7l-8.6-22.3c-0.5-1.2-1.8-1.8-3.9-1.8l-0.9-2.2l8.4,0.1l7.8,20.3l5.7-6c0.2-0.2,0.3-0.5,0.1-0.9
	c-0.1-0.2-0.2-0.4-0.4-0.6s-0.5-0.2-0.9-0.2l-1.8,0l-0.9-2.2l11.2,0.1L323.2,283z M354.4,297c0.5,1.2,1.7,1.8,3.7,1.8l0.9,2.2
	l-8.2-0.1l-1.5-4c-0.1,0.6-0.3,1.1-0.6,1.7s-0.7,1-1.2,1.4c-0.5,0.4-1.1,0.7-1.8,1c-0.7,0.2-1.5,0.3-2.5,0.3c-2,0-3.6-0.5-5-1.4
	c-1.3-0.9-2.4-2.4-3.2-4.5l-4-10.6c-0.5-1.2-1.8-1.8-4-1.8l-0.9-2.2l8.4,0.1l4.9,12.9c0.6,1.6,1.3,2.8,2,3.5c0.7,0.7,1.6,1,2.5,1.1
	c1.2,0,2.1-0.5,2.8-1.4c0.7-1,1-2.2,1-3.7l-3.1-8.2c-0.2-0.6-0.7-1.1-1.3-1.4c-0.6-0.3-1.5-0.5-2.7-0.5l-0.9-2.2l8.5,0.1L354.4,297z
	 M368.9,297.2c0.5,1.2,1.8,1.8,4,1.8l0.9,2.2l-11.8-0.1l-0.9-2.2c2.2,0,3-0.6,2.6-1.7l-8.5-22.4c-0.5-1.2-1.8-1.8-4-1.8l-0.9-2.3
	l8.5,0.1L368.9,297.2z M377.5,281.2l5.1,0l0.9,2.9c-0.8-0.2-1.6-0.3-2.4-0.4c-0.8-0.1-1.7-0.1-2.6-0.1l5.2,13.8
	c0.5,1.2,1.2,1.8,2.4,1.8c0.6,0,0.9-0.2,1-0.5c0.1-0.3,0-0.8-0.2-1.3l-0.9-2.3l1.9,0l0.7,1.7c0.3,0.7,0.4,1.3,0.5,1.9
	c0.1,0.6,0,1.1-0.2,1.5c-0.2,0.4-0.6,0.7-1.1,0.9c-0.5,0.2-1.2,0.3-2.2,0.3c-2,0-3.6-0.5-4.8-1.4c-1.2-0.9-2.1-2.2-2.7-3.9
	l-4.8-12.7l-3.3,0l-0.7-1.9c0.7,0,1.3-0.1,1.9-0.3s1-0.4,1.3-0.8c0.3-0.4,0.5-0.9,0.5-1.6s-0.2-1.6-0.6-2.8l-0.3-0.9l3.3-0.2
	L377.5,281.2z M413.8,297.5c0.4,1.2,1.7,1.8,3.7,1.8l0.8,2.2l-8.2-0.1l-1.5-4c-0.1,0.6-0.4,1.1-0.6,1.7c-0.3,0.5-0.7,1-1.2,1.4
	c-0.5,0.4-1.1,0.7-1.8,1s-1.5,0.3-2.5,0.3c-2,0-3.7-0.5-5-1.4s-2.4-2.4-3.1-4.5l-4-10.6c-0.5-1.2-1.8-1.8-4-1.8l-0.9-2.3l8.4,0.1
	l4.9,12.9c0.6,1.7,1.3,2.8,2,3.5c0.7,0.7,1.6,1.1,2.5,1.1c1.2,0,2.2-0.5,2.9-1.4c0.7-1,1-2.2,1-3.7l-3.1-8.2
	c-0.2-0.6-0.7-1.1-1.3-1.4c-0.6-0.3-1.5-0.5-2.7-0.5l-0.9-2.3l8.5,0.1L413.8,297.5z M423.7,285.3c0.2-1.5,0.7-2.6,1.5-3.2
	c0.8-0.7,1.8-1,3-1c0.6,0,1.2,0.1,1.9,0.3s1.3,0.5,2,0.9s1.2,0.9,1.8,1.5c0.5,0.6,1,1.4,1.3,2.2c0.4,1,0.4,1.8,0.1,2.5
	c-0.3,0.6-0.9,1-1.8,1c-0.9,0-1.7-0.3-2.3-0.8c-0.6-0.5-1.1-1.1-1.4-1.8c-0.2-0.7-0.2-1.2,0-1.7c0.2-0.4,0.8-0.7,1.7-0.7
	c-0.4-0.4-0.8-0.7-1.3-0.9c-0.5-0.2-1.1-0.3-1.6-0.3c-0.5,0-0.9,0.1-1.3,0.4c-0.4,0.2-0.8,0.6-1.1,1.1s-0.6,1.1-0.8,1.8
	s-0.2,1.6-0.2,2.7l3.2,8.5c0.2,0.6,0.7,1.1,1.5,1.4c0.8,0.3,1.7,0.5,3,0.5l0.8,2.2l-12.3-0.1l-0.8-2.2c2.2,0,3.1-0.6,2.6-1.8
	l-4.5-12.1c-0.4-1.2-1.8-1.8-4-1.8l-0.8-2.3l8.5,0.1L423.7,285.3z M42.8,318.4l459.4,4.4l-38.6-105.5L0,215.1L42.8,318.4z
	 M508.7,222.7c2.1,5.6,4,9,5.8,10.2c1.8,1.2,3.3-0.1,4.6-3.8c1-2.9,1.7-6.3,1.9-10.1s-0.1-7.9-1.1-12.2l2-3.8
	c0.5,2.3,0.9,4.7,1.2,7.4s0.4,5.3,0.4,8.1c0,2.8-0.3,5.6-0.7,8.4s-1.1,5.6-2.1,8.3c-0.9,2.7-2,4.9-3.1,6.8c-1.1,1.8-2.4,2.9-3.7,3.2
	s-2.7-0.4-4.2-2.1c-1.5-1.7-3-4.8-4.6-9.2c-1.2-3.4-2.2-7-2.9-10.7s-1.1-7.6-1.1-11.4c-0.1-3.8,0.1-7.6,0.7-11.3s1.4-7.3,2.6-10.6
	c4.6-13,9.6-12,14.9,2.8L508.7,222.7z M514.4,197.8c-0.7-1.8-1.3-3.3-2.1-4.5c-0.7-1.2-1.4-1.9-2.2-2.3c-0.7-0.4-1.4-0.3-2.1,0.2
	c-0.7,0.5-1.3,1.6-1.9,3.2c-1,2.8-1.5,6.2-1.4,10.2s0.8,8.6,2.4,13.6L514.4,197.8z M532.1,188.6c0.7,1.8,1,4,1,6.4
	c0,2.4-0.2,4.5-0.8,6.2c-0.6,1.7-1.3,2.5-2.2,2.4c-0.9-0.1-1.6-1.1-2.3-2.9c-0.6-1.8-1-3.9-1-6.4c0-2.5,0.2-4.6,0.8-6.2
	c0.6-1.7,1.3-2.5,2.2-2.4C530.7,185.9,531.5,186.8,532.1,188.6L532.1,188.6z M535,77.9c-0.8,2.3-1.3,4.1-1.5,5.5
	c-0.2,1.4-0.2,2.6,0,3.6l12.6,73.5l-3.9,11.1l-25.9-36.1c-0.4-0.5-0.9-0.4-1.4,0.3c-0.5,0.7-1.1,1.9-1.7,3.5l-1.8-4.9l10-27.9
	l1.8,4.9l-2.4,6.7c-0.5,1.5-0.6,2.7-0.3,3.6c0.1,0.3,0.3,0.6,0.5,0.9l21,29.9L531.6,94c-0.1-0.5-0.2-1-0.3-1.4
	c-0.5-1.3-1.1-0.9-1.9,1.4l-1.7,4.7l-1.8-4.9l7.4-20.7L535,77.9z M555.8,121.3c0.6,1.8,1,3.9,1,6.4c0,2.4-0.2,4.5-0.8,6.1
	c-0.6,1.7-1.3,2.4-2.2,2.3c-0.9-0.1-1.6-1.1-2.3-2.9c-0.6-1.8-1-3.9-1-6.4c0-2.5,0.2-4.5,0.8-6.2c0.6-1.7,1.3-2.4,2.2-2.3
	S555.2,119.5,555.8,121.3L555.8,121.3z M505.8,320.6l74.7-213L543.5,2.1l-76.4,213L505.8,320.6z"/>
</svg>