<svg height="700pt" preserveAspectRatio="xMidYMid meet" viewBox="0 0 700 700" width="700pt" xmlns="http://www.w3.org/2000/svg"><g transform="matrix(.1 0 0 -.1 0 700)"><path d="m2435 6326c-156-31-252-83-371-201-63-62-105-115-136-170-55-97-103-215-91-225 8-7 431-150 444-150 4 0 23 33 42 74 40 84 99 149 160 177 53 24 156 25 226 2 60-19 131-78 155-127 36-76 12-175-61-257-21-23-288-256-593-517s-564-483-574-492c-14-14-25-56-43-160-13-79-22-144-20-147 2-2 348-62 768-133s775-132 790-135l25-6 41 241c27 166 37 243 29 245-6 2-175 31-376 65s-369 62-374 63c-5 2 137 119 315 262 342 273 421 345 489 445 91 134 129 248 137 416 16 315-146 553-457 673-155 60-383 85-525 57z"/><path d="m4778 6255c-420-80-664-423-784-1104-31-175-44-497-25-621 59-383 245-617 576-725 169-55 411-72 558-39 391 88 630 439 742 1090 137 794-87 1264-660 1385-123 26-309 33-407 14zm333-71c426-72 650-307 700-735 38-331-58-875-211-1184-194-393-550-538-998-409-287 83-461 261-540 552-25 92-26 109-26 337 0 206 3 259 22 370 98 554 269 869 547 1008 146 73 313 94 506 61z"/><path d="m4893 5689c-57-28-135-113-173-190-134-265-201-763-131-981 43-134 135-208 262-211 79-1 126 19 190 84 139 142 248 567 237 923-5 166-21 225-77 304-62 85-210 120-308 71zm201-67c44-26 83-88 102-162 22-89 15-349-15-510-78-417-195-603-362-575-130 22-193 150-191 390 1 330 112 713 238 824 26 23 61 45 78 51 41 12 112 4 150-18z"/><path d="m2004 3335c-243-55-430-210-553-454-47-95-100-236-90-244 4-4 557-188 572-191 4 0 18 29 31 67 51 142 123 217 219 225 130 10 240-64 240-162 0-86-23-109-653-648-322-276-589-505-594-509-15-14-75-390-62-394 6-2 391-67 854-146 569-96 846-139 850-131 11 16 106 591 100 598-3 3-157 31-342 62s-336 59-336 62c1 3 112 93 247 200 286 227 373 305 442 399 130 175 191 408 161 612-47 322-263 545-620 639-109 28-371 37-466 15zm451-79c55-14 142-46 194-72 78-39 110-62 181-133 128-128 183-247 196-429 12-149-38-335-126-470-67-104-161-191-493-457-179-143-326-262-326-265-1-3 170-34 379-70 222-37 380-68 380-74 1-27-74-452-81-460-5-6-1563 250-1577 259-3 2 33 225 43 272 3 13 233 217 590 522 321 275 598 519 615 543 49 67 62 106 58 171-6 80-43 132-128 174-176 89-337 30-427-155-20-42-38-79-39-81-4-4-437 140-447 149s33 123 76 200c96 172 244 305 403 361 155 56 347 61 529 15z"/><path d="m4400 3125c-243-55-410-193-531-441-80-162-93-144 166-230 121-41 222-74 225-74s18 29 34 65c58 134 156 207 276 208 159 1 289-101 290-228 0-49-36-127-81-178-19-21-293-259-609-530l-575-492-24-143c-13-78-22-144-20-146 3-4 1494-259 1569-269 11-2 22 49 54 236 21 130 37 239 35 241s-173 32-381 67c-207 35-374 67-372 71 3 4 150 124 327 266 317 255 413 343 474 432 221 325 180 746-95 966-79 63-218 129-337 160-127 33-325 42-425 19z"/></g></svg>