<?xml version="1.0" standalone="no"?>
<!DOCTYPE svg PUBLIC "-//W3C//DTD SVG 20010904//EN"
 "http://www.w3.org/TR/2001/REC-SVG-20010904/DTD/svg10.dtd">
<svg version="1.0" xmlns="http://www.w3.org/2000/svg"
 width="700.000000pt" height="700.000000pt" viewBox="0 0 700.000000 700.000000"
 preserveAspectRatio="xMidYMid meet">
<metadata>
Created by potrace 1.14, written by Peter Selinger 2001-2017
</metadata>
<g transform="translate(0.000000,700.000000) scale(0.100000,-0.100000)"
fill="#000000" stroke="none">
<path d="M5855 6969 c-49 -9 -112 -20 -140 -23 -27 -4 -66 -11 -85 -16 -19 -5
-53 -11 -75 -14 -22 -3 -51 -8 -65 -10 -60 -12 -378 -69 -405 -72 -16 -3 -64
-11 -105 -19 -41 -7 -106 -19 -145 -26 -38 -6 -79 -13 -90 -15 -106 -19 -247
-44 -275 -49 -48 -8 -140 -24 -170 -30 -14 -3 -45 -8 -70 -11 -25 -3 -47 -8
-50 -9 -3 -2 -24 -6 -46 -9 -22 -4 -51 -9 -64 -11 -14 -3 -113 -21 -220 -40
-107 -19 -208 -37 -225 -40 -31 -5 -80 -14 -125 -21 -14 -3 -61 -11 -105 -19
-44 -8 -96 -17 -115 -20 -19 -3 -57 -10 -85 -15 -27 -5 -66 -12 -85 -15 -19
-3 -87 -15 -150 -26 -63 -12 -124 -23 -135 -25 -61 -10 -272 -47 -345 -59 -47
-8 -96 -17 -110 -20 -14 -3 -52 -10 -85 -15 -82 -14 -112 -19 -170 -30 -27 -5
-61 -11 -75 -14 -14 -2 -41 -7 -60 -10 -19 -3 -46 -8 -60 -10 -14 -2 -63 -11
-110 -20 -47 -8 -98 -18 -115 -21 -16 -2 -41 -7 -55 -10 -13 -2 -42 -7 -65
-10 -22 -3 -71 -12 -110 -20 -38 -7 -86 -16 -105 -19 -19 -3 -71 -12 -115 -20
-44 -9 -96 -18 -115 -21 -43 -7 -307 -53 -337 -59 -11 -3 -43 -8 -70 -12 -26
-5 -51 -9 -55 -10 -5 -1 -16 -2 -25 -3 -43 -3 -46 -13 -28 -107 9 -49 18 -98
20 -109 3 -22 23 -145 30 -184 2 -14 9 -47 15 -75 20 -100 21 -94 -8 -100 -15
-3 -92 -17 -172 -31 -80 -14 -192 -35 -250 -45 -58 -11 -125 -23 -149 -26
l-43 -7 6 -41 c3 -23 8 -52 11 -66 3 -14 30 -167 60 -340 30 -173 57 -326 60
-340 2 -14 7 -36 10 -50 2 -14 7 -45 11 -70 3 -24 7 -47 9 -50 2 -3 6 -26 10
-50 3 -25 14 -90 25 -145 10 -55 21 -120 25 -145 3 -25 8 -52 10 -60 4 -13 40
-221 76 -430 5 -30 11 -66 14 -80 8 -40 37 -202 41 -235 3 -16 9 -50 14 -75 5
-25 12 -63 15 -84 3 -21 7 -48 10 -60 3 -12 7 -34 10 -51 13 -80 76 -433 80
-455 5 -22 13 -74 30 -175 7 -43 25 -143 35 -195 5 -25 21 -112 35 -195 14
-82 27 -161 30 -175 7 -32 14 -76 21 -120 3 -19 9 -55 14 -80 5 -25 11 -58 14
-75 3 -16 9 -55 15 -85 5 -30 12 -68 15 -85 5 -37 34 -201 41 -235 3 -14 8
-41 11 -60 3 -19 11 -69 19 -110 8 -41 16 -91 19 -110 3 -19 8 -46 11 -60 6
-32 33 -184 50 -285 3 -16 7 -40 9 -51 2 -12 7 -37 10 -55 3 -19 8 -45 10 -59
3 -14 14 -79 26 -145 12 -66 23 -127 25 -135 2 -8 4 -20 4 -26 1 -8 15 -9 48
-3 41 8 164 30 301 53 17 3 47 9 65 12 68 12 127 22 272 48 83 14 161 28 175
31 32 6 125 23 170 30 19 3 60 10 90 15 58 11 70 13 135 25 22 4 51 9 65 11
14 3 61 11 105 19 44 8 96 17 115 20 19 3 71 12 115 21 44 8 96 17 115 20 19
3 58 9 85 14 28 5 64 12 80 15 17 3 41 7 55 9 14 3 66 12 115 21 108 18 122
21 205 35 36 7 76 14 90 16 14 3 77 14 140 25 63 12 129 23 145 25 17 3 50 9
75 14 25 5 63 12 84 15 21 3 48 7 60 10 12 3 35 7 51 10 17 3 71 12 120 20 50
9 104 18 120 21 17 3 37 7 45 9 8 3 31 7 50 9 19 3 87 15 150 26 63 12 131 24
150 26 19 2 55 8 80 14 37 8 213 39 310 55 14 2 50 9 80 15 30 6 71 13 90 16
19 3 123 21 230 40 107 19 209 36 225 39 17 3 41 7 55 10 38 8 261 46 295 51
17 3 41 7 55 10 14 3 34 7 45 9 11 2 76 14 145 26 69 12 131 22 138 22 16 0
16 12 -12 162 -13 72 -27 146 -30 165 -3 19 -8 45 -10 56 -2 12 -7 37 -10 55
-3 19 -9 55 -14 81 l-9 47 51 10 c58 12 166 31 211 38 17 2 80 13 140 24 150
27 218 39 229 39 5 0 6 17 3 38 -7 50 -80 462 -107 612 -14 73 -75 419 -106
600 -14 80 -27 156 -30 170 -3 14 -9 52 -15 85 -10 60 -15 89 -24 135 -19 103
-68 381 -71 405 -3 17 -9 50 -14 75 -5 25 -12 63 -15 85 -11 64 -15 85 -30
170 -7 44 -16 96 -19 115 -3 19 -8 46 -11 60 -3 14 -8 41 -11 60 -3 19 -14 82
-24 140 -11 58 -22 119 -25 135 -3 17 -7 41 -9 55 -3 14 -12 66 -20 115 -9 50
-18 100 -20 111 -2 12 -7 37 -10 55 -10 61 -24 142 -81 459 -13 74 -26 151
-29 170 -3 19 -8 46 -11 60 -3 14 -7 39 -10 55 -3 17 -19 104 -35 195 -16 91
-32 181 -35 200 -5 33 -17 104 -30 175 -2 17 -7 41 -10 55 -3 14 -17 93 -31
175 -14 83 -28 161 -30 175 -12 61 -54 298 -59 330 -3 20 -9 47 -13 61 l-7 25
-90 -17z"/>
</g>
</svg>
