<?xml version="1.0" encoding="UTF-8"?><svg id="Ebene_1" xmlns="http://www.w3.org/2000/svg" viewBox="0 0 566.92913 103.6938"><defs><style>.cls-1{fill:#050505;stroke-width:0px;}</style></defs><g id="co:working66-logo"><path class="cls-1" d="m24.78661,70.08482c-3.44606,0-6.70666-.54248-9.69112-1.61274-3.01305-1.07924-5.66908-2.65766-7.89292-4.69196-2.23691-2.04329-4.01713-4.59719-5.29163-7.59064-1.26797-2.97711-1.91094-6.39947-1.91094-10.17151v-1.07842c0-3.76632.64134-7.21564,1.90603-10.2532,1.26633-3.0392,3.05472-5.68052,5.31696-7.84799,2.2557-2.16012,4.92644-3.83331,7.93868-4.97546,2.99099-1.1348,6.22954-1.70996,9.62494-1.70996,6.54163,0,11.94355,1.74427,16.05382,5.18379,4.1021,3.43544,6.7279,8.00485,7.80632,13.58161l.25327,1.30963-13.97867,3.60619-.21568-1.58006c-.32026-2.34149-1.30636-4.31043-3.01305-6.01957-1.65849-1.65685-3.97628-2.4624-7.08656-2.4624-1.41584,0-2.77449.26716-4.03674.7933-1.25326.52042-2.36518,1.2745-3.30472,2.23937-.94117.96731-1.70179,2.17074-2.25979,3.57841-.55964,1.41502-.84395,3.0392-.84395,4.82595v.53921c0,1.77858.28186,3.36599.83741,4.71729.55065,1.33414,1.29901,2.45423,2.22384,3.32841.93055.8799,2.03185,1.54656,3.27204,1.98283,1.28104.45425,2.66338.68464,4.1119.68464,3.0825,0,5.43052-.74509,6.9779-2.21486,1.61927-1.54166,2.64377-3.58249,3.13152-6.23852l.27287-1.4861,13.91331,3.4771-.2549,1.32025c-1.07842,5.57349-3.67155,10.14046-7.70829,13.57426-4.05226,3.44442-9.48687,5.19114-16.15186,5.19114Zm0-47.09529c-3.04982,0-5.95013.51389-8.61923,1.52613-2.6544,1.00653-5.00324,2.47711-6.98198,4.37089-1.97711,1.89541-3.54573,4.21403-4.6601,6.89048-1.12009,2.69034-1.68871,5.77284-1.68871,9.16252v1.07842c0,3.38805.56699,6.43623,1.68381,9.0604,1.11437,2.61681,2.66093,4.83984,4.59638,6.6078,1.94525,1.7794,4.27857,3.16338,6.93623,4.11517,2.67645.95996,5.61516,1.44689,8.73361,1.44689,5.973,0,10.78915-1.5196,14.31364-4.51631,3.21485-2.73364,5.38722-6.30878,6.47055-10.64046l-8.39782-2.09884c-.69444,2.55391-1.91339,4.67154-3.63396,6.3096-2.09394,1.98855-5.09882,2.9959-8.93295,2.9959-1.77205,0-3.47383-.28431-5.05634-.8464-1.61519-.56699-3.05472-1.44117-4.27612-2.59557-1.21813-1.15114-2.19361-2.60129-2.89867-4.31043-.69771-1.69688-1.05065-3.64704-1.05065-5.79735v-.53921c0-2.14541.35049-4.12089,1.04248-5.87088.69771-1.75816,1.66175-3.27612,2.86518-4.51223,1.20914-1.24264,2.63806-2.21159,4.24752-2.87988,1.60865-.67075,3.33413-1.01061,5.1266-1.01061,3.84638,0,6.90519,1.10784,9.09226,3.29328,1.74672,1.74754,2.924,3.78838,3.51387,6.08411l8.36106-2.15603c-1.08578-4.33249-3.28674-7.90845-6.55388-10.64454-3.58576-3.0008-8.37495-4.52285-14.23275-4.52285Z"/><path class="cls-1" d="m79.24951,70.08482c-3.20831,0-6.32104-.5433-9.25158-1.61519-2.94524-1.07842-5.59555-2.6691-7.87658-4.72709-2.2941-2.06943-4.13396-4.6503-5.47055-7.67152-1.33169-3.01224-2.00734-6.5163-2.00734-10.41497v-1.07842c0-3.83821.67565-7.31123,2.00734-10.32183,1.33496-3.01877,3.17318-5.61271,5.46238-7.7091,2.28348-2.09149,4.93624-3.69851,7.88475-4.77775,5.85944-2.14541,12.63799-2.14623,18.5007-.00082,2.95015,1.08006,5.60291,2.68789,7.88557,4.77856,2.29247,2.10048,4.13069,4.69442,5.46238,7.7091,1.33251,3.01387,2.00816,6.48689,2.00816,10.32183v1.07842c0,3.8954-.67565,7.39946-2.00816,10.41497-1.33251,3.01714-3.17318,5.598-5.47055,7.67152-2.28021,2.05799-4.93052,3.64785-7.87658,4.72628-2.93135,1.07271-6.04326,1.616-9.24994,1.616Zm0-47.09529c-2.87498,0-5.65928.48611-8.27609,1.44362-2.59966.95097-4.93543,2.366-6.94358,4.20504-1.99917,1.83087-3.60864,4.107-4.78428,6.76466-1.17156,2.64786-1.76551,5.73444-1.76551,9.17478v1.07842c0,3.50161.59395,6.61924,1.76551,9.26792,1.17401,2.65358,2.78103,4.91173,4.77611,6.71238,2.00979,1.81371,4.34883,3.21648,6.95175,4.16909,5.23118,1.91257,11.31284,1.91502,16.55137-.00082,2.60211-.95261,4.94115-2.35538,6.95094-4.16827,1.99835-1.80391,3.60537-4.06207,4.77611-6.71238,1.17156-2.65113,1.76633-5.76957,1.76633-9.26792v-1.07842c0-3.43707-.59477-6.52365-1.76633-9.17478-1.17238-2.6544-2.78185-4.92971-4.78428-6.76466-2.00734-1.83904-4.34393-3.25406-6.94358-4.20586-2.61763-.95669-5.40193-1.4428-8.27446-1.4428Zm0,36.3086c-1.78022,0-3.49017-.30229-5.08167-.89869-1.61519-.60621-3.04573-1.49182-4.25242-2.63234-1.21404-1.14787-2.18708-2.56208-2.88969-4.20422-.70179-1.63398-1.058-3.49998-1.058-5.5449v-1.79901c0-2.0441.35621-3.91011,1.05882-5.54653.69934-1.63724,1.67238-3.05227,2.88969-4.20177,1.20996-1.1446,2.64051-2.03103,4.25079-2.6356,3.18871-1.19444,6.98117-1.19444,10.16334,0,1.60783.60294,3.03838,1.48937,4.25079,2.6356,1.21731,1.15114,2.19035,2.56534,2.89132,4.20341.70261,1.64051,1.05882,3.50651,1.05882,5.5449v1.79901c0,2.0392-.35621,3.9052-1.05882,5.54572-.70343,1.64051-1.67564,3.05472-2.8905,4.20341-1.20996,1.14215-2.64051,2.02777-4.25242,2.63234-1.58986.5964-3.299.89869-5.08003.89869Zm0-25.52598c-1.4379,0-2.81289.24265-4.08658.71977-1.25408.47059-2.36355,1.15686-3.29818,2.04084-.933.88153-1.68381,1.97711-2.23038,3.25652-.55147,1.28349-.83006,2.77286-.83006,4.42971v1.79901c0,1.65767.27859,3.14704.82843,4.42726.54983,1.28431,1.30065,2.37989,2.2312,3.25978.93137.8799,2.04165,1.56535,3.29982,2.03757,2.5441.95424,5.62905.95424,8.16988,0,1.25653-.47059,2.36682-1.15604,3.29982-2.03757.93055-.8799,1.68136-1.97711,2.2312-3.25897.55065-1.28512.83006-2.77531.83006-4.42808v-1.79901c0-1.65277-.27941-3.14214-.83006-4.42889-.54738-1.2794-1.29819-2.37499-2.23201-3.25733-.93627-.8848-2.04656-1.57189-3.29818-2.04084-1.27287-.47794-2.64704-.71977-4.08494-.71977Z"/><path class="cls-1" d="m116.27787,70.08482c-1.39378,0-2.70668-.26797-3.90112-.7982-1.17156-.51715-2.21649-1.21404-3.10456-2.07025-.91503-.8799-1.64296-1.94362-2.16257-3.16011-.52369-1.22385-.78839-2.54574-.78839-3.93053,0-1.38153.2647-2.7026.78758-3.92645.52042-1.2165,1.24836-2.2794,2.1642-3.16093.89215-.86029,1.9379-1.55881,3.10619-2.07433,2.33822-1.02859,5.22382-1.07842,7.73443-.00735,1.20669.51797,2.27204,1.21813,3.1691,2.08169.91584.88316,1.64296,1.94607,2.16175,3.16011.52369,1.21813.78921,2.54002.78921,3.92726,0,1.3897-.26552,2.71322-.79003,3.93298-.51879,1.21241-1.24591,2.27613-2.16012,3.15766-.89297.85947-1.9575,1.558-3.16501,2.07678-1.22221.52532-2.51469.79166-3.84066.79166Zm0-17.07751c-.99346,0-1.92074.18627-2.7557.5531-.85947.37908-1.62826.89133-2.28103,1.52123-.65032.62581-1.14869,1.3562-1.52368,2.23283-.37091.86928-.55964,1.81535-.55964,2.81126,0,1.01307.18301,1.93381.55964,2.81452.3701.86519.88235,1.61682,1.52287,2.23283.65768.63398,1.4044,1.13071,2.2843,1.5196,1.61764.71568,3.6887.76225,5.47301-.00572.90522-.38889,1.66339-.88398,2.3178-1.51388.63888-.61601,1.15114-1.36764,1.52123-2.23283.37745-.87826.56045-1.79819.56045-2.81452,0-1.01388-.18301-1.93299-.55964-2.80962-.37091-.86601-.88235-1.61682-1.52287-2.23446-.64951-.625-1.42891-1.13561-2.31698-1.51715-.86601-.36928-1.78267-.55719-2.71975-.55719Zm0-12.94028c-1.39297,0-2.70505-.26797-3.9003-.79656-1.16911-.51715-2.21404-1.21568-3.10537-2.07515-.91339-.87499-1.64215-1.93871-2.16339-3.15766-.52287-1.22303-.78758-2.54492-.78758-3.92971,0-1.38153.2647-2.7026.78839-3.92645.5196-1.2165,1.24754-2.28021,2.16339-3.16093.89052-.85865,1.93545-1.55718,3.10537-2.07433,2.33985-1.02777,5.22464-1.07761,7.73525-.00735,1.20914.52042,2.27368,1.21976,3.1691,2.08169.91503.88235,1.64215,1.94607,2.16175,3.16093.52369,1.21731.78921,2.5392.78921,3.92645,0,1.3897-.26552,2.71322-.79003,3.93298-.51879,1.21486-1.24672,2.27776-2.16257,3.15603-.89379.86111-1.95832,1.56045-3.16174,2.07924-1.22467.52532-2.51632.79084-3.84148.79084Zm0-17.07751c-.99346,0-1.92074.18627-2.7557.5531-.86111.38072-1.62907.89297-2.28103,1.52123-.64134.61683-1.15359,1.36846-1.52368,2.23365-.37091.86846-.55964,1.81371-.55964,2.81044,0,1.01307.18301,1.93381.55964,2.81452.3701.86601.88153,1.61519,1.52042,2.22711.65522.63153,1.42319,1.14378,2.28757,1.52613,1.616.71405,3.68707.76143,5.47301-.00654.88807-.38153,1.66829-.89297,2.31698-1.51715.6397-.61438,1.15114-1.36355,1.52042-2.22874.37827-.87908.56127-1.79901.56127-2.81534,0-.99999-.18872-1.94443-.55964-2.80799-.37091-.86764-.88316-1.61927-1.52287-2.2361-.64787-.62336-1.4281-1.1348-2.3178-1.51715-.86519-.36928-1.78185-.55719-2.71894-.55719Z"/><path class="cls-1" d="m11.1274,96.61238h-.30845c-.41004.77205-.96968,1.34831-1.67893,1.73249s-1.48499.57627-2.32169.57627c-.85516,0-1.65861-.14407-2.41219-.43589-.75173-.28813-1.41481-.70925-1.98738-1.25596s-1.02509-1.22641-1.3594-2.03909-.50054-1.73988-.50054-2.78528v-.41004c0-1.02324.17177-1.94305.51347-2.75573s.79421-1.49607,1.3594-2.05387c.56518-.5541,1.22272-.97891,1.97445-1.26705.75358-.29183,1.5404-.43959,2.36047-.43959.9235,0,1.73249.20317,2.42512.60582s1.2338.9863,1.62721,1.75466h.30845v-1.99846h2.00031v15.851c0,.58365-.18285,1.06018-.55041,1.43697s-.84223.56518-1.42404.56518H2.8676v-1.84701h7.56718c.46175,0,.69263-.25858.69263-.76835v-4.46606Zm-4.25735.41004c.59843,0,1.15438-.11082,1.666-.33246.51347-.22164.96229-.53933,1.34831-.94936.38418-.41004.68709-.90134.91057-1.47391.22164-.57257.33246-1.21164.33246-1.9098v-.3103c0-.68339-.11082-1.31137-.33246-1.88395-.22349-.57257-.5264-1.06388-.91057-1.47391-.38602-.41373-.83854-.73141-1.36124-.96414-.52086-.22903-1.07311-.34724-1.65307-.34724-.60028,0-1.15992.11451-1.68078.33616-.5227.22164-.97522.53563-1.3594.94936-.38418.41004-.68339.89764-.89764,1.45913-.21425.56518-.32138,1.18947-.32138,1.87286v.41004c0,.72033.10713,1.3594.32138,1.92458s.51347,1.0491.89764,1.45175c.38418.39895.833.70925,1.34647.9235.51347.21056,1.0768.31768,1.6937.31768Z"/><path class="cls-1" d="m17.59192,92.81863c.05172,1.26335.44513,2.2829,1.18024,3.05125s1.7602,1.15253,3.07711,1.15253c.59843,0,1.12113-.06649,1.56626-.20317.44328-.13668.82376-.32507,1.14145-.56518.31584-.24011.57257-.51716.76835-.83485.19763-.31399.35463-.65384.47468-1.01216l1.89872.51347c-.36017,1.17839-1.02139,2.14253-1.98738,2.88502-.96783.74619-2.27182,1.11559-3.91196,1.11559-.90688,0-1.74173-.15884-2.50269-.47283-.76097-.31768-1.41481-.76466-1.96152-1.34831-.54671-.57996-.97522-1.27443-1.28182-2.07603-.30845-.80529-.46175-1.69555-.46175-2.66708v-.6169c0-.89026.157-1.71772.47468-2.48976.31584-.76835.75543-1.42958,1.32061-1.98738.56334-.5541,1.22641-.99,1.98738-1.30768s1.58658-.47653,2.47499-.47653c1.04356,0,1.9449.19578,2.70771.57996.75912.38418,1.38525.85701,1.87102,1.42219.48761.56518.84778,1.18208,1.07865,1.84701.23088.66862.34539,1.28182.34539,1.84701v1.64384h-10.26012Zm4.25735-5.44128c-.56334,0-1.08973.09235-1.57734.26966-.48761.18101-.91427.4322-1.28182.75727s-.66677.70556-.89764,1.14145-.38048.91242-.44882,1.42589h8.20809c-.03509-.55041-.16623-1.04541-.39711-1.48869-.23088-.44698-.53009-.82007-.89764-1.13037-.3694-.3066-.78682-.54671-1.25781-.71664s-.95305-.25858-1.4499-.25858Z"/><path class="cls-1" d="m43.03812,98.56282h-2.00031v-9.1316c0-.59843-.13853-1.08973-.41188-1.47391-.27336-.38787-.70925-.57996-1.30768-.57996-.56334,0-1.02139.21056-1.37233.62798-.35093.42112-.5264,1.06757-.5264,1.93936v8.61813h-2.00031v-9.23503c0-.56518-.1533-1.03063-.46175-1.39634-.3066-.3694-.71849-.5541-1.23011-.5541-.6169,0-1.09158.22533-1.42404.66862-.33431.44328-.50054,1.02694-.50054,1.74357v8.77328h-2.00031v-12.72218h2.00031v1.38525h.30845c.22164-.59843.54671-1.04171.97337-1.32246.42851-.28074.93274-.42481,1.51454-.42481.61505,0,1.12298.16623,1.52563.48761.40265.32507.6797.74619.833,1.25966h.30845c.58181-1.16361,1.50531-1.74727,2.77051-1.74727.95675,0,1.6974.3066,2.21825.91242.5227.60582.78313,1.39634.78313,2.37156v9.80021Z"/><path class="cls-1" d="m46.93715,92.81863c.05172,1.26335.44513,2.2829,1.18024,3.05125s1.7602,1.15253,3.07711,1.15253c.59843,0,1.12113-.06649,1.56626-.20317.44328-.13668.82376-.32507,1.14145-.56518.31584-.24011.57257-.51716.76835-.83485.19763-.31399.35463-.65384.47468-1.01216l1.89872.51347c-.36017,1.17839-1.02139,2.14253-1.98738,2.88502-.96783.74619-2.27182,1.11559-3.91196,1.11559-.90688,0-1.74173-.15884-2.50269-.47283-.76097-.31768-1.41481-.76466-1.96152-1.34831-.54671-.57996-.97522-1.27443-1.28182-2.07603-.30845-.80529-.46175-1.69555-.46175-2.66708v-.6169c0-.89026.157-1.71772.47468-2.48976.31584-.76835.75543-1.42958,1.32061-1.98738.56334-.5541,1.22641-.99,1.98738-1.30768s1.58658-.47653,2.47499-.47653c1.04356,0,1.9449.19578,2.70771.57996.75912.38418,1.38525.85701,1.87102,1.42219.48761.56518.84778,1.18208,1.07865,1.84701.23088.66862.34539,1.28182.34539,1.84701v1.64384h-10.26012Zm4.25735-5.44128c-.56334,0-1.08973.09235-1.57734.26966-.48761.18101-.91427.4322-1.28182.75727s-.66677.70556-.89764,1.14145-.38048.91242-.44882,1.42589h8.20809c-.03509-.55041-.16623-1.04541-.39711-1.48869-.23088-.44698-.53009-.82007-.89764-1.13037-.3694-.3066-.78682-.54671-1.25781-.71664s-.95305-.25858-1.4499-.25858Z"/><path class="cls-1" d="m60.45538,96.71581h4.46237v-9.02816h-4.00061v-1.84701h6.00277v10.87517h4.15576v1.84701h-10.62028v-1.84701Zm3.6423-14.67261c0-.495.17547-.91981.5264-1.27074.34908-.35093.7739-.52455,1.26889-.52455.49684,0,.91981.17362,1.27074.52455.34908.35093.52455.77574.52455,1.27074s-.17547.91981-.52455,1.27074c-.35093.35093-.7739.52455-1.27074.52455-.495,0-.91981-.17362-1.26889-.52455-.35093-.35093-.5264-.77574-.5264-1.27074Z"/><path class="cls-1" d="m76.8217,98.56282h-2.00215v-12.72218h2.00215v2.15361h.3066c.78682-1.67708,2.15546-2.51562,4.10405-2.51562,1.47206,0,2.64307.45806,3.51485,1.37417s1.30768,2.28659,1.30768,4.11882v7.59119h-2.00031v-7.18116c0-1.33354-.29921-2.33462-.89764-3.00323-.59843-.66492-1.41111-1.00108-2.4362-1.00108-1.21533,0-2.16838.41742-2.86101,1.24488-.69263.83115-1.03802,1.93566-1.03802,3.32092v6.61967Z"/><path class="cls-1" d="m92.13523,89.12462c0,.61321.26043,1.08604.78128,1.40742.5227.32507,1.47576.53933,2.86101.64276,1.48684.1219,2.6209.47653,3.39849,1.06388.77759.59104,1.16731,1.45175,1.16731,2.57842v.15515c0,.61321-.12375,1.16731-.37125,1.65492-.24935.48761-.59104.90134-1.02694,1.24488-.43589.33985-.96598.60212-1.59027.77944-.62429.18101-1.30399.26966-2.03909.26966-.99184,0-1.84331-.13298-2.55256-.39526-.70925-.26597-1.30029-.6169-1.76943-1.05279-.47099-.43589-.82561-.93089-1.06572-1.48869-.23826-.5541-.37494-1.11559-.41004-1.68078l1.89872-.46175c.08496.97522.46175,1.75835,1.12852,2.34939.66677.58735,1.55518.88287,2.66708.88287.94013,0,1.6974-.18101,2.26997-.55041.57442-.3694.8607-.88656.8607-1.55148,0-.72033-.28259-1.23011-.84778-1.5404-.56334-.3066-1.47945-.50239-2.74465-.59104-1.47022-.09974-2.59874-.44328-3.38556-1.02324-.78682-.58365-1.18024-1.42958-1.18024-2.54148v-.15145c0-.59843.12929-1.12667.38602-1.58104.25489-.45067.60212-.83115,1.03802-1.14145.43589-.3066.9272-.53563,1.47576-.69078.54671-.15515,1.11929-.23272,1.71772-.23272.83854,0,1.57365.11821,2.20717.34724.63168.23272,1.16177.53194,1.59027.89764.42666.3694.75543.79052.9863,1.27074s.38048.95675.44882,1.43697l-1.89687.46175c-.08681-.82007-.41558-1.46283-.98815-1.92458s-1.32061-.69078-2.24411-.69078c-.36017,0-.70556.03694-1.03986.11451-.33246.07757-.62798.19209-.88472.34724-.25673.15145-.46175.34354-.61505.57627-.15515.22903-.23088.49869-.23088.80899Z"/><path class="cls-1" d="m113.3998,96.40921h-.30845c-.41004.85332-.97891,1.48499-1.70479,1.89872-.72772.41004-1.49238.61321-2.29583.61321-.83854,0-1.61613-.14037-2.33462-.42112-.71849-.28444-1.34647-.70186-1.88579-1.25966-.53748-.5541-.96229-1.2338-1.26889-2.03909-.30845-.8016-.46175-1.73249-.46175-2.79637v-.41004c0-1.04171.1533-1.96521.46175-2.77051.3066-.8016.73141-1.4813,1.26889-2.03909.53933-.5541,1.16731-.97891,1.88579-1.26705.71849-.29183,1.47945-.43959,2.2829-.43959.87179,0,1.66231.19578,2.3734.57996.70925.38418,1.26889.97891,1.67893,1.78051h.30845v-1.99846h2.00031v10.10682c0,.51347.23088.76835.69263.76835h.64276v1.84701h-1.36124c-.57996,0-1.05464-.18839-1.42219-.56518-.3694-.37679-.55225-.85332-.55225-1.43697v-.15145Zm-4.10405.61321c.59843,0,1.15068-.11082,1.65492-.33246s.93643-.53933,1.29475-.94936c.36017-.41004.64091-.90134.84593-1.47391.20686-.57257.30845-1.21164.30845-1.9098v-.3103c0-.68339-.10159-1.31137-.30845-1.88395-.20502-.57257-.4913-1.06388-.85886-1.47391-.36755-.41373-.80345-.73141-1.30768-.96414-.50423-.22903-1.04725-.34724-1.62906-.34724-.59843,0-1.14514.11451-1.64199.33616s-.9272.53194-1.29475.93458-.65384.89026-.8607,1.46283c-.20502.57257-.3066,1.20055-.3066,1.88395v.41004c0,1.45544.38048,2.5895,1.14145,3.40218.76097.80899,1.74727,1.21533,2.9626,1.21533Z"/><path class="cls-1" d="m131.07565,98.56282h-2.00031v-9.1316c0-.59843-.13853-1.08973-.41188-1.47391-.27336-.38787-.70925-.57996-1.30768-.57996-.56334,0-1.02139.21056-1.37233.62798-.35093.42112-.5264,1.06757-.5264,1.93936v8.61813h-2.00031v-9.23503c0-.56518-.1533-1.03063-.46175-1.39634-.3066-.3694-.71849-.5541-1.23011-.5541-.6169,0-1.09158.22533-1.42404.66862-.33431.44328-.50054,1.02694-.50054,1.74357v8.77328h-2.00031v-12.72218h2.00031v1.38525h.30845c.22164-.59843.54671-1.04171.97337-1.32246.42851-.28074.93274-.42481,1.51454-.42481.61505,0,1.12298.16623,1.52563.48761.40265.32507.6797.74619.833,1.25966h.30845c.58181-1.16361,1.50531-1.74727,2.77051-1.74727.95675,0,1.6974.3066,2.21825.91242.5227.60582.78313,1.39634.78313,2.37156v9.80021Z"/><path class="cls-1" d="m134.60524,97.12585c0-.495.17362-.91981.52455-1.27074.35093-.34724.7739-.52455,1.27074-.52455.495,0,.91796.17731,1.26889.52455.35093.35093.5264.77574.5264,1.27074s-.17547.91981-.5264,1.27074-.7739.52455-1.26889.52455c-.49684,0-.91981-.17362-1.27074-.52455s-.52455-.77574-.52455-1.27074Z"/><path class="cls-1" d="m488.13061,85.16922c-3.27286,0-6.38885-.54493-9.26056-1.61927-2.88397-1.07842-5.42725-2.60946-7.55878-4.54981-2.13806-1.94443-3.85292-4.30553-5.09719-7.01793-1.24754-2.72057-1.87989-5.7467-1.87989-8.99586v-22.91734c0-3.48691.64542-6.70339,1.91911-9.56121,1.2696-2.85946,3.01387-5.33003,5.18379-7.34146,2.1593-2.0008,4.68706-3.56289,7.51303-4.64376,5.61925-2.13888,12.33571-2.07433,17.85038-.24591,2.77449.9281,5.22954,2.28675,7.29979,4.03919,2.09394,1.77613,3.75978,3.96321,4.95177,6.50078,1.19199,2.54737,1.79656,5.42644,1.79656,8.55959v1.41829h-14.70007v-1.41829c0-1.72221-.61438-3.17318-1.87662-4.43461-1.24509-1.24672-3.31125-1.87907-6.1413-1.87907-2.86926,0-5.05552.79084-6.68215,2.41829-1.62499,1.62417-2.41502,3.72138-2.41502,6.41091v5.66418c1.11437-1.54329,2.60211-2.84639,4.44442-3.88805,2.47793-1.4044,5.31288-2.116,8.42642-2.116,2.74508,0,5.37497.50408,7.81531,1.49754,2.45178,1.00244,4.607,2.43953,6.40764,4.27203,1.80881,1.84476,3.24263,4.107,4.26468,6.72545,1.01878,2.616,1.53512,5.60209,1.53512,8.87494v1.07842c0,3.33413-.56209,6.45666-1.67156,9.28099-1.11601,2.8374-2.73691,5.31614-4.81778,7.36678-2.0776,2.04492-4.6119,3.66174-7.53263,4.80553-2.91011,1.13888-6.19849,1.71568-9.77445,1.71568Zm-.18137-65.42851c-2.80472,0-5.49261.48202-7.9877,1.433-2.48364.94934-4.70422,2.32025-6.59636,4.07432-1.88561,1.74754-3.40684,3.9052-4.51958,6.41254-1.1111,2.49427-1.67483,5.32268-1.67483,8.40844v22.91734c0,2.83822.54575,5.46647,1.62172,7.81286,1.08414,2.36355,2.57351,4.41664,4.42808,6.10209,1.86437,1.6977,4.09883,3.04001,6.64293,3.99181,2.55391.95506,5.33493,1.43953,8.26711,1.43953,3.22057,0,6.16091-.51225,8.74014-1.52123,2.56126-1.00244,4.77366-2.41093,6.57594-4.18461,1.79656-1.77041,3.19851-3.91746,4.16827-6.38313.97875-2.49263,1.47548-5.26549,1.47548-8.24341v-1.07842c0-2.9191-.45179-5.55879-1.34231-7.84472-.88153-2.25897-2.10783-4.20014-3.6454-5.76794-1.52777-1.55555-3.36436-2.77776-5.45503-3.63315-2.09721-.85375-4.3668-1.28757-6.74342-1.28757-2.61681,0-4.982.58823-7.02855,1.74836-2.04084,1.15359-3.46893,2.61355-4.36844,4.46157l-.38807.7982h-3.92236v-9.50484c0-3.43135,1.0915-6.26385,3.24508-8.41743,2.15603-2.15522,5.07922-3.24835,8.68867-3.24835,3.61109,0,6.35208.91176,8.14783,2.70995,1.44444,1.44362,2.31616,3.12743,2.60211,5.02203h9.08328c-.14951-2.16257-.64624-4.15357-1.48038-5.93705-1.01715-2.16584-2.43626-4.0302-4.21729-5.54082-1.79329-1.51796-3.93462-2.69933-6.36271-3.51142-2.45423-.81454-5.1315-1.22793-7.9542-1.22793Zm.18137,54.1026c-3.41093,0-6.27529-1.04901-8.51384-3.11763-2.26959-2.09966-3.41991-4.915-3.41991-8.36678s1.15032-6.26712,3.41991-8.36596c2.24263-2.07025,5.10699-3.11844,8.51384-3.11844,3.40766,0,6.2712,1.04901,8.51138,3.11681,2.27041,2.09966,3.42155,4.91419,3.42155,8.36759s-1.15114,6.26793-3.42073,8.36678c-2.2361,2.06861-5.10046,3.11763-8.5122,3.11763Zm0-20.13223c-2.70913,0-4.86435.77369-6.58901,2.36518-1.68708,1.56126-2.50815,3.61681-2.50815,6.28264s.82107,4.72138,2.50979,6.28427c1.72058,1.58986,3.87579,2.36355,6.58738,2.36355,2.7124,0,4.8668-.77369,6.58574-2.36355,1.68953-1.56208,2.51061-3.61762,2.51061-6.28427s-.82107-4.72219-2.51061-6.28346c-1.72221-1.59068-3.87661-2.36436-6.58574-2.36436Z"/><path class="cls-1" d="m543.13271,85.16922c-3.27286,0-6.38885-.54493-9.26138-1.61927-2.88397-1.07842-5.42644-2.60946-7.55796-4.54981-2.13806-1.94443-3.85292-4.30553-5.09719-7.01793-1.24836-2.72139-1.88071-5.74833-1.88071-8.99586v-22.91734c0-3.48527.64624-6.70257,1.91992-9.56121,1.2696-2.85946,3.01387-5.33003,5.18379-7.34146,2.1593-2.0008,4.68706-3.56289,7.51303-4.64376,5.61598-2.13888,12.33489-2.07433,17.85038-.24591,2.77531.92892,5.22954,2.28675,7.29979,4.03919,2.09394,1.77613,3.75978,3.96321,4.95177,6.50078,1.1928,2.549,1.79656,5.42807,1.79656,8.55959v1.41829h-14.70007v-1.41829c0-1.72221-.61438-3.17318-1.87662-4.43461-1.24509-1.24672-3.31125-1.87907-6.1413-1.87907-2.86926,0-5.05552.79084-6.68215,2.41829-1.62499,1.62417-2.41502,3.72138-2.41502,6.41091v5.66336c1.11437-1.54247,2.60211-2.84557,4.4436-3.88723,2.47874-1.4044,5.31369-2.116,8.42642-2.116,2.7459,0,5.37578.50408,7.81613,1.49754,2.45178,1.00244,4.607,2.43953,6.40764,4.27203,1.80718,1.84313,3.24099,4.10537,4.26386,6.72545,1.0196,2.616,1.53594,5.60209,1.53594,8.87494v1.07842c0,3.33413-.56209,6.45666-1.67156,9.28099-1.11601,2.83822-2.73773,5.31696-4.81941,7.36678-2.07515,2.0441-4.60863,3.66092-7.531,4.80553-2.91011,1.13888-6.19849,1.71568-9.77445,1.71568Zm-.18137-65.42851c-2.80554,0-5.49343.48202-7.9877,1.43218-2.48364.95016-4.70422,2.32106-6.59636,4.07514-1.88561,1.74754-3.40684,3.9052-4.51958,6.41254-1.11192,2.49508-1.67564,5.3235-1.67564,8.40844v22.91734c0,2.83658.54575,5.46565,1.62254,7.81286,1.08414,2.36355,2.57351,4.41664,4.42808,6.10209,1.86355,1.69688,4.09801,3.04001,6.64212,3.99181,2.55391.95506,5.33575,1.43953,8.26792,1.43953,3.22057,0,6.16091-.51225,8.74014-1.52123,2.56208-1.00326,4.77448-2.41175,6.57512-4.18461,1.79656-1.7696,3.19933-3.91746,4.16909-6.38313.97875-2.49263,1.47548-5.26549,1.47548-8.24341v-1.07842c0-2.9191-.45179-5.55879-1.34231-7.84472-.88235-2.26061-2.10865-4.20177-3.6454-5.76794-1.52777-1.55555-3.36436-2.77776-5.45503-3.63315-2.09721-.85375-4.3668-1.28757-6.74424-1.28757-2.616,0-4.98118.58823-7.02855,1.74836-2.04002,1.15359-3.46812,2.61355-4.36844,4.46239l-.38807.79738h-3.92154v-9.50484c0-3.43135,1.0915-6.26385,3.24508-8.41743,2.15603-2.15522,5.07922-3.24835,8.68867-3.24835,3.61109,0,6.35208.91176,8.14783,2.70995,1.44444,1.44362,2.31616,3.12743,2.60211,5.02203h9.08328c-.14951-2.16093-.64624-4.15275-1.4812-5.93705-1.01633-2.16584-2.43544-4.0302-4.21648-5.54082-1.79247-1.51715-3.9338-2.69933-6.36271-3.51142-2.45423-.81454-5.1315-1.22793-7.9542-1.22793Zm.18137,54.1026c-3.41093,0-6.27529-1.04901-8.51384-3.11763-2.26959-2.09966-3.41991-4.915-3.41991-8.36678s1.15032-6.26712,3.41991-8.36596c2.24263-2.07025,5.10699-3.11844,8.51384-3.11844,3.40766,0,6.27039,1.04901,8.51057,3.11681,2.27123,2.09884,3.42236,4.91419,3.42236,8.36759s-1.15114,6.26875-3.42236,8.36678c-2.23528,2.06861-5.09964,3.11763-8.51057,3.11763Zm0-20.13223c-2.70913,0-4.86435.77369-6.58901,2.36518-1.68708,1.56126-2.50815,3.61681-2.50815,6.28264s.82107,4.72138,2.50979,6.28427c1.72058,1.58986,3.87579,2.36355,6.58738,2.36355s4.86598-.77369,6.58493-2.36355c1.69035-1.56208,2.51142-3.61762,2.51142-6.28427s-.82107-4.72219-2.51061-6.28346c-1.72303-1.59068-3.87743-2.36436-6.58574-2.36436Z"/><path class="cls-1" d="m145.28711,96.70854h4.61751v-14.26258h-4.46237v-1.84701h6.46267v16.10958h4.61751v1.84701h-11.23534v-1.84701Z"/><path class="cls-1" d="m171.96526,92.34961c0,1.06018-.17547,1.99477-.5264,2.80745s-.81638,1.49607-1.39818,2.05018c-.58181.5578-1.2615.98261-2.03909,1.27074-.77759.29183-1.58658.43589-2.42327.43589-.85516,0-1.66785-.14407-2.43805-.43589-.76835-.28813-1.44436-.71294-2.02617-1.27074-.58181-.5541-1.04725-1.23749-1.39818-2.05018s-.52455-1.74727-.52455-2.80745v-.3103c0-1.04171.17362-1.96891.52455-2.78159s.82192-1.49977,1.41111-2.06495c.59104-.56518,1.27074-.99369,2.03909-1.28182.7702-.29183,1.57365-.43959,2.41219-.43959.83669,0,1.64199.14776,2.41034.43959.7702.28813,1.4499.71664,2.03909,1.28182.59104.56518,1.06018,1.25227,1.41111,2.06495s.5264,1.73988.5264,2.78159v.3103Zm-6.38695,4.66554c.61505,0,1.18393-.10713,1.70479-.31768.5227-.21425.97891-.52824,1.37233-.93828s.70186-.90134.9235-1.47391c.22349-.57257.33431-1.21902.33431-1.93566v-.3103c0-.68339-.11082-1.31137-.33431-1.88395-.22164-.57257-.53009-1.06388-.9235-1.47391-.39341-.41373-.85516-.73141-1.38525-.96414-.53009-.22903-1.09343-.34724-1.69186-.34724s-1.16361.11821-1.6937.34724c-.53009.23272-.99184.55041-1.38525.96414-.39341.41004-.70186.90134-.9235,1.47391s-.33246,1.20055-.33246,1.88395v.3103c0,.71664.11082,1.36309.33246,1.93566s.53009,1.06388.9235,1.47391.85147.72403,1.37233.93828c.5227.21056,1.08973.31768,1.70663.31768Z"/><path class="cls-1" d="m177.91631,91.11581h.43589l4.84839-5.28244h2.46206v.15145l-5.28428,5.82546v.46175l5.90118,6.12836v.15515h-2.46391l-5.41173-5.59273h-.48761v5.59273h-2.00031v-17.95659h2.00031v10.51685Z"/><path class="cls-1" d="m198.53998,96.40194h-.30845c-.41004.85332-.97891,1.48499-1.70479,1.89872-.72772.41004-1.49238.61321-2.29583.61321-.83854,0-1.61613-.14037-2.33462-.42112-.71849-.28444-1.34647-.70186-1.88579-1.25966-.53748-.5541-.96229-1.2338-1.26889-2.03909-.30845-.8016-.46175-1.73249-.46175-2.79637v-.41004c0-1.04171.1533-1.96521.46175-2.77051.3066-.8016.73141-1.4813,1.26889-2.03909.53933-.5541,1.16731-.97891,1.88579-1.26705.71849-.29183,1.47945-.43959,2.2829-.43959.87179,0,1.66231.19578,2.3734.57996.70925.38418,1.26889.97891,1.67893,1.78051h.30845v-1.99846h2.00031v10.10682c0,.51347.23088.76835.69263.76835h.64276v1.84701h-1.36124c-.57996,0-1.05464-.18839-1.42219-.56518-.3694-.37679-.55225-.85332-.55225-1.43697v-.15145Zm-4.10405.61321c.59843,0,1.15068-.11082,1.65492-.33246s.93643-.53933,1.29475-.94936c.36017-.41004.64091-.90134.84593-1.47391.20686-.57257.30845-1.21164.30845-1.9098v-.3103c0-.68339-.10159-1.31137-.30845-1.88395-.20502-.57257-.4913-1.06388-.85886-1.47391-.36755-.41373-.80345-.73141-1.30768-.96414-.50423-.22903-1.04725-.34724-1.62906-.34724-.59843,0-1.14514.11451-1.64199.33616s-.9272.53194-1.29475.93458-.65384.89026-.8607,1.46283c-.20502.57257-.3066,1.20055-.3066,1.88395v.41004c0,1.45544.38048,2.5895,1.14145,3.40218.76097.80899,1.74727,1.21533,2.9626,1.21533Z"/><path class="cls-1" d="m203.97756,96.70854h4.61751v-14.26258h-4.46237v-1.84701h6.46267v16.10958h4.61751v1.84701h-11.23534v-1.84701Z"/><path class="cls-1" d="m218.28997,97.11858c0-.495.17362-.91981.52455-1.27074.35093-.34724.7739-.52455,1.27074-.52455.495,0,.91796.17731,1.26889.52455.35093.35093.5264.77574.5264,1.27074s-.17547.91981-.5264,1.27074-.7739.52455-1.26889.52455c-.49684,0-.91981-.17362-1.27074-.52455s-.52455-.77574-.52455-1.27074Z"/><path class="cls-1" d="m232.68372,89.11735c0,.61321.26043,1.08604.78128,1.40742.5227.32507,1.47576.53933,2.86101.64276,1.48684.1219,2.6209.47653,3.39849,1.06388.77759.59104,1.16731,1.45175,1.16731,2.57842v.15515c0,.61321-.12375,1.16731-.37125,1.65492-.24935.48761-.59104.90134-1.02694,1.24488-.43589.33985-.96598.60212-1.59027.77944-.62429.18101-1.30399.26966-2.03909.26966-.99184,0-1.84331-.13298-2.55256-.39526-.70925-.26597-1.30029-.6169-1.76943-1.05279-.47099-.43589-.82561-.93089-1.06572-1.48869-.23826-.5541-.37494-1.11559-.41004-1.68078l1.89872-.46175c.08496.97522.46175,1.75835,1.12852,2.34939.66677.58735,1.55518.88287,2.66708.88287.94013,0,1.6974-.18101,2.26997-.55041.57442-.3694.8607-.88656.8607-1.55148,0-.72033-.28259-1.23011-.84778-1.5404-.56334-.3066-1.47945-.50239-2.74465-.59104-1.47022-.09974-2.59874-.44328-3.38556-1.02324-.78682-.58365-1.18024-1.42958-1.18024-2.54148v-.15145c0-.59843.12929-1.12667.38602-1.58104.25489-.45067.60212-.83115,1.03802-1.14145.43589-.3066.9272-.53563,1.47576-.69078.54671-.15515,1.11929-.23272,1.71772-.23272.83854,0,1.57365.11821,2.20717.34724.63168.23272,1.16177.53194,1.59027.89764.42666.3694.75543.79052.9863,1.27074s.38048.95675.44882,1.43697l-1.89687.46175c-.08681-.82007-.41558-1.46283-.98815-1.92458s-1.32061-.69078-2.24411-.69078c-.36017,0-.70556.03694-1.03986.11451-.33246.07757-.62798.19209-.88472.34724-.25673.15145-.46175.34354-.61505.57627-.15515.22903-.23088.49869-.23088.80899Z"/><path class="cls-1" d="m256.61538,94.04147c-.13668.70186-.37125,1.35201-.70371,1.95044-.33431.59843-.75727,1.11559-1.27074,1.55148s-1.1119.77205-1.79529,1.01216c-.68524.24011-1.44621.35832-2.2829.35832-.89026,0-1.73249-.14407-2.5267-.43589-.79606-.28813-1.49238-.71294-2.09081-1.27074-.59843-.5541-1.07311-1.2338-1.42404-2.03909-.35093-.8016-.5264-1.7251-.5264-2.77051v-.3066c0-1.02694.17547-1.95044.5264-2.77051s.82561-1.51454,1.42404-2.07603c.59843-.56518,1.29475-1.00108,2.09081-1.31137.79421-.3066,1.63645-.46175,2.5267-.46175.80345,0,1.54779.1219,2.23118.36201s1.28736.57627,1.80822,1.01216c.5227.43589.94936.95305,1.28367,1.55148.33246.59843.55964,1.24858.6797,1.95044l-2.00215.46175c-.04987-.44328-.17547-.87548-.37125-1.2966-.19763-.41742-.46175-.78682-.79606-1.10082-.33246-.31768-.7388-.56888-1.21718-.75727-.48022-.18839-1.03617-.28444-1.66785-.28444-.61505,0-1.19317.11821-1.73064.34724-.53933.23272-1.01401.5578-1.42404.97522s-.73141.91981-.96229,1.49977c-.23088.58365-.34724,1.21533-.34724,1.89872v.3066c0,.72033.11636,1.36678.34724,1.93936s.55225,1.05649.96229,1.44805c.41004.39526.88841.69817,1.43697.91242.54671.21056,1.13591.31768,1.76943.31768.63168,0,1.18393-.09604,1.65492-.29552.46914-.19578.87179-.45067,1.20425-.76835.33431-.31399.59843-.6797.79606-1.08973.19578-.41004.32877-.83854.39711-1.28182l2.00031.46175Z"/><path class="cls-1" d="m261.38804,98.55555h-2.00215v-17.95659h2.00215v7.54317h.3066c.39341-.82376.94567-1.47022,1.65492-1.95044s1.57734-.72033,2.60428-.72033c1.38525,0,2.50823.45806,3.37263,1.37417.86255.91611,1.29475,2.28659,1.29475,4.11882v7.59119h-2.00031v-7.18116c0-1.33354-.29921-2.33462-.89764-3.00323-.59843-.66492-1.41111-1.00108-2.4362-1.00108-1.21533,0-2.16838.41742-2.86101,1.24488-.69263.83115-1.03802,1.93566-1.03802,3.32092v6.61967Z"/><path class="cls-1" d="m283.29352,96.40194h-.30845c-.41004.85332-.97891,1.48499-1.70479,1.89872-.72772.41004-1.49238.61321-2.29583.61321-.83854,0-1.61613-.14037-2.33462-.42112-.71849-.28444-1.34647-.70186-1.88579-1.25966-.53748-.5541-.96229-1.2338-1.26889-2.03909-.30845-.8016-.46175-1.73249-.46175-2.79637v-.41004c0-1.04171.1533-1.96521.46175-2.77051.3066-.8016.73141-1.4813,1.26889-2.03909.53933-.5541,1.16731-.97891,1.88579-1.26705.71849-.29183,1.47945-.43959,2.2829-.43959.87179,0,1.66231.19578,2.3734.57996.70925.38418,1.26889.97891,1.67893,1.78051h.30845v-1.99846h2.00031v10.10682c0,.51347.23088.76835.69263.76835h.64276v1.84701h-1.36124c-.57996,0-1.05464-.18839-1.42219-.56518-.3694-.37679-.55225-.85332-.55225-1.43697v-.15145Zm-4.10405.61321c.59843,0,1.15068-.11082,1.65492-.33246s.93643-.53933,1.29475-.94936c.36017-.41004.64091-.90134.84593-1.47391.20686-.57257.30845-1.21164.30845-1.9098v-.3103c0-.68339-.10159-1.31137-.30845-1.88395-.20502-.57257-.4913-1.06388-.85886-1.47391-.36755-.41373-.80345-.73141-1.30768-.96414-.50423-.22903-1.04725-.34724-1.62906-.34724-.59843,0-1.14514.11451-1.64199.33616s-.9272.53194-1.29475.93458-.65384.89026-.8607,1.46283c-.20502.57257-.3066,1.20055-.3066,1.88395v.41004c0,1.45544.38048,2.5895,1.14145,3.40218.76097.80899,1.74727,1.21533,2.9626,1.21533Z"/><path class="cls-1" d="m288.60367,85.83337h3.92489v-3.23226c0-.58365.18285-1.06018.55041-1.43697s.84223-.56518,1.42404-.56518h5.02755v1.84701h-4.30906c-.46175,0-.69263.25858-.69263.76835v2.61905h5.31014v1.84701h-5.31014v10.87517h-2.00031v-10.87517h-3.92489v-1.84701Z"/><path class="cls-1" d="m303.27628,85.83337h3.92489v-3.23226c0-.58365.18285-1.06018.55041-1.43697s.84223-.56518,1.42404-.56518h5.02755v1.84701h-4.30906c-.46175,0-.69263.25858-.69263.76835v2.61905h5.31014v1.84701h-5.31014v10.87517h-2.00031v-10.87517h-3.92489v-1.84701Z"/><path class="cls-1" d="m319.53916,92.81136c.05172,1.26335.44513,2.2829,1.18024,3.05125s1.7602,1.15253,3.07711,1.15253c.59843,0,1.12113-.06649,1.56626-.20317.44328-.13668.82376-.32507,1.14145-.56518.31584-.24011.57257-.51716.76835-.83485.19763-.31399.35463-.65384.47468-1.01216l1.89872.51347c-.36017,1.17839-1.02139,2.14253-1.98738,2.88502-.96783.74619-2.27182,1.11559-3.91196,1.11559-.90688,0-1.74173-.15884-2.50269-.47283-.76097-.31768-1.41481-.76466-1.96152-1.34831-.54671-.57996-.97522-1.27443-1.28182-2.07603-.30845-.80529-.46175-1.69555-.46175-2.66708v-.6169c0-.89026.157-1.71772.47468-2.48976.31584-.76835.75543-1.42958,1.32061-1.98738.56334-.5541,1.22641-.99,1.98738-1.30768s1.58658-.47653,2.47499-.47653c1.04356,0,1.9449.19578,2.70771.57996.75912.38418,1.38525.85701,1.87102,1.42219.48761.56518.84778,1.18208,1.07865,1.84701.23088.66862.34539,1.28182.34539,1.84701v1.64384h-10.26012Zm4.25735-5.44128c-.56334,0-1.08973.09235-1.57734.26966-.48761.18101-.91427.4322-1.28182.75727s-.66677.70556-.89764,1.14145-.38048.91242-.44882,1.42589h8.20809c-.03509-.55041-.16623-1.04541-.39711-1.48869-.23088-.44698-.53009-.82007-.89764-1.13037-.3694-.3066-.78682-.54671-1.25781-.71664s-.95305-.25858-1.4499-.25858Z"/><path class="cls-1" d="m334.7511,98.55555h-2.00215v-12.72218h2.00215v2.15361h.3066c.78682-1.67708,2.15546-2.51562,4.10405-2.51562,1.47206,0,2.64307.45806,3.51485,1.37417s1.30768,2.28659,1.30768,4.11882v7.59119h-2.00031v-7.18116c0-1.33354-.29921-2.33462-.89764-3.00323-.59843-.66492-1.41111-1.00108-2.4362-1.00108-1.21533,0-2.16838.41742-2.86101,1.24488-.69263.83115-1.03802,1.93566-1.03802,3.32092v6.61967Z"/><path class="cls-1" d="m347.07211,97.11858c0-.495.17362-.91981.52455-1.27074.35093-.34724.7739-.52455,1.27074-.52455.495,0,.91796.17731,1.26889.52455.35093.35093.5264.77574.5264,1.27074s-.17547.91981-.5264,1.27074-.7739.52455-1.26889.52455c-.49684,0-.91981-.17362-1.27074-.52455s-.52455-.77574-.52455-1.27074Z"/><path class="cls-1" d="m179.97534,67.18155h-19.84475l-2.54875-34.22849v-5.46206h-2.18472v5.46206l-2.54928,34.22849h-19.84475l-3.00419-45.15156h10.56009l2.00244,34.22744v5.46206h2.18472v-5.46206l2.27559-34.22744h18.93493l2.27559,34.22744v5.46206h2.18472v-5.46206l2.00297-34.22744h10.55956l-3.00419,45.15156Z"/><path class="cls-1" d="m232.04508,45.15156c0,3.76395-.63719,7.0862-1.91156,9.96781-1.27438,2.88372-3.00419,5.31201-5.1889,7.28275-2.18472,1.97285-4.68803,3.47547-7.50994,4.50681-2.82191,1.03028-5.78065,1.547-8.87572,1.547s-6.05381-.51672-8.87572-1.547c-2.82191-1.03134-5.32522-2.53396-7.50994-4.50681-2.18472-1.97074-3.91453-4.39902-5.1889-7.28275-1.27438-2.88161-1.91156-6.20386-1.91156-9.96781v-1.09262c0-3.70055.63719-6.99321,1.91156-9.87694,1.27438-2.88161,3.00419-5.32469,5.1889-7.32819,2.18472-2.00244,4.68803-3.5188,7.50994-4.55119,2.82191-1.03134,5.78065-1.54806,8.87572-1.54806s6.05381.51672,8.87572,1.54806c2.82191,1.03239,5.32522,2.54875,7.50994,4.55119,2.18472,2.0035,3.91453,4.44658,5.1889,7.32819,1.27438,2.88372,1.91156,6.17639,1.91156,9.87694v1.09262Zm-23.48612,12.38025c1.63841,0,3.18594-.27263,4.64259-.81894,1.45666-.54631,2.73103-1.33461,3.82313-2.367,1.09262-1.03134,1.95753-2.28986,2.59472-3.77769.63719-1.48677.95578-3.17009.95578-5.05206v-1.82069c0-1.88092-.31859-3.56424-.95578-5.05206-.63719-1.48677-1.50209-2.7453-2.59472-3.77874-1.0921-1.03028-2.36647-1.82069-3.82313-2.36594-1.45666-.54631-3.00419-.82-4.64259-.82s-3.18594.27368-4.64259.82c-1.45666.54526-2.73103,1.33566-3.82313,2.36594-1.09262,1.03345-1.95753,2.29197-2.59472,3.77874-.63719,1.48783-.95578,3.17114-.95578,5.05206v1.82069c0,1.88198.31859,3.56529.95578,5.05206.63719,1.48783,1.50209,2.74635,2.59472,3.77769,1.0921,1.03239,2.36647,1.82069,3.82313,2.367,1.45666.54631,3.00419.81894,4.64259.81894Z"/><path class="cls-1" d="m235.22272,22.03h19.11668v6.55363h1.63841c.84906-2.48746,2.28986-4.41488,4.324-5.78013,2.03255-1.36525,4.47458-2.04893,7.32819-2.04893,4.49043,0,8.10169,1.41175,10.83272,4.23312,2.7305,2.82243,4.09628,7.11685,4.09628,12.88112v2.0035l-11.83394,1.09157v-1.27438c0-2.48746-.63719-4.47405-1.91209-5.96188-1.27438-1.48677-3.18594-2.23069-5.73469-2.23069s-4.55172.88023-6.00784,2.63963c-1.45666,1.76151-2.18525,4.27856-2.18525,7.55643v14.56444h10.37781v10.92412h-31.1329v-10.92412h9.28519v-23.30437h-8.19256v-10.92307Z"/><path class="cls-1" d="m299.77967,38.59793h2.18472l12.01622-16.56793h12.562v.54526l-14.56497,20.66474v1.63894l16.02162,21.75631v.54631h-13.10831l-12.92656-17.66056h-2.18472v17.66056h-11.4699V3.45857h11.4699v35.13937Z"/><path class="cls-1" d="m375.06777,67.18155h-11.4699V22.03h11.4699v6.73644h1.63841c1.03134-2.54981,2.69986-4.52055,5.00715-5.9175,2.30518-1.3959,5.00662-2.09437,8.10169-2.09437,2.18472,0,4.23259.35082,6.14469,1.04719,1.91156.69848,3.59541,1.77525,5.05206,3.23138,1.45666,1.45718,2.59419,3.30851,3.41366,5.55294.81947,2.24654,1.22894,4.91575,1.22894,8.01187v28.58362h-11.4699v-25.67137c0-3.21553-.77403-5.74948-2.32156-7.60081-1.54753-1.85027-3.77769-2.777-6.69047-2.777-3.39939,0-5.93282,1.13806-7.60134,3.41418-1.66958,2.27612-2.50331,5.32575-2.50331,9.14887v23.48612Z"/><path class="cls-1" d="m445.16084,60.62687h-1.63841c-.48661,1.03345-1.07836,2.01829-1.77525,2.95875-.69848.94152-1.60882,1.77525-2.73103,2.50331-1.1238.72806-2.45787,1.30502-4.00541,1.72981-1.54753.42374-3.41366.63719-5.59837.63719-2.79179,0-5.38651-.50087-7.78309-1.50156-2.39817-1.00175-4.49201-2.48852-6.281-4.46137-1.7911-1.97074-3.18647-4.38317-4.18769-7.23625-1.00122-2.85202-1.50209-6.12989-1.50209-9.8315v-1.63894c0-3.64137.53099-6.88754,1.5935-9.74062,1.06092-2.85202,2.51758-5.26446,4.36944-7.23731,1.85027-1.97074,4.00541-3.47336,6.46328-4.50575,2.45735-1.03134,5.05206-1.54806,7.78309-1.54806,3.64085,0,6.52298.68368,8.648,2.04893,2.12343,1.36525,3.79195,3.29266,5.00662,5.78013h1.63841v-6.55363h11.4699v56.25743c0,2.06267-.65251,3.76184-1.957,5.0975-1.30555,1.33461-2.98992,2.0035-5.05206,2.0035h-30.40484v-10.92412h23.48612c1.63841,0,2.45787-.91087,2.45787-2.73156v-11.10587Zm-12.01622-3.09506c3.58009,0,6.47755-1.13806,8.69344-3.41313,2.21483-2.27612,3.32278-5.26446,3.32278-8.96712v-1.09262c0-3.70055-1.10795-6.68994-3.32278-8.96606-2.21589-2.27612-5.11335-3.41418-8.69344-3.41418-3.58114,0-6.4786,1.10847-8.69344,3.32331-2.21589,2.21589-3.32278,5.23381-3.32278,9.05694v1.09262c0,3.82313,1.10689,6.84316,3.32278,9.058,2.21483,2.21589,5.11229,3.32225,8.69344,3.32225Z"/><path class="cls-1" d="m358.63117,8.648c0,1.21414-.22772,2.35221-.68263,3.41313-.45491,1.06304-1.07836,1.97285-1.86612,2.73156-.78935.75976-1.71555,1.36525-2.77647,1.82069-1.06251.45438-2.17045.68263-3.32278.68263-1.21467,0-2.33688-.22825-3.36822-.68263-1.03239-.45544-1.94274-1.06092-2.7305-1.82069-.78988-.75871-1.41122-1.66852-1.86612-2.73156-.45544-1.06092-.68315-2.19898-.68315-3.41313,0-1.21309.22772-2.35115.68315-3.41418.45491-1.06092,1.07624-1.97074,1.86612-2.7305.78777-.75871,1.69811-1.36525,2.7305-1.82069,1.03134-.45544,2.15355-.68263,3.36822-.68263,1.15233,0,2.26027.22719,3.32278.68263,1.06092.45544,1.98712,1.06198,2.77647,1.82069.78777.75976,1.41122,1.66958,1.86612,2.7305.45491,1.06304.68263,2.2011.68263,3.41418Z"/><polygon class="cls-1" points="344.33107 67.17387 355.80923 67.17387 355.80923 22.02997 330.13839 22.02997 330.13839 32.95304 344.33933 32.95304 344.33107 67.17387"/></g></svg>