<?xml version="1.0" encoding="utf-8"?>
<!-- Generator: Adobe Illustrator 25.2.3, SVG Export Plug-In . SVG Version: 6.00 Build 0)  -->
<svg version="1.1" xmlns="http://www.w3.org/2000/svg" xmlns:xlink="http://www.w3.org/1999/xlink" x="0px" y="0px"
	 viewBox="0 0 1757.5 1077.2" style="enable-background:new 0 0 1757.5 1077.2;" xml:space="preserve">
<style type="text/css">
	.st0{display:none;}
	.st1{display:inline;fill:#010202;}
	.st2{display:inline;fill:none;stroke:#F18870;stroke-width:70;}
	.st3{display:inline;fill:none;stroke:#F4F3F4;stroke-width:11.0162;}
	.st4{display:inline;fill:#1E1E1C;}
	.st5{display:inline;fill:#FFFFFF;}
	.st6{display:inline;fill:#020203;}
	.st7{display:inline;fill:#F18870;}
	.st8{display:inline;fill:none;stroke:#F18870;stroke-width:66.0974;}
	.st9{display:inline;fill:none;stroke:#FFFFFF;stroke-width:33.0487;}
	.st10{fill:none;}
	.st11{fill:#010202;}
	.st12{fill:#FFFFFF;}
	.st13{display:inline;fill:none;stroke:#000000;stroke-width:5;stroke-miterlimit:10;}
</style>
<g id="Ebene_8" class="st0">
	<rect class="st1" width="1757.5" height="1077.2"/>
</g>
<g id="Ebene_1" class="st0">
	<path class="st2" d="M1234.8,146.1l1.7,197.1c0,0,11.2,68.6,51,68.6c39.9,0,58.3-46,58.3-61.5c0-15.6-2.5-206.1-2.5-206.1
		 M1098.3,186.6c7,0,8.5,261.8,8.5,261.8 M993.5,180.4h189.3 M907.2,377.4h60.8 M882.9,447.4l-0.6-267h24.3l117.2,270.7
		 M669.3,201.3c0,0,39,98.9,91.2,98.9 M803.1,178c-7.7,3.2-173.2,2.6-173.2,2.6l2.1,232.9c0,0,46.2-7.3,76.3-7.3
		c30.1,0,94.8,24.3,94.8,24.3 M1441.9,447.4l0.7-262.8H1584c0,0,12.1,78.1-53.5,78.1c-13.2,0-9.8-82.6-17.2-72.9
		c-7.4,9.7-14.7,221.1,99.5,228.4 M388.4,447.4l0.7-262.8h141.4c0,0,12.1,78.1-53.5,78.1c-13.2,0-9.8-82.6-17.2-72.9
		c-7.4,9.7-14.7,221.1,99.5,228.4 M301.8,157c0,0-85.9,82.8-85.9,92.8c0,10,23.6,139.6,41.6,155.1c17,14.6,62.9,13.4,62.9,13.4
		 M155.1,148.5v301.3"/>
	<path class="st3" d="M1549.4,220.2c0,0-42.9-6.8-61-5.7 M485.4,217.8c0,0-42.9-6.8-61-5.7"/>
	<path class="st2" d="M471.1,849.7c0,0,38.3,20.4,55.8,25.3 M736.8,639.8L584.2,631C531.9,809.8,796.7,656.7,720,777.8
		c-47.4,74.8-158.2,90.4-158.2,90.4 M1344.8,779.2c1.2-52.1,36.7-144.4-5.1-152.1c-48.1-8.9-128.6,6.2-141.1,99.9
		c-12.2,91,43.6,129.5,96.9,139.4c35.3,6.5,77.8-1.7,106.8-31.8 M1083.2,820.8h-60.8 M1107.5,890.7l0.6-267h-24.3L966.6,894.4
		 M1508.5,651.3c0,0,39,98.9,91.2,98.9 M1642.2,628c-7.7,3.2-173.2,2.6-173.2,2.6l2.1,232.9c0,0,46.2-7.3,76.3-7.3
		c30.1,0,94.8,34,94.8,34 M811.9,892.3l0.7-262.8H954c0,0,11.9,95.8-53.7,95.8c-31,0-47.9-60.2-36.4-90.6"/>
	<path class="st3" d="M931,678c0,0-42.9-6.8-61-5.7"/>
</g>
<g id="Ebene_2" class="st0">
	<path class="st4" d="M566.7,748.7c22.9-36.5,55.3-59.3,70-93.4c13.9-32.1,43.4-53.1,62.9-85.3c5.8-9.6,12.1-19.5,26-21.5
		c8.1-1.2,99.3,66.7,99.3,66.7s-4.2,20.8-8,28.2c-17.3,33.6-50.4,50-67.1,83.9c-7.2,14.5-32.8,42.3-32.8,42.3s-5.3,31.1-15.4,42.5
		c-8.7,9.8-30,29.7-30,29.7s-42.3-8.2-63.6-18.9c-21.3-10.7-42.2-30.2-48-47.3L566.7,748.7z"/>
	<path class="st4" d="M495.5,675.8c13.5-45.5,37.4-79,49.1-118.6c12.2-37.9,26.1-70.9,37.2-110.8c3.3-11.8,8.6-35.9,8.6-35.9
		c7.7-3.9,125.9,42.1,125.9,42.1s1,23-0.9,32c-8.7,40.6-37.1,68.5-45.2,109.3c-3.4,17.5-21.8,54.7-21.8,54.7s2.6,34.1-4.6,49.3
		c-6.1,13-22.2,40.7-22.2,40.7s-43.6,5.2-67.2,1c-23.6-4.2-49-17.7-59-33.6L495.5,675.8z"/>
	<path class="st4" d="M366.8,724c6.1-46.1,26.4-83.2,26-123.3c-0.4-37.7,18.1-71.7,22.8-112c1.4-12,12.5-55.2,12.5-55.2l42.5,9.3
		c0,0,10.8,2,15.9,3.7c23.2,8.1,62.7,29,62.7,29s-6.7,37.2-7.1,46.2c-8.9,41.6-14.4,56.9-15.9,97.7c-0.6,17.5-12.8,56.3-12.8,56.3
		s7.9,32.8,3.3,48.6c-4,13.6-15.4,42.8-15.4,42.8s-42.2,11.3-66.2,10.6c-24-0.7-51.1-10.2-63.5-24.2L366.8,724z"/>
	<path class="st4" d="M331.9,773.3C272,692.5,238.7,610.9,226,593.1c-3.8-5.3-5.1-20-5.1-20s43.5-24.7,47.7-26.2
		c22.9-8.4,49.2-29.6,49.2-29.6s23.7,16.1,27,19.8c15,16.7,12.8,35.1,28.4,51.5c6.7,7,12.4,28,12.4,28s20.2,8.7,22.8,17
		c2.2,7.2,4.6,24.1,4.6,24.1s4.4,9.9-16.2,21.5C376.4,690.6,331.9,773.3,331.9,773.3"/>
	<path class="st4" d="M351.8,695.2c15-4.2,29.7-6.6,44.1-7.9c14.4-1.3,28.5-1.5,42.1-1.2c13.7,0.3,27,0.9,40.2,1.5
		c1.6,0,3.3,0.1,4.9,0.1l4.9,0.2c3.3,0.1,6.5,0.2,9.8,0.2c3.3,0.1,6.5,0.1,9.8,0.1c3.3-0.1,6.5-0.1,9.8-0.2
		c24.7-0.8,49.1,5,72.9,13.3c3,1,5.9,2.2,8.9,3.3c3,1.1,5.9,2.2,8.9,3.4c5.9,2.4,11.8,4.8,17.8,7.2c5.9,2.6,11.9,5,18,7.5
		c3,1.3,6,2.6,9.1,3.8c3.1,1.2,6.2,2.4,9.3,3.7c3.7,1.5,7.4,3,11,4.8c0.9,0.4,1.8,0.9,2.7,1.3c0.9,0.5,1.8,1,2.6,1.5
		c1.7,1,3.4,2.1,5,3.2c3.2,2.3,6.3,4.8,8.9,7.7c2.6,3,4.7,6.4,6.4,10.2c1,2.2,1.7,6.1,2.1,10.6c0.4,4.6,0.6,9.8,0.6,14.7
		c0,9.8-0.7,18.3-0.7,18.3s-5.9,9-9.7,13c-8.4,8.8-21.5,20.2-32.1,29.5c-10.6,9.3-18.9,16.6-18.9,16.6s-102.5-37.2-104.7-37.8
		c-2.2-0.6-48.9-5.5-51.9-5.8c-3-0.3-6-0.7-8.9-1c-2.9-0.3-5.6-0.6-8.2-0.8c-2.5-0.3-4.8-0.4-6.7-0.6c-1.9-0.2-3.5-0.4-4.6-0.5
		c-1.1-0.1-1.7-0.1-1.7-0.1s-77.5,17.5-79,17.6c-2.8,0.2-4.5,0.4-4.5,0.4s-6.8-8.1-15.4-18.5c-4.3-5.2-9.2-10.9-13.8-16.5
		c-4.6-5.7-3.9-9-7.1-14c-6.4-10-15-25.8-20.6-36.5c-1.1-5.9,0.3-11,0.9-16.6c0.5-5.5,2.1-10.9,4.5-15.6
		C329.4,707.9,340.4,701.3,351.8,695.2"/>
	<path class="st5" d="M579.8,623.1c-14.5-0.4-25.8,3.5-37.1,6.4c-11.3,2.9-22.6,4.7-36.9,0.1c-13.5-4.4-24.1-3.1-34.9-1.3
		c-10.7,1.8-21.5,4-35.1,1.6c-8.1-1.4-16.5-2.7-17.4,9c-0.3,3.4,1.6,14.2,3.6,24c1.9,9.9,3.9,18.9,3.9,18.9s6,13.1,9.5,19.5
		c7.9,14.6,19.9,34.8,30,51.3c10.1,16.6,18.2,29.5,18.2,29.5s4.7,2.9,10.3,5.9c5.5,3,12,6.4,15.3,7.2c15,4,143.4,5.3,145.7,4.7
		c4-1.1,9.9-3.8,14.8-6.2c4.9-2.4,8.8-4.6,8.8-4.6s-3.2-12-8.2-27.6c-4.9-15.6-11.5-34.7-17.9-48.9c-12.8-28.5-33.6-62-49.7-79
		C595.1,630.3,587.5,626.7,579.8,623.1"/>
	<path class="st6" d="M494.8,686.7c3.5-10.3,9.5-20.4,16.3-29.7c3.9-5.3,8-9.5,12.5-12.3c5.7-3.5,11.3-7,16.9-8.5
		c8-2.2,16.1-4.7,24-6.2c9.8-1.8,13.2,3.2,13.4,17.2c0.1,4.2,0.2,8.4,0.2,12.7c0,3.2-0.3,6.5-0.6,9.9c-0.4,4.1-1.3,8.4-1.6,12.5
		c-1,12.8-5,25.4-11.1,37.5c-7.6,15.1-16,29.4-24.9,43.2c-3.4,5.3-7.2,9.7-11.2,13.4c-8.9,8.1-16.7,9.5-23.9,6
		c-11-5.5-17.3-17.9-21-34c-0.5-2.1-0.6-4.6-0.6-7C483.2,724.1,486,706.4,494.8,686.7"/>
	<path class="st7" d="M566.7,748.7c22.9-36.5,55.3-59.3,70-93.4c13.9-32.1,43.4-53.1,62.9-85.3c5.8-9.6,12.1-19.5,26-21.5
		c8.1-1.2,99.3,66.7,99.3,66.7s-4.2,20.8-8,28.2c-17.3,33.6-50.4,50-67.1,83.9c-7.2,14.5-32.8,42.3-32.8,42.3s-5.3,31.1-15.4,42.5
		c-8.7,9.8-30,29.7-30,29.7s-42.3-8.2-63.6-18.9c-21.3-10.7-42.2-30.2-48-47.3L566.7,748.7z"/>
	<path class="st7" d="M495.5,675.8c13.5-45.5,37.4-79,49.1-118.6c12.2-37.9,26.1-70.9,37.2-110.8c3.3-11.8,8.6-35.9,8.6-35.9
		c7.7-3.9,125.9,42.1,125.9,42.1s1,23-0.9,32c-8.7,40.6-37.1,68.5-45.2,109.3c-3.4,17.5-21.8,54.7-21.8,54.7s2.6,34.1-4.6,49.3
		c-6.1,13-22.2,40.7-22.2,40.7s-43.6,5.2-67.2,1c-23.6-4.2-49-17.7-59-33.6L495.5,675.8z"/>
	<path class="st7" d="M366.8,724c6.1-46.1,26.4-83.2,26-123.3c-0.4-37.7,18.1-71.7,22.8-112c1.4-12,12.5-55.2,12.5-55.2l42.5,9.3
		c0,0,10.8,2,15.9,3.7c23.2,8.1,62.7,29,62.7,29s-6.7,37.2-7.1,46.2c-8.9,41.6-14.4,56.9-15.9,97.7c-0.6,17.5-12.8,56.3-12.8,56.3
		s7.9,32.8,3.3,48.6c-4,13.6-15.4,42.8-15.4,42.8s-42.2,11.3-66.2,10.6c-24-0.7-51.1-10.2-63.5-24.2L366.8,724z"/>
	<path class="st7" d="M331.9,773.3C272,692.5,238.7,610.9,226,593.1c-3.8-5.3-5.1-20-5.1-20s43.5-24.7,47.7-26.2
		c22.9-8.4,49.2-29.6,49.2-29.6s23.7,16.1,27,19.8c15,16.7,12.8,35.1,28.4,51.5c6.7,7,12.4,28,12.4,28s20.2,8.7,22.8,17
		c2.2,7.2,4.6,24.1,4.6,24.1s4.4,9.9-16.2,21.5C376.4,690.6,331.9,773.3,331.9,773.3"/>
	<path class="st7" d="M351.8,695.2c15-4.2,29.7-6.6,44.1-7.9c14.4-1.3,28.5-1.5,42.1-1.2c13.7,0.3,27,0.9,40.2,1.5
		c1.6,0,3.3,0.1,4.9,0.1l4.9,0.2c3.3,0.1,6.5,0.2,9.8,0.2c3.3,0.1,6.5,0.1,9.8,0.1c3.3-0.1,6.5-0.1,9.8-0.2
		c24.7-0.8,49.1,5,72.9,13.3c3,1,5.9,2.2,8.9,3.3c3,1.1,5.9,2.2,8.9,3.4c5.9,2.4,11.8,4.8,17.8,7.2c5.9,2.6,11.9,5,18,7.5
		c3,1.3,6,2.6,9.1,3.8c3.1,1.2,6.2,2.4,9.3,3.7c3.7,1.5,7.4,3,11,4.8c0.9,0.4,1.8,0.9,2.7,1.3c0.9,0.5,1.8,1,2.6,1.5
		c1.7,1,3.4,2.1,5,3.2c3.2,2.3,6.3,4.8,8.9,7.7c2.6,3,4.7,6.4,6.4,10.2c1,2.2,1.7,6.1,2.1,10.6c0.4,4.6,0.6,9.8,0.6,14.7
		c0,9.8-0.7,18.3-0.7,18.3s-5.9,9-9.7,13c-8.4,8.8-21.5,20.2-32.1,29.5c-10.6,9.3-18.9,16.6-18.9,16.6s-102.5-37.2-104.7-37.8
		c-2.2-0.6-48.9-5.5-51.9-5.8c-3-0.3-6-0.7-8.9-1c-2.9-0.3-5.6-0.6-8.2-0.8c-2.5-0.3-4.8-0.4-6.7-0.6c-1.9-0.2-3.5-0.4-4.6-0.5
		c-1.1-0.1-1.7-0.1-1.7-0.1s-77.5,17.5-79,17.6c-2.8,0.2-4.5,0.4-4.5,0.4s-6.8-8.1-15.4-18.5c-4.3-5.2-9.2-10.9-13.8-16.5
		c-4.6-5.7-3.9-9-7.1-14c-6.4-10-15-25.8-20.6-36.5c-1.1-5.9,0.3-11,0.9-16.6c0.5-5.5,2.1-10.9,4.5-15.6
		C329.4,707.9,340.4,701.3,351.8,695.2"/>
	<path class="st5" d="M579.8,623.1c-14.5-0.4-25.8,3.5-37.1,6.4c-11.3,2.9-22.6,4.7-36.9,0.1c-13.5-4.4-24.1-3.1-34.9-1.3
		c-10.7,1.8-21.5,4-35.1,1.6c-8.1-1.4-16.5-2.7-17.4,9c-0.3,3.4,1.6,14.2,3.6,24c1.9,9.9,3.9,18.9,3.9,18.9s6,13.1,9.5,19.5
		c7.9,14.6,19.9,34.8,30,51.3c10.1,16.6,18.2,29.5,18.2,29.5s4.7,2.9,10.3,5.9c5.5,3,12,6.4,15.3,7.2c15,4,143.4,5.3,145.7,4.7
		c4-1.1,9.9-3.8,14.8-6.2c4.9-2.4,8.8-4.6,8.8-4.6s-3.2-12-8.2-27.6c-4.9-15.6-11.5-34.7-17.9-48.9c-12.8-28.5-33.6-62-49.7-79
		C595.1,630.3,587.5,626.7,579.8,623.1"/>
	<path class="st4" d="M494.8,686.7c3.5-10.3,9.5-20.4,16.3-29.7c3.9-5.3,8-9.5,12.5-12.3c5.7-3.5,11.3-7,16.9-8.5
		c8-2.2,16.1-4.7,24-6.2c9.8-1.8,13.2,3.2,13.4,17.2c0.1,4.2,0.2,8.4,0.2,12.7c0,3.2-0.3,6.5-0.6,9.9c-0.4,4.1-1.3,8.4-1.6,12.5
		c-1,12.8-5,25.4-11.1,37.5c-7.6,15.1-16,29.4-24.9,43.2c-3.4,5.3-7.2,9.7-11.2,13.4c-8.9,8.1-16.7,9.5-23.9,6
		c-11-5.5-17.3-17.9-21-34c-0.5-2.1-0.6-4.6-0.6-7C483.2,724.1,486,706.4,494.8,686.7"/>
</g>
<g id="Ebene_3" class="st0">
	<path class="st8" d="M1239.9,182.1l1.7,189.9c0,0,10.8,66.1,49.2,66.1c38.4,0,56.2-44.3,56.2-59.3c0-15-2.4-198.6-2.4-198.6
		 M1108.4,221.1c6.8,0,8.2,252.3,8.2,252.3 M1007.4,215.1h182.4 M924.2,405h58.6 M900.8,472.5l-0.5-257.4h23.4l113,260.9 M695,235.3
		c0,0,37.6,95.3,87.9,95.3 M823.9,212.8c-7.4,3.1-166.9,2.5-166.9,2.5l2,224.4c0,0,44.5-7,73.5-7c29,0,91.3,23.4,91.3,23.4
		 M1439.5,472.5l0.7-253.3h136.3c0,0,11.7,75.3-51.5,75.3c-12.7,0-9.5-79.6-16.6-70.3c-7.1,9.4-14.2,213.1,95.9,220.2 M424.2,472.5
		l0.7-253.3h136.3c0,0,11.7,75.3-51.5,75.3c-12.7,0-9.5-79.6-16.6-70.3C486,233.6,479,437.4,589,444.4 M340.7,192.6
		c0,0-82.8,79.8-82.8,89.4c0,9.6,22.7,134.6,40.1,149.5c16.4,14.1,60.6,12.9,60.6,12.9 M199.4,184.4v290.4"/>
	<path class="st9" d="M1544.1,253.5c0,0-41.3-6.6-58.8-5.5 M518.6,251.2c0,0-41.3-6.6-58.8-5.5"/>
	<path class="st8" d="M287.3,853.9c0,0,36.9,19.7,53.8,24.4 M543.4,651.6l-147.1-8.4C346,815.5,601.1,667.9,527.2,784.7
		c-45.7,72.1-152.5,87.1-152.5,87.1 M1129.4,786c1.2-50.2,35.4-139.2-4.9-146.6c-46.4-8.6-124,6-136,96.3
		c-11.7,87.7,42,124.8,93.4,134.3c34.1,6.3,75-1.6,102.9-30.7 M877.3,826.1h-58.6 M900.7,893.5l0.5-257.4h-23.4L764.9,897
		 M1287.2,662.7c0,0,37.6,95.3,87.9,95.3 M1416.1,640.2c-7.4,3.1-166.9,2.5-166.9,2.5l2,224.4c0,0,44.5-7,73.5-7
		c29,0,91.3,32.8,91.3,32.8 M615.8,895l0.7-253.3h136.3c0,0,11.5,92.4-51.7,92.4c-29.9,0-46.2-58-35.1-87.3"/>
	<path class="st9" d="M731.6,688.4c0,0-41.3-6.6-58.8-5.5"/>
</g>
<g id="Ebene_5">
	<polygon class="st10" points="934.1,356.1 956.1,356.1 934,305.2 	"/>
	<path class="st10" d="M1108.9,232.3h-18.9c5,3.5,11.3,6,18.9,6V232.3z"/>
	<path class="st11" d="M554.7,374.1c-11-14.7-19.7-37-25.2-64.2c21.9-4.3,35.9-15.6,44.3-25.4c28-32.7,21.4-80.9,20.6-86.2l-4.3-28
		H392.5l-0.8,286.2l66.1,0.2l0.5-181.4c2.2,29.9,8.4,70.7,24.9,106.6c28.4,62,72.4,77.5,104.3,79.5l4.2-66
		C576.7,394.5,564.9,387.7,554.7,374.1z"/>
	<path class="st11" d="M364.2,200.5l-45.9-47.6c-0.9,0.8-21.3,20.5-42.1,41.8c-12.4,12.7-22.4,23.3-29.7,31.6
		c-5.4,6.1-10,11.6-13.6,17.1v-74.9h-66.1v290.4h66.1V314.2c2.3,11.4,4.7,22.9,6.8,32.1c16.4,71.7,27.8,86.4,37.2,94.4
		c21.8,18.7,60.8,20.9,78.2,20.9c1.9,0,3.6,0,4.9-0.1l-1.7-66.1c-13.3,0.3-29.6-1.7-36.7-4.4c-2.6-5.6-9-22-18.1-62.6
		c-5-22.4-8.8-43-10.7-54.7C305.2,259.1,337,226.8,364.2,200.5z"/>
	<path class="st11" d="M837.2,227.3l-25.7-60.9c3.5-1.5,6.2-1.9,6.5-1.9c-11.4,1.5-90.5,2.1-160.4,1.8l-33.5-0.1l2.7,296.2l37.9-6
		c11.7-1.8,46.7-6.6,68.4-6.6c15.8,0,56.1,12.5,79.7,21.3l23.3-61.9c-11.3-4.3-69.6-25.5-103-25.5c-12.6,0-27.4,1.1-40.8,2.5
		l-0.9-103.6c0.5,0.9,1.1,1.7,1.7,2.6c27.3,41.5,57.7,62.5,90.4,62.5v-66.1c-5,0-17.9-6.7-34.7-32c-3.9-5.9-7.4-11.8-10.4-17.3
		c0,0,0,0,0.1,0C826.6,231.8,829.9,230.4,837.2,227.3z"/>
	<path class="st11" d="M1570,374.1c-11-14.7-19.7-37-25.2-64.2c21.9-4.3,35.9-15.6,44.3-25.4c28-32.7,21.4-80.9,20.6-86.2l-4.4-28
		h-197.6l-0.8,286.2l66.1,0.2l0.5-181.3c2.2,29.9,8.4,70.7,24.9,106.6c28.4,62,72.4,77.5,104.3,79.5l4.2-66
		C1592,394.5,1580.2,387.7,1570,374.1z"/>
	<path class="st11" d="M1007.9,232.3h71.5c2.4,40.6,4.2,137.6,4.7,225.4l66.1-0.4c0-0.6-0.4-64-1.6-126.6
		c-0.7-36.9-1.6-66.4-2.5-87.6c-0.2-3.9-0.4-7.5-0.5-10.8h44.8v-66.1h-182.4V232.3z M1108.9,232.3v6c-7.6,0-13.9-2.4-18.9-6H1108.9z
		"/>
	<path class="st11" d="M1312.1,164.7c0,1.8,2.3,179.2,2.4,197.6c-0.8,5.7-9.6,26.5-22.9,26.8c-4.9-2.7-13.2-19.6-16.5-36.2
		l-1.6-187.1l-66.1,0.6l1.7,192.4l0.4,2.5c0.3,2.1,3.7,21.4,12.7,41.4c20.7,45.6,52.2,52.4,69.1,52.4c58.6,0,89.3-60.1,89.3-92.3
		c0-15-2.3-191.6-2.4-199.1L1312.1,164.7z"/>
	<path class="st11" d="M867.6,166.2l0.6,290.5l66.1-0.1l-0.1-34.3h49v-3.4l23.6,54.4l60.7-26.3L945.9,166.2H867.6z M934.1,356.1
		l-0.1-50.9l22.1,50.9H934.1z"/>
	<path class="st11" d="M1401.2,924.2c-26.6-14-63.5-29-75.9-29c-21.7,0-56.7,4.8-68.4,6.6l-37.9,6l-2.7-296.2l33.5,0.1
		c69.9,0.3,149.1-0.3,160.4-1.8c-0.3,0-3,0.4-6.5,1.9l25.7,60.9c-7.3,3.1-10.7,4.5-98.9,5c0,0,0,0-0.1,0c3,5.5,6.5,11.4,10.4,17.3
		c16.8,25.3,29.7,32,34.7,32v66.1c-32.7,0-63.1-21-90.4-62.5c-0.6-0.9-1.1-1.7-1.7-2.6l0.9,103.6c13.4-1.4,28.3-2.5,40.8-2.5
		c16.8,0,39.5,6.2,69.5,19c20.2,8.6,36.5,17.2,37.2,17.5L1401.2,924.2z M332.8,912.2c-19.4-5.4-53.8-23.5-60.5-27l31.1-58.3
		c0,0,0,0,0,0l0,0c14,7.5,37.9,19.1,47.1,21.7L332.8,912.2z M795.7,912.2L735.1,886l121.6-280.8h78.2l-0.6,290.5l-66.1-0.1l0.1-34.3
		h-49v-3.4L795.7,912.2z M846.5,795.1h22l0.1-50.9L846.5,795.1z M1104.6,907.2c-9.5,0-19-0.9-28.3-2.6
		c-25.8-4.8-62.2-17.1-89.4-48.8c-18.6-21.6-39-60.4-30.7-122.4c5.7-43,25-77.4,55.7-99.7c32.1-23.3,76.7-32.5,119.1-24.7
		c13.5,2.5,45.1,13.7,46.6,63.9c0.6,20.7-3.7,44.8-7.9,68c-3.1,17.4-6.4,35.3-6.7,48l-66.1-1.5c0.4-17.8,4.1-38.4,7.7-58.2
		c2.6-14.4,5.3-29.2,6.4-41.5c0.6-6.9,0.6-11.6,0.4-14.7c-18.6-1.9-42.4,1-60.7,14.3c-15.9,11.5-25.7,30-29,55
		c-4,30.3,1.1,54,15.3,70.6c14.6,17.1,36,24,51.3,26.8c21.7,4,52.3,0.6,73.1-21.1l47.6,45.9c-17.2,17.9-39.5,30.9-64.4,37.6
		C1131.6,905.4,1118.1,907.2,1104.6,907.2z M379.9,906.6l-9.2-65.5c0.2,0,24.4-3.6,53-15.1c24.5-9.8,57.5-27.6,76.1-56.9
		c-4.7,0.1-9.4,0.2-13.4,0.3c-36.2,1.1-85.8,2.6-113-32.6c-18.4-23.8-21.1-56.8-8.2-100.9l7.4-25.2l173.3,9.9l-3.8,66l-118.6-6.8
		c-0.9,11.9,1.7,16,2.2,16.6c1.9,2.5,8,4.8,16.1,6c12.4,1.9,27.8,1.4,42.6,1c13.9-0.4,27.1-0.8,39.1,0.6
		c21.4,2.5,36.4,11.2,44.7,25.8c16.5,28.9-4.6,62.1-12.5,74.6C502.4,888.5,384.9,905.9,379.9,906.6z M649.3,897.2l-66.1-0.2
		l0.8-286.2h198.5l3.6,29c0.8,6.8,7.3,67.3-24.7,103.5c-15,17-35.7,26-59.9,26c-20,0-38.3-10.5-51.5-29.5c-0.1-0.2-0.2-0.3-0.3-0.5
		L649.3,897.2z"/>
	<g id="XMLID_1_">
		<g>
			<path class="st12" d="M1547.2,221.3L1542,254c-11-1.8-42.4-6.1-55.2-5.3l-2-33C1503.5,214.5,1542.8,220.6,1547.2,221.3z"/>
			<path class="st12" d="M723.4,659.8l-5.2,32.6c-11-1.7-42.4-6.1-55.2-5.3l-2-33C679.8,653,719,659.1,723.4,659.8z"/>
			<path class="st12" d="M531.9,221.9l-5.2,32.6c-11-1.7-42.4-6.1-55.2-5.3l-2-33C488.2,215,527.5,221.1,531.9,221.9z"/>
		</g>
		<g>
		</g>
	</g>
</g>
<g id="Ebene_4" class="st0">
	<path class="st4" d="M830.4,1355.3c37.9-60.3,91.3-98,115.6-154.3c22.9-53,71.7-87.7,103.8-140.9c9.6-15.8,20-32.3,43-35.6
		c13.5-1.9,164,110.2,164,110.2s-6.9,34.4-13.2,46.6c-28.6,55.5-83.2,82.6-110.8,138.7c-11.8,24-54.2,69.8-54.2,69.8
		s-8.7,51.4-25.4,70.3c-14.4,16.2-49.6,49.1-49.6,49.1s-69.8-13.5-105-31.3c-35.2-17.7-69.7-49.8-79.4-78.1L830.4,1355.3z"/>
	<path class="st4" d="M712.9,1234.7c22.3-75.2,61.8-130.5,81.1-196c20.2-62.6,43-117.1,61.5-183c5.5-19.6,14.2-59.3,14.2-59.3
		c12.8-6.4,208,69.5,208,69.5s1.7,38.1-1.4,52.9c-14.3,67.1-61.4,113.1-74.6,180.6c-5.7,28.9-36,90.4-36,90.4s4.2,56.4-7.6,81.5
		c-10.2,21.6-36.6,67.3-36.6,67.3s-72,8.7-111.1,1.7c-39.1-7-80.9-29.2-97.5-55.5L712.9,1234.7z"/>
	<path class="st4" d="M500.2,1314.4c10-76.2,43.7-137.5,42.9-203.6c-0.7-62.3,29.9-118.4,37.6-185.1c2.3-19.8,20.7-91.1,20.7-91.1
		l70.2,15.3c0,0,17.8,3.2,26.3,6.2c38.3,13.3,103.6,47.9,103.6,47.9s-11,61.4-11.8,76.3c-14.7,68.7-23.8,94-26.2,161.5
		c-1,28.9-21.2,93-21.2,93s13.1,54.2,5.4,80.3c-6.6,22.4-25.4,70.6-25.4,70.6s-69.7,18.7-109.3,17.5c-39.6-1.2-84.5-16.8-105-40
		L500.2,1314.4z"/>
	<path class="st4" d="M442.6,1395.9c-98.9-133.5-154-268.3-175-297.8c-6.2-8.7-8.4-33-8.4-33s71.8-40.8,78.8-43.3
		c37.8-13.8,81.3-48.9,81.3-48.9s39.1,26.6,44.6,32.7c24.8,27.6,21.2,58,47,85c11.1,11.6,20.5,46.2,20.5,46.2s33.4,14.3,37.7,28.1
		c3.7,11.9,7.7,39.7,7.7,39.7s7.2,16.3-26.7,35.5C516,1259.2,442.6,1395.9,442.6,1395.9"/>
	<path class="st4" d="M475.3,1266.7c24.7-7,49.1-10.9,72.9-13c23.8-2.1,47-2.5,69.6-1.9c22.6,0.5,44.6,1.5,66.3,2.4
		c2.7,0.1,5.4,0.2,8.1,0.2l8.1,0.3c5.4,0.2,10.8,0.3,16.2,0.3c5.4,0.1,10.8,0.2,16.2,0.1c5.4-0.1,10.8-0.2,16.2-0.3
		c40.9-1.3,81.1,8.2,120.4,21.9c5,1.6,9.8,3.6,14.7,5.4c4.9,1.8,9.8,3.7,14.7,5.6c9.7,4,19.5,7.9,29.4,12
		c9.7,4.3,19.7,8.3,29.7,12.5c5,2.1,10,4.2,15,6.3c5.1,2.1,10.2,4,15.3,6.1c6.1,2.5,12.2,5,18.2,7.9c1.5,0.7,3,1.4,4.5,2.2
		c1.5,0.8,2.9,1.6,4.3,2.4c2.8,1.7,5.6,3.4,8.3,5.3c5.4,3.8,10.4,7.9,14.7,12.8c4.2,5,7.8,10.5,10.5,16.9c1.6,3.7,2.8,10.1,3.5,17.6
		c0.7,7.6,0.9,16.2,0.9,24.3c0,16.2-1.2,30.3-1.2,30.3s-9.8,14.9-16,21.4c-13.9,14.6-35.5,33.3-53,48.8
		c-17.5,15.4-31.2,27.5-31.2,27.5s-169.3-61.4-172.9-62.5c-3.6-1-80.7-9.1-85.7-9.6c-5-0.5-9.9-1.1-14.7-1.7
		c-4.8-0.4-9.3-0.9-13.5-1.4c-4.2-0.5-7.9-0.7-11.1-1.1c-3.2-0.3-5.8-0.6-7.5-0.8c-1.8-0.2-2.8-0.2-2.8-0.2s-128.1,28.8-130.4,29
		c-4.6,0.4-7.5,0.6-7.5,0.6s-11.2-13.4-25.5-30.5c-7.2-8.5-15.2-18-22.9-27.3c-7.7-9.4-6.4-14.8-11.7-23.1
		c-10.5-16.6-24.7-42.6-34.1-60.3c-1.8-9.7,0.5-18.2,1.4-27.5c0.9-9.1,3.4-18,7.4-25.7C438.4,1287.8,456.6,1276.9,475.3,1266.7"/>
	<path class="st5" d="M852.1,1147.7c-24-0.7-42.6,5.7-61.2,10.5c-18.7,4.7-37.3,7.8-61,0.2c-22.3-7.2-39.9-5.1-57.6-2.2
		c-17.7,2.9-35.6,6.6-58,2.6c-13.3-2.3-27.2-4.5-28.7,14.9c-0.5,5.6,2.7,23.4,5.9,39.7c3.2,16.3,6.5,31.2,6.5,31.2
		s9.9,21.6,15.7,32.3c13,24.1,32.9,57.4,49.5,84.8c16.7,27.3,30.1,48.7,30.1,48.7s7.8,4.8,17,9.8c9.2,5,19.8,10.5,25.2,11.9
		c24.8,6.7,236.8,8.8,240.7,7.7c6.6-1.8,16.4-6.3,24.5-10.2c8.1-4,14.5-7.6,14.5-7.6s-5.4-19.8-13.5-45.5
		c-8.1-25.7-19-57.3-29.6-80.8c-21.2-47-55.5-102.4-82.1-130.4C877.4,1159.6,864.7,1153.6,852.1,1147.7"/>
	<path class="st6" d="M711.6,1252.8c5.9-17.1,15.7-33.7,27-49.1c6.4-8.8,13.2-15.7,20.6-20.3c9.4-5.7,18.7-11.6,28-14.1
		c13.3-3.6,26.7-7.8,39.7-10.2c16.2-2.9,21.8,5.2,22.2,28.4c0.1,7,0.4,13.9,0.3,21c-0.1,5.3-0.5,10.8-1.1,16.3
		c-0.7,6.8-2.2,13.9-2.7,20.6c-1.7,21.2-8.3,41.9-18.4,62c-12.6,24.9-26.4,48.6-41.1,71.3c-5.6,8.7-11.8,16-18.6,22.1
		c-14.8,13.4-27.7,15.7-39.4,9.9c-18.2-9.1-28.5-29.6-34.7-56.1c-0.8-3.4-1-7.6-1-11.6C692.5,1314.5,697.2,1285.4,711.6,1252.8"/>
	<path class="st7" d="M830.4,1355.3c37.9-60.3,91.3-98,115.6-154.3c22.9-53,71.7-87.7,103.8-140.9c9.6-15.8,20-32.3,43-35.6
		c13.5-1.9,164,110.2,164,110.2s-6.9,34.4-13.2,46.6c-28.6,55.5-83.2,82.6-110.8,138.7c-11.8,24-54.2,69.8-54.2,69.8
		s-8.7,51.4-25.4,70.3c-14.4,16.2-49.6,49.1-49.6,49.1s-69.8-13.5-105-31.3c-35.2-17.7-69.7-49.8-79.4-78.1L830.4,1355.3z"/>
	<path class="st7" d="M712.9,1234.7c22.3-75.2,61.8-130.5,81.1-196c20.2-62.6,43-117.1,61.5-183c5.5-19.6,14.2-59.3,14.2-59.3
		c12.8-6.4,208,69.5,208,69.5s1.7,38.1-1.4,52.9c-14.3,67.1-61.4,113.1-74.6,180.6c-5.7,28.9-36,90.4-36,90.4s4.2,56.4-7.6,81.5
		c-10.2,21.6-36.6,67.3-36.6,67.3s-72,8.7-111.1,1.7c-39.1-7-80.9-29.2-97.5-55.5L712.9,1234.7z"/>
	<path class="st7" d="M500.2,1314.4c10-76.2,43.7-137.5,42.9-203.6c-0.7-62.3,29.9-118.4,37.6-185.1c2.3-19.8,20.7-91.1,20.7-91.1
		l70.2,15.3c0,0,17.8,3.2,26.3,6.2c38.3,13.3,103.6,47.9,103.6,47.9s-11,61.4-11.8,76.3c-14.7,68.7-23.8,94-26.2,161.5
		c-1,28.9-21.2,93-21.2,93s13.1,54.2,5.4,80.3c-6.6,22.4-25.4,70.6-25.4,70.6s-69.7,18.7-109.3,17.5c-39.6-1.2-84.5-16.8-105-40
		L500.2,1314.4z"/>
	<path class="st7" d="M442.6,1395.9c-98.9-133.5-154-268.3-175-297.8c-6.2-8.7-8.4-33-8.4-33s71.8-40.8,78.8-43.3
		c37.8-13.8,81.3-48.9,81.3-48.9s39.1,26.6,44.6,32.7c24.8,27.6,21.2,58,47,85c11.1,11.6,20.5,46.2,20.5,46.2s33.4,14.3,37.7,28.1
		c3.7,11.9,7.7,39.7,7.7,39.7s7.2,16.3-26.7,35.5C516,1259.2,442.6,1395.9,442.6,1395.9"/>
	<path class="st7" d="M475.3,1266.7c24.7-7,49.1-10.9,72.9-13c23.8-2.1,47-2.5,69.6-1.9c22.6,0.5,44.6,1.5,66.3,2.4
		c2.7,0.1,5.4,0.2,8.1,0.2l8.1,0.3c5.4,0.2,10.8,0.3,16.2,0.3c5.4,0.1,10.8,0.2,16.2,0.1c5.4-0.1,10.8-0.2,16.2-0.3
		c40.9-1.3,81.1,8.2,120.4,21.9c5,1.6,9.8,3.6,14.7,5.4c4.9,1.8,9.8,3.7,14.7,5.6c9.7,4,19.5,7.9,29.4,12
		c9.7,4.3,19.7,8.3,29.7,12.5c5,2.1,10,4.2,15,6.3c5.1,2.1,10.2,4,15.3,6.1c6.1,2.5,12.2,5,18.2,7.9c1.5,0.7,3,1.4,4.5,2.2
		c1.5,0.8,2.9,1.6,4.3,2.4c2.8,1.7,5.6,3.4,8.3,5.3c5.4,3.8,10.4,7.9,14.7,12.8c4.2,5,7.8,10.5,10.5,16.9c1.6,3.7,2.8,10.1,3.5,17.6
		c0.7,7.6,0.9,16.2,0.9,24.3c0,16.2-1.2,30.3-1.2,30.3s-9.8,14.9-16,21.4c-13.9,14.6-35.5,33.3-53,48.8
		c-17.5,15.4-31.2,27.5-31.2,27.5s-169.3-61.4-172.9-62.5c-3.6-1-80.7-9.1-85.7-9.6c-5-0.5-9.9-1.1-14.7-1.7
		c-4.8-0.4-9.3-0.9-13.5-1.4c-4.2-0.5-7.9-0.7-11.1-1.1c-3.2-0.3-5.8-0.6-7.5-0.8c-1.8-0.2-2.8-0.2-2.8-0.2s-128.1,28.8-130.4,29
		c-4.6,0.4-7.5,0.6-7.5,0.6s-11.2-13.4-25.5-30.5c-7.2-8.5-15.2-18-22.9-27.3c-7.7-9.4-6.4-14.8-11.7-23.1
		c-10.5-16.6-24.7-42.6-34.1-60.3c-1.8-9.7,0.5-18.2,1.4-27.5c0.9-9.1,3.4-18,7.4-25.7C438.4,1287.8,456.6,1276.9,475.3,1266.7"/>
	<path class="st5" d="M852.1,1147.7c-24-0.7-42.6,5.7-61.2,10.5c-18.7,4.7-37.3,7.8-61,0.2c-22.3-7.2-39.9-5.1-57.6-2.2
		c-17.7,2.9-35.6,6.6-58,2.6c-13.3-2.3-27.2-4.5-28.7,14.9c-0.5,5.6,2.7,23.4,5.9,39.7c3.2,16.3,6.5,31.2,6.5,31.2
		s9.9,21.6,15.7,32.3c13,24.1,32.9,57.4,49.5,84.8c16.7,27.3,30.1,48.7,30.1,48.7s7.8,4.8,17,9.8c9.2,5,19.8,10.5,25.2,11.9
		c24.8,6.7,236.8,8.8,240.7,7.7c6.6-1.8,16.4-6.3,24.5-10.2c8.1-4,14.5-7.6,14.5-7.6s-5.4-19.8-13.5-45.5
		c-8.1-25.7-19-57.3-29.6-80.8c-21.2-47-55.5-102.4-82.1-130.4C877.4,1159.6,864.7,1153.6,852.1,1147.7"/>
	<path class="st4" d="M711.6,1252.8c5.9-17.1,15.7-33.7,27-49.1c6.4-8.8,13.2-15.7,20.6-20.3c9.4-5.7,18.7-11.6,28-14.1
		c13.3-3.6,26.7-7.8,39.7-10.2c16.2-2.9,21.8,5.2,22.2,28.4c0.1,7,0.4,13.9,0.3,21c-0.1,5.3-0.5,10.8-1.1,16.3
		c-0.7,6.8-2.2,13.9-2.7,20.6c-1.7,21.2-8.3,41.9-18.4,62c-12.6,24.9-26.4,48.6-41.1,71.3c-5.6,8.7-11.8,16-18.6,22.1
		c-14.8,13.4-27.7,15.7-39.4,9.9c-18.2-9.1-28.5-29.6-34.7-56.1c-0.8-3.4-1-7.6-1-11.6C692.5,1314.5,697.2,1285.4,711.6,1252.8"/>
</g>
<g id="Ebene_6" class="st0">
	<line class="st13" x1="511.6" y1="219" x2="585.5" y2="219"/>
	<line class="st13" x1="511.6" y1="219" x2="511.6" y2="170.3"/>
	<line class="st13" x1="703.1" y1="659.7" x2="777" y2="659.7"/>
	<line class="st13" x1="703.1" y1="659.7" x2="703.1" y2="611"/>
</g>
<g id="Ebene_7" class="st0">
	<line class="st13" x1="1537" y1="221.3" x2="1600.8" y2="221.3"/>
	<line class="st13" x1="1537" y1="221.3" x2="1537" y2="170.3"/>
	<line class="st13" x1="521.7" y1="221.3" x2="585.5" y2="221.3"/>
	<line class="st13" x1="521.7" y1="221.3" x2="521.7" y2="170.3"/>
	<line class="st13" x1="713.3" y1="661.9" x2="777" y2="661.9"/>
	<line class="st13" x1="713.3" y1="661.9" x2="713.3" y2="610.8"/>
</g>
</svg>
