<?xml version="1.0" encoding="UTF-8" standalone="no"?>
<!-- Created with Inkscape (http://www.inkscape.org/) -->

<svg
   width="2467.8088"
   height="539.6134"
   viewBox="0 0 652.94109 142.77314"
   version="1.1"
   id="svg4423"
   xml:space="preserve"
   sodipodi:docname="HavelSpace_banner_pin_white.svg"
   xmlns:inkscape="http://www.inkscape.org/namespaces/inkscape"
   xmlns:sodipodi="http://sodipodi.sourceforge.net/DTD/sodipodi-0.dtd"
   xmlns="http://www.w3.org/2000/svg"
   xmlns:svg="http://www.w3.org/2000/svg"><sodipodi:namedview
     id="namedview53"
     pagecolor="#ffffff"
     bordercolor="#000000"
     borderopacity="0.25"
     inkscape:showpageshadow="2"
     inkscape:pageopacity="0.0"
     inkscape:pagecheckerboard="0"
     inkscape:deskcolor="#d1d1d1"
     showgrid="false" /><defs
     id="defs4420"><style
       id="style9099">.cls-1{fill:#fff;}.cls-2{fill:#405f89;}</style></defs><g
     id="layer1"
     transform="matrix(1.421872,0,0,1.421872,-155.07015,-199.48086)"><g
       id="text5617"
       style="font-weight:600;font-size:29.9573px;font-family:'Exo 2';-inkscape-font-specification:'Exo 2 Semi-Bold';fill:#405f89;stroke-width:0.44936" /><g
       id="g3544"
       transform="matrix(1.085144,0,0,1.085144,73.522485,115.85148)"><path
         class="cls-2"
         d="M 100.63192,33.893557 C 93.157004,26.563127 83.170465,22.525165 72.510677,22.525165 c -10.659789,0 -20.646327,4.037962 -28.121245,11.368392 -7.505659,7.359634 -11.640458,17.24165 -11.640458,27.824584 0,6.723275 1.99823,13.014625 6.106898,19.235269 3.716708,5.624249 8.787601,10.642881 13.262099,15.069729 9.198007,9.101171 18.157762,17.064881 20.392706,19.035451 2.23648,-1.97057 11.196236,-9.93582 20.394243,-19.035451 4.474498,-4.426848 9.54539,-9.44548 13.26056,-15.069729 4.11021,-6.220644 6.1069,-12.511994 6.1069,-19.235269 0,-10.582934 -4.13326,-20.46495 -11.64046,-27.824584 z M 72.510677,94.046428 c -18.09013,0 -32.755601,-14.665471 -32.755601,-32.757138 0,-18.091667 14.665471,-32.755601 32.755601,-32.755601 18.09013,0 32.757133,14.665471 32.757133,32.755601 0,18.09013 -14.665466,32.757138 -32.757133,32.757138 z"
         id="path9103"
         style="stroke-width:0.15371" /><path
         class="cls-1"
         d="m 78.02118,51.55791 -5.824072,19.81783 c -0.25977,-0.05226 -0.528762,-0.08147 -0.803903,-0.08147 -0.484186,0 -0.946854,0.08761 -1.377242,0.245936 L 64.985035,63.490417 77.603089,51.333493 c 0.135265,0.08147 0.273604,0.156784 0.418091,0.224417 z"
         id="path9105"
         style="stroke-width:0.15371" /><path
         class="cls-1"
         d="m 72.510677,28.533689 c -18.09013,0 -32.755601,14.665471 -32.755601,32.755601 0,18.09013 14.665471,32.757138 32.755601,32.757138 18.09013,0 32.757133,-14.665471 32.757133,-32.757138 0,-18.091667 -14.665466,-32.755601 -32.757133,-32.755601 z m 17.796544,41.122036 c -1.776888,0 -3.217151,-1.438725 -3.217151,-3.215613 0,-0.971447 0.431925,-1.838372 1.112861,-2.428618 L 81.787075,51.779252 c -0.505706,0.170618 -1.045228,0.264381 -1.609343,0.264381 -0.205972,0 -0.407332,-0.01383 -0.607155,-0.03843 l -5.882482,20.017653 c 1.020635,0.7209 1.687736,1.909078 1.687736,3.254041 0,2.198053 -1.783036,3.981089 -3.982626,3.981089 -2.19959,0 -3.981089,-1.783036 -3.981089,-3.981089 0,-1.13438 0.474964,-2.158089 1.235829,-2.8836 l -4.851088,-7.759281 -5.37985,5.183102 c 0.322791,0.501094 0.513391,1.097489 0.513391,1.73846 0,1.776887 -1.440262,3.21715 -3.215613,3.21715 -1.77535,0 -3.21715,-1.440263 -3.21715,-3.21715 0,-1.776888 1.440263,-3.215613 3.21715,-3.215613 0.547208,0 1.063673,0.138339 1.515581,0.379663 l 5.691881,-5.484373 -7.61633,-12.183054 c -0.310495,0.09991 -0.642508,0.155247 -0.986819,0.155247 -1.776887,0 -3.215613,-1.438726 -3.215613,-3.215613 0,-1.776888 1.438726,-3.215613 3.215613,-3.215613 1.776888,0 3.215614,1.438725 3.215614,3.215613 0,0.848479 -0.330477,1.618566 -0.868462,2.193441 l 7.444175,11.906377 12.250687,-11.801854 c -0.75779,-0.880758 -1.215846,-2.025898 -1.215846,-3.280171 0,-2.779077 2.253389,-5.032466 5.032466,-5.032466 2.779076,0 5.034002,2.253389 5.034002,5.032466 0,1.640086 -0.783921,3.095719 -1.99823,4.014905 l 6.432764,12.267595 c 0.213657,-0.04458 0.433462,-0.06763 0.660953,-0.06763 1.77535,0 3.215613,1.438725 3.215613,3.215613 0,1.776888 -1.440263,3.215613 -3.215613,3.215614 z"
         id="path9107"
         style="stroke-width:0.15371" /><path
         class="cls-2"
         d="m 90.307221,63.224499 c -0.227491,0 -0.447296,0.02306 -0.660953,0.06763 L 83.213504,51.024536 c 1.214309,-0.919186 1.99823,-2.374819 1.99823,-4.014905 0,-2.779077 -2.253389,-5.032466 -5.034002,-5.032466 -2.780614,0 -5.032466,2.253389 -5.032466,5.032466 0,1.254273 0.458056,2.399413 1.215846,3.280171 L 64.110425,62.091656 56.66625,50.18528 c 0.537985,-0.574876 0.868461,-1.344963 0.868461,-2.193442 0,-1.776888 -1.440262,-3.215613 -3.215613,-3.215613 -1.77535,0 -3.215613,1.438725 -3.215613,3.215613 0,1.776887 1.438726,3.215613 3.215613,3.215613 0.344311,0 0.676324,-0.05534 0.986818,-0.155247 l 7.616331,12.183055 -5.691881,5.484372 c -0.451908,-0.241324 -0.968373,-0.379663 -1.515581,-0.379663 -1.776888,0 -3.21715,1.440262 -3.21715,3.215613 0,1.77535 1.440262,3.21715 3.21715,3.21715 1.776888,0 3.215613,-1.440263 3.215613,-3.21715 0,-0.640971 -0.1906,-1.237366 -0.513391,-1.73846 l 5.37985,-5.183101 4.851087,7.75928 c -0.760864,0.725512 -1.235828,1.74922 -1.235828,2.8836 0,2.198053 1.781499,3.981089 3.981089,3.981089 2.19959,0 3.982626,-1.783036 3.982626,-3.981089 0,-1.344963 -0.667101,-2.533141 -1.687736,-3.254041 l 5.882482,-20.017653 c 0.199823,0.02459 0.401183,0.03843 0.607155,0.03843 0.564115,0 1.103637,-0.09376 1.609343,-0.264381 l 6.415856,12.232242 c -0.680936,0.590246 -1.112861,1.457171 -1.112861,2.428618 0,1.776888 1.440263,3.215613 3.217151,3.215613 1.776887,0 3.215613,-1.438725 3.215613,-3.215613 0,-1.776888 -1.440263,-3.215613 -3.215613,-3.215613 z M 72.197108,71.37574 c -0.25977,-0.05226 -0.528762,-0.08147 -0.803903,-0.08147 -0.484186,0 -0.946854,0.08761 -1.377242,0.245936 L 64.985035,63.490417 77.603089,51.333493 c 0.135265,0.08147 0.273604,0.156784 0.418091,0.224417 z"
         id="path9109"
         style="stroke-width:0.15371" /><g
         aria-label="Havel Space"
         id="text5597"
         style="font-weight:600;font-size:58.66px;font-family:'Exo 2';-inkscape-font-specification:'Exo 2 Semi-Bold';fill:#405f89;stroke-width:0.30552"><path
           d="m 140.07407,33.184032 v 40.475399 h -7.3325 V 33.184032 Z m 16.89408,16.01418 v 5.74868 h -17.36336 v -5.74868 z m 6.68724,-16.01418 v 40.475399 h -7.3325 V 33.184032 Z"
           id="path3546" /><path
           d="m 186.65009,44.153452 q 3.46094,0 5.866,0.93856 2.40506,0.8799 3.57826,3.05032 1.23186,2.17042 1.23186,5.98332 v 19.533779 h -5.63136 l -0.99722,-6.21796 -0.52794,-0.82124 V 54.066992 q 0,-2.28774 -1.05588,-3.28496 -1.05588,-1.05588 -4.04754,-1.05588 -2.22908,0 -5.63136,0.17598 -3.34362,0.17598 -6.7459,0.46928 l -0.64526,-4.86878 q 2.0531,-0.41062 4.63414,-0.70392 2.58104,-0.2933 5.22074,-0.46928 2.6397,-0.17598 4.75146,-0.17598 z m 7.6258,11.79066 -0.0587,4.399499 h -13.1985 q -1.7598,0.05866 -2.52238,0.93856 -0.76258,0.8799 -0.76258,2.40506 v 1.58382 q 0,1.7598 0.93856,2.6397 0.93856,0.8799 2.933,0.8799 1.58382,0 3.5196,-0.5866 1.93578,-0.64526 3.8129,-1.87712 1.93578,-1.23186 3.46094,-2.933 v 3.69558 q -0.5866,0.8799 -1.70114,2.11176 -1.11454,1.1732 -2.75702,2.3464 -1.58382,1.1732 -3.69558,1.93578 -2.0531,0.76258 -4.57548,0.76258 -2.58104,0 -4.63414,-0.8799 -2.0531,-0.93856 -3.2263,-2.69836 -1.1732,-1.81846 -1.1732,-4.45816 v -3.05032 q 0,-3.40228 2.22908,-5.2794 2.28774,-1.935779 6.21796,-1.935779 z"
           id="path3548" /><path
           d="m 232.50398,44.857372 -9.91354,27.100919 q -0.2933,0.76258 -0.93856,1.23186 -0.5866,0.46928 -1.4665,0.46928 h -6.21796 q -0.82124,0 -1.4665,-0.46928 -0.64526,-0.46928 -0.93856,-1.23186 l -9.91354,-27.100919 h 7.56714 l 6.04198,18.888519 q 0.41062,1.29052 0.76258,2.6397 0.35196,1.29052 0.64526,2.52238 h 0.76258 q 0.41062,-1.29052 0.76258,-2.58104 0.41062,-1.29052 0.76258,-2.58104 l 6.04198,-18.888519 z"
           id="path3550" /><path
           d="m 249.64832,44.153452 q 6.98054,0 10.03086,2.46372 3.05032,2.40506 3.10898,7.15652 0.0587,3.930219 -1.87712,5.983319 -1.87712,1.99444 -6.27662,1.99444 h -16.4248 v -4.3995 h 14.48902 q 1.99444,0 2.52238,-1.055879 0.5866,-1.05588 0.5866,-2.58104 -0.0587,-2.40506 -1.40784,-3.34362 -1.29052,-0.93856 -4.45816,-0.93856 -2.75702,0 -4.28218,0.76258 -1.52516,0.76258 -2.17042,2.75702 -0.5866,1.99444 -0.5866,5.748679 0,3.98888 0.76258,6.1593 0.76258,2.17042 2.52238,2.99166 1.7598,0.76258 4.6928,0.76258 2.17042,0 4.9861,-0.17598 2.87434,-0.17598 5.51404,-0.46928 l 0.70392,4.51682 q -1.58382,0.64526 -3.63692,1.05588 -2.0531,0.41062 -4.28218,0.5866 -2.17042,0.23464 -4.1062,0.23464 -5.2794,0 -8.5057,-1.52516 -3.16764,-1.58382 -4.63414,-4.92744 -1.40784,-3.34362 -1.40784,-8.62302 0,-5.690019 1.40784,-8.974979 1.4665,-3.34362 4.57548,-4.75146 3.16764,-1.40784 8.15374,-1.40784 z"
           id="path3552" /><path
           d="m 276.33862,32.597432 -0.0587,32.380319 q 0,1.64248 0.93856,2.52238 0.93856,0.82124 2.69836,0.82124 h 2.52238 l 0.82124,4.9861 q -0.64526,0.2933 -1.81846,0.52794 -1.11454,0.23464 -2.3464,0.2933 -1.1732,0.11732 -2.0531,0.11732 -3.57826,0 -5.69002,-1.93578 -2.11176,-1.93578 -2.11176,-5.5727 V 32.597432 Z"
           id="path3554" /><path
           d="m 312.10565,32.421452 q 2.99166,0.05866 6.27662,0.35196 3.34362,0.2933 6.51126,1.11454 l -0.46928,4.9861 q -2.52238,-0.05866 -5.866,-0.11732 -3.28496,-0.11732 -6.33528,-0.11732 -1.87712,0 -3.2263,0.11732 -1.29052,0.11732 -2.11176,0.5866 -0.82124,0.46928 -1.23186,1.4665 -0.35196,0.93856 -0.35196,2.6397 0,2.6397 1.05588,3.75424 1.11454,1.11454 3.57826,1.7598 l 7.97776,2.3464 q 4.81012,1.4665 6.62858,4.28218 1.81846,2.757019 1.81846,7.391159 0,3.46094 -0.82124,5.69002 -0.82124,2.22908 -2.52238,3.46094 -1.70114,1.23186 -4.45816,1.7598 -2.75702,0.52794 -6.62858,0.52794 -1.99444,0 -5.51404,-0.23464 -3.46094,-0.23464 -7.9191,-1.1732 l 0.46928,-5.2794 q 3.46094,0.11732 5.80734,0.23464 2.3464,0.05866 4.04754,0.05866 1.70114,0 3.16764,0 2.69836,0 4.22352,-0.35196 1.52516,-0.35196 2.11176,-1.4665 0.64526,-1.11454 0.64526,-3.2263 0,-1.81846 -0.46928,-2.81568 -0.41062,-1.05588 -1.40784,-1.64248 -0.99722,-0.5866 -2.58104,-0.99722 l -8.27106,-2.522379 q -4.57548,-1.40784 -6.4526,-4.16486 -1.81846,-2.75702 -1.81846,-7.39116 0,-3.46094 0.82124,-5.63136 0.82124,-2.22908 2.52238,-3.34362 1.70114,-1.1732 4.34084,-1.58382 2.69836,-0.46928 6.4526,-0.46928 z"
           id="path3556" /><path
           d="m 350.76263,44.153452 q 5.39672,0 7.68446,3.93022 2.3464,3.93022 2.3464,11.380039 0,5.69002 -1.23186,8.97498 -1.1732,3.2263 -3.57826,4.63414 -2.40506,1.34918 -6.10064,1.34918 -2.933,0 -5.74868,-0.82124 -2.75702,-0.8799 -5.10342,-2.69836 l 0.46928,-3.5196 q 2.28774,0.64526 4.1062,1.11454 1.81846,0.46928 3.98888,0.46928 2.17042,0 3.40228,-0.70392 1.29052,-0.76258 1.87712,-2.81568 0.5866,-2.0531 0.5866,-5.92466 0,-3.812899 -0.52794,-5.924659 -0.52794,-2.11176 -1.7598,-2.933 -1.1732,-0.8799 -3.10898,-0.8799 -2.11176,0 -3.98888,0.93856 -1.87712,0.8799 -4.34084,2.6397 l -0.82124,-3.75424 q 1.34918,-1.58382 3.2263,-2.81568 1.93578,-1.23186 4.16486,-1.93578 2.22908,-0.70392 4.45816,-0.70392 z m -12.14262,0.70392 0.70392,5.5727 0.64526,0.82124 v 18.595219 l -0.2933,0.70392 q 0.17598,1.70114 0.23464,3.40228 0.0587,1.7598 0.0587,3.57826 v 7.56714 h -7.09786 V 44.857372 Z"
           id="path3558" /><path
           d="m 382.08712,44.153452 q 3.46094,0 5.866,0.93856 2.40506,0.8799 3.57826,3.05032 1.23186,2.17042 1.23186,5.98332 v 19.533779 h -5.63136 l -0.99722,-6.21796 -0.52794,-0.82124 V 54.066992 q 0,-2.28774 -1.05588,-3.28496 -1.05588,-1.05588 -4.04754,-1.05588 -2.22908,0 -5.63136,0.17598 -3.34362,0.17598 -6.7459,0.46928 l -0.64526,-4.86878 q 2.0531,-0.41062 4.63414,-0.70392 2.58104,-0.2933 5.22074,-0.46928 2.6397,-0.17598 4.75146,-0.17598 z m 7.6258,11.79066 -0.0587,4.399499 h -13.1985 q -1.7598,0.05866 -2.52238,0.93856 -0.76258,0.8799 -0.76258,2.40506 v 1.58382 q 0,1.7598 0.93856,2.6397 0.93856,0.8799 2.933,0.8799 1.58382,0 3.5196,-0.5866 1.93578,-0.64526 3.8129,-1.87712 1.93578,-1.23186 3.46094,-2.933 v 3.69558 q -0.5866,0.8799 -1.70114,2.11176 -1.11454,1.1732 -2.75702,2.3464 -1.58382,1.1732 -3.69558,1.93578 -2.0531,0.76258 -4.57548,0.76258 -2.58104,0 -4.63414,-0.8799 -2.0531,-0.93856 -3.2263,-2.69836 -1.1732,-1.81846 -1.1732,-4.45816 v -3.05032 q 0,-3.40228 2.22908,-5.2794 2.28774,-1.935779 6.21796,-1.935779 z"
           id="path3560" /><path
           d="m 413.41161,44.153452 q 1.4665,0 3.2263,0.11732 1.7598,0.11732 3.57826,0.46928 1.81846,0.35196 3.28496,0.99722 l -0.82124,4.45816 q -2.17042,-0.11732 -4.34084,-0.17598 -2.11176,-0.05866 -3.69558,-0.05866 -2.99166,0 -4.75146,0.82124 -1.70114,0.76258 -2.46372,2.81568 -0.76258,1.99444 -0.76258,5.631359 0,3.63692 0.76258,5.69002 0.76258,1.99444 2.46372,2.81568 1.7598,0.82124 4.75146,0.82124 0.8799,0 2.28774,-0.05866 1.4665,-0.05866 3.10898,-0.17598 1.70114,-0.11732 3.28496,-0.2933 l 0.70392,4.57548 q -2.28774,0.93856 -5.10342,1.34918 -2.81568,0.41062 -5.5727,0.41062 -5.16208,0 -8.27106,-1.4665 -3.10898,-1.4665 -4.51682,-4.75146 -1.34918,-3.34362 -1.34918,-8.91632 0,-5.572699 1.40784,-8.857659 1.40784,-3.34362 4.51682,-4.75146 3.10898,-1.4665 8.27106,-1.4665 z"
           id="path3562" /><path
           d="m 442.26463,44.153452 q 6.98054,0 10.03086,2.46372 3.05032,2.40506 3.10898,7.15652 0.0587,3.930219 -1.87712,5.983319 -1.87712,1.99444 -6.27662,1.99444 h -16.4248 v -4.3995 h 14.48902 q 1.99444,0 2.52238,-1.055879 0.5866,-1.05588 0.5866,-2.58104 -0.0587,-2.40506 -1.40784,-3.34362 -1.29052,-0.93856 -4.45816,-0.93856 -2.75702,0 -4.28218,0.76258 -1.52516,0.76258 -2.17042,2.75702 -0.5866,1.99444 -0.5866,5.748679 0,3.98888 0.76258,6.1593 0.76258,2.17042 2.52238,2.99166 1.7598,0.76258 4.6928,0.76258 2.17042,0 4.9861,-0.17598 2.87434,-0.17598 5.51404,-0.46928 l 0.70392,4.51682 q -1.58382,0.64526 -3.63692,1.05588 -2.0531,0.41062 -4.28218,0.5866 -2.17042,0.23464 -4.1062,0.23464 -5.2794,0 -8.5057,-1.52516 -3.16764,-1.58382 -4.63414,-4.92744 -1.40784,-3.34362 -1.40784,-8.62302 0,-5.690019 1.40784,-8.974979 1.4665,-3.34362 4.57548,-4.75146 3.16764,-1.40784 8.15374,-1.40784 z"
           id="path3564" /></g><g
         aria-label="NETZWERK · COWORKING · EVENTS"
         id="text5617-0"
         style="font-weight:600;font-size:20.3681px;font-family:'Exo 2';-inkscape-font-specification:'Exo 2 Semi-Bold';fill:#405f89;stroke-width:0.30552"><path
           d="m 143.55208,89.54038 v 13.09669 q 0,0.9573 -0.93693,0.9573 h -1.73129 q -0.42773,0 -0.65178,-0.18331 -0.22405,-0.20369 -0.40736,-0.59068 l -4.25693,-8.473129 q -0.20368,-0.448098 -0.4481,-0.977669 -0.24442,-0.549939 -0.38699,-1.038773 h -0.26479 q 0.0407,0.509203 0.0611,1.038773 0.0407,0.509203 0.0407,1.018405 v 9.206383 h -2.44417 V 90.49768 q 0,-0.9573 0.93693,-0.9573 h 1.69055 q 0.42773,0 0.65178,0.203681 0.22405,0.183312 0.40737,0.570306 l 4.13472,8.24908 q 0.24442,0.448099 0.48883,1.018405 0.26479,0.549938 0.48884,1.120248 h 0.30552 q -0.0407,-0.59068 -0.0815,-1.140616 -0.0204,-0.570306 -0.0204,-1.120245 V 89.54038 Z"
           id="path3567" /><path
           d="m 149.45884,89.499643 q 1.05914,0 2.15901,0 1.12025,0 2.19976,0.04074 1.07951,0.04074 2.03681,0.122208 l -0.12221,1.894233 h -5.49939 q -0.5703,0 -0.85546,0.285154 -0.26478,0.285153 -0.26478,0.896196 v 7.658406 q 0,0.61104 0.26478,0.89619 0.28516,0.28516 0.85546,0.28516 h 5.49939 l 0.12221,1.89423 q -0.9573,0.0815 -2.03681,0.12221 -1.07951,0.0204 -2.19976,0.0204 -1.09987,0.0204 -2.15901,0.0204 -1.30356,0 -2.09792,-0.71288 -0.77399,-0.73325 -0.79435,-1.95534 v -8.799013 q 0.0204,-1.222086 0.79435,-1.934969 0.79436,-0.733252 2.09792,-0.733252 z m -2.52565,5.804909 h 8.02503 v 1.873865 h -8.02503 z"
           id="path3569" /><path
           d="m 164.04239,89.54038 v 14.05399 h -2.54601 V 89.54038 Z m 4.35877,0 v 2.077546 H 157.1376 V 89.54038 Z"
           id="path3571" /><path
           d="m 176.77246,91.495717 2.79043,0.02037 -7.06773,10.122943 -2.8108,-0.0204 z m 2.95337,10.122943 v 1.97571 h -10.04147 v -1.97571 z m -0.16294,-12.07828 v 1.975705 h -9.73595 V 89.54038 Z"
           id="path3573" /><path
           d="m 199.62546,89.54038 -2.52565,13.3411 q -0.0815,0.30553 -0.34625,0.50921 -0.24442,0.20368 -0.61105,0.20368 h -2.52564 q -0.34626,0 -0.61104,-0.20368 -0.26479,-0.20368 -0.30553,-0.52957 l -1.85349,-9.756323 q -0.0815,-0.448098 -0.14258,-0.875828 -0.0611,-0.42773 -0.12221,-0.855461 h -0.40736 q -0.0611,0.427731 -0.14258,0.875829 -0.0611,0.42773 -0.12221,0.85546 l -1.83312,9.756323 q -0.0611,0.32589 -0.32589,0.52957 -0.26479,0.20368 -0.61105,0.20368 h -2.54601 q -0.36663,0 -0.63141,-0.20368 -0.24442,-0.20368 -0.30552,-0.50921 l -2.52565,-13.3411 h 2.60712 l 1.77203,10.28589 q 0.0611,0.40736 0.10184,0.8962 0.0611,0.48883 0.1222,0.99803 h 0.42773 q 0.0815,-0.46846 0.16295,-0.9573 0.0815,-0.5092 0.16294,-0.957298 l 1.81276,-9.471167 q 0.0407,-0.366625 0.30553,-0.570306 0.26478,-0.224049 0.61104,-0.224049 h 2.30159 q 0.36663,0 0.61105,0.224049 0.24441,0.203681 0.32589,0.570306 l 1.81276,9.491535 q 0.10184,0.46847 0.16294,0.9573 0.0815,0.48883 0.14258,0.93693 h 0.4481 q 0.0407,-0.46846 0.10184,-0.9573 0.0611,-0.48883 0.12221,-0.916562 l 1.77202,-10.306258 z"
           id="path3575" /><path
           d="m 204.53418,89.499643 q 1.05914,0 2.15902,0 1.12025,0 2.19976,0.04074 1.07951,0.04074 2.03681,0.122208 l -0.12221,1.894233 h -5.49939 q -0.57031,0 -0.85546,0.285154 -0.26478,0.285153 -0.26478,0.896196 v 7.658406 q 0,0.61104 0.26478,0.89619 0.28515,0.28516 0.85546,0.28516 h 5.49939 l 0.12221,1.89423 q -0.9573,0.0815 -2.03681,0.12221 -1.07951,0.0204 -2.19976,0.0204 -1.09988,0.0204 -2.15902,0.0204 -1.30356,0 -2.09791,-0.71288 -0.77399,-0.73325 -0.79436,-1.95534 v -8.799013 q 0.0204,-1.222086 0.79436,-1.934969 0.79435,-0.733252 2.09791,-0.733252 z m -2.52564,5.804909 h 8.02503 v 1.873865 h -8.02503 z"
           id="path3577" /><path
           d="m 218.54743,89.357067 q 1.75166,0 2.83116,0.366625 1.09988,0.366626 1.58872,1.262823 0.5092,0.875828 0.5092,2.484908 0,1.059141 -0.26479,1.812761 -0.24441,0.733251 -0.83509,1.181349 -0.57031,0.42773 -1.54797,0.549939 v 0.10184 q 0.34625,0.08147 0.71288,0.32589 0.38699,0.224049 0.69251,0.651779 0.32589,0.42773 0.48884,1.099878 l 1.28319,4.399511 h -2.68859 l -1.16098,-4.338407 q -0.22405,-0.733252 -0.61104,-1.018405 -0.387,-0.305522 -1.05915,-0.305522 -1.32392,0 -2.26085,0 -0.93694,-0.02037 -1.56835,-0.04074 -0.61104,-0.02037 -1.07951,-0.02037 l 0.0611,-1.934969 h 4.8476 q 0.91657,-0.02037 1.44614,-0.203681 0.52957,-0.203681 0.75362,-0.692516 0.22405,-0.509202 0.22405,-1.425767 0,-0.896196 -0.22405,-1.38503 -0.22405,-0.488835 -0.75362,-0.672148 -0.52957,-0.203681 -1.44614,-0.203681 -1.79239,0 -3.07558,0.02037 -1.28319,0.02037 -1.75166,0.04074 l -0.28515,-1.873865 q 0.81473,-0.08147 1.52761,-0.122209 0.73325,-0.04074 1.58871,-0.04074 0.85546,-0.02037 2.05718,-0.02037 z m -2.66822,0.183313 v 14.05399 h -2.50528 V 89.54038 Z"
           id="path3579" /><path
           d="m 236.79725,89.54038 -3.84957,5.723435 q -0.20368,0.32589 -0.42773,0.570307 -0.22405,0.224049 -0.48884,0.42773 v 0.0611 q 0.28516,0.203681 0.57031,0.488834 0.28515,0.285153 0.46847,0.611043 l 3.99214,6.171531 h -2.85153 l -4.62356,-7.352881 4.44025,-6.701104 z m -7.94356,0 v 4.155092 q 0,0.651779 -0.10184,1.28319 -0.0815,0.631411 -0.26479,1.262822 0.14258,0.590675 0.24442,1.222086 0.12221,0.611043 0.12221,1.18135 v 4.94945 h -2.54601 V 89.54038 Z m 1.79239,5.804908 v 1.853497 h -2.60711 v -1.853497 z"
           id="path3581" /><path
           d="m 244.37416,96.954368 q 0.5092,0 0.69251,0.203681 0.20368,0.183313 0.20368,0.672147 v 1.018405 q 0,0.509202 -0.20368,0.712883 -0.18331,0.183313 -0.69251,0.183313 h -0.67215 q -0.48883,0 -0.69252,-0.183313 -0.20368,-0.203681 -0.20368,-0.712883 v -1.018405 q 0,-0.488834 0.20368,-0.672147 0.20369,-0.203681 0.69252,-0.203681 z"
           id="path3583" /><path
           d="m 257.81709,89.295962 q 0.9573,0 1.62945,0.0611 0.67215,0.04074 1.24245,0.142576 0.57031,0.08147 1.18135,0.244418 l -0.22404,1.894233 q -0.63142,-0.04074 -1.18135,-0.0611 -0.54994,-0.04074 -1.18135,-0.0611 -0.61105,-0.02037 -1.46651,-0.02037 -1.18135,0 -1.85349,0.468466 -0.67215,0.468467 -0.9573,1.568344 -0.26479,1.099877 -0.26479,3.034847 0,1.934969 0.26479,3.034847 0.28515,1.099877 0.9573,1.568337 0.67214,0.46847 1.85349,0.46847 1.36467,0 2.28123,-0.0407 0.93693,-0.0611 1.83313,-0.16294 l 0.22405,1.87386 q -0.91657,0.28516 -1.89424,0.40737 -0.97766,0.12221 -2.44417,0.12221 -2.11828,0 -3.3811,-0.69252 -1.26282,-0.71288 -1.83313,-2.3016 -0.54994,-1.588705 -0.54994,-4.277294 0,-2.688589 0.54994,-4.277301 0.57031,-1.588712 1.83313,-2.281227 1.26282,-0.712884 3.3811,-0.712884 z"
           id="path3585" /><path
           d="m 269.47942,89.275594 q 1.62944,0 2.74969,0.366626 1.12025,0.346258 1.79239,1.18135 0.69252,0.835092 0.99804,2.240491 0.30552,1.405399 0.30552,3.503313 0,2.077546 -0.30552,3.503316 -0.30552,1.4054 -0.99804,2.24049 -0.67214,0.83509 -1.79239,1.20172 -1.12025,0.34625 -2.74969,0.34625 -1.58872,0 -2.70896,-0.34625 -1.12025,-0.36663 -1.81276,-1.20172 -0.69252,-0.83509 -0.99804,-2.24049 -0.30552,-1.42577 -0.30552,-3.503316 0,-2.097914 0.30552,-3.503313 0.30552,-1.405399 0.99804,-2.240491 0.69251,-0.835092 1.81276,-1.18135 1.12024,-0.366626 2.70896,-0.366626 z m 0,2.077546 q -1.20172,0 -1.89424,0.488835 -0.67214,0.468466 -0.9573,1.60908 -0.28515,1.120245 -0.28515,3.116319 0,1.996073 0.28515,3.136687 0.28516,1.120249 0.9573,1.609079 0.69252,0.46847 1.89424,0.46847 1.22208,0 1.89423,-0.46847 0.69251,-0.48883 0.97767,-1.609079 0.28515,-1.140614 0.28515,-3.136687 0,-1.996074 -0.28515,-3.116319 -0.28516,-1.140614 -0.97767,-1.60908 -0.67215,-0.488835 -1.89423,-0.488835 z"
           id="path3587" /><path
           d="m 295.43968,89.54038 -2.52565,13.3411 q -0.0815,0.30553 -0.34625,0.50921 -0.24442,0.20368 -0.61105,0.20368 h -2.52564 q -0.34626,0 -0.61104,-0.20368 -0.26479,-0.20368 -0.30553,-0.52957 l -1.85349,-9.756323 q -0.0815,-0.448098 -0.14258,-0.875828 -0.0611,-0.42773 -0.12221,-0.855461 h -0.40736 q -0.0611,0.427731 -0.14258,0.875829 -0.0611,0.42773 -0.12221,0.85546 l -1.83312,9.756323 q -0.0611,0.32589 -0.32589,0.52957 -0.26479,0.20368 -0.61105,0.20368 h -2.54601 q -0.36662,0 -0.63141,-0.20368 -0.24442,-0.20368 -0.30552,-0.50921 l -2.52565,-13.3411 h 2.60712 l 1.77203,10.28589 q 0.0611,0.40736 0.10184,0.8962 0.0611,0.48883 0.1222,0.99803 h 0.42773 q 0.0815,-0.46846 0.16295,-0.9573 0.0815,-0.5092 0.16294,-0.957298 l 1.81277,-9.471167 q 0.0407,-0.366625 0.30552,-0.570306 0.26478,-0.224049 0.61104,-0.224049 h 2.30159 q 0.36663,0 0.61105,0.224049 0.24441,0.203681 0.32589,0.570306 l 1.81276,9.491535 q 0.10184,0.46847 0.16294,0.9573 0.0815,0.48883 0.14258,0.93693 h 0.4481 q 0.0407,-0.46846 0.10184,-0.9573 0.0611,-0.48883 0.12221,-0.916562 l 1.77202,-10.306258 z"
           id="path3589" /><path
           d="m 302.88535,89.275594 q 1.62944,0 2.74969,0.366626 1.12024,0.346258 1.79239,1.18135 0.69252,0.835092 0.99804,2.240491 0.30552,1.405399 0.30552,3.503313 0,2.077546 -0.30552,3.503316 -0.30552,1.4054 -0.99804,2.24049 -0.67215,0.83509 -1.79239,1.20172 -1.12025,0.34625 -2.74969,0.34625 -1.58872,0 -2.70896,-0.34625 -1.12025,-0.36663 -1.81276,-1.20172 -0.69252,-0.83509 -0.99804,-2.24049 -0.30552,-1.42577 -0.30552,-3.503316 0,-2.097914 0.30552,-3.503313 0.30552,-1.405399 0.99804,-2.240491 0.69251,-0.835092 1.81276,-1.18135 1.12024,-0.366626 2.70896,-0.366626 z m 0,2.077546 q -1.20172,0 -1.89424,0.488835 -0.67214,0.468466 -0.9573,1.60908 -0.28515,1.120245 -0.28515,3.116319 0,1.996073 0.28515,3.136687 0.28516,1.120249 0.9573,1.609079 0.69252,0.46847 1.89424,0.46847 1.22208,0 1.89423,-0.46847 0.69251,-0.48883 0.97767,-1.609079 0.28515,-1.140614 0.28515,-3.136687 0,-1.996074 -0.28515,-3.116319 -0.28516,-1.140614 -0.97767,-1.60908 -0.67215,-0.488835 -1.89423,-0.488835 z"
           id="path3591" /><path
           d="m 316.55236,89.357067 q 1.75165,0 2.83116,0.366625 1.09988,0.366626 1.58871,1.262823 0.50921,0.875828 0.50921,2.484908 0,1.059141 -0.26479,1.812761 -0.24442,0.733251 -0.83509,1.181349 -0.57031,0.42773 -1.54798,0.549939 v 0.10184 q 0.34626,0.08147 0.71289,0.32589 0.38699,0.224049 0.69251,0.651779 0.32589,0.42773 0.48884,1.099878 l 1.28319,4.399511 h -2.68859 l -1.16098,-4.338407 q -0.22405,-0.733252 -0.61105,-1.018405 -0.38699,-0.305522 -1.05914,-0.305522 -1.32392,0 -2.26086,0 -0.93693,-0.02037 -1.56834,-0.04074 -0.61104,-0.02037 -1.07951,-0.02037 l 0.0611,-1.934969 h 4.8476 q 0.91657,-0.02037 1.44614,-0.203681 0.52957,-0.203681 0.75362,-0.692516 0.22405,-0.509202 0.22405,-1.425767 0,-0.896196 -0.22405,-1.38503 -0.22405,-0.488835 -0.75362,-0.672148 -0.52957,-0.203681 -1.44614,-0.203681 -1.79239,0 -3.07558,0.02037 -1.28319,0.02037 -1.75166,0.04074 l -0.28515,-1.873865 q 0.81472,-0.08147 1.52761,-0.122209 0.73325,-0.04074 1.58871,-0.04074 0.85546,-0.02037 2.05718,-0.02037 z m -2.66822,0.183313 v 14.05399 h -2.50528 V 89.54038 Z"
           id="path3593" /><path
           d="m 334.80218,89.54038 -3.84957,5.723435 q -0.20368,0.32589 -0.42773,0.570307 -0.22405,0.224049 -0.48884,0.42773 v 0.0611 q 0.28516,0.203681 0.57031,0.488834 0.28515,0.285153 0.46847,0.611043 l 3.99214,6.171531 h -2.85153 l -4.62356,-7.352881 4.44025,-6.701104 z m -7.94356,0 v 4.155092 q 0,0.651779 -0.10184,1.28319 -0.0815,0.631411 -0.26479,1.262822 0.14258,0.590675 0.24442,1.222086 0.12221,0.611043 0.12221,1.18135 v 4.94945 h -2.54601 V 89.54038 Z m 1.79239,5.804908 v 1.853497 h -2.60712 v -1.853497 z"
           id="path3595" /><path
           d="m 339.40536,89.54038 v 14.05399 h -2.54602 V 89.54038 Z"
           id="path3597" /><path
           d="m 353.96853,89.54038 v 13.09669 q 0,0.9573 -0.93694,0.9573 h -1.73129 q -0.42773,0 -0.65177,-0.18331 -0.22405,-0.20369 -0.40737,-0.59068 l -4.25693,-8.473129 q -0.20368,-0.448098 -0.4481,-0.977669 -0.24441,-0.549939 -0.38699,-1.038773 h -0.26479 q 0.0407,0.509203 0.0611,1.038773 0.0407,0.509203 0.0407,1.018405 v 9.206383 h -2.44417 V 90.49768 q 0,-0.9573 0.93693,-0.9573 h 1.69056 q 0.42773,0 0.65178,0.203681 0.22405,0.183312 0.40736,0.570306 l 4.13472,8.24908 q 0.24442,0.448099 0.48884,1.018405 0.26478,0.549938 0.48883,1.120248 h 0.30552 q -0.0407,-0.59068 -0.0815,-1.140616 -0.0204,-0.570306 -0.0204,-1.120245 V 89.54038 Z"
           id="path3599" /><path
           d="m 362.70645,89.275594 q 0.83509,0 1.54798,0.04074 0.73325,0.04074 1.38503,0.142577 0.65178,0.101841 1.28319,0.285154 l -0.22405,1.873865 q -0.67215,-0.04074 -1.32393,-0.0611 -0.65178,-0.04074 -1.30356,-0.04074 -0.63141,-0.02037 -1.28319,-0.02037 -0.97766,0 -1.64981,0.203681 -0.67215,0.183313 -1.07951,0.733252 -0.387,0.549938 -0.57031,1.568343 -0.18331,1.018405 -0.18331,2.627485 0,1.894233 0.24442,2.994111 0.26478,1.079508 0.85546,1.568338 0.59067,0.46847 1.58871,0.46847 0.67215,0 1.24245,-0.16295 0.57031,-0.16294 1.03878,-0.42773 0.48883,-0.28515 0.91656,-0.5703 l 0.30552,1.32392 q -0.32589,0.40737 -0.9573,0.8962 -0.61104,0.46847 -1.4665,0.81472 -0.85546,0.32589 -1.93497,0.32589 -1.58871,0 -2.60712,-0.75362 -0.99804,-0.77398 -1.4665,-2.38306 -0.4481,-1.629449 -0.4481,-4.175461 0,-2.770062 0.59067,-4.358774 0.59068,-1.588711 1.91461,-2.24049 1.34429,-0.672148 3.58478,-0.672148 z m 4.6643,6.21227 v 8.106506 h -1.87387 l -0.36662,-2.09792 -0.24442,-0.5092 v -5.499386 z"
           id="path3601" /><path
           d="m 375.86422,96.954368 q 0.5092,0 0.69251,0.203681 0.20368,0.183313 0.20368,0.672147 v 1.018405 q 0,0.509202 -0.20368,0.712883 -0.18331,0.183313 -0.69251,0.183313 h -0.67215 q -0.48884,0 -0.69252,-0.183313 -0.20368,-0.203681 -0.20368,-0.712883 v -1.018405 q 0,-0.488834 0.20368,-0.672147 0.20368,-0.203681 0.69252,-0.203681 z"
           id="path3603" /><path
           d="m 386.80188,89.499643 q 1.05914,0 2.15901,0 1.12025,0 2.19976,0.04074 1.07951,0.04074 2.03681,0.122208 l -0.12221,1.894233 h -5.49939 q -0.5703,0 -0.85546,0.285154 -0.26478,0.285153 -0.26478,0.896196 v 7.658406 q 0,0.61104 0.26478,0.89619 0.28516,0.28516 0.85546,0.28516 h 5.49939 l 0.12221,1.89423 q -0.9573,0.0815 -2.03681,0.12221 -1.07951,0.0204 -2.19976,0.0204 -1.09987,0.0204 -2.15901,0.0204 -1.30356,0 -2.09792,-0.71288 -0.77399,-0.73325 -0.79435,-1.95534 v -8.799013 q 0.0204,-1.222086 0.79435,-1.934969 0.79436,-0.733252 2.09792,-0.733252 z m -2.52565,5.804909 h 8.02503 v 1.873865 h -8.02503 z"
           id="path3605" /><path
           d="m 406.59967,89.54038 -4.01252,13.3411 q -0.10184,0.30553 -0.34625,0.50921 -0.24442,0.20368 -0.59068,0.20368 h -2.40343 q -0.34626,0 -0.59068,-0.20368 -0.24442,-0.20368 -0.32589,-0.50921 l -4.01251,-13.3411 h 2.62748 l 2.8719,10.57104 q 0.10184,0.387 0.20368,0.77399 0.10184,0.38699 0.16295,0.77399 h 0.52957 q 0.10184,-0.387 0.18331,-0.77399 0.10184,-0.40736 0.20368,-0.79436 l 2.8719,-10.55067 z"
           id="path3607" /><path
           d="m 411.18251,89.499643 q 1.05914,0 2.15901,0 1.12025,0 2.19976,0.04074 1.07951,0.04074 2.03681,0.122208 l -0.12221,1.894233 h -5.49939 q -0.5703,0 -0.85546,0.285154 -0.26478,0.285153 -0.26478,0.896196 v 7.658406 q 0,0.61104 0.26478,0.89619 0.28516,0.28516 0.85546,0.28516 h 5.49939 l 0.12221,1.89423 q -0.9573,0.0815 -2.03681,0.12221 -1.07951,0.0204 -2.19976,0.0204 -1.09987,0.0204 -2.15901,0.0204 -1.30356,0 -2.09792,-0.71288 -0.77399,-0.73325 -0.79435,-1.95534 v -8.799013 q 0.0204,-1.222086 0.79435,-1.934969 0.79436,-0.733252 2.09792,-0.733252 z m -2.52565,5.804909 h 8.02503 v 1.873865 h -8.02503 z"
           id="path3609" /><path
           d="m 431.44875,89.54038 v 13.09669 q 0,0.9573 -0.93693,0.9573 h -1.73129 q -0.42773,0 -0.65178,-0.18331 -0.22405,-0.20369 -0.40736,-0.59068 l -4.25693,-8.473129 q -0.20369,-0.448098 -0.4481,-0.977669 -0.24442,-0.549939 -0.387,-1.038773 h -0.26478 q 0.0407,0.509203 0.0611,1.038773 0.0407,0.509203 0.0407,1.018405 v 9.206383 h -2.44417 V 90.49768 q 0,-0.9573 0.93693,-0.9573 h 1.69055 q 0.42773,0 0.65178,0.203681 0.22405,0.183312 0.40736,0.570306 l 4.13473,8.24908 q 0.24441,0.448099 0.48883,1.018405 0.26479,0.549938 0.48884,1.120248 h 0.30552 q -0.0407,-0.59068 -0.0815,-1.140616 -0.0204,-0.570306 -0.0204,-1.120245 V 89.54038 Z"
           id="path3611" /><path
           d="m 440.32925,89.54038 v 14.05399 h -2.54601 V 89.54038 Z m 4.35878,0 v 2.077546 H 433.42447 V 89.54038 Z"
           id="path3613" /><path
           d="m 450.98176,89.275594 q 1.03878,0.02037 2.17939,0.122209 1.16098,0.10184 2.26086,0.386994 l -0.16295,1.731288 q -0.87582,-0.02037 -2.03681,-0.04074 -1.14061,-0.04074 -2.19975,-0.04074 -0.65178,0 -1.12025,0.04074 -0.44809,0.04074 -0.73325,0.203681 -0.28515,0.162945 -0.42773,0.509202 -0.12221,0.32589 -0.12221,0.916565 0,0.916564 0.36663,1.303558 0.38699,0.386994 1.24245,0.611043 l 2.77007,0.814724 q 1.67018,0.509203 2.30159,1.486871 0.63141,0.957301 0.63141,2.566381 0,1.20172 -0.28515,1.97571 -0.28516,0.77399 -0.87583,1.20172 -0.59068,0.42773 -1.54798,0.61104 -0.9573,0.18331 -2.30159,0.18331 -0.69252,0 -1.9146,-0.0815 -1.20172,-0.0815 -2.7497,-0.40736 l 0.16295,-1.83313 q 1.20172,0.0407 2.01644,0.0815 0.81472,0.0204 1.4054,0.0204 0.59067,0 1.09988,0 0.93693,0 1.4665,-0.12221 0.52957,-0.12221 0.73325,-0.5092 0.22405,-0.38699 0.22405,-1.12025 0,-0.631411 -0.16294,-0.977669 -0.14258,-0.366626 -0.48884,-0.570307 -0.34626,-0.203681 -0.89619,-0.346257 l -2.87191,-0.875829 q -1.58871,-0.488834 -2.24049,-1.446135 -0.63141,-0.9573 -0.63141,-2.56638 0,-1.201718 0.28515,-1.955338 0.28516,-0.773987 0.87583,-1.160981 0.59068,-0.407362 1.50724,-0.549939 0.93694,-0.162945 2.24049,-0.162945 z"
           id="path3615" /></g></g></g></svg>
