<?xml version="1.0" encoding="UTF-8"?>
<svg id="Ebene_1" data-name="Ebene 1" xmlns="http://www.w3.org/2000/svg" viewBox="0 0 841.89 280.21">
  <defs>
    <style>
      .cls-1 {
        fill: #181716;
      }
    </style>
  </defs>
  <g>
    <path class="cls-1" d="m86.7,147.82h-29.41v-74.61h29.41c10.65,0,19.4,3.13,26.26,9.38,3.66,3.33,6.43,7.36,8.29,12.08,1.87,4.72,2.8,10.01,2.8,15.85s-.93,11.23-2.8,15.95c-1.87,4.72-4.63,8.75-8.29,12.08-3.33,3.06-7.21,5.37-11.65,6.93-4.44,1.56-9.31,2.34-14.6,2.34Zm-15.14-12.64h15.19c2.65,0,5.33-.31,8.05-.92,2.72-.61,5.18-1.82,7.39-3.62,2.21-1.8,4.03-4.3,5.45-7.49,1.43-3.19,2.14-7.37,2.14-12.54s-.71-9.36-2.14-12.59c-1.43-3.23-3.26-5.72-5.5-7.49-2.24-1.77-4.72-2.96-7.44-3.57-2.72-.61-5.37-.92-7.95-.92h-15.19v49.13Z"/>
    <path class="cls-1" d="m151.67,147.82h-14.27v-74.5h14.27v74.5Z"/>
    <path class="cls-1" d="m166.04,138.03l7.75-11.42c3.74,2.58,7.59,4.81,11.57,6.68,3.98,1.87,8.14,2.8,12.49,2.8,2.31,0,4.35-.29,6.12-.87,1.77-.58,3.26-1.33,4.48-2.24,1.22-.92,2.14-1.97,2.75-3.16.61-1.19.92-2.36.92-3.52,0-1.49-.46-2.77-1.38-3.82-.92-1.05-2.14-1.92-3.67-2.6-1.53-.68-3.33-1.26-5.4-1.73-2.07-.47-4.23-.92-6.47-1.33-1.5-.27-3.23-.59-5.2-.97-1.97-.37-4.01-.88-6.11-1.53-2.11-.64-4.18-1.49-6.22-2.55-2.04-1.05-3.87-2.38-5.5-3.97-1.63-1.6-2.94-3.5-3.92-5.71-.99-2.21-1.48-4.81-1.48-7.8,0-4.35.88-7.97,2.65-10.85,1.77-2.89,4.03-5.16,6.78-6.83,2.75-1.66,5.81-2.84,9.17-3.52,3.36-.68,6.61-1.02,9.73-1.02s5.91.2,8.36.61c2.45.41,4.72,1,6.83,1.78,2.11.78,4.16,1.77,6.17,2.96,2,1.19,4.16,2.6,6.47,4.23l-7.95,11.21c-3.53-2.45-6.93-4.31-10.19-5.61-3.26-1.29-6.69-1.94-10.29-1.94-1.22,0-2.62.15-4.18.46-1.56.31-3.04.8-4.43,1.48-1.39.68-2.55,1.55-3.47,2.6-.92,1.05-1.38,2.33-1.38,3.82s.54,2.75,1.63,3.77c1.09,1.02,2.48,1.87,4.18,2.55,1.7.68,3.57,1.26,5.61,1.73,2.04.48,4.01.95,5.91,1.43,1.43.34,3.11.68,5.05,1.02,1.94.34,3.94.81,6.01,1.43,2.07.61,4.13,1.43,6.17,2.45,2.04,1.02,3.86,2.33,5.45,3.92,1.6,1.6,2.89,3.57,3.87,5.91.98,2.34,1.48,5.18,1.48,8.51,0,3.87-.68,7.24-2.04,10.09-1.36,2.85-3.3,5.22-5.81,7.08-2.51,1.87-5.5,3.28-8.97,4.23s-7.3,1.43-11.52,1.43c-3.87,0-7.29-.29-10.24-.87-2.96-.58-5.66-1.36-8.1-2.34-2.45-.98-4.76-2.16-6.93-3.52-2.18-1.36-4.42-2.85-6.73-4.48Z"/>
    <path class="cls-1" d="m284.57,85.85h-21.3v61.97h-14.27v-61.97h-21.4v-12.64h56.97v12.64Z"/>
    <path class="cls-1" d="m307.6,147.82h-14.27v-74.61h33.89c3.81,0,7.3.63,10.47,1.89,3.16,1.26,5.87,3.02,8.12,5.3,2.25,2.28,4,4.99,5.26,8.15,1.26,3.16,1.89,6.61,1.89,10.34,0,5.64-1.41,10.57-4.24,14.78-2.83,4.21-6.58,7.24-11.28,9.07,6.27,8.29,12.46,16.65,18.58,25.07h-17.02c-2.98-3.87-5.89-7.78-8.74-11.72-2.84-3.94-5.69-7.95-8.53-12.03h-14.12v23.75Zm0-36.39h19.61c1.29,0,2.62-.25,4.01-.76s2.62-1.29,3.71-2.34c1.08-1.05,1.98-2.36,2.69-3.92.71-1.56,1.07-3.4,1.07-5.5,0-1.09-.14-2.38-.41-3.87-.27-1.49-.81-2.92-1.63-4.28-.81-1.36-1.96-2.51-3.45-3.47-1.49-.95-3.49-1.43-5.99-1.43h-19.61v25.58Z"/>
    <path class="cls-1" d="m382,147.82h-14.27v-74.5h14.27v74.5Z"/>
    <path class="cls-1" d="m467.62,129.47c-1.63,2.99-3.64,5.69-6.01,8.1-2.38,2.41-5.01,4.48-7.9,6.22-2.89,1.73-6.01,3.08-9.38,4.03s-6.85,1.43-10.45,1.43c-5.3,0-10.29-1.02-14.98-3.06-4.69-2.04-8.78-4.81-12.28-8.31-3.5-3.5-6.27-7.59-8.31-12.28-2.04-4.69-3.06-9.68-3.06-14.98s1.02-10.29,3.06-14.98c2.04-4.69,4.81-8.78,8.31-12.28,3.5-3.5,7.59-6.27,12.28-8.31s9.68-3.06,14.98-3.06c3.6,0,7.08.48,10.45,1.43,3.36.95,6.49,2.29,9.38,4.03,2.89,1.73,5.52,3.81,7.9,6.22,2.38,2.41,4.38,5.08,6.01,8l-13.35,5.4c-1.09-1.63-2.36-3.16-3.82-4.59-1.46-1.43-3.08-2.68-4.84-3.77-1.77-1.09-3.64-1.94-5.61-2.55s-4.01-.92-6.11-.92c-3.4,0-6.57.7-9.53,2.09-2.96,1.39-5.52,3.25-7.69,5.55-2.18,2.31-3.91,5.01-5.2,8.1-1.29,3.09-1.94,6.3-1.94,9.63s.65,6.62,1.94,9.68c1.29,3.06,3.02,5.74,5.2,8.05,2.17,2.31,4.74,4.16,7.69,5.55,2.96,1.39,6.13,2.09,9.53,2.09,2.1,0,4.14-.31,6.11-.92,1.97-.61,3.84-1.46,5.61-2.55,1.77-1.09,3.38-2.36,4.84-3.82,1.46-1.46,2.73-3.01,3.82-4.64l13.35,5.4Z"/>
    <path class="cls-1" d="m526.42,85.85h-21.3v61.97h-14.27v-61.97h-21.4v-12.64h56.97v12.64Z"/>
    <path class="cls-1" d="m594.71,149.25c-5.3,0-10.29-1.02-14.98-3.06-4.69-2.04-8.78-4.81-12.28-8.31-3.5-3.5-6.27-7.59-8.31-12.28-2.04-4.69-3.06-9.72-3.06-15.08s1.02-10.31,3.06-15.03c2.04-4.72,4.81-8.83,8.31-12.33,3.5-3.5,7.59-6.27,12.28-8.31,4.69-2.04,9.68-3.06,14.98-3.06s10.4,1.02,15.08,3.06c4.69,2.04,8.78,4.81,12.28,8.31,3.5,3.5,6.27,7.61,8.31,12.33,2.04,4.72,3.06,9.73,3.06,15.03s-1.02,10.4-3.06,15.08c-2.04,4.69-4.81,8.78-8.31,12.28s-7.59,6.27-12.28,8.31c-4.69,2.04-9.72,3.06-15.08,3.06Zm.05-64.11c-3.39,0-6.56.7-9.51,2.09-2.95,1.39-5.53,3.25-7.73,5.55-2.2,2.31-3.95,5.01-5.24,8.1-1.29,3.09-1.93,6.3-1.93,9.63s.64,6.62,1.93,9.68,3.03,5.76,5.24,8.1c2.2,2.34,4.78,4.21,7.73,5.61,2.95,1.39,6.12,2.09,9.51,2.09s6.56-.7,9.51-2.09c2.95-1.39,5.53-3.26,7.73-5.61s3.95-5.04,5.24-8.1c1.29-3.06,1.93-6.28,1.93-9.68s-.64-6.54-1.93-9.63c-1.29-3.09-3.03-5.79-5.24-8.1-2.2-2.31-4.78-4.16-7.73-5.55-2.95-1.39-6.12-2.09-9.51-2.09Z"/>
    <path class="cls-1" d="m708.35,147.82l-49.03-44.34v44.34h-14.27v-74.5h1.53l49.02,45.05v-45.05h14.27v74.5h-1.53Z"/>
    <path class="cls-1" d="m739.43,85.85v18.65h36.08v12.94h-36.08v17.53h40.67v12.84h-54.94v-74.61h54.94v12.64h-40.67Z"/>
  </g>
  <g>
    <path class="cls-1" d="m263.22,202.65c-.53.98-1.19,1.87-1.97,2.66-.78.79-1.64,1.47-2.59,2.04-.95.57-1.97,1.01-3.07,1.32-1.1.31-2.24.47-3.42.47-1.74,0-3.37-.33-4.91-1-1.54-.67-2.88-1.58-4.03-2.72-1.15-1.15-2.05-2.49-2.72-4.02-.67-1.54-1-3.17-1-4.91s.33-3.37,1-4.91,1.58-2.88,2.72-4.03c1.15-1.15,2.49-2.05,4.03-2.72s3.17-1,4.91-1c1.18,0,2.32.16,3.42.47,1.1.31,2.13.75,3.07,1.32.95.57,1.81,1.25,2.59,2.04.78.79,1.44,1.66,1.97,2.62l-4.38,1.77c-.36-.53-.77-1.04-1.25-1.5-.48-.47-1.01-.88-1.59-1.24-.58-.36-1.19-.63-1.84-.83-.65-.2-1.31-.3-2-.3-1.11,0-2.15.23-3.12.68-.97.46-1.81,1.06-2.52,1.82-.71.76-1.28,1.64-1.7,2.66-.42,1.01-.63,2.07-.63,3.16s.21,2.17.63,3.17c.42,1,.99,1.88,1.7,2.64.71.76,1.55,1.36,2.52,1.82.97.46,2.01.68,3.12.68.69,0,1.36-.1,2-.3.65-.2,1.26-.48,1.84-.84.58-.36,1.11-.77,1.59-1.25.48-.48.9-.99,1.25-1.52l4.38,1.77Z"/>
    <path class="cls-1" d="m294.96,209.13c-1.74,0-3.37-.33-4.91-1-1.54-.67-2.88-1.58-4.03-2.72-1.15-1.15-2.05-2.49-2.72-4.02-.67-1.54-1-3.18-1-4.94s.33-3.38,1-4.93c.67-1.55,1.58-2.89,2.72-4.04s2.49-2.05,4.03-2.72,3.17-1,4.91-1,3.41.33,4.94,1,2.88,1.58,4.02,2.72,2.05,2.49,2.72,4.04c.67,1.55,1,3.19,1,4.93s-.33,3.41-1,4.94c-.67,1.54-1.58,2.88-2.72,4.02-1.15,1.15-2.49,2.05-4.02,2.72-1.54.67-3.19,1-4.94,1Zm.02-21.01c-1.11,0-2.15.23-3.12.68-.97.46-1.81,1.06-2.53,1.82-.72.76-1.29,1.64-1.72,2.66-.42,1.01-.63,2.07-.63,3.16s.21,2.17.63,3.17c.42,1,.99,1.89,1.72,2.66.72.77,1.57,1.38,2.53,1.84.97.46,2.01.68,3.12.68s2.15-.23,3.12-.68c.97-.46,1.81-1.07,2.53-1.84.72-.77,1.29-1.65,1.72-2.66.42-1,.63-2.06.63-3.17s-.21-2.14-.63-3.16c-.42-1.01-.99-1.9-1.72-2.66-.72-.76-1.57-1.36-2.53-1.82-.97-.46-2.01-.68-3.12-.68Z"/>
    <path class="cls-1" d="m357.52,184.24l-9.12,24.42h-.47l-6.61-14.23-6.68,14.26h-.43l-9.02-24.45h4.98l4.78,13.4,6.21-13.4h.3l6.21,13.43,4.88-13.43h4.98Z"/>
    <path class="cls-1" d="m387.28,209.13c-1.74,0-3.37-.33-4.91-1-1.54-.67-2.88-1.58-4.03-2.72-1.15-1.15-2.05-2.49-2.72-4.02-.67-1.54-1-3.18-1-4.94s.33-3.38,1-4.93c.67-1.55,1.58-2.89,2.72-4.04s2.49-2.05,4.03-2.72,3.17-1,4.91-1,3.41.33,4.94,1,2.88,1.58,4.02,2.72,2.05,2.49,2.72,4.04c.67,1.55,1,3.19,1,4.93s-.33,3.41-1,4.94c-.67,1.54-1.58,2.88-2.72,4.02-1.15,1.15-2.49,2.05-4.02,2.72-1.54.67-3.19,1-4.94,1Zm.02-21.01c-1.11,0-2.15.23-3.12.68-.97.46-1.81,1.06-2.53,1.82-.72.76-1.29,1.64-1.72,2.66-.42,1.01-.63,2.07-.63,3.16s.21,2.17.63,3.17c.42,1,.99,1.89,1.72,2.66.72.77,1.57,1.38,2.53,1.84.97.46,2.01.68,3.12.68s2.15-.23,3.12-.68c.97-.46,1.81-1.07,2.53-1.84.72-.77,1.29-1.65,1.72-2.66.42-1,.63-2.06.63-3.17s-.21-2.14-.63-3.16c-.42-1.01-.99-1.9-1.72-2.66-.72-.76-1.57-1.36-2.53-1.82-.97-.46-2.01-.68-3.12-.68Z"/>
    <path class="cls-1" d="m425.5,208.66h-4.68v-24.45h11.11c1.25,0,2.39.21,3.43.62,1.04.41,1.92.99,2.66,1.74.73.75,1.31,1.64,1.72,2.67.41,1.04.62,2.17.62,3.39,0,1.85-.46,3.46-1.39,4.84-.93,1.38-2.16,2.37-3.7,2.97,2.05,2.72,4.08,5.46,6.09,8.22h-5.58c-.98-1.27-1.93-2.55-2.86-3.84s-1.87-2.61-2.8-3.94h-4.63v7.78Zm0-11.93h6.43c.42,0,.86-.08,1.32-.25s.86-.42,1.21-.77c.35-.35.65-.77.88-1.29.23-.51.35-1.11.35-1.8,0-.36-.04-.78-.13-1.27-.09-.49-.27-.96-.53-1.4-.27-.45-.64-.82-1.13-1.14-.49-.31-1.14-.47-1.96-.47h-6.43v8.38Z"/>
    <path class="cls-1" d="m476.5,208.66l-10.25-11.12v11.12h-4.68v-24.45h4.68v12.43l9.72-12.39h5.75l-10.05,12.63,11.02,11.79h-6.18Z"/>
    <path class="cls-1" d="m508.17,208.66h-4.68v-24.42h4.68v24.42Z"/>
    <path class="cls-1" d="m551.63,208.66l-16.07-14.53v14.53h-4.68v-24.42h.5l16.07,14.76v-14.76h4.68v24.42h-.5Z"/>
    <path class="cls-1" d="m597.92,195.3c-.02.47-.03.9-.03,1.3-.02.36-.03.71-.03,1.05s-.01.61-.03.78c-.13,1.54-.55,2.96-1.25,4.28s-1.6,2.44-2.71,3.39c-1.1.95-2.37,1.69-3.81,2.22-1.44.53-2.95.8-4.53.8-1.74,0-3.37-.33-4.91-1-1.54-.67-2.88-1.58-4.03-2.72-1.15-1.15-2.07-2.49-2.74-4.02-.67-1.54-1.01-3.17-1.01-4.91s.34-3.38,1.01-4.93c.67-1.55,1.59-2.9,2.74-4.04,1.15-1.15,2.5-2.05,4.03-2.72,1.54-.67,3.17-1,4.91-1,2.21,0,4.23.51,6.06,1.54,1.84,1.02,3.32,2.39,4.46,4.11l-4.01,2.44c-.71-1.05-1.64-1.93-2.79-2.64-1.15-.71-2.39-1.07-3.72-1.07-1.11,0-2.15.23-3.12.68-.97.46-1.82,1.06-2.54,1.82-.72.76-1.3,1.64-1.72,2.66-.42,1.01-.63,2.07-.63,3.16s.21,2.17.63,3.17c.42,1,1,1.88,1.72,2.64.72.76,1.57,1.36,2.54,1.82.97.46,2.01.68,3.12.68.85,0,1.66-.13,2.44-.38s1.49-.62,2.14-1.09c.65-.47,1.21-1.02,1.69-1.67.48-.65.83-1.36,1.05-2.14h-9.02v-4.21h14.1Z"/>
  </g>
  <rect class="cls-1" x="57.29" y="9.07" width="722.81" height="11.16"/>
  <rect class="cls-1" x="57.29" y="257.63" width="722.81" height="11.16"/>
</svg>