<?xml version="1.0" encoding="utf-8"?>
<!-- Generator: Adobe Illustrator 26.4.1, SVG Export Plug-In . SVG Version: 6.00 Build 0)  -->
<svg version="1.1" id="Ebene_1" xmlns="http://www.w3.org/2000/svg" xmlns:xlink="http://www.w3.org/1999/xlink" x="0px" y="0px"
	 viewBox="0 0 119.1 43" enable-background="new 0 0 119.1 43" xml:space="preserve">
<g>
	<defs>
		<rect id="SVGID_1_" width="119.1" height="43"/>
	</defs>
	<clipPath id="SVGID_00000065786332272750445650000004542668962934812326_">
		<use xlink:href="#SVGID_1_"  overflow="visible"/>
	</clipPath>
	<path clip-path="url(#SVGID_00000065786332272750445650000004542668962934812326_)" fill="#454546" d="M119.1,43
		c-0.1,0-0.2,0-0.2,0c-26.8,0-53.6,0-80.4,0h-0.3V35h2.4v5.6h76.2V2.4H40.5v22.3h-2.4v-0.2c0-8.1,0-16.2,0-24.3c0-0.1,0-0.1,0-0.2
		h80.9V43z"/>
	<path clip-path="url(#SVGID_00000065786332272750445650000004542668962934812326_)" fill="#454546" d="M0,24.8c0.1,0,0.1,0,0.2,0
		c3.3,0,6.6,0,9.9,0h0.1v2.5H6.4v7.6H3.8v-7.6H0V24.8z"/>
	<path clip-path="url(#SVGID_00000065786332272750445650000004542668962934812326_)" fill="#454546" d="M60,29.8c0-0.4,0-0.8,0-1.3
		c0-0.1,0-0.1-0.1-0.2c-0.3-0.3-0.7-0.7-1-1c-0.1,0-0.1-0.1-0.2-0.1c-0.8,0-1.7,0-2.5,0c-0.1,0-0.2,0-0.2,0.1
		c-0.2,0.2-0.4,0.4-0.6,0.6c-0.4,0.3-0.6,0.7-0.5,1.2c0,0.2,0,0.4,0,0.7H60z M62.6,34.9H60v-2.5H55v2.5h-2.6c0-0.1,0-0.1,0-0.2
		c0-2.4,0-4.8,0-7.1c0-0.1,0-0.2,0.1-0.3c0.8-0.8,1.6-1.6,2.4-2.4c0.1-0.1,0.2-0.1,0.3-0.1c1.5,0,3,0,4.6,0c0.1,0,0.2,0,0.3,0.1
		c0.8,0.8,1.6,1.6,2.4,2.4c0.1,0.1,0.1,0.2,0.1,0.3c0,2.4,0,4.8,0,7.2V34.9z"/>
	<path clip-path="url(#SVGID_00000065786332272750445650000004542668962934812326_)" fill="#454546" d="M17.8,29.2v5.7h-2.5V24.8
		c0.1,0,0.1,0,0.2,0c0.5,0,1,0,1.4,0c0.1,0,0.2,0,0.3,0.1c1.8,1.8,3.7,3.7,5.5,5.5c0,0,0.1,0.1,0.1,0.2c0,0,0,0,0,0v-5.7h2.5v10.1
		H25c-0.4,0-0.8,0-1.2,0c-0.1,0-0.2,0-0.3-0.1c-1.8-1.8-3.7-3.6-5.5-5.5C17.9,29.3,17.9,29.2,17.8,29.2
		C17.8,29.2,17.8,29.2,17.8,29.2"/>
	<path clip-path="url(#SVGID_00000065786332272750445650000004542668962934812326_)" fill="#454546" d="M66.4,29.2v5.7h-2.5V24.8
		h0.8c0.3,0,0.6,0,0.8,0c0.1,0,0.2,0.1,0.3,0.1c1.8,1.8,3.7,3.6,5.5,5.5c0,0,0.1,0.1,0.1,0.2c0,0,0,0,0.1,0v-5.7H74v10.1h-0.2
		c-0.5,0-1,0-1.4,0c-0.1,0-0.2,0-0.3-0.1c-1.8-1.8-3.7-3.7-5.5-5.5C66.5,29.2,66.5,29.2,66.4,29.2C66.4,29.1,66.4,29.2,66.4,29.2"/>
	<path clip-path="url(#SVGID_00000065786332272750445650000004542668962934812326_)" fill="#454546" d="M26.7,34.9V24.8h2.5v3.8
		c0.1,0,0.1,0,0.2,0c0.5,0,1.1,0,1.6,0c0.1,0,0.3,0,0.4-0.1c1.2-1.2,2.4-2.3,3.5-3.5c0.1-0.1,0.2-0.1,0.3-0.1c0.5,0,1.1,0,1.6,0
		c0,0.1,0,0.1,0,0.2c0,0.5,0,1,0,1.4c0,0.1,0,0.2-0.1,0.3c-1,1-2,2-3,3c0,0-0.1,0.1-0.2,0.1c0.1,0.1,0.1,0.1,0.1,0.2c1,1,2,2,3,3
		c0.1,0.1,0.1,0.2,0.1,0.3c0,0.5,0,0.9,0,1.4v0.2c-0.1,0-0.1,0-0.2,0c-0.5,0-1,0-1.5,0c-0.1,0-0.2,0-0.3-0.1
		c-1.2-1.2-2.4-2.3-3.5-3.5c-0.1-0.1-0.2-0.2-0.4-0.2c-0.5,0-1,0-1.6,0c-0.1,0-0.1,0-0.2,0v3.8H26.7z"/>
	<path clip-path="url(#SVGID_00000065786332272750445650000004542668962934812326_)" fill="#454546" d="M77.8,34.9h-2.5V24.8h2.5
		v3.8c0.2,0,0.3,0,0.5,0c0.4,0,0.9,0,1.3,0c0.1,0,0.2,0,0.3-0.1c1.2-1.2,2.4-2.4,3.5-3.5c0.1-0.1,0.2-0.1,0.3-0.1c0.5,0,1.1,0,1.6,0
		c0,0.1,0,0.1,0,0.2c0,0.5,0,1,0,1.4c0,0.1,0,0.2-0.1,0.3c-1,1-2,2-3,3c0,0-0.1,0.1-0.2,0.1c0.1,0.1,0.1,0.1,0.1,0.2c1,1,2,2,3,3
		c0.1,0.1,0.1,0.2,0.1,0.3c0,0.5,0,0.9,0,1.4v0.2c-0.3,0-0.6,0-0.9,0c-0.3,0-0.6,0.1-0.9,0c-0.3-0.1-0.4-0.4-0.7-0.6c-1-1-2-2-3-3
		c-0.1-0.1-0.2-0.1-0.3-0.1c-0.6,0-1.2,0-1.8,0V34.9z"/>
</g>
<polygon fill="#454546" points="45.1,27.3 41.3,27.3 41.3,24.8 51.5,24.8 51.5,27.3 47.7,27.3 47.7,34.9 45.1,34.9 "/>
<rect x="11.5" y="24.8" fill="#454546" width="2.5" height="10.1"/>
</svg>
