<?xml version="1.0" encoding="UTF-8"?>
<svg id="Layer_2" data-name="Layer 2" xmlns="http://www.w3.org/2000/svg" viewBox="0 0 441.94 300.06">
  <defs>
    <style>
      .cls-1 {
        fill: #f7ab59;
      }

      .cls-1, .cls-2, .cls-3, .cls-4, .cls-5, .cls-6, .cls-7, .cls-8 {
        stroke-width: 0px;
      }

      .cls-2 {
        fill: #4f8d81;
      }

      .cls-3 {
        fill: #24374b;
      }

      .cls-4 {
        fill: #e0d5bb;
      }

      .cls-5 {
        fill: #f07f46;
      }

      .cls-6 {
        fill: #fff;
      }

      .cls-7 {
        fill: #00687f;
      }

      .cls-8 {
        fill: #006b5b;
      }
    </style>
  </defs>
  <g id="final-outlined">
    <g id="b_fabrik-4c">
      <path id="spacelabel" class="cls-3" d="M131.04,241.73h209.02v29.16c0,16.09-13.07,29.16-29.16,29.16H101.88v-29.16c0-16.09,13.07-29.16,29.16-29.16Z"/>
      <g>
        <path class="cls-6" d="M156.63,275.82c0,4.56-3.57,7.22-10.41,7.22h-13.22v-26.6h12.46c6.38,0,9.8,2.7,9.8,6.91,0,2.74-1.37,4.75-3.42,5.85,2.85.91,4.79,3.15,4.79,6.61ZM137.94,260.31v7.33h6.99c3.42,0,5.36-1.22,5.36-3.65s-1.94-3.69-5.36-3.69h-6.99ZM151.65,275.32c0-2.66-2.01-3.84-5.74-3.84h-7.98v7.67h7.98c3.72,0,5.74-1.18,5.74-3.84Z"/>
        <path class="cls-6" d="M161.5,283.04h19v2.89h-19v-2.89Z"/>
        <path class="cls-6" d="M191.96,260.58v8.09h12.84v4.18h-12.84v10.18h-4.94v-26.6h19.42v4.14h-14.48Z"/>
        <path class="cls-6" d="M227.95,271.14v11.89h-4.48v-2.47c-1.14,1.75-3.34,2.74-6.38,2.74-4.64,0-7.56-2.55-7.56-6.08s2.28-6.04,8.43-6.04h5.24v-.3c0-2.77-1.67-4.41-5.05-4.41-2.28,0-4.64.76-6.16,2.01l-1.86-3.46c2.17-1.67,5.32-2.51,8.59-2.51,5.85,0,9.23,2.77,9.23,8.62ZM223.2,276.69v-2.36h-4.9c-3.23,0-4.1,1.22-4.1,2.7,0,1.71,1.44,2.81,3.88,2.81s4.33-1.06,5.13-3.15Z"/>
        <path class="cls-6" d="M256.66,272.89c0,6.31-4.37,10.41-10.3,10.41-2.77,0-5.13-.95-6.72-2.89v2.62h-4.52v-28.19h4.75v10.37c1.63-1.82,3.91-2.7,6.5-2.7,5.93,0,10.3,4.07,10.3,10.37ZM251.83,272.89c0-3.88-2.58-6.34-6-6.34s-6.04,2.47-6.04,6.34,2.62,6.34,6.04,6.34,6-2.47,6-6.34Z"/>
        <path class="cls-6" d="M274.34,262.52v4.52c-.42-.08-.76-.11-1.1-.11-3.61,0-5.89,2.13-5.89,6.27v9.84h-4.75v-20.29h4.52v2.96c1.37-2.13,3.84-3.19,7.22-3.19Z"/>
        <path class="cls-6" d="M278.78,256.55c0-1.6,1.29-2.85,3.04-2.85s3.04,1.18,3.04,2.74c0,1.67-1.25,2.96-3.04,2.96s-3.04-1.25-3.04-2.85ZM279.43,262.75h4.75v20.29h-4.75v-20.29Z"/>
        <path class="cls-6" d="M299.75,274.33l-3.53,3.34v5.36h-4.75v-28.19h4.75v17.02l9.84-9.12h5.7l-8.47,8.51,9.27,11.78h-5.78l-7.03-8.7Z"/>
      </g>
      <path id="wortmarke" class="cls-3" d="M181.86,142.57c-3.34-1.69-7.17-2.52-11.48-2.52h-17.65v40.67h17.65c4.3,0,8.14-.84,11.48-2.53,3.34-1.69,5.94-4.07,7.79-7.15,1.84-3.08,2.77-6.63,2.77-10.66s-.92-7.58-2.77-10.67c-1.84-3.07-4.45-5.46-7.79-7.14ZM183.04,167.73c-1.21,2.11-2.94,3.75-5.19,4.88-2.25,1.14-4.86,1.72-7.82,1.72h-9.81v-27.89h9.81c2.96,0,5.57.58,7.82,1.71,2.25,1.14,3.98,2.78,5.19,4.88,1.21,2.11,1.81,4.56,1.81,7.36s-.6,5.24-1.81,7.35ZM14.63,147.88c2.21-1.2,4.74-1.8,7.58-1.8,4.34,0,8.06,1.55,11.13,4.65l4.73-4.65c-1.88-2.17-4.21-3.82-6.98-4.94-2.77-1.12-5.84-1.69-9.23-1.69-4.16,0-7.89.9-11.22,2.7-3.33,1.8-5.93,4.29-7.81,7.47-1.88,3.17-2.83,6.76-2.83,10.75s.95,7.58,2.83,10.75c1.88,3.18,4.48,5.66,7.79,7.47,3.3,1.8,7.02,2.7,11.13,2.7,2.93,0,5.77-.44,8.54-1.34,2.77-.89,5.19-2.17,7.27-3.83v-16.21h-7.1v12.67c-2.38,1.4-5.16,2.09-8.31,2.09-2.81,0-5.32-.62-7.53-1.86-2.22-1.24-3.94-2.94-5.19-5.12-1.25-2.17-1.88-4.61-1.88-7.32s.62-5.27,1.88-7.43c1.25-2.18,2.97-3.86,5.19-5.06ZM79.88,142.17c-3.3-1.81-7.02-2.7-11.13-2.7s-7.83.9-11.13,2.7c-3.3,1.8-5.91,4.3-7.79,7.49-1.88,3.19-2.83,6.77-2.83,10.72s.94,7.52,2.83,10.72c1.88,3.19,4.48,5.69,7.79,7.5,3.3,1.8,7.02,2.7,11.13,2.7s7.83-.9,11.13-2.7c3.3-1.8,5.91-4.29,7.79-7.47,1.88-3.18,2.83-6.76,2.83-10.75s-.95-7.58-2.83-10.75c-1.88-3.17-4.49-5.66-7.79-7.46ZM81.09,167.73c-1.23,2.19-2.93,3.89-5.08,5.12-2.15,1.22-4.57,1.83-7.27,1.83s-5.12-.61-7.27-1.83c-2.15-1.22-3.85-2.93-5.08-5.12-1.23-2.18-1.84-4.64-1.84-7.35s.61-5.16,1.84-7.36c1.23-2.18,2.93-3.89,5.08-5.12,2.15-1.21,4.57-1.83,7.27-1.83s5.12.61,7.27,1.83c2.15,1.22,3.85,2.93,5.08,5.12,1.23,2.19,1.84,4.64,1.84,7.36,0,2.71-.61,5.16-1.84,7.35ZM131.45,142.17c-3.3-1.81-7.02-2.7-11.13-2.7s-7.83.9-11.13,2.7c-3.3,1.8-5.91,4.3-7.79,7.49-1.88,3.19-2.83,6.77-2.83,10.72s.95,7.52,2.83,10.72c1.88,3.19,4.48,5.69,7.79,7.5,3.3,1.8,7.02,2.7,11.13,2.7s7.83-.9,11.13-2.7c3.3-1.8,5.91-4.29,7.79-7.47,1.88-3.18,2.83-6.76,2.83-10.75s-.95-7.58-2.83-10.75c-1.88-3.17-4.49-5.66-7.79-7.46ZM132.66,167.73c-1.23,2.19-2.93,3.89-5.08,5.12-2.15,1.22-4.57,1.83-7.27,1.83s-5.12-.61-7.27-1.83c-2.15-1.22-3.85-2.93-5.08-5.12-1.23-2.18-1.84-4.64-1.84-7.35s.61-5.16,1.84-7.36c1.23-2.18,2.93-3.89,5.08-5.12,2.15-1.21,4.57-1.83,7.27-1.83s5.12.61,7.27,1.83c2.15,1.22,3.85,2.93,5.08,5.12,1.23,2.19,1.84,4.64,1.84,7.36,0,2.71-.61,5.16-1.84,7.35ZM224.97,159.48c-1.92-.75-4.38-1.48-7.39-2.18-2.19-.54-3.93-1.02-5.19-1.45-1.27-.43-2.32-1.01-3.15-1.74-.83-.73-1.24-1.69-1.24-2.85,0-1.66.73-3,2.17-4.01,1.44-1.01,3.64-1.51,6.61-1.51,1.81,0,3.67.27,5.6.81,1.92.54,3.77,1.34,5.53,2.38l2.37-5.87c-1.73-1.16-3.78-2.05-6.17-2.67-2.38-.62-4.81-.93-7.27-.93-3.54,0-6.53.54-8.97,1.62-2.44,1.09-4.27,2.55-5.48,4.38-1.21,1.84-1.82,3.89-1.82,6.13,0,2.67.69,4.79,2.05,6.36,1.36,1.57,3,2.72,4.9,3.46,1.9.73,4.39,1.47,7.47,2.21,2.19.54,3.93,1.02,5.19,1.45,1.27.43,2.32,1.02,3.15,1.77.83.76,1.24,1.72,1.24,2.88,0,1.58-.74,2.87-2.22,3.83-1.48.97-3.72,1.45-6.73,1.45-2.42,0-4.84-.42-7.24-1.25-2.4-.83-4.43-1.91-6.09-3.22l-2.59,5.87c1.7,1.47,3.99,2.66,6.9,3.55,2.9.89,5.91,1.34,9.03,1.34,3.54,0,6.54-.54,9-1.62,2.46-1.09,4.3-2.54,5.51-4.36,1.21-1.82,1.81-3.86,1.81-6.1,0-2.63-.68-4.72-2.05-6.28-1.36-1.55-3-2.7-4.92-3.45ZM378.94,163.17h19.5v-6.22h-19.5v-10.57h21.98v-6.33h-29.48v40.67h30.28v-6.33h-22.79v-11.22ZM439.91,162.93c-1.36-1.55-3.01-2.7-4.94-3.46-1.92-.75-4.38-1.48-7.39-2.18-2.19-.54-3.93-1.02-5.19-1.45-1.27-.43-2.32-1.01-3.15-1.74-.83-.73-1.24-1.69-1.24-2.85,0-1.66.73-3,2.17-4.01,1.44-1.01,3.64-1.51,6.61-1.51,1.81,0,3.67.27,5.6.81,1.92.54,3.77,1.34,5.53,2.38l2.37-5.87c-1.73-1.16-3.78-2.05-6.17-2.67-2.38-.62-4.81-.93-7.27-.93-3.54,0-6.53.54-8.97,1.62-2.44,1.09-4.27,2.55-5.48,4.38-1.21,1.84-1.82,3.89-1.82,6.13,0,2.67.69,4.79,2.05,6.36,1.36,1.57,3,2.72,4.9,3.46,1.9.73,4.39,1.47,7.47,2.21,2.19.54,3.93,1.02,5.19,1.45,1.27.43,2.32,1.02,3.15,1.77.83.76,1.24,1.72,1.24,2.88,0,1.58-.74,2.87-2.22,3.83-1.48.97-3.72,1.45-6.73,1.45-2.42,0-4.83-.42-7.24-1.25-2.4-.83-4.43-1.91-6.09-3.22l-2.59,5.87c1.7,1.47,3.99,2.66,6.9,3.55,2.9.89,5.91,1.34,9.03,1.34,3.54,0,6.54-.54,9-1.62,2.46-1.09,4.3-2.54,5.51-4.36,1.21-1.82,1.81-3.86,1.81-6.1.02-2.63-.66-4.71-2.03-6.27ZM338.91,147.91c2.19-1.21,4.68-1.83,7.44-1.83,4.27,0,7.86,1.58,10.79,4.76l4.85-4.59c-1.88-2.21-4.19-3.89-6.92-5.05-2.73-1.16-5.75-1.74-9.06-1.74-4.08,0-7.76.9-11.05,2.7-3.29,1.8-5.87,4.29-7.76,7.47-1.88,3.18-2.83,6.76-2.83,10.75s.93,7.58,2.8,10.75c1.87,3.18,4.44,5.66,7.73,7.47,3.29,1.8,6.97,2.7,11.05,2.7,3.3,0,6.34-.58,9.09-1.74,2.75-1.16,5.06-2.85,6.95-5.05l-4.85-4.65c-2.93,3.22-6.52,4.83-10.79,4.83-2.77,0-5.25-.61-7.44-1.83-2.19-1.22-3.9-2.92-5.13-5.09-1.23-2.17-1.84-4.63-1.84-7.38s.61-5.21,1.84-7.38c1.23-2.17,2.95-3.88,5.14-5.1ZM295.35,140.04l-18.17,40.67h7.73l3.98-9.41h20.19l4.04,9.41h7.84l-18.23-40.67h-7.38ZM291.43,165.38l7.55-17.78,7.62,17.78h-15.17ZM268.11,141.78c-2.59-1.16-5.65-1.74-9.15-1.74h-16.6v40.67h7.5v-11.74h9.11c3.5,0,6.54-.58,9.15-1.74,2.59-1.16,4.59-2.84,5.97-5.03,1.39-2.18,2.07-4.75,2.07-7.7s-.69-5.56-2.07-7.73c-1.39-2.17-3.37-3.83-5.98-5ZM266.07,160.5c-1.7,1.4-4.18,2.09-7.44,2.09h-8.77v-16.15h8.77c3.26,0,5.75.69,7.44,2.09,1.7,1.4,2.54,3.39,2.54,5.98s-.85,4.6-2.54,5.99Z"/>
      <g id="bildmarke">
        <rect class="cls-8" x="153.11" y="18.53" width="24.65" height="62.29"/>
        <path class="cls-2" d="M153.11,18.53h24.65V.02h-39.71C116.15.02,98.33,18.15,98.33,40.42s17.82,40.4,39.71,40.4h15.07V18.53Z"/>
        <rect class="cls-7" x="208.29" y="18.53" width="24.99" height="62.27"/>
        <polygon class="cls-3" points="208.29 18.53 177.76 18.53 177.76 80.81 153.11 80.81 153.11 99.32 233.29 99.32 233.29 80.79 208.29 80.79 208.29 18.53"/>
        <rect class="cls-5" x="263.48" y="18.34" width="24.99" height="62.45"/>
        <polygon class="cls-4" points="208.29 0 208.29 18.53 233.29 18.53 233.29 80.79 263.48 80.79 263.48 18.34 288.45 18.34 288.45 0 208.29 0"/>
        <path class="cls-1" d="M303.55,18.34h-15.09v62.45h-24.99v18.71h40.08c22.1,0,40.08-18.2,40.08-40.58,0-22.38-17.98-40.58-40.08-40.58Z"/>
      </g>
    </g>
  </g>
</svg>