<svg xmlns="http://www.w3.org/2000/svg" viewBox="0 0 444.55 410.32"><defs><style>.cls-1{fill:#2684ff;}.cls-2{fill:#333;}</style></defs><g id="Ebene_2" data-name="Ebene 2"><g id="Ebene_1-2" data-name="Ebene 1"><path class="cls-1" d="M354,28.4a47.54,47.54,0,1,0,66.9-4.78A47.43,47.43,0,0,0,354,28.4Zm47,40.51a14.49,14.49,0,1,1-1.56-20.39A14.47,14.47,0,0,1,401,68.91Z"/><path class="cls-2" d="M380.44,129.05a61.78,61.78,0,1,1-61.82-65L318.45,0a125.85,125.85,0,1,0,126.1,129.05Z"/><path class="cls-2" d="M24.91,338.77q-12.16,0-18.54-6.77T0,312.78a29.72,29.72,0,0,1,1.94-11.06,24,24,0,0,1,5.33-8.21,22.32,22.32,0,0,1,8.07-5.07,29.11,29.11,0,0,1,10.15-1.73,32.75,32.75,0,0,1,5.76.47,36.15,36.15,0,0,1,4.53,1.08A22.48,22.48,0,0,1,39,289.52c.87.43,1.49.77,1.88,1l-3.24,9.07a27.34,27.34,0,0,0-5.37-2.09,25.42,25.42,0,0,0-6.95-.86,15.22,15.22,0,0,0-5.07.86,11.49,11.49,0,0,0-4.39,2.77,13.66,13.66,0,0,0-3.06,4.94,20.59,20.59,0,0,0-1.16,7.34,26.38,26.38,0,0,0,.76,6.44,13.53,13.53,0,0,0,2.45,5.15,11.73,11.73,0,0,0,4.43,3.42,15.73,15.73,0,0,0,6.62,1.26,29,29,0,0,0,4.39-.29,33.17,33.17,0,0,0,3.46-.68,17.19,17.19,0,0,0,2.66-.9c.77-.34,1.47-.65,2.09-.94l3.1,9a26.15,26.15,0,0,1-6.7,2.59A38.94,38.94,0,0,1,24.91,338.77Z"/><path class="cls-2" d="M82.66,318.75a24.69,24.69,0,0,1-1.3,8.17,17.65,17.65,0,0,1-3.74,6.34,17,17,0,0,1-5.87,4.07,21,21,0,0,1-15.27,0,16.83,16.83,0,0,1-5.86-4.07,18.4,18.4,0,0,1-3.82-6.34,23.46,23.46,0,0,1-1.37-8.17,22.58,22.58,0,0,1,1.41-8.14,18.51,18.51,0,0,1,3.88-6.26,17.49,17.49,0,0,1,5.91-4,20.17,20.17,0,0,1,15,0,17,17,0,0,1,5.87,4,18.38,18.38,0,0,1,3.82,6.26A23.25,23.25,0,0,1,82.66,318.75Zm-11,0a13.49,13.49,0,0,0-2-7.81,6.46,6.46,0,0,0-5.65-2.85,6.57,6.57,0,0,0-5.69,2.85,13.34,13.34,0,0,0-2,7.81,13.72,13.72,0,0,0,2,7.89,6.53,6.53,0,0,0,5.69,2.91,6.42,6.42,0,0,0,5.65-2.91A13.88,13.88,0,0,0,71.71,318.75Z"/><path class="cls-2" d="M113.15,316q-1.44,5.48-3.06,10.88t-3.42,10.87H98.32q-1.3-3-2.82-7.2t-3.14-9.11Q90.74,316.52,89,311t-3.29-11.12H97.06c.38,1.72.8,3.61,1.26,5.65s.94,4.14,1.45,6.3,1,4.33,1.6,6.52,1.12,4.28,1.7,6.3q.93-3.18,1.83-6.48t1.73-6.52l1.59-6.19c.5-2,.94-3.86,1.33-5.58h7.77c.39,1.72.82,3.59,1.3,5.58s1,4,1.51,6.19,1.08,4.31,1.66,6.52,1.17,4.36,1.8,6.48q.87-3,1.74-6.3t1.63-6.52c.5-2.16,1-4.26,1.44-6.3s.89-3.93,1.27-5.65h11.16q-1.59,5.61-3.28,11.12t-3.32,10.44q-1.64,4.94-3.18,9.11t-2.85,7.2h-8.36q-1.8-5.47-3.52-10.87T113.15,316Z"/><path class="cls-2" d="M181.08,318.75a24.44,24.44,0,0,1-1.3,8.17,17.65,17.65,0,0,1-3.74,6.34,16.87,16.87,0,0,1-5.87,4.07,20.93,20.93,0,0,1-15.26,0,16.87,16.87,0,0,1-5.87-4.07,18.72,18.72,0,0,1-3.82-6.34,23.46,23.46,0,0,1-1.36-8.17,22.58,22.58,0,0,1,1.4-8.14,18.53,18.53,0,0,1,3.89-6.26,17.35,17.35,0,0,1,5.9-4,20.2,20.2,0,0,1,15,0,17.13,17.13,0,0,1,5.87,4,18.36,18.36,0,0,1,3.81,6.26A23.25,23.25,0,0,1,181.08,318.75Zm-10.94,0a13.49,13.49,0,0,0-2-7.81,6.48,6.48,0,0,0-5.66-2.85,6.55,6.55,0,0,0-5.68,2.85q-2,2.85-2,7.81a13.64,13.64,0,0,0,2,7.89,6.51,6.51,0,0,0,5.68,2.91,6.44,6.44,0,0,0,5.66-2.91A13.88,13.88,0,0,0,170.14,318.75Z"/><path class="cls-2" d="M212.18,309.39c-1-.24-2.08-.49-3.38-.75a20.52,20.52,0,0,0-4.18-.4,19.43,19.43,0,0,0-2.41.18,13.45,13.45,0,0,0-2.12.4v28.94H189.36V301.9a67.78,67.78,0,0,1,6.8-1.91,39.89,39.89,0,0,1,8.75-.9c.58,0,1.27,0,2.09.11s1.63.17,2.45.29,1.63.27,2.45.43a12.47,12.47,0,0,1,2.08.61Z"/><path class="cls-2" d="M230.47,313.49q1.59-1.73,3.27-3.58t3.28-3.69c1-1.22,2-2.37,3-3.47s1.74-2.05,2.41-2.86h12.76q-3.82,4.38-7.45,8.37t-8,8.22a48.15,48.15,0,0,1,4.46,4.66q2.31,2.7,4.47,5.58t4,5.77c1.2,1.93,2.21,3.68,3,5.27H243.34c-.77-1.25-1.64-2.63-2.63-4.15s-2-3-3.12-4.55-2.27-3-3.49-4.36a28.46,28.46,0,0,0-3.63-3.54v16.6H219.74V283.61l10.73-1.72Z"/><path class="cls-2" d="M273.17,288.94a5.91,5.91,0,0,1-1.91,4.65,6.84,6.84,0,0,1-9,0,6.6,6.6,0,0,1,0-9.29,6.84,6.84,0,0,1,9,0A5.9,5.9,0,0,1,273.17,288.94Zm-1,48.82H261.43V299.89h10.73Z"/><path class="cls-2" d="M282.24,301.18a60,60,0,0,1,7.05-1.47,57.57,57.57,0,0,1,9.08-.69,22.05,22.05,0,0,1,8,1.26,12,12,0,0,1,5.08,3.57,13.71,13.71,0,0,1,2.66,5.47,29,29,0,0,1,.8,7.06v21.38H304.2V317.67q0-5.18-1.37-7.34c-.91-1.44-2.62-2.16-5.11-2.16-.77,0-1.59,0-2.45.11s-1.63.15-2.3.25v29.23H282.24Z"/><path class="cls-2" d="M357.33,333q0,9.28-4.71,13.79T338,351.3a39.28,39.28,0,0,1-6.91-.62,43.47,43.47,0,0,1-6.41-1.62l1.87-9a32.13,32.13,0,0,0,5.29,1.59,31.48,31.48,0,0,0,6.3.57c3.07,0,5.25-.67,6.52-2a7.26,7.26,0,0,0,1.91-5.19v-1.36a17.58,17.58,0,0,1-3.57,1.18,18.48,18.48,0,0,1-4,.4q-7.86,0-12-4.65t-4.17-13a21.41,21.41,0,0,1,1.29-7.6,16.27,16.27,0,0,1,3.78-5.86,16.63,16.63,0,0,1,6.09-3.78,23.26,23.26,0,0,1,8.13-1.34c1.3,0,2.63.06,4,.18s2.72.28,4.07.47,2.62.42,3.85.69,2.31.54,3.27.82ZM333.79,317.6q0,9,7.27,9a11,11,0,0,0,3.1-.43,12.31,12.31,0,0,0,2.45-1V308c-.53-.09-1.16-.18-1.88-.25s-1.56-.11-2.52-.11a7.38,7.38,0,0,0-6.33,2.81A11.58,11.58,0,0,0,333.79,317.6Z"/><path class="cls-2" d="M40.45,359.56q-2.23,2.44-5,5.43t-5.87,6.12q-3.06,3.13-6.08,6.16c-2,2-3.91,3.89-5.69,5.61a64.44,64.44,0,0,1,6.55,5.33q3.46,3.17,6.77,6.77t6.23,7.34a63.88,63.88,0,0,1,4.86,7.13H34a70.08,70.08,0,0,0-5-6.8,87.71,87.71,0,0,0-5.94-6.55c-2.08-2.09-4.2-4-6.33-5.8a56.64,56.64,0,0,0-6.23-4.54v23.69h-7V359.56h7v22C12.18,380,14,378.22,16,376.22s4-4,6-6,3.83-3.95,5.58-5.79S30.83,361,32,359.56Z"/><path class="cls-2" d="M44.77,390.8a23.86,23.86,0,0,1,1.44-8.67A18.06,18.06,0,0,1,50,376a15.56,15.56,0,0,1,5.47-3.67,17,17,0,0,1,6.34-1.22q7.56,0,11.59,4.71t4,14.37v1.11a9.75,9.75,0,0,1-.07,1.26H51.76q.42,5.84,3.38,8.86t9.22,3a24.49,24.49,0,0,0,5.94-.61,21.29,21.29,0,0,0,3.63-1.19l.94,5.62a20.16,20.16,0,0,1-4.29,1.37,30.39,30.39,0,0,1-6.94.72,22.07,22.07,0,0,1-8.46-1.48,15.65,15.65,0,0,1-5.87-4.07,16.52,16.52,0,0,1-3.42-6.15A25.88,25.88,0,0,1,44.77,390.8Zm25.71-3.67a11.27,11.27,0,0,0-2.27-7.45,7.83,7.83,0,0,0-6.45-2.92,8.8,8.8,0,0,0-4.06.9,9.63,9.63,0,0,0-3,2.34,10.91,10.91,0,0,0-1.91,3.32,16,16,0,0,0-.9,3.81Z"/><path class="cls-2" d="M87.11,373.09q2.3-.57,6.08-1.22a52.53,52.53,0,0,1,8.75-.65,16.46,16.46,0,0,1,6,1,10.6,10.6,0,0,1,4.1,2.85c.34-.24.86-.58,1.58-1a17.73,17.73,0,0,1,2.67-1.26,26.9,26.9,0,0,1,3.53-1.08,17.81,17.81,0,0,1,4.17-.47,17,17,0,0,1,7.06,1.26,10.16,10.16,0,0,1,4.28,3.56,13.91,13.91,0,0,1,2.09,5.48,41.14,41.14,0,0,1,.54,6.91v21h-6.7V389.87a42.22,42.22,0,0,0-.32-5.69,11.13,11.13,0,0,0-1.22-4,5.64,5.64,0,0,0-2.45-2.34,9.2,9.2,0,0,0-4-.76,14.88,14.88,0,0,0-5.58.9,11.66,11.66,0,0,0-3,1.62,24,24,0,0,1,.87,4.11,37,37,0,0,1,.29,4.68v21h-6.7V389.87a38.59,38.59,0,0,0-.36-5.69,11.54,11.54,0,0,0-1.26-4,5.64,5.64,0,0,0-2.45-2.34,9,9,0,0,0-3.92-.76c-.67,0-1.39,0-2.16.08s-1.5.1-2.2.18-1.33.15-1.91.25l-1.15.21v31.61H87.11Z"/><path class="cls-2" d="M149.1,373.09q2.29-.57,6.12-1.22a53.08,53.08,0,0,1,8.78-.65,19,19,0,0,1,7.42,1.26,11.55,11.55,0,0,1,4.71,3.53,13.57,13.57,0,0,1,2.49,5.43,31.67,31.67,0,0,1,.72,7v21h-6.7V389.87a31.35,31.35,0,0,0-.47-5.91,10,10,0,0,0-1.54-4,6.19,6.19,0,0,0-2.88-2.19,12.57,12.57,0,0,0-4.47-.69c-.72,0-1.46,0-2.23.08s-1.5.1-2.2.18-1.32.15-1.87.25l-1.19.21v31.61H149.1Z"/><path class="cls-2" d="M202.52,371.08a19.59,19.59,0,0,1,6.81,1,10.63,10.63,0,0,1,6.87,7.49,21.86,21.86,0,0,1,.72,5.79v23.4l-2.41.4c-1,.17-2.2.32-3.49.47s-2.7.27-4.21.39-3,.18-4.5.18a24.82,24.82,0,0,1-5.84-.64,13.08,13.08,0,0,1-4.6-2.06,9.35,9.35,0,0,1-3-3.7,13,13,0,0,1-1.08-5.55A10.69,10.69,0,0,1,189,393a10.17,10.17,0,0,1,3.42-3.6,15.83,15.83,0,0,1,5-2,27.63,27.63,0,0,1,6.05-.65c.67,0,1.37,0,2.09.11s1.4.17,2,.29l1.69.32,1,.22v-1.88a15,15,0,0,0-.36-3.27,7.41,7.41,0,0,0-1.3-2.88,6.57,6.57,0,0,0-2.55-2,10.13,10.13,0,0,0-4.22-.75,31.89,31.89,0,0,0-5.79.46,20.51,20.51,0,0,0-3.71,1l-.79-5.55a20.83,20.83,0,0,1,4.32-1.11A37.26,37.26,0,0,1,202.52,371.08Zm.58,33.55c1.58,0,3,0,4.21-.11a17.45,17.45,0,0,0,3.06-.4V393a8.67,8.67,0,0,0-2.34-.61,25.84,25.84,0,0,0-3.93-.25,24.37,24.37,0,0,0-3.2.22,9.57,9.57,0,0,0-3.09.9,6.63,6.63,0,0,0-2.35,1.87,4.92,4.92,0,0,0-.93,3.13q0,3.6,2.3,5A12,12,0,0,0,203.1,404.63Z"/><path class="cls-2" d="M234.27,372h14.19v5.62H234.27v17.28a21.22,21.22,0,0,0,.43,4.64,6.88,6.88,0,0,0,1.3,2.88,4.7,4.7,0,0,0,2.16,1.48,9.48,9.48,0,0,0,3,.43,14.35,14.35,0,0,0,4.86-.68c1.23-.46,2.08-.78,2.56-1l1.3,5.55a27,27,0,0,1-3.53,1.26,20.21,20.21,0,0,1-5.76.75,17.38,17.38,0,0,1-6.3-1,9.23,9.23,0,0,1-4-2.91,11.68,11.68,0,0,1-2.12-4.79,31.46,31.46,0,0,1-.61-6.59V361.57l6.69-1.15Z"/><path class="cls-2" d="M257,409.45V354.73l6.7-1.15v19.15a23.73,23.73,0,0,1,8.21-1.51,19,19,0,0,1,7.41,1.26A11.65,11.65,0,0,1,284,376a13.7,13.7,0,0,1,2.48,5.43,31.67,31.67,0,0,1,.72,7v21H280.5V389.87A32.21,32.21,0,0,0,280,384a10.13,10.13,0,0,0-1.55-4,6.19,6.19,0,0,0-2.88-2.19,12.55,12.55,0,0,0-4.46-.69,17.43,17.43,0,0,0-2.24.15c-.76.09-1.5.2-2.19.32s-1.32.25-1.87.4a9.14,9.14,0,0,0-1.19.36v31.1Z"/></g></g></svg>