<?xml version="1.0" encoding="utf-8"?>
<!-- Generator: Adobe Illustrator 27.8.1, SVG Export Plug-In . SVG Version: 6.00 Build 0)  -->
<svg version="1.1" id="Ebene_1" xmlns="http://www.w3.org/2000/svg" xmlns:xlink="http://www.w3.org/1999/xlink" x="0px" y="0px"
	 viewBox="0 0 647 426" style="enable-background:new 0 0 647 426;" xml:space="preserve">
<style type="text/css">
	.st0{fill:#284043;}
</style>
<g>
	<g>
		<path class="st0" d="M295.5,277.7h-73.9v148.1h73.9V277.7z"/>
		<path class="st0" d="M379,277.7C379,277.7,379,277.7,379,277.7c-5.1,0-9.3-4.1-9.3-9.3c0,0,0,0,0,0v-46.3H314v203.7h55.7v-64.8
			c0,0,0,0,0,0c0-5.1,4.1-9.3,9.2-9.3c0,0,0,0,0,0h45.9v-74.1H379z"/>
		<path class="st0" d="M552.3,370.3c-5.1,0-9.2-4.1-9.2-9.3c0-3.9,2.4-7.3,5.9-8.6v0l98.1-56.2v-73.8H443.4v55.5h94.7
			c5.1,0,9.2,4.1,9.2,9.3c0,3.9-2.4,7.3-5.9,8.6v0l-98.1,56.2V426H647v-55.7H552.3z"/>
		<path class="st0" d="M277,259.2c10.2,0,18.5-8.3,18.5-18.5c0-10.2-8.3-18.5-18.5-18.5h-37c-10.2,0-18.5,8.3-18.5,18.5
			c0,10.2,8.3,18.5,18.5,18.5H277z"/>
		<path class="st0" d="M0,425.9h55.5v-46.3c0-5.1,4.1-9.3,9.2-9.3h138.6V222.2H0V425.9z M73.9,277.9h55.2c10.2,0,18.5,8.3,18.5,18.5
			c0,10.2-8.3,18.5-18.5,18.5H73.9c-10.2,0-18.5-8.3-18.5-18.5C55.5,286.2,63.7,277.9,73.9,277.9z"/>
		<path class="st0" d="M286.5,55.6h18.3h120.4V0H221.6v0.2v147.9V181v22.6h76.3H425v-55.5H286.5c-5.1,0-9.2-4.1-9.2-9.3
			c0-5.1,4.1-9.3,9.2-9.3h18.3h120.4V74.1H286.5c-5.1,0-9.2-4.1-9.2-9.3C277.3,59.7,281.4,55.6,286.5,55.6z"/>
		<path class="st0" d="M177.9,0H0v101.8h0v101.8h55.5V101.8h0.2c0-25.6,20.7-46.3,46.2-46.3c25.5,0,46.2,20.7,46.2,46.3
			c0,0.1,0,0.3,0,0.4v101.4h-0.2v0h55.5V0L177.9,0L177.9,0z"/>
		<path class="st0" d="M469.1,203.7H647V101.8h0V0h-55.5v101.8h-0.2c0,25.6-20.7,46.3-46.2,46.3c-25.5,0-46.2-20.7-46.2-46.3
			c0-0.1,0-0.3,0-0.4V0h0.2v0h-55.5v203.7H469.1L469.1,203.7z"/>
	</g>
</g>
</svg>
