<?xml version="1.0" encoding="UTF-8" standalone="no"?>
<!DOCTYPE svg PUBLIC "-//W3C//DTD SVG 1.1//EN" "http://www.w3.org/Graphics/SVG/1.1/DTD/svg11.dtd">
<svg width="100%" height="100%" viewBox="0 0 1241 421" version="1.1" xmlns="http://www.w3.org/2000/svg" xmlns:xlink="http://www.w3.org/1999/xlink" xml:space="preserve" xmlns:serif="http://www.serif.com/" style="fill-rule:evenodd;clip-rule:evenodd;stroke-linejoin:round;stroke-miterlimit:2;">
    <g id="ArtBoard1" transform="matrix(1,0,0,0.240282,0,0)">
        <rect x="0" y="0" width="1240.16" height="1748.03" style="fill:none;"/>
        <g transform="matrix(4.16667,0,0,17.3407,-1032.76,-7948.22)">
            <text x="277.359px" y="518.38px" style="font-family:'MADEEvolveSans-Medium', 'MADE Evolve Sans';font-weight:500;font-size:36.445px;fill:rgb(30,28,26);">S<tspan x="298.679px 319.343px " y="518.38px 518.38px ">TU</tspan></text>
            <text x="343.032px" y="518.38px" style="font-family:'MADEEvolveSansEVO-Medium', 'MADE Evolve Sans EVO';font-weight:500;font-size:36.445px;fill:rgb(30,28,26);">D</text>
            <text x="367.596px" y="518.38px" style="font-family:'MADEEvolveSans-Medium', 'MADE Evolve Sans';font-weight:500;font-size:36.445px;fill:rgb(30,28,26);">IO</text>
            <text x="403.457px" y="518.38px" style="font-family:'MADEEvolveSansEVO-Light', 'MADE Evolve Sans EVO';font-weight:300;font-size:36.445px;fill:rgb(30,28,26);">D</text>
            <text x="431.447px" y="518.38px" style="font-family:'MADEEvolveSans-Light', 'MADE Evolve Sans';font-weight:300;font-size:36.445px;fill:rgb(30,28,26);">E<tspan x="455.682px 475.399px 495.698px " y="518.38px 518.38px 518.38px ">LTA</tspan></text>
        </g>
        <g transform="matrix(1,0,0,4.16178,-315.421,-2373.37)">
            <text x="683.7px" y="902px" style="font-family:'MADEEvolveSans', 'MADE Evolve Sans';font-size:66.667px;fill:rgb(77,76,77);">w<tspan x="750.367px 806.167px 846.7px 898.233px 945.967px 1001.77px 1053.1px 1104.77px 1158.9px " y="902px 902px 902px 902px 902px 902px 902px 902px 902px ">orkspaces</tspan></text>
        </g>
    </g>
</svg>
