<svg xmlns="http://www.w3.org/2000/svg" xmlns:xlink="http://www.w3.org/1999/xlink" width="728.337" height="207.957" viewBox="0 0 728.337 207.957">
  <defs>
    <clipPath id="clip-path">
      <rect id="Rechteck_11" data-name="Rechteck 11" width="207.956" height="207.957" fill="#2f2a30"/>
    </clipPath>
  </defs>
  <g id="Gruppe_82" data-name="Gruppe 82" transform="translate(-544 -260)">
    <g id="Gruppe_81" data-name="Gruppe 81">
      <g id="Gruppe_42" data-name="Gruppe 42" transform="translate(544 260)">
        <g id="Gruppe_14" data-name="Gruppe 14" transform="translate(0)">
          <g id="Gruppe_12" data-name="Gruppe 12">
            <g id="Gruppe_11" data-name="Gruppe 11" clip-path="url(#clip-path)">
              <path id="Pfad_7" data-name="Pfad 7" d="M114.776.56V7.805a96.778,96.778,0,0,1,26.895,185.311v-7.881A89.576,89.576,0,0,0,114.776,15.051V22.3a82.372,82.372,0,0,1,26.895,154.91V64.456l-2.4-.847a105.266,105.266,0,0,0-14.646-4V31.622l-2.742-.672a74.948,74.948,0,0,0-14.3-2.052V.07c-1.2-.041-2.394-.069-3.6-.069s-2.4.028-3.6.069V28.9a74.948,74.948,0,0,0-14.3,2.052l-2.742.672V59.6a105.326,105.326,0,0,0-14.646,4l-2.4.847v112.76A82.373,82.373,0,0,1,93.18,22.3V15.051A89.576,89.576,0,0,0,66.286,185.236v7.88A96.778,96.778,0,0,1,93.18,7.805V.56a103.978,103.978,0,1,0,21.6,0M103.978,36V57.591a107.079,107.079,0,0,0-13.447.845V37.33A68.281,68.281,0,0,1,103.978,36M73.484,69.584a98.653,98.653,0,0,1,30.494-4.794v21.6a77.387,77.387,0,0,0-30.494,6.291Zm9.848,128.951a96.031,96.031,0,0,1-9.848-2.7V100.582A69.509,69.509,0,0,1,83.332,96.7Zm20.646,2.224a97.152,97.152,0,0,1-13.447-.939V94.9a69.95,69.95,0,0,1,13.447-1.317Z" transform="translate(0 -0.001)" fill="#2f2a30"/>
            </g>
          </g>
        </g>
      </g>
      <path id="Differenzmenge_18" data-name="Differenzmenge 18" d="M0,206.814H0V29.024c2.365.342,4.711.8,6.972,1.352l2.742.673V59.031a105.754,105.754,0,0,1,14.647,4l2.4.847V176.641a82.119,82.119,0,0,0,44.689-73.235A82.608,82.608,0,0,0,0,21.749V14.493a89.518,89.518,0,0,1,55.878,29.3A89.416,89.416,0,0,1,72.572,70.966a88.947,88.947,0,0,1,6.077,32.44,89.344,89.344,0,0,1-14.095,48.212,89.653,89.653,0,0,1-37.793,33.043v7.881a96.718,96.718,0,0,0,59.086-89.137A96.67,96.67,0,0,0,0,7.247V0A103.788,103.788,0,0,1,66.06,33.594,103.768,103.768,0,0,1,85.838,65.359a103.2,103.2,0,0,1,7.209,38.047,103.225,103.225,0,0,1-7.2,38.017A103.8,103.8,0,0,1,66.1,173.17,103.786,103.786,0,0,1,0,206.814Z" transform="translate(658.91 260.573)" fill="#bb9a65" stroke="rgba(0,0,0,0)" stroke-miterlimit="10" stroke-width="1"/>
      <path id="Pfad_66" data-name="Pfad 66" d="M69.768-64.98V-79.8H9.462V0H27.93V-29.07H64.866V-43.89H27.93V-64.98Zm19.038-4.9c6.612,0,11.058-4.332,11.058-10.26,0-5.472-4.446-9.576-11.058-9.576S77.748-85.386,77.748-79.8,82.194-69.882,88.806-69.882ZM79.914,0H97.7V-61.332H79.914Zm71.592-62.244c-8.322,0-15.5,2.85-20.292,8.094v-7.182H114.228V0h17.784V-30.324c0-11.286,6.156-16.53,14.706-16.53,7.866,0,12.426,4.56,12.426,14.478V0h17.784V-35.112C176.928-53.808,165.984-62.244,151.506-62.244Zm78.774,0c-8.322,0-15.5,2.85-20.292,8.094v-7.182H193V0h17.784V-30.324c0-11.286,6.156-16.53,14.706-16.53,7.866,0,12.426,4.56,12.426,14.478V0H255.7V-35.112C255.7-53.808,244.758-62.244,230.28-62.244Zm123.12.912-14.934,41.5-14.592-41.5H308.826l-15.048,41.5L279.3-61.332H262.542L284.658,0h17.1l14.25-38.076L329.8,0h17.1l22.23-61.332Zm46.74-.912c-9.8,0-19.722,2.622-26.448,7.41l6.384,12.426c4.446-3.534,11.172-5.7,17.67-5.7,9.576,0,14.136,4.446,14.136,12.084H397.746c-18.7,0-26.334,7.524-26.334,18.354,0,10.6,8.55,18.582,22.914,18.582,9.006,0,15.39-2.964,18.7-8.55V0h16.644V-35C429.666-53.58,418.836-62.244,400.14-62.244Zm-1.368,51.186c-6.27,0-10.032-2.964-10.032-7.41,0-4.1,2.622-7.182,10.944-7.182h12.2v6.27C409.83-13.794,404.7-11.058,398.772-11.058Zm71.706-51.186c-9.8,0-19.722,2.622-26.448,7.41l6.384,12.426c4.446-3.534,11.172-5.7,17.67-5.7,9.576,0,14.136,4.446,14.136,12.084H468.084c-18.7,0-26.334,7.524-26.334,18.354,0,10.6,8.55,18.582,22.914,18.582,9.006,0,15.39-2.964,18.7-8.55V0H500V-35C500-53.58,489.174-62.244,470.478-62.244ZM469.11-11.058c-6.27,0-10.032-2.964-10.032-7.41,0-4.1,2.622-7.182,10.944-7.182h12.2v6.27C480.168-13.794,475.038-11.058,469.11-11.058Z" transform="translate(772 366)" fill="#2f2a30"/>
      <path id="Pfad_65" data-name="Pfad 65" d="M25.6,1.134A51.126,51.126,0,0,1,12.191-.608,34.809,34.809,0,0,1,1.7-5.1L6.966-16.929a37.1,37.1,0,0,0,8.789,4.01,32.679,32.679,0,0,0,9.922,1.58,19.149,19.149,0,0,0,5.346-.608,6.483,6.483,0,0,0,2.957-1.62,3.413,3.413,0,0,0,.931-2.39,3.488,3.488,0,0,0-1.782-3.078A16.091,16.091,0,0,0,28.512-20.9q-2.835-.729-6.278-1.458a65.11,65.11,0,0,1-6.885-1.863,27.4,27.4,0,0,1-6.278-2.956,14.48,14.48,0,0,1-4.617-4.779,14.318,14.318,0,0,1-1.782-7.493,16.111,16.111,0,0,1,2.795-9.234,19.353,19.353,0,0,1,8.383-6.642,34.014,34.014,0,0,1,13.932-2.511,48.19,48.19,0,0,1,10.975,1.256,34.985,34.985,0,0,1,9.6,3.685L43.416-40.986a38.336,38.336,0,0,0-8.019-3.28A28.922,28.922,0,0,0,27.7-45.36a17.02,17.02,0,0,0-5.346.688,6.1,6.1,0,0,0-2.916,1.822,4.081,4.081,0,0,0-.891,2.592A3.347,3.347,0,0,0,20.291-37.3a15.545,15.545,0,0,0,4.617,1.782q2.876.688,6.318,1.417t6.885,1.822a26.228,26.228,0,0,1,6.278,2.916,14.1,14.1,0,0,1,4.576,4.779,14.408,14.408,0,0,1,1.742,7.412A16.04,16.04,0,0,1,47.912-8.06a19.26,19.26,0,0,1-8.343,6.683Q34.02,1.134,25.6,1.134ZM84.969.729a17.731,17.731,0,0,1-9.558-2.471,15.387,15.387,0,0,1-6.035-7.452,33.617,33.617,0,0,1-2.065-12.758A35.788,35.788,0,0,1,69.255-34.79,14.609,14.609,0,0,1,75.128-42.2a18.4,18.4,0,0,1,9.841-2.43,21.6,21.6,0,0,1,10.895,2.795,20.512,20.512,0,0,1,7.776,7.857,23.962,23.962,0,0,1,2.875,12.029A24.19,24.19,0,0,1,103.64-9.882a20.147,20.147,0,0,1-7.776,7.857A21.851,21.851,0,0,1,84.969.729ZM57.348,15.714V-43.9H72.009v7.452l-.081,14.5.81,14.58V15.714ZM81.729-11.5a9.013,9.013,0,0,0,4.658-1.215,8.852,8.852,0,0,0,3.321-3.564,11.884,11.884,0,0,0,1.255-5.67,11.884,11.884,0,0,0-1.255-5.67,8.852,8.852,0,0,0-3.321-3.564A9.013,9.013,0,0,0,81.729-32.4a9.013,9.013,0,0,0-4.658,1.215,8.852,8.852,0,0,0-3.321,3.564,11.884,11.884,0,0,0-1.256,5.67,11.884,11.884,0,0,0,1.256,5.67,8.852,8.852,0,0,0,3.321,3.564A9.012,9.012,0,0,0,81.729-11.5ZM139.482,0V-8.181l-1.053-2.025V-25.272A7.146,7.146,0,0,0,136.2-30.9q-2.228-1.985-7.088-1.985a21.37,21.37,0,0,0-6.4,1.012,17.051,17.051,0,0,0-5.508,2.795l-5.184-10.449a29.8,29.8,0,0,1,8.951-3.766,41.86,41.86,0,0,1,10.409-1.337q10.692,0,16.564,4.9t5.872,15.35V0Zm-12.96.729a20.158,20.158,0,0,1-8.91-1.782,13.071,13.071,0,0,1-5.549-4.86,12.826,12.826,0,0,1-1.9-6.885,11.923,11.923,0,0,1,2.065-7.007,12.884,12.884,0,0,1,6.358-4.536,32.67,32.67,0,0,1,11.1-1.58h10.368V-17.9h-8.262q-3.726,0-5.225,1.215a3.96,3.96,0,0,0-1.5,3.24,3.919,3.919,0,0,0,1.539,3.24,6.625,6.625,0,0,0,4.212,1.215,8.64,8.64,0,0,0,4.577-1.255,7.326,7.326,0,0,0,3.037-3.847l2.106,5.67A11.331,11.331,0,0,1,135.8-1.58,16.676,16.676,0,0,1,126.522.729Zm60.021,0a28.183,28.183,0,0,1-13-2.916,22.333,22.333,0,0,1-8.951-8.06,21.641,21.641,0,0,1-3.24-11.786,21.439,21.439,0,0,1,3.24-11.745,22.148,22.148,0,0,1,8.951-7.979,28.512,28.512,0,0,1,13-2.875,25.158,25.158,0,0,1,12.879,3.159,17.475,17.475,0,0,1,7.695,8.91L195.21-26.487a10.806,10.806,0,0,0-3.807-4.5,9.146,9.146,0,0,0-4.941-1.417,9.837,9.837,0,0,0-4.86,1.215,8.659,8.659,0,0,0-3.442,3.524,11.643,11.643,0,0,0-1.256,5.629,12.071,12.071,0,0,0,1.256,5.751,8.6,8.6,0,0,0,3.442,3.564,9.837,9.837,0,0,0,4.86,1.215A9.146,9.146,0,0,0,191.4-12.92a10.806,10.806,0,0,0,3.807-4.5l11.907,6.075a17.475,17.475,0,0,1-7.695,8.91A25.158,25.158,0,0,1,186.543.729Zm48.924,0A29.467,29.467,0,0,1,221.9-2.228a22.207,22.207,0,0,1-8.991-8.1,21.7,21.7,0,0,1-3.2-11.7,22.126,22.126,0,0,1,3.118-11.7,21.5,21.5,0,0,1,8.627-8.019,26.373,26.373,0,0,1,12.393-2.875A26.4,26.4,0,0,1,245.673-42a20.444,20.444,0,0,1,8.505,7.736,23.1,23.1,0,0,1,3.159,12.393q0,.81-.081,1.863t-.162,1.944H222.345v-8.1h26.568L243.081-23.9a10.206,10.206,0,0,0-1.094-5.184,8.552,8.552,0,0,0-3.24-3.4,9.33,9.33,0,0,0-4.819-1.215,9.33,9.33,0,0,0-4.82,1.215,8.222,8.222,0,0,0-3.2,3.443,11.374,11.374,0,0,0-1.134,5.225v2.349a11.12,11.12,0,0,0,1.337,5.589,8.88,8.88,0,0,0,3.847,3.6,13.268,13.268,0,0,0,5.994,1.255,14.819,14.819,0,0,0,5.549-.931,16.694,16.694,0,0,0,4.576-2.876l8.1,8.424A20.471,20.471,0,0,1,246.4-1.094,29.727,29.727,0,0,1,235.467.729Z" transform="translate(1015 437.38)" fill="#bb9a65"/>
      <path id="Pfad_67" data-name="Pfad 67" d="M19.683,0,1.3-56.7H17.82L33.291-7.614H24.948L41.229-56.7H55.971L71.361-7.614H63.342L79.3-56.7H94.608L76.221,0H59.049L45.927-41.715h4.617L36.855,0Zm98.739.729a27.263,27.263,0,0,1-12.8-2.916,22.235,22.235,0,0,1-8.789-8.06,21.848,21.848,0,0,1-3.2-11.786,21.642,21.642,0,0,1,3.2-11.745,22.044,22.044,0,0,1,8.789-7.979,27.579,27.579,0,0,1,12.8-2.875,27.827,27.827,0,0,1,12.839,2.875,21.694,21.694,0,0,1,8.788,7.979,21.852,21.852,0,0,1,3.159,11.745,22.06,22.06,0,0,1-3.159,11.786,21.88,21.88,0,0,1-8.788,8.06A27.507,27.507,0,0,1,118.422.729Zm0-12.231a9.169,9.169,0,0,0,4.739-1.215,8.537,8.537,0,0,0,3.28-3.6,12.465,12.465,0,0,0,1.215-5.711,11.963,11.963,0,0,0-1.215-5.629,8.64,8.64,0,0,0-3.28-3.524,9.169,9.169,0,0,0-4.739-1.215,9.013,9.013,0,0,0-4.658,1.215,8.914,8.914,0,0,0-3.321,3.524,11.643,11.643,0,0,0-1.256,5.629,12.128,12.128,0,0,0,1.256,5.711,8.8,8.8,0,0,0,3.321,3.6A9.013,9.013,0,0,0,118.422-11.5ZM150.336,0V-43.9H165v12.8l-2.187-3.645a14.167,14.167,0,0,1,6.318-7.411,21.268,21.268,0,0,1,10.611-2.471V-30.78q-1.053-.162-1.822-.2t-1.661-.04a11.142,11.142,0,0,0-7.614,2.552q-2.916,2.552-2.916,8.3V0Zm48.519-8.1.4-18.387,17.9-17.415h18.225L215.541-23.409l-7.857,6.318ZM186.057,0V-60.1h15.39V0Zm32.238,0L204.849-16.848l9.558-11.826L236.925,0Z" transform="translate(780 437.38)" fill="#2f2a30"/>
    </g>
  </g>
</svg>
