<?xml version="1.0" encoding="UTF-8"?>
<svg xmlns="http://www.w3.org/2000/svg" width="189.31mm" height="170.45mm" viewBox="0 0 536.62 483.16">
  <defs>
    <style>
      .cls-1 {
        fill: #1e1e1c;
      }

      .cls-2 {
        fill: #1d1d1b;
      }
    </style>
  </defs>
  <g id="Ebene_1" data-name="Ebene 1"/>
  <g id="Ebene_2" data-name="Ebene 2">
    <g id="Ebene_1-2" data-name="Ebene 1">
      <g>
        <g>
          <path class="cls-1" d="M.05,415.66c3.66,2.98,6.63,5.02,8.9,6.13,2.27,1.11,4.59,1.67,6.95,1.67,3.73,0,7.05-1.33,9.98-4,2.92-2.67,4.39-6.14,4.39-10.41,0-3.21-.96-5.9-2.87-8.06-1.95-2.12-5.66-4.21-11.13-6.26-10.84-4.1-16.26-10.33-16.26-18.67,0-5.37,1.92-9.94,5.77-13.72,3.85-3.78,8.46-5.67,13.83-5.67,4.41,0,8.96,1.64,13.65,4.93v9.29c-2.97-2.77-5.43-4.67-7.36-5.7-1.93-1.03-3.98-1.54-6.13-1.54-3.59,0-6.58,1.23-8.95,3.69-2.38,2.46-3.57,5.32-3.57,8.57s1.07,5.87,3.21,7.77c2.14,1.9,6.01,4,11.62,6.29,3.39,1.37,6.11,2.76,8.18,4.16,2.07,1.4,3.8,3.39,5.18,5.95,1.39,2.57,2.08,5.49,2.08,8.77,0,6.12-2.12,11.27-6.36,15.44-4.24,4.17-9.27,6.26-15.08,6.26-5.06,0-10.4-1.97-16.01-5.9v-8.98Z"/>
          <path class="cls-1" d="M52.81,357.84h6.98v71.57h-6.98v-71.57Z"/>
          <path class="cls-1" d="M87.34,357.84l15.44,39.4,15.37-39.4h8.36v71.57h-6.31v-45.66l.05-11.75c0-1.47-.02-3.66-.05-6.57-1.23,4.68-2.88,9.71-4.93,15.08l-12.49,32.46-10.58-27.28c-2.06-5.26-4.5-11.81-7.35-19.64,.44,15.43,.67,23.99,.67,25.7v37.66h-6.62v-71.57h8.44Z"/>
          <path class="cls-1" d="M145.2,357.84h19.78c6.23,0,11.13,1.55,14.69,4.64,3.56,3.1,5.34,7.69,5.34,13.78,0,6.5-2.02,11.56-6.07,15.19-4.05,3.63-9.4,5.44-16.06,5.44h-10.7v32.53h-6.98v-71.57Zm6.98,6.16v26.83h10.58c4.51,0,8.14-1.24,10.89-3.72,2.75-2.48,4.13-5.94,4.13-10.39,0-4-1.14-7.12-3.41-9.36-2.27-2.24-5.44-3.36-9.5-3.36h-12.7Z"/>
          <path class="cls-1" d="M200.01,357.84h6.98v65.52h26.63v6.05h-33.6v-71.57Z"/>
          <path class="cls-1" d="M246.77,357.84h6.98v71.57h-6.98v-71.57Z"/>
          <path class="cls-1" d="M293.07,356.66c6.91,0,12.5,3.34,16.78,10,4.27,6.67,6.41,16.04,6.41,28.11,0,10.84-2.21,19.51-6.62,26.01-4.41,6.5-10.02,9.75-16.83,9.75s-12.59-3.21-16.93-9.62c-4.35-6.41-6.52-15.3-6.52-26.65s2.1-20.72,6.31-27.47c4.21-6.75,10-10.13,17.39-10.13Zm.31,6.36c-5.75,0-9.98,2.92-12.7,8.75-2.72,5.83-4.08,13.47-4.08,22.91,0,8.93,1.42,16.05,4.26,21.37,2.84,5.32,6.77,7.98,11.8,7.98s9.08-2.74,11.95-8.21c2.87-5.47,4.31-12.91,4.31-22.32,0-10.23-1.51-17.86-4.54-22.91-3.03-5.04-6.7-7.57-11-7.57Z"/>
          <path class="cls-1" d="M331.46,357.84h33.55v6.16h-26.58v26.73h24.99v5.8h-24.99v32.89h-6.98v-71.57Z"/>
          <path class="cls-1" d="M379.4,357.84h33.55v6.16h-26.58v26.73h24.99v5.8h-24.99v32.89h-6.98v-71.57Z"/>
          <path class="cls-1" d="M427.55,357.84h6.98v71.57h-6.98v-71.57Z"/>
          <path class="cls-1" d="M487.18,426.14c-4.82,2.93-9.32,4.39-13.49,4.39-4.93,0-9.22-1.64-12.88-4.92-3.66-3.28-6.33-7.82-8-13.6-1.68-5.78-2.51-11.97-2.51-18.57,0-10.88,2.15-19.73,6.46-26.55,4.31-6.82,10.16-10.24,17.55-10.24,4.24,0,8.53,1.45,12.88,4.36v8.31c-4.54-4.21-8.74-6.31-12.6-6.31-5.22,0-9.37,2.75-12.44,8.26-3.07,5.51-4.61,13.32-4.61,23.45,0,8.48,1.48,15.51,4.43,21.08,2.95,5.58,7.01,8.36,12.16,8.36,3.96,0,8.31-2.15,13.06-6.46v8.43Z"/>
          <path class="cls-1" d="M501.31,357.84h34.78v6.05h-27.81v25.19h26.27v5.95h-26.27v28.42h27.81v5.95h-34.78v-71.57Z"/>
        </g>
        <g>
          <path class="cls-2" d="M20.29,456.97h-1.61c-.28,0-.48,.04-.64,.14-.16,.09-.31,.25-.45,.5l-6.39,11.11-6.5-11.11c-.14-.24-.28-.4-.45-.5-.16-.09-.37-.14-.64-.14H1.87c-.69,0-.93,.43-.93,.79,0,.19,.05,.37,.14,.51l8.11,13.64c.05,.1,.09,.19,.12,.28,0,.03,.03,.11,.03,.28v9.39c0,.58,.4,.96,1.03,.96h1.44c.7,0,1.13-.41,1.13-1.06v-9.53c0-.19,0-.34,.03-.45,.01-.06,.03-.13,.07-.18l7.95-13.4c.22-.36,.13-.66,.05-.81-.14-.27-.41-.43-.74-.43Z"/>
          <path class="cls-2" d="M48.24,458.2c-1.63-1.04-3.59-1.57-5.82-1.57s-4.2,.53-5.85,1.59c-1.65,1.06-2.94,2.61-3.81,4.63-.86,1.99-1.3,4.4-1.3,7.18,0,4.14,.96,7.39,2.86,9.67,1.92,2.3,4.64,3.47,8.06,3.47s6.1-1.17,8.03-3.48c1.9-2.28,2.86-5.55,2.86-9.72,0-2.78-.43-5.19-1.28-7.16-.86-2.01-2.13-3.55-3.76-4.6Zm-5.78,21.86c-4.91,0-7.29-3.31-7.29-10.1s2.38-10.27,7.26-10.27,7.16,3.36,7.16,10.27c0,3.48-.61,6.07-1.8,7.71-1.18,1.61-2.92,2.39-5.32,2.39Z"/>
          <path class="cls-2" d="M84.94,456.97h-1.47c-.52,0-.86,.36-.86,.89v16.45c0,3.87-1.91,5.76-5.82,5.76s-5.76-1.85-5.76-5.66v-16.51c0-.3-.08-.53-.24-.69-.16-.16-.39-.24-.69-.24h-1.81c-.4,0-.86,.25-.86,.96v15.81c0,3.16,.75,5.54,2.24,7.08,1.49,1.55,3.83,2.34,6.95,2.34s5.3-.73,6.85-2.18c1.55-1.46,2.34-3.71,2.34-6.7v-16.41c0-.54-.35-.89-.86-.89Z"/>
          <path class="cls-2" d="M119.53,463.81c0-2.21-.77-3.93-2.29-5.11-1.48-1.15-3.59-1.73-6.26-1.73h-9.03c-.28,0-.5,.08-.66,.24s-.24,.39-.24,.69v24c0,.56,.38,.93,.96,.93h1.64c.3,0,.54-.09,.71-.25s.26-.41,.26-.74v-10.54h6.19c.2,0,.27,.03,.25,.04l4.52,10.81c.27,.59,.71,.68,.95,.68h1.84c.27,0,.51-.11,.67-.3,.15-.17,.23-.39,.23-.63,0-.15-.03-.29-.08-.37l-4.65-10.86c1.33-.45,2.48-1.19,3.42-2.22,1.05-1.14,1.58-2.7,1.58-4.64Zm-14.91-3.85h6.26c3.4,0,4.99,1.31,4.99,4.12,0,1.48-.45,2.52-1.37,3.18-.96,.69-2.5,1.04-4.56,1.04h-5.32v-8.34Z"/>
          <path class="cls-2" d="M161.6,469.03l-4.74-1.64c-2.31-.82-3.43-2.01-3.43-3.65,0-1.29,.43-2.26,1.32-2.96,.91-.72,2.21-1.09,3.83-1.09,2.31,0,4.1,.8,5.46,2.43,.15,.21,.4,.48,.76,.48,.15,0,.36-.04,.53-.22l1.25-1.01c.24-.24,.29-.48,.29-.64,0-.18-.07-.36-.27-.65-2.06-2.29-4.74-3.45-7.98-3.45-1.67,0-3.18,.29-4.48,.86-1.32,.59-2.37,1.44-3.1,2.55-.74,1.11-1.11,2.42-1.11,3.9,0,1.4,.43,2.71,1.27,3.88,.84,1.18,2.19,2.1,3.99,2.73l5.04,1.84c1.47,.55,2.47,1.12,2.98,1.69,.48,.55,.72,1.22,.72,2.06,0,1.36-.46,2.33-1.4,2.95-1,.66-2.43,1-4.25,1-1.53,0-2.75-.25-3.62-.74-.89-.5-1.82-1.35-2.73-2.51-.33-.5-1.06-.55-1.51-.17l-.87,.6c-.14,.1-.56,.39-.56,.87,0,.14,.05,.29,.23,.63,1.99,2.9,5.06,4.37,9.13,4.37,2.78,0,5.01-.63,6.62-1.88,1.66-1.28,2.49-3.08,2.49-5.33,0-1.63-.48-3.04-1.43-4.18-.93-1.12-2.42-2.04-4.45-2.74Z"/>
          <path class="cls-2" d="M197.35,458.82c-1.72-1.23-4.06-1.85-6.94-1.85h-7.99c-.28,0-.5,.08-.66,.24s-.24,.39-.24,.69v24.04c0,.54,.36,.9,.9,.9h1.74c.56,0,.93-.37,.93-.93v-9.67h5.66c2.78,0,5.03-.63,6.7-1.88,1.72-1.28,2.59-3.21,2.59-5.74s-.9-4.52-2.68-5.79Zm-.99,5.69c0,1.62-.48,2.77-1.46,3.51-1.02,.76-2.48,1.15-4.36,1.15h-5.46v-9.17h5.22c2.02,0,3.57,.36,4.6,1.08,.98,.68,1.46,1.81,1.46,3.44Z"/>
          <path class="cls-2" d="M222.54,457.77c-.16-.51-.6-.81-1.21-.81h-2.01c-.27,0-.5,.07-.68,.21-.17,.12-.3,.3-.41,.58l-8.74,23.94c-.12,.4-.01,.66,.09,.81,.16,.22,.4,.34,.68,.34h1.54c.49,0,.84-.25,.93-.61l2.51-6.84h9.96l2.44,6.79c.14,.42,.51,.66,1,.66h1.74c.5,0,.83-.33,.83-.83,0-.15-.03-.28-.06-.35l-8.62-23.88Zm-6.96,14.82l.48,.06s0,.07,0,.11l-.49-.17h0Zm9-.31v0h0Zm-.39,0h-7.94l4-10.84,3.94,10.84Z"/>
          <path class="cls-2" d="M262.29,475.44l-1.7-.45c-.56-.08-.79,.27-.87,.43-.63,1.59-1.45,2.77-2.45,3.51-.98,.73-2.26,1.1-3.78,1.1-2.47,0-4.28-.82-5.51-2.49-1.25-1.7-1.89-4.25-1.89-7.58s.63-6.02,1.87-7.75c1.22-1.7,2.95-2.52,5.29-2.52,1.45,0,2.71,.42,3.73,1.24,1.01,.81,1.7,1.92,2.03,3.29,0,.16,.05,.3,.12,.41,.13,.22,.35,.35,.61,.35l2.04-.17c.55,0,.8-.38,.79-.83l-.03-.13c-.17-1.27-.72-2.48-1.64-3.59-.9-1.09-2.05-1.98-3.42-2.63-1.37-.66-2.81-.99-4.29-.99-2.21,0-4.16,.54-5.79,1.61-1.63,1.07-2.89,2.63-3.74,4.63-.84,1.97-1.26,4.35-1.26,7.06s.43,5.05,1.28,7.01c.86,1.99,2.13,3.54,3.77,4.61,1.64,1.07,3.61,1.61,5.87,1.61,1.56,0,3.01-.3,4.32-.9,1.3-.6,2.4-1.41,3.27-2.43,.87-1.01,1.5-2.14,1.9-3.46,.07-.63-.3-.85-.52-.94Z"/>
          <path class="cls-2" d="M293.09,479.89c-.14-.09-.32-.12-.55-.12h-12.28v-8.47h8.9c.23,0,.41-.05,.55-.16,.13-.09,.27-.28,.27-.64v-1.4c0-.25-.07-.45-.22-.61-.15-.14-.35-.22-.6-.22h-8.9v-8.24h11.81c.11,0,.42,0,.64-.22,.22-.22,.22-.54,.22-.63l.03-1.38c0-.49-.33-.83-.83-.83h-14.54c-.28,0-.5,.08-.66,.24s-.24,.39-.24,.69v24c0,.11,0,.45,.24,.69,.16,.16,.39,.24,.69,.24h14.94c.52,0,.86-.33,.86-.83v-1.4c0-.41-.18-.61-.34-.71Z"/>
          <path class="cls-2" d="M340.64,456.97h-17.65c-.52,0-.86,.35-.86,.86v1.37c0,.5,.35,.83,.86,.83h7.33v21.87c0,.3,.08,.53,.24,.69,.16,.16,.38,.24,.66,.24h1.81c.28,0,.5-.08,.66-.24,.16-.16,.23-.39,.23-.69v-21.87h6.73c.52,0,.86-.33,.86-.83v-1.37c0-.52-.35-.86-.86-.86Zm-17.98,.86h0Z"/>
          <path class="cls-2" d="M368.82,458.2c-1.63-1.04-3.59-1.57-5.82-1.57s-4.2,.53-5.85,1.59c-1.65,1.06-2.94,2.62-3.81,4.63-.86,1.98-1.3,4.4-1.3,7.18,0,4.14,.96,7.39,2.86,9.66,1.92,2.3,4.64,3.47,8.06,3.47s6.1-1.17,8.03-3.48c1.9-2.28,2.86-5.55,2.86-9.72,0-2.78-.43-5.18-1.28-7.16-.86-2.01-2.13-3.55-3.76-4.6Zm-5.78,21.86c-4.91,0-7.29-3.31-7.29-10.1s2.38-10.27,7.26-10.27,7.16,3.36,7.16,10.27c0,3.48-.61,6.07-1.8,7.71-1.18,1.61-2.92,2.39-5.32,2.39Z"/>
          <path class="cls-2" d="M423.95,469.17h-8.16c-.45,0-.76,.33-.76,.79v1.17c0,.47,.34,.79,.83,.79h5.62v2.02c-.04,.96-.31,1.93-.81,2.87-.49,.93-1.22,1.71-2.19,2.33-.96,.61-2.13,.92-3.49,.92-2.34,0-4.06-.82-5.27-2.51-1.23-1.71-1.86-4.33-1.86-7.77s.62-5.83,1.86-7.57c1.21-1.71,2.91-2.54,5.2-2.54,1.54,0,2.82,.44,3.93,1.34,1.1,.9,1.76,1.97,2.01,3.31,.15,.62,.61,.67,.75,.67l2.06-.31c.39-.06,.64-.36,.64-.75v-.27c-.17-1.23-.72-2.4-1.63-3.49-.89-1.07-2.04-1.94-3.41-2.58-1.37-.64-2.82-.97-4.32-.97-2.17,0-4.09,.54-5.72,1.61-1.63,1.07-2.9,2.63-3.77,4.64-.86,1.98-1.3,4.38-1.3,7.11s.42,5.01,1.26,6.96c.85,1.98,2.1,3.53,3.7,4.59,1.61,1.07,3.53,1.61,5.72,1.61,1.85,0,3.45-.4,4.75-1.18,.97-.58,1.78-1.3,2.45-2.16l.13,2.18c.06,.42,.28,.61,.45,.7,.16,.08,.36,.12,.61,.12h.7c.54,0,.9-.37,.9-.93v-11.87c0-.52-.36-.86-.9-.86Z"/>
          <path class="cls-2" d="M458.04,463.81c0-2.21-.77-3.93-2.29-5.11-1.48-1.15-3.59-1.73-6.26-1.73h-9.03c-.28,0-.5,.08-.66,.24s-.24,.39-.24,.69v24c0,.56,.38,.93,.96,.93h1.64c.3,0,.54-.09,.71-.25s.25-.41,.25-.74v-10.54h6.19c.2,0,.27,.03,.25,.04l4.52,10.81c.27,.59,.71,.68,.95,.68h1.84c.26,0,.5-.11,.67-.3,.15-.17,.23-.39,.23-.63,0-.15-.03-.28-.08-.37l-4.65-10.85c1.33-.45,2.48-1.19,3.42-2.22,1.05-1.14,1.58-2.7,1.58-4.64Zm-14.91-3.85h6.26c3.4,0,4.99,1.31,4.99,4.12,0,1.48-.45,2.52-1.37,3.18-.96,.69-2.5,1.04-4.56,1.04h-5.32v-8.34Z"/>
          <path class="cls-2" d="M487.93,458.2c-1.63-1.04-3.59-1.57-5.82-1.57s-4.2,.53-5.85,1.59c-1.65,1.06-2.94,2.62-3.81,4.63-.86,1.98-1.3,4.4-1.3,7.18,0,4.14,.96,7.39,2.86,9.67,1.92,2.3,4.64,3.47,8.06,3.47s6.1-1.17,8.03-3.48c1.9-2.28,2.86-5.55,2.86-9.72,0-2.78-.43-5.19-1.28-7.16-.86-2.01-2.13-3.55-3.76-4.6Zm1.34,11.76c0,3.48-.61,6.07-1.8,7.71-1.18,1.61-2.92,2.39-5.32,2.39-4.91,0-7.29-3.31-7.29-10.1s2.38-10.27,7.26-10.27,7.16,3.36,7.16,10.27Z"/>
          <path class="cls-2" d="M536.46,457.31c-.12-.16-.35-.34-.75-.34h-1.34c-.8,0-.98,.55-1.01,.68l-5.54,19.57-5.49-19.56c-.08-.25-.21-.42-.38-.54-.16-.1-.36-.15-.62-.15h-1.47c-.44,0-.79,.2-1,.57l-5.59,19.63-5.45-19.51c-.08-.25-.21-.43-.38-.54-.16-.1-.36-.15-.62-.15h-1.61c-.5,0-.86,.29-.92,.75-.05,.13-.05,.26,0,.38l6.8,23.93c.06,.24,.3,.8,1.21,.8h1.67c.57,0,.98-.29,1.14-.82l5.32-18.54,5.23,18.55c.06,.24,.3,.8,1.21,.8h1.64c.61,0,1.03-.31,1.14-.82l6.91-23.88c.1-.3,.06-.59-.11-.82Z"/>
        </g>
        <polygon class="cls-1" points="383.87 151.62 262.53 224.39 277.91 286.97 183.94 226.41 167.33 158.82 260.63 218.94 382.39 145.59 363.62 69.25 256.16 0 158.06 148.27 279.39 75.44 263.97 12.74 357.95 73.3 374.61 141.07 281.31 80.94 158.98 153.9 178.27 230.46 285.72 299.71 285.73 299.71 383.87 151.62"/>
      </g>
    </g>
  </g>
</svg>