<svg version="1.1" id="Layer_1" xmlns="http://www.w3.org/2000/svg" x="0" y="0" viewBox="0 0 841.9 595.3" xml:space="preserve"><style>.st0{fill:#2b6b47}</style><path class="st0" d="M160.5 212.4c8.2-2.2 17.3 4.4 9.4 17.3-3.7 6.1 2.7 12 8.5 8.3 1.3-.8 1.9-1.4 2.8-2.3 21.7-21.3 1.5-40.5-22.8-33.9-22.7 6.1-33.7 23.6-31.3 42.9.1.8.3 1.6.5 2.4 4.9 19.5 8 27.2 7.3 38.1-.7 10.8-1.7 16.8-9.6 18.9-9 2.4-19.6-7.5-13-23.9 1.4-3.5-1.5-7.1-5.2-6.4h-.2c-5.5 1-10.2 4.9-11.9 10.2-6 18.5 8.5 42.1 36.5 34.5 21.3-5.8 24.1-24.1 24.4-40.6.1-14.9-6.5-25.7-7.4-39.2-1-16.1 2-23.5 12-26.3M539.2 284.4c3.7-7 25-46.7 35.5-66.3 2.6-4.9-.9-10.8-6.5-10.8h-.2c-3.6 0-7 2-8.7 5.2-1.6 3.1-3.9 7.3-6.6 12.3l-5.8 10.1c-1.3 2.3-5 9.3-9.6 18.1-1.5 2.8-3.1 5.8-4.7 8.9-11.8 20.2-22.8 23.3-33.5 28.1.7-2.5 2.4-8.3 2.9-11.2 1.7-8.7 4.6-23.1 4.6-23.1s21.2-18.1 1-16.7c-11.6.8-16.9 8.6-19.9 18.4-20.5 27.4-42.7 49.7-60.8 49.7-9.9 0-14-5.9-12-15.1 1.6 1.5 3.6 2.8 6.1 3.5 10 3.1 21.5-2.3 31.4-14.6 16.5-20.6 6.1-36.6-10.6-36.6-10 0-25.4 8.7-38.1 28.4-3.4 1.6-6.6 2-9.2.2 0 0 6.5-11 8.5-14.6 5.1-9.3-.7-14.2-4-14.2-9.5 0-21.9 21.6-18.2 33.8-6.6 11.9-12.9 20.8-19.5 20.8-5.2 0-5.5-5.1-3.3-10.6 3.8-9.6 9.2-23.4 12.9-32.9 2-5.2-1.8-10.7-7.4-10.7h-.1c-4 0-7.5 2.4-9 6.1-2.8 6.8-7.5 18.3-11.7 28.8-15 16.5-30 27.9-42.9 27.9-9.9 0-14-5.9-12-15.1 1.6 1.5 3.6 2.8 6.1 3.5 10 3.1 21.5-2.3 31.4-14.6 16.5-20.6 6.1-36.6-10.6-36.6-10.1 0-26 9-38.9 29.5-3.5 5.6-5.9 11-7.3 16-11.4 10.6-22.6 17.3-32.5 17.3-9.9 0-14-5.9-12-15.1 1.6 1.5 3.6 2.8 6.1 3.5 10 3.1 21.5-2.3 31.4-14.6 16.5-20.6 6.1-36.6-10.6-36.6-10.2 0-26 9-38.9 29.5-.2.3-.4.6-.6 1-8 7.6-15.2 14.3-17.1 15.9-3 2.5-5.8 5.1-6.7 4-.9-.9 2.2-7.3 3.9-10.4 3.7-7 25-46.8 35.4-66.3 2.6-4.9-.9-10.8-6.5-10.8h-.2c-3.6 0-7 2-8.7 5.2-10.1 19-44.5 83.6-48.6 91-6.6 12-3.1 17.5 4.5 17.5 4.8 0 11.1-2.8 21.1-12.2 2.9-2.7 8.6-8.3 15.1-14.9-2.7 15.8 6 27.1 26.4 27.1 12.7 0 25.5-7.1 37.3-17.3 1.9 10.5 10.6 17.3 26.5 17.3 13.9 0 27.9-8.4 40.6-20.3-2.8 11.3 1.6 20.3 13.3 20.3 9.7 0 20.1-8 39.1-36.1 3.2 1.5 6.7 1.7 10.1 1-7.4 19.8.5 35.1 24.2 35.1 9.7 0 19.5-4.1 28.9-10.7-.4 8.7 9.5 11.5 16.2 11.6 5.6.1 20.1-3.4 29.7-21.8 2.3-4.4 11.2-4.1 22.4-11-11.3 20.3-6.3 31.8 9.5 31.8 15 0 31.9-16.6 46.3-35.3-4.8 9-8.4 15.8-9.6 17.9-6.6 12-3.1 17.5 4.5 17.5 4.8 0 11.1-2.8 21.1-12.2 2.9-2.8 8.8-8.6 15.6-15.3l-30.3 56.5c-2 3.8.7 8.4 5 8.4 5.4 0 10.4-3 13-7.8l24.2-45.3c.9 6.2 5.1 11.5 13.7 11.5 10.3 0 28.1-8.1 40.3-26.8 20.9-32.2 4.1-49.8-2.9-49.8-7.8 0-15.9 5.4-22.6 12.1 1.9-3.5-.7-7.7-4.6-7.7h-.1c-5.8 0-11.1 3.2-13.8 8.3l-8.9 16.6c-10.1 9.6-20.6 19.5-22.9 21.4-3 2.5-5.8 5.1-6.7 4-.9-.9 2.2-7.3 3.9-10.4 3.7-7 25-46.8 35.4-66.3 2.6-4.9-.9-10.8-6.5-10.8h-.1c-3.6 0-7 2-8.7 5.2-1.6 3.1-3.9 7.3-6.6 12.3-12.6 20.2-51.7 80.2-71.1 80.2-5.4 0-2.9-8.2 2.7-18.6 14-26.6 31.1-58.5 34.1-64m-318.9 34.9c5.9 0-.3 13.5-7.7 19.7-5.4 4.5-11.9 8.9-17.5 4.5.3-.6.7-1 .9-1.6 7.5-12.5 18.3-22.6 24.3-22.6m63.8 0c5.9 0-.3 13.5-7.7 19.7-5.4 4.5-11.9 8.9-17.5 4.5.3-.6.7-1 .9-1.6 7.5-12.5 18.3-22.6 24.3-22.6m127.3 0c5.9 0-.3 13.5-7.7 19.7-5.4 4.5-11.9 8.9-17.5 4.5.3-.6.7-1 .9-1.6 7.4-12.5 18.3-22.6 24.3-22.6m26.5 53c-2.9 3.9-8.7 4.8-7.8.6.5-2.4 5.5-4.3 12.2-6.3-1.5 2.2-3 3.8-4.4 5.7m9.1-16.4c-5.7 1.5-11.2 2.8-15.9 4.3 7.2-7.1 14-15.2 20-23.3-.3 2-.6 4-1 6-1 5.4-2 9.5-3.1 13m177.4-18.3c-7.5 12.6-18.3 22.6-24.2 22.6-6 0-4.8-10 2.7-22.6 7.4-12.5 18.2-22.6 24.2-22.6 6-.1 4.7 10.1-2.7 22.6M699.3 293.2c-6.8 0-14.5 6.5-17.3 14.3-2.9 8 .5 14.3 7.3 14.3s14.6-6.3 17.4-14.3c2.7-7.9-.6-14.3-7.4-14.3M723.9 216.1l-25 57.5c-1.4 3.2 1 6.9 4.5 6.9h3.1c3.6 0 6.9-2 8.6-5.1l30.1-55.1c3.2-5.9-1-13.1-7.8-13.1-5.8 0-11.1 3.5-13.5 8.9"/></svg>