<svg id="Layer_1" data-name="Layer 1" xmlns="http://www.w3.org/2000/svg" viewBox="0 0 397.27 145.71"><defs><style>.cls-1{fill:#4e4f53;}.cls-2{fill:#b5d334;}</style></defs><rect class="cls-1" width="20.24" height="97.5"/><path class="cls-1" d="M318.42,251.75q7.09,5.87,7.09,19.42v48.55H306.19V275.87q0-5.7-1.51-8.74-2.76-5.55-10.51-5.55-9.51,0-13.06,8.13a28.07,28.07,0,0,0-1.84,11v39H260.41v-72h18.26v10.52a31.91,31.91,0,0,1,6.85-8q5.81-4.38,14.69-4.37,11.13,0,18.21,5.85" transform="translate(-230.86 -222.22)"/><path class="cls-1" d="M349.79,296.7c.4,3.35,1.26,5.74,2.59,7.15q3.53,3.76,13,3.77a19.81,19.81,0,0,0,8.87-1.66,5.28,5.28,0,0,0,3.29-5,5.36,5.36,0,0,0-2.65-4.83q-2.64-1.65-19.72-5.68-12.29-3-17.32-7.61t-5-13q0-10,7.85-17.16t22.11-7.18q13.51,0,22,5.39t9.78,18.62H375.79a11.22,11.22,0,0,0-2.06-5.75Q370.61,260,363.12,260q-6.18,0-8.79,1.92a5.51,5.51,0,0,0-2.62,4.5,4.92,4.92,0,0,0,2.78,4.69q2.79,1.53,19.69,5.23,11.26,2.64,16.89,8a18.19,18.19,0,0,1,5.55,13.56,21.9,21.9,0,0,1-8,17.5q-8,6.78-24.69,6.78-17,0-25.16-7.18a23.33,23.33,0,0,1-8.12-18.29Z" transform="translate(-230.86 -222.22)"/><path class="cls-1" d="M398.79,261.71V248.28h10.06V228.17H427.5v20.11h11.71v13.43H427.5v38.1c0,2.95.37,4.8,1.13,5.52s3,1.09,6.87,1.09c.58,0,1.19,0,1.82,0s1.27-.05,1.89-.1v14.09l-8.93.33q-13.36.46-18.26-4.63-3.16-3.24-3.17-10V261.71Z" transform="translate(-230.86 -222.22)"/><path class="cls-1" d="M489.36,284.66a20.78,20.78,0,0,1-3.66,1.82,30.64,30.64,0,0,1-5.06,1.29l-4.29.8q-6,1.05-8.67,2.58a8.6,8.6,0,0,0-4.45,8c0,3.22.9,5.55,2.72,7a10.35,10.35,0,0,0,6.61,2.15A19.72,19.72,0,0,0,484,304.71q5.21-3.58,5.41-13Zm-11.53-8.79a29.78,29.78,0,0,0,7.53-1.66c2.71-1.15,4.06-2.93,4.06-5.36q0-4.43-3.11-6.12c-2.08-1.12-5.14-1.68-9.16-1.68q-6.76,0-9.59,3.31a13.65,13.65,0,0,0-2.68,6.61H446.69q.6-9.47,5.31-15.55,7.51-9.51,25.78-9.52a46,46,0,0,1,21.13,4.7q9.24,4.69,9.23,17.72V301.4c0,2.29.05,5.07.13,8.33.14,2.47.51,4.15,1.13,5a6.65,6.65,0,0,0,2.78,2.18v2.78H491.67a21.05,21.05,0,0,1-1.19-4.1c-.22-1.28-.4-2.73-.53-4.36a38.89,38.89,0,0,1-9.05,7.21,27.39,27.39,0,0,1-13.83,3.5q-9.85,0-16.27-5.59t-6.42-15.84q0-13.31,10.32-19.25,5.67-3.24,16.66-4.63Z" transform="translate(-230.86 -222.22)"/><path class="cls-1" d="M575.35,251.75q7.1,5.87,7.09,19.42v48.55H563.12V275.87q0-5.7-1.51-8.74-2.76-5.55-10.51-5.55-9.51,0-13.06,8.13a28.07,28.07,0,0,0-1.84,11v39H517.35v-72H535.6v10.52a32.12,32.12,0,0,1,6.85-8q5.81-4.38,14.69-4.37,11.13,0,18.21,5.85" transform="translate(-230.86 -222.22)"/><path class="cls-1" d="M587.61,261.71V248.28h10V228.17h18.65v20.11H628v13.43H616.31v38.1c0,2.95.38,4.8,1.13,5.52s3,1.09,6.88,1.09c.57,0,1.18,0,1.82,0s1.26-.05,1.88-.1v14.09l-8.93.33q-13.37.46-18.26-4.63-3.17-3.24-3.17-10V261.71Z" transform="translate(-230.86 -222.22)"/><path class="cls-2" d="M239.38,350.67a4.87,4.87,0,0,0,3.34-1,4.37,4.37,0,0,0,1.17-3.44q0-4.14-4.18-4.14h-2.84v8.61Zm2.59-13a8.4,8.4,0,0,1,5.85,1.9q2.09,1.91,2.09,5.79a9,9,0,0,1-1.21,4.91,5.59,5.59,0,0,1-3.76,2.44v.09a5.46,5.46,0,0,1,3.3,1.46,6.17,6.17,0,0,1,1.29,3.63c.06.56.1,1.17.13,1.82s.06,1.39.08,2.2c.06,1.58.14,2.79.25,3.63a2.31,2.31,0,0,0,1.09,1.71v.25h-6.52A3.12,3.12,0,0,1,244,366a14.87,14.87,0,0,1-.17-1.69l-.17-5.73a4.73,4.73,0,0,0-.87-2.75,3.22,3.22,0,0,0-2.68-1h-3.22v12.62h-6V337.63Z" transform="translate(-230.86 -222.22)"/><polygon class="cls-2" points="38.53 120.34 27.87 120.34 27.87 127.36 37.9 127.36 37.9 132.29 27.87 132.29 27.87 140.31 38.94 140.31 38.94 145.25 21.85 145.25 21.85 115.41 38.53 115.41 38.53 120.34"/><polygon class="cls-2" points="59.68 120.34 53.16 120.34 53.16 145.25 47.15 145.25 47.15 120.34 40.63 120.34 40.63 115.41 59.68 115.41 59.68 120.34"/><polygon class="cls-2" points="67.73 115.41 67.73 126.82 74.75 126.82 74.75 115.41 80.77 115.41 80.77 145.25 74.75 145.25 74.75 132 67.73 132 67.73 145.25 61.72 145.25 61.72 115.41 67.73 115.41"/><rect class="cls-2" x="83.75" y="115.41" width="6.02" height="29.83"/><polygon class="cls-2" points="106.95 135.84 107.04 135.84 107.04 115.41 112.55 115.41 112.55 145.25 105.7 145.25 98.35 124.36 98.26 124.36 98.26 145.25 92.75 145.25 92.75 115.41 99.68 115.41 106.95 135.84"/><polygon class="cls-2" points="121.54 127.36 121.63 127.36 129.23 115.42 135.75 115.42 127.64 128.2 136.67 145.25 129.9 145.25 123.76 133 121.54 136.39 121.54 145.25 115.53 145.25 115.53 115.42 121.54 115.42 121.54 127.36"/><rect class="cls-2" x="137.78" y="115.41" width="6.02" height="29.83"/><polygon class="cls-2" points="161.82 135.84 161.91 135.84 161.91 115.41 167.42 115.41 167.42 145.25 160.57 145.25 153.22 124.36 153.13 124.36 153.13 145.25 147.62 145.25 147.62 115.41 154.56 115.41 161.82 135.84"/><path class="cls-2" d="M414.46,344.78a5.64,5.64,0,0,0-.6-1.61,3.91,3.91,0,0,0-1.07-1.21,2.57,2.57,0,0,0-1.57-.48,3.26,3.26,0,0,0-3.13,2.42c-.64,1.61-1,4.29-1,8,0,1.79.05,3.4.17,4.85a18.93,18.93,0,0,0,.6,3.7,5.22,5.22,0,0,0,1.26,2.33,2.82,2.82,0,0,0,2.11.82,3,3,0,0,0,1.19-.29,4.11,4.11,0,0,0,1.21-.88,4.82,4.82,0,0,0,.94-1.48,5.48,5.48,0,0,0,.37-2.11v-3.05h-4v-4.43h9.74v16.08h-4.43v-2.75h-.08a6.35,6.35,0,0,1-2.61,2.48,8.38,8.38,0,0,1-3.66.73,9.23,9.23,0,0,1-4.49-1,6.6,6.6,0,0,1-2.72-3,15.25,15.25,0,0,1-1.31-4.95,59.8,59.8,0,0,1-.34-6.84,40.14,40.14,0,0,1,.48-6.6,13.22,13.22,0,0,1,1.65-4.74,7.52,7.52,0,0,1,3.09-2.86,10.76,10.76,0,0,1,4.81-1c3.29,0,5.65.81,7.1,2.44s2.18,4,2.18,7h-5.77a7.79,7.79,0,0,0-.19-1.71" transform="translate(-230.86 -222.22)"/><polygon class="cls-2" points="206.62 115.41 209.92 137.47 210 137.47 213.51 115.41 219.28 115.41 222.79 137.47 222.87 137.47 226.17 115.41 231.94 115.41 226.5 145.25 219.78 145.25 216.44 123.6 216.35 123.6 213.01 145.25 206.28 145.25 200.85 115.41 206.62 115.41"/><path class="cls-2" d="M469.32,357.67a14,14,0,0,0,.58,3.42,3.78,3.78,0,0,0,1.26,1.92,4.09,4.09,0,0,0,4.3,0,3.77,3.77,0,0,0,1.25-1.92,14,14,0,0,0,.59-3.42c.1-1.41.15-3.12.15-5.12s-.05-3.71-.15-5.1a14.33,14.33,0,0,0-.59-3.43,3.88,3.88,0,0,0-1.25-1.94,4.15,4.15,0,0,0-4.3,0A3.89,3.89,0,0,0,469.9,344a14.38,14.38,0,0,0-.58,3.43q-.15,2.08-.15,5.1c0,2,.05,3.71.15,5.12m-5.85-11.37a13.89,13.89,0,0,1,1.38-4.91,7.76,7.76,0,0,1,3.07-3.2,13.31,13.31,0,0,1,10.78,0,7.82,7.82,0,0,1,3.07,3.2,13.89,13.89,0,0,1,1.38,4.91,63.36,63.36,0,0,1,0,12.52,13.78,13.78,0,0,1-1.38,4.88,7.38,7.38,0,0,1-3.07,3.14,14,14,0,0,1-10.78,0,7.33,7.33,0,0,1-3.07-3.14,13.78,13.78,0,0,1-1.38-4.88,63.36,63.36,0,0,1,0-12.52" transform="translate(-230.86 -222.22)"/><path class="cls-2" d="M494.35,350.67a4.89,4.89,0,0,0,3.34-1,4.37,4.37,0,0,0,1.17-3.44c0-2.76-1.4-4.14-4.18-4.14h-2.84v8.61Zm2.59-13a8.39,8.39,0,0,1,5.84,1.9c1.4,1.27,2.09,3.2,2.09,5.79a9,9,0,0,1-1.21,4.91,5.59,5.59,0,0,1-3.76,2.44v.09a5.41,5.41,0,0,1,3.3,1.46,6.17,6.17,0,0,1,1.3,3.63c.05.56.09,1.17.12,1.82s.06,1.39.09,2.2c.05,1.58.14,2.79.25,3.63a2.28,2.28,0,0,0,1.08,1.71v.25h-6.51a3.24,3.24,0,0,1-.59-1.44c-.08-.54-.14-1.1-.17-1.69l-.16-5.73a4.74,4.74,0,0,0-.88-2.75,3.22,3.22,0,0,0-2.68-1h-3.21v12.62h-6V337.63Z" transform="translate(-230.86 -222.22)"/><polygon class="cls-2" points="283 127.36 283.09 127.36 290.69 115.42 297.21 115.42 289.11 128.2 298.13 145.25 291.36 145.25 285.22 133 283 136.39 283 145.25 276.99 145.25 276.99 115.42 283 115.42 283 127.36"/><path class="cls-2" d="M534.2,359a9.94,9.94,0,0,0,.17,1.9,3.26,3.26,0,0,0,.63,1.45,3,3,0,0,0,1.23.91,4.75,4.75,0,0,0,1.94.34,3.85,3.85,0,0,0,2.49-.9,3.36,3.36,0,0,0,1.11-2.78,5,5,0,0,0-.28-1.73,3.47,3.47,0,0,0-.89-1.32,6.44,6.44,0,0,0-1.65-1.06,23.77,23.77,0,0,0-2.53-1,22.07,22.07,0,0,1-3.47-1.47,9.41,9.41,0,0,1-2.45-1.86,6.53,6.53,0,0,1-1.43-2.46,10.24,10.24,0,0,1-.47-3.24c0-2.95.83-5.15,2.47-6.6a9.87,9.87,0,0,1,6.77-2.17,14.44,14.44,0,0,1,3.7.44,7.59,7.59,0,0,1,2.92,1.42,6.65,6.65,0,0,1,1.92,2.5,8.85,8.85,0,0,1,.69,3.66v.84h-5.76a5.93,5.93,0,0,0-.76-3.29,2.76,2.76,0,0,0-2.5-1.14,4.07,4.07,0,0,0-1.67.29,2.71,2.71,0,0,0-1.07.77,2.74,2.74,0,0,0-.54,1.11,5.55,5.55,0,0,0-.15,1.29,4.23,4.23,0,0,0,.59,2.32,5.21,5.21,0,0,0,2.5,1.74l4.64,2a14.25,14.25,0,0,1,2.8,1.57,7.72,7.72,0,0,1,1.73,1.75,5.63,5.63,0,0,1,.9,2.07,11.48,11.48,0,0,1,.25,2.51q0,4.73-2.73,6.87c-1.83,1.44-4.37,2.15-7.63,2.15s-5.83-.73-7.29-2.21a8.65,8.65,0,0,1-2.19-6.35v-1.21h6Z" transform="translate(-230.86 -222.22)"/><path class="cls-2" d="M558.51,351.13a4,4,0,0,0,2.9-1.09,4.54,4.54,0,0,0,1.11-3.38,5.29,5.29,0,0,0-1-3.43,4,4,0,0,0-3.22-1.17h-2.51v9.07Zm1.83-13.5a8.64,8.64,0,0,1,3.87.78,7.08,7.08,0,0,1,2.53,2,8,8,0,0,1,1.38,2.86,13,13,0,0,1,.41,3.28,10.74,10.74,0,0,1-.69,4,7,7,0,0,1-1.92,2.79,8,8,0,0,1-3,1.63,13.2,13.2,0,0,1-3.89.55h-3.22v11.9h-6V337.63Z" transform="translate(-230.86 -222.22)"/><path class="cls-2" d="M580.37,356.23l-2.88-13.42h-.09l-2.88,13.42Zm.79-18.6,7.9,29.83h-6.27l-1.38-6.31h-7.94l-1.37,6.31h-6.27l7.9-29.83Z" transform="translate(-230.86 -222.22)"/><path class="cls-2" d="M601.87,343a2.9,2.9,0,0,0-2.82-1.48,2.85,2.85,0,0,0-1.86.6,4,4,0,0,0-1.15,2,16.56,16.56,0,0,0-.58,3.55c-.12,1.46-.17,3.25-.17,5.37a53,53,0,0,0,.23,5.47,12.13,12.13,0,0,0,.71,3.24,2.94,2.94,0,0,0,1.21,1.54,3.43,3.43,0,0,0,1.69.4,4.07,4.07,0,0,0,1.49-.27,2.55,2.55,0,0,0,1.19-1.09,7,7,0,0,0,.79-2.3,20.47,20.47,0,0,0,.29-3.9h6a27,27,0,0,1-.38,4.59,10.48,10.48,0,0,1-1.39,3.81,7,7,0,0,1-2.89,2.54,10.81,10.81,0,0,1-4.82.92,11.38,11.38,0,0,1-5.39-1.08A7.33,7.33,0,0,1,591,363.7a13.58,13.58,0,0,1-1.38-4.89,61.29,61.29,0,0,1,0-12.51,13.69,13.69,0,0,1,1.38-4.91A7.67,7.67,0,0,1,594,338.2a10.76,10.76,0,0,1,5.39-1.15,10.46,10.46,0,0,1,5.07,1,7.12,7.12,0,0,1,2.78,2.65,9.42,9.42,0,0,1,1.15,3.47,29.16,29.16,0,0,1,.23,3.49h-6a10.77,10.77,0,0,0-.77-4.74" transform="translate(-230.86 -222.22)"/><polygon class="cls-2" points="396.85 120.34 386.19 120.34 386.19 127.36 396.22 127.36 396.22 132.29 386.19 132.29 386.19 140.31 397.27 140.31 397.27 145.25 380.18 145.25 380.18 115.41 396.85 115.41 396.85 120.34"/></svg>