<?xml version="1.0" encoding="UTF-8" standalone="no"?>
<svg
   xmlns:dc="http://purl.org/dc/elements/1.1/"
   xmlns:cc="http://creativecommons.org/ns#"
   xmlns:rdf="http://www.w3.org/1999/02/22-rdf-syntax-ns#"
   xmlns:svg="http://www.w3.org/2000/svg"
   xmlns="http://www.w3.org/2000/svg"
   xmlns:sodipodi="http://sodipodi.sourceforge.net/DTD/sodipodi-0.dtd"
   xmlns:inkscape="http://www.inkscape.org/namespaces/inkscape"
   version="1.1"
   id="Ebene_1"
   x="0px"
   y="0px"
   viewBox="0 0 450.50001 59.999998"
   xml:space="preserve"
   sodipodi:docname="Schriftzug_dunkel_edit.svg"
   width="450.5"
   height="60"
   inkscape:version="1.0.2 (e86c8708, 2021-01-15)"><metadata
   id="metadata19"><rdf:RDF><cc:Work
       rdf:about=""><dc:format>image/svg+xml</dc:format><dc:type
         rdf:resource="http://purl.org/dc/dcmitype/StillImage" /><dc:title></dc:title></cc:Work></rdf:RDF></metadata><defs
   id="defs17" /><sodipodi:namedview
   pagecolor="#ffffff"
   bordercolor="#666666"
   borderopacity="1"
   objecttolerance="10"
   gridtolerance="10"
   guidetolerance="10"
   inkscape:pageopacity="0"
   inkscape:pageshadow="2"
   inkscape:window-width="778"
   inkscape:window-height="480"
   id="namedview15"
   showgrid="false"
   inkscape:zoom="0.58971358"
   inkscape:cx="328.02882"
   inkscape:cy="-71.697882"
   inkscape:window-x="0"
   inkscape:window-y="23"
   inkscape:window-maximized="0"
   inkscape:current-layer="Ebene_1"
   inkscape:document-rotation="0" />
<style
   type="text/css"
   id="style10">
	.st0{fill:#1A1919;}
</style>
<path
   class="st0"
   d="m 71.529538,47.974431 7.4,0.1 0.2,-1.7 -3.5,-0.5 v -16 h 13.8 v 16 l -3.5,0.5 0.2,1.7 7.4,-0.1 7.600002,0.1 0.1,-1.7 -3.599999,-0.5 v -32.8 l 3.599999,-0.6 -0.1,-1.6 -7.600002,0.1 -7.4,-0.1 -0.2,1.6 3.5,0.6 v 14.7 h -13.8 v -14.7 l 3.5,-0.6 -0.2,-1.6 -7.4,0.1 -7.6,-0.1 -0.1,1.6 3.7,0.6 v 32.8 l -3.7,0.5 0.1,1.7 z m 44.000002,0.9 c 7.9,-1.7 14,-5.4 14,-14.1 0,-7.6 -5.1,-12.8 -12,-12.8 -7.8,1.7 -13.9,5.3 -13.9,14.1 0,7.6 5.1,12.8 11.9,12.8 z m 1.6,-2.3 c -3.1,0 -5.7,-4.5 -5.7,-12.7 0,-6.6 1.6,-9.7 4.5,-9.7 3.1,0 5.7,4.2 5.7,12.8 0,6.5 -1.6,9.6 -4.5,9.6 z m 22.00001,1.4 8.89999,0.1 0.2,-1.8 -5.2,-0.4 v -20.5 h 6.7 v -2 h -6.7 v -1.4 c 0,-2.9 0.2,-4.4 0.7,-5.6 l 0.5,-1 h 7.2 v -5.2 h -6.5 l -5.79999,5.4 c -2.20001,2 -3.50001,4.2 -3.50001,7.2 v 0.5 h -2.8 l -0.9,1.5 v 0.5 h 3.7 v 20.5 l -3.1,0.5 0.1,1.7 z m 33.89999,0 9.4,0.1 0.2,-1.7 -5.3,-0.5 v -14 h 4.4 c 7.4,-1.9 14.1,-4.5 14.1,-11.5 0,-6.4 -5.2,-9.5 -11.4,-9.5 l -11.4,0.1 -7.5,-0.1 -0.1,1.6 3.7,0.6 v 32.8 l -3.7,0.5 0.1,1.7 z m 4.2,-35 3.4,-0.4 c 4.1,0 6.4,3.5 6.4,8.3 0,5.4 -2.9,8.8 -6.7,8.8 h -3.1 z m 27.1,35 8.4,0.1 0.2,-1.8 -4.9,-0.5 v -12.8 l 0.4,-0.5 c 0.7,-0.8 2.3,-2.7 2.9,-2.9 h 6.1 v -7.4 h -4.6 l -5,8.7 -0.5,-8.5 -1.8,0.1 -8.1,1.8 0.2,1.7 3,-0.3 v 20.3 l -3,0.5 0.1,1.7 z m 25,-30.8 0.6,-2.6 -0.4,-3 -1.5,-0.3 -3.7,0.3 -0.6,2.5 0.3,3 1.6,0.3 z m 10.2,0 0.6,-2.6 -0.4,-3 -1.5,-0.3 -3.7,0.3 -0.6,2.5 0.3,3 1.6,0.3 z m -5,27.1 1.5,4.3 9.2,-1.9 -0.2,-1.6 -2.4,0.2 c -0.5,-1.2 -0.7,-2.4 -0.7,-4.3 v -10.9 c 0,-6.5 -3.1,-8 -10.2,-8 l -11,4.4 v 4.6 h 6.8 l 0.9,-5.8 c 1,-0.4 1.9,-0.6 2.9,-0.6 2.4,0 2.9,1.3 2.9,4.3 v 4 l -11.9,3.7 c -1.8,1.5 -2.6,3.5 -2.6,5.6 0,4.4 3.5,6.9 8,6.9 z m -4.2,0.4 c -1.5,0 -2.8,-1.4 -2.8,-4.1 0,-1.7 0.5,-3.1 1.5,-4.1 l 5.2,-2 v 8.4 l -1.2,0.8 c -0.5,0.3 -1.6,1 -2.7,1 z m 34.2,-0.9 1.6,4.8 9,-1.7 -0.2,-1.6 -2.6,0.1 c -0.5,-1.1 -0.7,-2 -0.7,-4.1 v -31 l -2.2,0.1 -8.3,1.6 0.2,1.7 2.9,-0.2 v 10 c -1.3,-0.8 -3.4,-1.4 -5,-1.4 -7.9,1.5 -12.1,6.6 -12.1,14.6 0,7.2 4.4,12.3 10.8,12.3 z m -4.7,0 c -2.9,0 -4.8,-3.7 -4.8,-9.4 0,-6.1 2,-9.9 5.7,-9.9 1.5,0 2.7,0.6 3.4,1.5 v 15.7 l -1,0.7 c -1.1,0.9 -2,1.4 -3.3,1.4 z m 28.2,-26.1 0.7,-3.1 -0.3,-3.5 -1.8,-0.4 -4.8,0.4 -0.6,3 0.4,3.6 1.7,0.4 z m -2.9,30.3 6.5,0.1 0.2,-1.7 -3.1,-0.5 v -23.5 l -2,0.1 -8.6,1.8 0.2,1.7 3,-0.3 v 20.3 l -3,0.5 0.1,1.7 z m 16.4,0 6.1,0.1 0.1,-1.7 -2.5,-0.5 v -11.6 l 0.4,1 8.7,12.9 4.3,-0.1 5.4,0.1 0.2,-1.7 -2,-0.5 -9.7,-12.9 -3.7,0.2 10.8,-8.3 3.3,-0.5 -0.1,-1.6 -4.7,0.1 -4.9,-0.1 v 1.6 l 3,0.5 -10.3,8.3 -0.7,0.4 v -23.4 l -2.1,0.1 -8.5,1.5 0.2,1.7 3,-0.2 v 32.6 l -3,0.5 0.1,1.7 z m 35.4,0.9 c 7.9,-1.7 14,-5.4 14,-14.1 0,-7.6 -5.1,-12.8 -12,-12.8 -7.8,1.7 -13.9,5.3 -13.9,14.1 0,7.6 5.1,12.8 11.9,12.8 z m 1.6,-2.3 c -3.1,0 -5.7,-4.5 -5.7,-12.7 0,-6.6 1.6,-9.7 4.5,-9.7 3.1,0 5.7,4.2 5.7,12.8 0,6.5 -1.6,9.6 -4.5,9.6 z m 30.2,0.6 5.3,-16 0.2,1.9 5.5,15.9 6.5,-1.8 7.4,-22.3 2.7,-0.5 -0.1,-1.6 -3.8,0.1 -4,-0.1 -0.1,1.6 2.7,0.5 -6.1,19.1 -0.2,-1.9 -5.5,-17.2 2.7,-0.5 -0.2,-1.6 -6.1,0.1 -6.2,-0.1 -0.2,1.6 2.1,0.5 1.3,3.6 -5.2,15.5 -0.2,-1.9 -5.5,-17.2 2.7,-0.5 -0.1,-1.6 -6.3,0.1 -6.4,-0.1 -0.2,1.6 2.3,0.5 8.4,24.1 z"
   id="path12"
   style="stroke-width:1"
   inkscape:transform-center-x="-1.6957385"
   inkscape:transform-center-y="-1.6957385" />
</svg>
