<?xml version="1.0" encoding="UTF-8" standalone="no"?>
<!DOCTYPE svg PUBLIC "-//W3C//DTD SVG 1.1//EN" "http://www.w3.org/Graphics/SVG/1.1/DTD/svg11.dtd">
<svg width="100%" height="100%" viewBox="0 0 2009 717" version="1.1" xmlns="http://www.w3.org/2000/svg" xmlns:xlink="http://www.w3.org/1999/xlink" xml:space="preserve" xmlns:serif="http://www.serif.com/" style="fill-rule:evenodd;clip-rule:evenodd;stroke-linejoin:round;stroke-miterlimit:2;">
    <rect id="logo" x="0" y="0" width="2008.33" height="716.667" style="fill:none;"/>
    <g id="logo1" serif:id="logo">
        <path d="M925.575,340.65C933.254,340.65 941.488,339.675 950,337.858L950,328.229C941.208,330.462 933.671,331.579 927.25,331.579C920.413,331.579 915.387,330.604 912.179,328.508C908.971,326.417 907.296,323.067 907.296,318.462L907.296,308.271L952.65,308.271L952.65,293.338C952.65,284.825 950.421,278.967 946.092,275.475C941.625,271.988 934.371,270.313 924.463,270.313C913.992,270.313 906.317,272.125 901.712,275.617C896.967,279.246 894.596,285.104 894.596,293.338L894.596,319.996C894.596,333.812 904.921,340.65 925.575,340.65ZM768.85,339.254L804.996,339.254C830.258,339.254 842.958,331.021 842.958,314.692L842.958,274.638C842.958,257.333 830.258,248.679 804.858,248.679L768.85,248.679L768.85,339.254ZM862.775,339.254L875.333,339.254L875.333,271.708L862.775,271.708L862.775,339.254ZM782.387,330.046L782.387,258.029L804.717,258.029C808.346,258.029 811.554,258.171 814.208,258.587C816.858,259.008 819.512,259.846 822.021,260.821C824.533,261.937 826.487,263.612 827.883,265.987C829.279,268.358 829.979,271.15 829.979,274.5L829.979,314.412C829.979,324.879 821.325,330.046 804.021,330.046L782.387,330.046ZM907.296,300.038L907.296,289.433C907.296,285.383 908.55,282.454 911.204,280.917C913.854,279.383 918.042,278.688 923.763,278.688C929.763,278.688 933.95,279.383 936.463,280.917C938.833,282.454 940.092,285.383 940.092,289.433L940.092,300.038L907.296,300.038ZM862.775,260.404L875.333,260.404L875.333,247.283L862.775,247.283L862.775,260.404Z" style="fill-rule:nonzero;"/>
        <path d="M1447.03,541.342C1466.25,541.342 1480.59,538.367 1490.06,532.679C1499.53,526.996 1504.14,517.525 1504.14,503.992L1504.14,492.625C1504.14,472.054 1490.33,461.767 1462.73,461.767L1447.57,461.767C1431.6,461.767 1423.48,457.437 1423.48,448.504L1423.48,437.408C1423.48,431.454 1425.92,427.125 1430.52,424.688C1435.12,422.254 1444.05,420.9 1456.77,420.9C1467.87,420.9 1481.67,422.254 1497.64,424.688L1497.64,407.096C1474.09,405.742 1460.83,404.929 1457.85,404.929C1418.88,404.929 1399.39,415.217 1399.39,435.783L1399.39,447.967C1399.39,457.979 1402.91,465.829 1410.22,471.512C1417.25,477.196 1427.54,479.904 1441.08,479.904L1455.96,479.904C1464.35,479.904 1470.58,480.983 1474.36,483.421C1478.15,485.858 1480.05,489.646 1480.05,495.329L1480.05,508.592C1480.05,514.817 1477.61,518.879 1472.47,521.042C1467.33,523.479 1459.21,524.563 1447.57,524.563C1438.37,524.563 1423.21,522.938 1402.1,519.417L1402.1,538.096C1418.07,540.258 1433.23,541.342 1447.03,541.342ZM1080.56,541.342C1104.92,541.342 1118.18,536.2 1120.08,526.183L1120.08,538.637L1143.62,538.637L1143.62,446.071C1143.62,434.433 1142.27,425.771 1139.57,420.087C1136.86,414.404 1131.99,410.612 1124.68,408.179C1117.37,406.013 1106.28,404.929 1091.12,404.929C1076.77,404.929 1060.53,405.742 1042.67,407.367L1042.67,425.229C1059.18,423.063 1074.07,421.983 1087.6,421.983C1095.99,421.983 1102.49,422.521 1107.09,423.604C1111.42,424.688 1114.67,426.583 1116.56,429.017C1118.45,431.725 1119.27,435.513 1119.27,440.388L1119.27,461.225L1080.02,461.225C1067.57,461.225 1058.1,462.308 1051.33,464.746C1044.56,467.183 1039.69,470.971 1036.99,476.383C1034.01,482.067 1032.65,489.646 1032.65,499.662C1032.65,510.758 1034.28,519.417 1037.26,525.375C1040.23,531.329 1045.1,535.388 1051.87,537.825C1058.64,540.258 1068.11,541.342 1080.56,541.342ZM1686.83,541.342C1711.18,541.342 1724.45,536.2 1726.34,526.183L1726.34,538.637L1749.89,538.637L1749.89,446.071C1749.89,434.433 1748.53,425.771 1745.83,420.087C1743.12,414.404 1738.25,410.612 1730.94,408.179C1723.63,406.013 1712.54,404.929 1697.38,404.929C1683.03,404.929 1666.8,405.742 1648.93,407.367L1648.93,425.229C1665.44,423.063 1680.33,421.983 1693.86,421.983C1702.25,421.983 1708.75,422.521 1713.35,423.604C1717.68,424.688 1720.93,426.583 1722.82,429.017C1724.72,431.725 1725.53,435.513 1725.53,440.388L1725.53,461.225L1686.28,461.225C1673.83,461.225 1664.36,462.308 1657.59,464.746C1650.83,467.183 1645.95,470.971 1643.25,476.383C1640.27,482.067 1638.92,489.646 1638.92,499.662C1638.92,510.758 1640.54,519.417 1643.52,525.375C1646.5,531.329 1651.37,535.388 1658.13,537.825C1664.9,540.258 1674.38,541.342 1686.83,541.342ZM1592.64,541.342C1601.57,541.342 1610.77,540.529 1619.98,539.175L1619.98,523.208C1609.42,524.563 1602.92,525.375 1600.49,525.375C1593.18,525.375 1587.5,524.563 1583.71,523.208C1579.65,521.854 1576.94,519.687 1575.59,516.442C1573.96,513.192 1573.15,508.321 1573.15,501.825L1573.15,423.604L1619.98,423.604L1619.98,407.638L1573.15,407.638L1573.15,367.037L1548.52,367.037L1548.52,407.638L1519.29,407.638L1519.29,423.604L1548.52,423.604L1548.52,500.471C1548.52,511.029 1549.88,519.417 1552.85,525.104C1555.56,531.058 1560.16,535.117 1566.38,537.554C1572.61,539.988 1581.54,541.342 1592.64,541.342ZM1955.85,541.342C1964.79,541.342 1973.99,540.529 1983.19,539.175L1983.19,523.208C1972.64,524.563 1966.14,525.375 1963.7,525.375C1956.4,525.375 1950.71,524.563 1946.92,523.208C1942.86,521.854 1940.16,519.687 1938.8,516.442C1937.18,513.192 1936.37,508.321 1936.37,501.825L1936.37,423.604L1983.19,423.604L1983.19,407.638L1936.37,407.638L1936.37,367.037L1911.74,367.037L1911.74,407.638L1882.51,407.638L1882.51,423.604L1911.74,423.604L1911.74,500.471C1911.74,511.029 1913.09,519.417 1916.07,525.104C1918.78,531.058 1923.38,535.117 1929.6,537.554C1935.83,539.988 1944.76,541.342 1955.85,541.342ZM1847.05,541.342C1855.99,541.342 1865.19,540.529 1874.39,539.175L1874.39,523.208C1863.83,524.563 1857.34,525.375 1854.9,525.375C1847.6,525.375 1841.91,524.563 1838.12,523.208C1834.06,521.854 1831.35,519.687 1830,516.442C1828.38,513.192 1827.57,508.321 1827.57,501.825L1827.57,423.604L1874.39,423.604L1874.39,407.638L1827.57,407.638L1827.57,367.037L1802.94,367.037L1802.94,407.638L1773.7,407.638L1773.7,423.604L1802.94,423.604L1802.94,500.471C1802.94,511.029 1804.29,519.417 1807.27,525.104C1809.98,531.058 1814.58,535.117 1820.8,537.554C1827.03,539.988 1835.96,541.342 1847.05,541.342ZM1299.25,541.342C1313.05,541.342 1323.61,539.446 1331.46,535.658C1339.31,532.142 1343.1,528.079 1343.1,523.208L1343.1,538.637L1366.91,538.637L1366.91,349.175L1342.55,349.175L1342.55,388.421L1343.1,421.712L1342.55,421.712C1342.28,416.296 1338.23,412.237 1330.1,409.262C1321.71,406.283 1311.97,404.929 1300.6,404.929C1281.65,404.929 1268.12,407.908 1260,413.592C1251.61,419.275 1247.55,428.75 1247.55,442.008L1247.55,499.662C1247.55,510.217 1249.18,518.608 1252.7,524.563C1255.94,530.517 1261.36,534.846 1268.66,537.283C1275.97,539.988 1286.26,541.342 1299.25,541.342ZM814.238,538.637L844.821,538.637L887.854,392.479L929.808,538.637L960.392,538.637L1016.96,362.979L990.433,362.979L946.858,513.733L946.317,513.733L902.742,362.979L874.862,362.979L831.288,513.733L830.746,513.733L787.171,362.979L759.292,362.979L814.238,538.637ZM1185.85,538.637L1210.21,538.637L1210.21,349.175L1185.85,349.175L1185.85,538.637ZM1079.75,525.375C1073.25,525.375 1068.38,524.563 1065.13,522.938C1061.89,521.583 1059.72,518.879 1058.37,515.358C1057.02,511.842 1056.47,506.967 1056.47,500.471C1056.47,493.167 1057.02,488.021 1058.1,484.775C1059.18,481.525 1061.35,479.363 1064.86,478.008C1068.38,476.925 1073.8,476.383 1081.65,476.383L1119.27,476.383L1119.27,512.113C1119.27,518.067 1115.21,521.854 1107.09,523.479C1100.86,524.833 1093.55,525.375 1084.62,525.375L1079.75,525.375ZM1686.01,525.375C1679.52,525.375 1674.65,524.563 1671.4,522.938C1668.15,521.583 1665.98,518.879 1664.63,515.358C1663.28,511.842 1662.74,506.967 1662.74,500.471C1662.74,493.167 1663.28,488.021 1664.36,484.775C1665.44,481.525 1667.61,479.363 1671.12,478.008C1674.65,476.925 1680.06,476.383 1687.91,476.383L1725.53,476.383L1725.53,512.113C1725.53,518.067 1721.47,521.854 1713.35,523.479C1707.12,524.833 1699.82,525.375 1690.88,525.375L1686.01,525.375ZM1304.39,524.563C1292.48,524.563 1284.09,522.938 1279.22,519.958C1274.08,516.983 1271.64,511.571 1271.64,504.262L1271.64,439.575C1271.64,432.267 1273.81,427.396 1278.41,425.229C1282.74,423.063 1292.21,421.983 1306.56,421.983C1330.65,421.983 1342.55,427.938 1342.55,439.575L1342.55,504.262C1342.55,511.571 1339.58,516.983 1333.62,519.958C1327.67,522.938 1317.92,524.563 1304.39,524.563Z" style="fill:rgb(136,174,62);fill-rule:nonzero;"/>
        <path d="M1318.5,654.896C1323.43,654.896 1327.53,654.433 1330.59,653.408C1333.66,652.479 1335.99,650.804 1337.57,648.479C1339.15,646.158 1339.89,642.9 1339.89,638.717L1339.89,589.433L1332.08,589.433L1332.08,593.804C1330.68,590.271 1326.13,588.504 1318.32,588.504C1311.72,588.504 1307.07,589.617 1304.18,591.942C1301.3,594.267 1299.81,598.079 1299.81,603.379L1299.81,621.7C1299.81,625.142 1300.37,627.837 1301.49,629.792C1302.51,631.742 1304.37,633.229 1306.97,634.067C1309.48,634.904 1313.11,635.371 1317.76,635.371C1321.67,635.371 1324.92,634.904 1327.53,633.975C1330.03,633.046 1331.43,631.558 1331.52,629.604L1331.52,640.392C1331.52,643.554 1330.59,645.783 1328.64,647.179C1326.69,648.575 1323.53,649.225 1319.25,649.225C1315.81,649.225 1310.41,648.758 1302.98,647.925L1302.98,653.875C1307.16,654.525 1312.37,654.896 1318.5,654.896ZM854.487,635.371C856.812,635.371 859.229,635.275 861.554,635.183C863.508,634.996 865.462,634.625 867.321,634.067C869.179,633.508 870.575,632.767 871.6,631.742C874.017,629.325 875.225,625.512 875.225,620.212L875.225,604.592C875.225,601.708 874.854,599.196 874.204,597.058C873.458,594.921 872.529,593.337 871.504,592.221C870.483,591.104 868.996,590.271 867.042,589.713C865.183,589.246 863.417,588.875 861.833,588.687C860.162,588.596 857.742,588.504 854.487,588.504C852.071,588.504 849.746,588.596 847.512,588.687C845.562,588.875 843.608,589.246 841.75,589.804C839.796,590.454 838.4,591.292 837.471,592.317C836.354,593.525 835.425,595.104 834.775,597.242C834.125,599.383 833.75,601.8 833.75,604.592L833.75,620.212C833.75,623.746 834.217,626.537 835.146,628.579C836.075,630.721 837.562,632.208 839.608,633.137C841.563,634.067 843.608,634.625 845.562,634.904C847.512,635.183 850.492,635.371 854.487,635.371ZM1622.3,635.371C1629.08,635.371 1636.43,634.437 1644.52,632.579L1644.52,600.125L1622.02,600.125L1622.02,606.45L1636.15,606.45L1636.15,627.558C1631.41,628.675 1627.04,629.233 1622.85,629.233C1620.34,629.233 1618.11,629.046 1616.16,628.767C1614.2,628.487 1612.16,628.025 1610.21,627.279C1608.07,626.629 1606.49,625.512 1605.28,624.025C1604.07,622.538 1603.42,620.771 1603.42,618.817L1603.42,590.363C1603.42,583.017 1609.74,579.388 1622.48,579.388C1625.18,579.388 1628.71,579.575 1633.08,580.042C1637.45,580.504 1640.8,581.063 1643.12,581.621L1643.12,574.646C1636.9,573.625 1630.01,573.158 1622.3,573.158C1619.04,573.158 1616.07,573.346 1613.37,573.808C1610.58,574.275 1607.7,575.113 1604.63,576.133C1601.47,577.25 1598.95,579.017 1597.19,581.529C1595.42,584.038 1594.49,587.017 1594.49,590.454L1594.49,619.004C1594.49,621.608 1595.14,623.933 1596.35,626.071C1597.56,628.025 1599.05,629.604 1600.91,630.721C1602.77,631.929 1605.09,632.858 1607.79,633.604C1610.21,634.254 1612.53,634.717 1614.76,634.996C1616.9,635.275 1619.41,635.371 1622.3,635.371ZM788.467,635.371C794.508,635.371 800.087,634.812 805.387,633.604L805.387,626.721C799.438,628.208 793.95,628.954 789.021,628.954C777.492,628.954 771.725,625.512 771.725,618.537L771.725,590.271C771.725,585.712 773.492,582.737 777.121,581.158C778.796,580.504 780.563,579.946 782.329,579.667C784.096,579.388 786.233,579.296 788.65,579.296C793.579,579.296 799.067,580.042 805.017,581.529L805.017,574.833C799.717,573.625 794.229,573.067 788.467,573.067C771.542,573.067 763.079,578.833 763.079,590.363L763.079,619.004C763.079,629.883 771.542,635.371 788.467,635.371ZM1890.29,635.371C1895.41,635.371 1900.9,634.717 1906.57,633.508L1906.57,627.092C1900.71,628.579 1895.69,629.325 1891.41,629.325C1886.85,629.325 1883.5,628.675 1881.37,627.279C1879.23,625.883 1878.11,623.654 1878.11,620.583L1878.11,613.796L1908.33,613.796L1908.33,603.846C1908.33,598.175 1906.85,594.267 1903.96,591.942C1900.99,589.617 1896.15,588.504 1889.55,588.504C1882.58,588.504 1877.46,589.713 1874.39,592.038C1871.23,594.454 1869.65,598.358 1869.65,603.846L1869.65,621.608C1869.65,630.813 1876.53,635.371 1890.29,635.371ZM1018.15,635.371C1020.47,635.371 1022.89,635.275 1025.22,635.183C1027.17,634.996 1029.12,634.625 1030.98,634.067C1032.84,633.508 1034.23,632.767 1035.26,631.742C1037.67,629.325 1038.88,625.512 1038.88,620.212L1038.88,604.592C1038.88,601.708 1038.51,599.196 1037.86,597.058C1037.12,594.921 1036.19,593.337 1035.17,592.221C1034.14,591.104 1032.65,590.271 1030.7,589.713C1028.84,589.246 1027.08,588.875 1025.5,588.687C1023.82,588.596 1021.4,588.504 1018.15,588.504C1015.73,588.504 1013.4,588.596 1011.18,588.687C1009.22,588.875 1007.27,589.246 1005.41,589.804C1003.45,590.454 1002.06,591.292 1001.13,592.317C1000.02,593.525 999.083,595.104 998.433,597.242C997.783,599.383 997.412,601.8 997.412,604.592L997.412,620.212C997.412,623.746 997.875,626.537 998.804,628.579C999.737,630.721 1001.23,632.208 1003.27,633.137C1005.22,634.067 1007.27,634.625 1009.22,634.904C1011.18,635.183 1014.15,635.371 1018.15,635.371ZM1743.18,635.371C1752.2,635.371 1757.13,633.229 1757.97,628.954L1757.97,634.437L1766.34,634.437L1766.34,589.433L1757.97,589.433L1757.97,623.375C1757.97,625.7 1757.04,627.279 1755.27,628.117C1753.41,628.954 1750.16,629.417 1745.6,629.417C1741.23,629.417 1738.53,628.579 1737.42,627C1736.86,626.258 1736.49,625.512 1736.3,624.767C1736.03,624.117 1735.93,623.188 1735.93,621.979L1735.93,589.433L1727.56,589.433L1727.56,622.446C1727.56,626.908 1728.77,630.163 1731.1,632.208C1733.42,634.346 1737.42,635.371 1743.18,635.371ZM1454.45,634.437L1462.82,634.437L1462.82,601.987C1462.82,599.942 1463.2,598.358 1463.85,597.338C1464.5,596.312 1465.7,595.662 1467.47,595.196C1469.24,594.733 1471.75,594.546 1475.19,594.546C1479.38,594.546 1482.16,595.292 1483.37,596.871C1483.93,597.617 1484.3,598.358 1484.49,599.104C1484.67,599.846 1484.77,600.779 1484.77,601.987L1484.77,634.437L1493.14,634.437L1493.14,601.987C1493.14,600.033 1493.42,598.454 1494.07,597.429C1494.62,596.408 1495.74,595.662 1497.32,595.196C1498.9,594.733 1501.41,594.546 1504.67,594.546C1508.95,594.546 1511.73,595.292 1512.94,596.871C1513.5,597.617 1513.88,598.358 1514.06,599.104C1514.25,599.846 1514.34,600.779 1514.34,601.987L1514.34,634.437L1522.71,634.437L1522.71,601.429C1522.71,596.967 1521.59,593.708 1519.27,591.571C1516.94,589.525 1513.04,588.504 1507.46,588.504C1503.37,588.504 1499.92,589.063 1497.13,590.083C1494.25,591.104 1492.58,592.688 1492.02,594.642C1490.16,590.55 1485.51,588.504 1477.98,588.504C1468.78,588.504 1463.66,590.642 1462.82,594.921L1462.82,589.433L1454.45,589.433L1454.45,634.437ZM1188.13,634.437L1196.5,634.437L1196.5,589.433L1188.13,589.433L1188.13,634.437ZM1412.98,634.437L1421.35,634.437L1421.35,589.433L1412.98,589.433L1412.98,634.437ZM1070.5,634.437L1078.87,634.437L1078.87,602.729C1078.87,600.033 1079.8,598.175 1081.57,597.15C1083.33,596.129 1086.12,595.662 1090.12,595.662L1094.77,595.662L1094.77,588.504L1090.68,588.504C1088.82,588.504 1086.96,588.875 1085.01,589.617C1083.05,590.454 1081.47,591.479 1080.26,592.688C1079.05,593.987 1078.4,595.383 1078.4,596.779L1078.4,589.433L1070.5,589.433L1070.5,634.437ZM1676.33,634.437L1684.69,634.437L1684.69,602.729C1684.69,600.033 1685.62,598.175 1687.39,597.15C1689.16,596.129 1691.95,595.662 1695.95,595.662L1700.6,595.662L1700.6,588.504L1696.5,588.504C1694.64,588.504 1692.78,588.875 1690.83,589.617C1688.88,590.454 1687.3,591.479 1686.09,592.688C1684.88,593.987 1684.23,595.383 1684.23,596.779L1684.23,589.433L1676.33,589.433L1676.33,634.437ZM1229.6,634.437L1237.97,634.437L1237.97,601.892C1237.97,599.942 1238.35,598.454 1239.09,597.429C1239.74,596.408 1241.04,595.571 1242.81,595.104C1244.58,594.642 1247.08,594.454 1250.34,594.454C1254.62,594.454 1257.41,595.196 1258.62,596.779C1259.17,597.521 1259.55,598.267 1259.73,599.008C1259.92,599.754 1260.01,600.683 1260.01,601.892L1260.01,634.437L1268.38,634.437L1268.38,601.429C1268.38,596.967 1267.26,593.708 1264.94,591.571C1262.61,589.525 1258.52,588.504 1252.76,588.504C1243.74,588.504 1238.81,590.642 1237.97,594.921L1237.97,589.433L1229.6,589.433L1229.6,634.437ZM1799.44,634.437L1807.81,634.437L1807.81,601.892C1807.81,599.942 1808.18,598.454 1808.92,597.429C1809.58,596.408 1810.88,595.571 1812.65,595.104C1814.41,594.642 1816.92,594.454 1820.17,594.454C1824.45,594.454 1827.25,595.196 1828.45,596.779C1829.01,597.521 1829.38,598.267 1829.57,599.008C1829.75,599.754 1829.85,600.683 1829.85,601.892L1829.85,634.437L1838.22,634.437L1838.22,601.429C1838.22,596.967 1837.1,593.708 1834.78,591.571C1832.45,589.525 1828.36,588.504 1822.6,588.504C1813.58,588.504 1808.65,590.642 1807.81,594.921L1807.81,589.433L1799.44,589.433L1799.44,634.437ZM1939.67,634.437L1948.04,634.437L1948.04,601.892C1948.04,599.942 1948.41,598.454 1949.15,597.429C1949.81,596.408 1951.11,595.571 1952.88,595.104C1954.64,594.642 1957.15,594.454 1960.41,594.454C1964.68,594.454 1967.48,595.196 1968.68,596.779C1969.24,597.521 1969.61,598.267 1969.8,599.008C1969.99,599.754 1970.08,600.683 1970.08,601.892L1970.08,634.437L1978.45,634.437L1978.45,601.429C1978.45,596.967 1977.33,593.708 1975.01,591.571C1972.68,589.525 1968.59,588.504 1962.83,588.504C1953.8,588.504 1948.88,590.642 1948.04,594.921L1948.04,589.433L1939.67,589.433L1939.67,634.437ZM1151.68,634.437L1162.1,634.437L1140.8,609.796L1160.33,589.433L1150.1,589.433L1131.13,609.796L1151.68,634.437ZM1121.74,634.437L1130.11,634.437L1130.11,569.346L1121.74,569.346L1121.74,634.437ZM915.863,634.437L925.808,634.437L936.504,598.079L947.383,634.437L957.333,634.437L972.121,589.433L963.563,589.433L952.962,626.442L952.404,626.442L941.433,589.433L932.042,589.433L921.442,626.442L920.883,626.442L909.908,589.433L900.704,589.433L915.863,634.437ZM854.487,629.883C851.883,629.883 850.025,629.792 848.817,629.696C847.608,629.604 846.492,629.233 845.375,628.675C844.258,628.208 843.517,627.371 843.05,626.162C842.587,625.046 842.308,623.467 842.308,621.421L842.308,603.196C842.308,600.404 842.679,598.358 843.329,597.058C843.979,595.85 845.188,595.012 846.862,594.546C848.446,594.175 851.046,593.987 854.487,593.987C857.929,593.987 860.533,594.175 862.208,594.546C863.788,595.012 864.996,595.85 865.646,597.058C866.3,598.358 866.671,600.404 866.671,603.196L866.671,621.421C866.671,623.467 866.483,625.046 866.021,626.162C865.554,627.371 864.717,628.208 863.6,628.675C862.487,629.233 861.371,629.604 860.162,629.696C858.95,629.792 857.092,629.883 854.487,629.883ZM1018.15,629.883C1015.55,629.883 1013.68,629.792 1012.48,629.696C1011.27,629.604 1010.15,629.233 1009.03,628.675C1007.92,628.208 1007.18,627.371 1006.71,626.162C1006.25,625.046 1005.97,623.467 1005.97,621.421L1005.97,603.196C1005.97,600.404 1006.34,598.358 1006.99,597.058C1007.64,595.85 1008.85,595.012 1010.52,594.546C1012.1,594.175 1014.71,593.987 1018.15,593.987C1021.59,593.987 1024.19,594.175 1025.87,594.546C1027.45,595.012 1028.65,595.85 1029.31,597.058C1029.96,598.358 1030.33,600.404 1030.33,603.196L1030.33,621.421C1030.33,623.467 1030.14,625.046 1029.68,626.162C1029.21,627.371 1028.38,628.208 1027.26,628.675C1026.15,629.233 1025.03,629.604 1023.82,629.696C1022.61,629.792 1020.75,629.883 1018.15,629.883ZM1319.53,629.792C1316.37,629.792 1313.95,629.604 1312.37,629.138C1310.78,628.767 1309.67,628.025 1309.02,627C1308.37,625.979 1308.09,624.396 1308.09,622.258L1308.09,601.892C1308.09,599.846 1308.37,598.267 1309.02,597.15C1309.58,596.129 1310.69,595.383 1312.28,594.921C1313.85,594.454 1316.18,594.267 1319.34,594.267C1322.69,594.267 1325.2,594.454 1326.97,594.921C1328.73,595.383 1329.94,596.221 1330.59,597.242C1331.24,598.267 1331.52,599.846 1331.52,601.892L1331.52,622.258C1331.52,625.142 1330.59,627.187 1328.83,628.208C1327.06,629.233 1323.9,629.792 1319.53,629.792ZM1878.11,608.308L1878.11,601.242C1878.11,598.546 1878.95,596.592 1880.72,595.571C1882.48,594.546 1885.27,594.083 1889.08,594.083C1893.08,594.083 1895.88,594.546 1897.55,595.571C1899.13,596.592 1899.97,598.546 1899.97,601.242L1899.97,608.308L1878.11,608.308ZM1188.13,581.9L1196.5,581.9L1196.5,573.158L1188.13,573.158L1188.13,581.9ZM1750.06,581.9L1758.43,581.9L1758.43,573.158L1750.06,573.158L1750.06,581.9ZM1412.98,581.9L1421.35,581.9L1421.35,573.158L1412.98,573.158L1412.98,581.9ZM1734.25,581.9L1742.62,581.9L1742.62,573.158L1734.25,573.158L1734.25,581.9Z" style="fill-rule:nonzero;"/>
        <g transform="matrix(4.16667,0,0,4.16667,0,0)">
            <rect x="170.057" y="48.565" width="1.998" height="118.999" style="fill-rule:nonzero;"/>
        </g>
        <g transform="matrix(4.16667,0,0,4.16667,0,0)">
            <path d="M56.723,153.174C56.853,153.703 56.922,154.243 56.922,154.791C56.922,162.133 44.985,168.085 30.26,168.085C15.535,168.085 3.598,162.133 3.598,154.791C3.598,151.015 6.757,147.611 11.823,145.191C4.64,147.918 0,152.224 0,157.074C0,165.318 13.402,172 29.934,172C46.466,172 59.868,165.318 59.868,157.074C59.868,154.761 58.81,152.572 56.926,150.62C56.95,151.294 56.919,152.197 56.723,153.174ZM30.667,128.363C39.384,128.363 46.45,132.444 46.45,137.477C46.45,142.511 39.384,146.593 30.667,146.593C21.951,146.593 14.885,142.511 14.885,137.477C14.885,132.444 21.951,128.363 30.667,128.363ZM48.938,156.012C46.572,156.476 44.695,155.707 43.629,155.076C45.063,153.154 46.318,150.684 47.224,147.488C57.739,148.324 52.633,155.29 48.938,156.012ZM23.408,160.989C23.408,160.989 27.323,163.029 32.951,161.723C35.163,161.211 37.878,160.314 40.429,158.343C52.37,161.139 58.041,153.011 55.952,148.754C54.294,145.373 49.693,145.184 47.765,145.263C47.983,144.233 48.166,143.133 48.315,141.969C48.928,140.826 49.264,139.604 49.264,138.335C49.264,131.949 40.883,126.772 30.545,126.772C20.207,126.772 11.827,131.949 11.827,138.335C11.827,139.238 12,140.116 12.317,140.96C12.661,145.292 14.419,156.494 23.408,160.989ZM64.598,142.964L45.839,125.345L110.316,96.846L130.664,111.317L64.598,142.964ZM129.522,133.408L110.765,144.362C109.777,144.938 108.187,144.897 107.232,144.268L99.287,139.049C98.332,138.421 98.379,137.472 99.391,136.941L119.037,126.637C120.049,126.106 121.665,126.176 122.628,126.793L129.567,131.239C130.531,131.855 130.509,132.832 129.522,133.408ZM156.709,123.163L113.103,92.13C112.804,91.916 112.281,91.862 111.943,92.006L37.218,124.278C38.99,124.65 40.675,125.161 42.236,125.811C45.647,127.242 48.526,129.295 50.417,132.036C51.67,133.856 52.449,136.033 52.445,138.335C52.448,139.821 52.115,141.25 51.546,142.569C53.039,143.401 55.819,145.117 58.333,147.557C58.929,148.101 59.487,148.67 59.992,149.269C60.484,149.851 60.924,150.472 61.314,151.12C62.37,152.736 63.152,154.538 63.433,156.502L77.167,169.742C77.432,169.997 77.912,170.059 78.233,169.879L156.67,125.999C156.992,125.819 157.255,125.371 157.255,125.002L157.255,124.22C157.255,123.852 157.009,123.376 156.709,123.163ZM20.741,142.407C23.208,143.837 26.746,144.768 30.666,144.764C34.587,144.768 38.124,143.837 40.592,142.407C41.958,141.615 42.962,140.705 43.59,139.75C41.707,137.065 36.619,135.14 30.634,135.14C24.685,135.14 19.62,137.041 17.709,139.702C18.336,140.675 19.352,141.601 20.741,142.407ZM32.307,122.9C32.392,123.258 32.74,123.435 33.08,123.294L110.961,90.858C111.301,90.715 111.516,90.305 111.438,89.945L105.478,62.327C103.537,60.825 101.89,58.677 101.224,55.835C101.032,55.24 100.672,53.905 100.667,52.071C100.648,50.451 100.992,48.382 102.016,46.28L99.363,33.987C98.662,33.803 97.928,33.579 97.167,33.295L95.143,36.3L106.196,86.359L37.355,114.253L35.724,114.905L22.674,59.443L62.48,46.622C63.772,44.137 65.843,41.87 68.706,40.345C69.673,39.72 72.947,37.805 77.776,37.779C79.185,37.779 80.716,37.954 82.314,38.385L86.428,32.279L16.625,54.023C16.274,54.133 16.056,54.516 16.141,54.874L32.307,122.9Z" style="fill-rule:nonzero;"/>
        </g>
        <g transform="matrix(4.16667,0,0,4.16667,0,0)">
            <path d="M141.288,66.649C135.866,61.987 129.283,65.53 129.283,65.53C131.367,68.882 137.807,74.737 137.807,74.737C136.111,74.105 132.531,70.994 130.237,68.901L130.468,68.68L122.513,60.292C123.394,57.61 124.56,52.179 121.644,47.864L130.69,40.559C134.639,42.95 138.349,41.384 138.349,41.384C147.04,39.046 144.347,25.021 144.347,25.021C144.347,25.021 136.075,21.523 130.632,26.157C125.187,30.793 127.673,37.847 127.673,37.847C131.305,36.304 138.085,30.849 138.085,30.849C137.311,32.227 134.442,34.737 132.112,36.643L132.001,36.506L120.144,46.082C117.191,43.28 113.54,43.02 111.208,43.223L104.551,27.881C103.109,21.5 99.686,12.724 99.686,12.724C102.602,15.834 107.655,30.026 107.655,30.026C116.015,25.361 115.237,17.196 115.237,17.196C115.82,3.395 94.047,0.866 94.047,0.866C94.047,0.866 85.106,11.364 89.381,21.472C90.516,24.152 92.162,26.081 93.96,27.488L83.728,42.676C76.291,39.306 70.51,43.432 70.51,43.432C58.279,49.852 67.021,69.953 67.021,69.953C67.021,69.953 80.587,72.417 87.183,63.646C93.779,54.874 87.687,45.148 87.687,45.148C82.768,48.678 74.446,59.125 74.446,59.125C75.101,56.946 78.18,52.657 80.912,49.129L81.795,49.727L95.9,28.785C98.732,30.386 101.629,30.93 103.407,31.105L110.07,46.454L110.332,46.568C112.526,50.446 115.924,55.023 115.924,55.023C113.395,53.471 107.4,44.871 107.4,44.871C102.644,49.536 104.667,54.872 104.667,54.872C106.489,62.864 117.693,62.369 120.964,62.051L127.204,68.631C125.222,73.042 127.438,76.628 127.438,76.628C131.091,84.849 144.531,80.022 144.531,80.022C144.531,80.022 146.707,71.306 141.288,66.649Z" style="fill:rgb(136,174,62);fill-rule:nonzero;"/>
        </g>
    </g>
</svg>
