<?xml version="1.0" encoding="UTF-8"?> <svg xmlns="http://www.w3.org/2000/svg" xmlns:xlink="http://www.w3.org/1999/xlink" version="1.1" id="Logo" x="0px" y="0px" viewBox="0 0 1200 445.9" style="enable-background:new 0 0 1200 445.9;" xml:space="preserve"> <style type="text/css"> .st0{stroke:#000000;stroke-width:2;stroke-miterlimit:10;} </style> <g> <rect x="11.5" y="10" width="9.8" height="232.7"></rect> <path d="M179.8,214.7c-0.3-0.8-0.7-1.7-1.1-2.6L90.9,10h-8v232.7h9.8L92.1,36.6c1.2,2.8,1.9,4.6,2.3,5.6l86.5,199.6l0.4,0.9h8.3V10 h-9.8V214.7z"></path> <path d="M339.9,214.7c-0.3-0.8-0.7-1.7-1.1-2.6L251,10h-8v232.7h9.8l-0.6-206.1c1.2,2.8,1.9,4.6,2.3,5.6L341,241.8l0.4,0.9h8.3V10 h-9.8V214.7z"></path> <path d="M485.3,18.9c-2.2-2-4.9-3.7-8.1-5.2c-3.1-1.4-6.5-2.6-10-3.6c-3.5-1-7.1-1.7-10.6-2.1c-7.3-0.9-12.6-0.9-19.2,0.2 c-3.4,0.5-6.9,1.3-10.3,2.3c-3.5,1-6.8,2.2-9.9,3.7c-3.2,1.5-5.9,3.3-8.1,5.3c-5.4,4.8-9.5,10.7-12,17.5 c-2.5,6.8-3.7,14.5-3.7,23.1V195c0,3,0.3,6.7,1,10.8c0.7,4.2,1.9,8.7,3.7,13.4c1.9,4.8,4.7,9.2,8.4,13.1 c4.2,4.4,10.2,7.8,18.1,10.1c7.7,2.2,15.3,3.4,22.5,3.4c7.3,0,14.9-1.1,22.7-3.4c7.9-2.3,14.1-5.6,18.6-10.1 c3.7-3.9,6.5-8.2,8.4-12.8c1.8-4.5,3.2-8.8,4-12.7c0.9-4,1.3-7.5,1.3-10.3V60.2C501.9,42.5,496.3,28.7,485.3,18.9z M492.1,60.2 l-0.3,131.7c0,4.7-0.3,8.8-0.9,12.2c-0.6,3.3-1.6,7-3.1,10.9c-1.4,3.8-3.6,7.3-6.6,10.6c-1.5,1.7-3.6,3.3-6.2,4.5 c-2.7,1.3-5.6,2.5-8.7,3.4c-3.2,0.9-6.4,1.6-9.7,2c-3.2,0.4-6.5,0.6-9.6,0.6c-6,0-12.3-0.9-18.9-2.6c-6.4-1.7-11.3-4.3-14.4-7.6 c-3-3.2-5.2-6.8-6.6-10.8c-1.4-4.1-2.5-8-3.1-11.7c-0.6-3.7-0.8-8.1-0.6-13.3V60.2c0-9,1.4-16.3,4.1-21.9c2.7-5.5,6.2-9.9,10.4-13 c4.2-3.1,9-5.3,14.1-6.4c5.2-1.1,10.3-1.7,15-1.7c2.4,0,5.4,0.2,8.6,0.6c3.3,0.4,6.5,1.1,9.7,2.2c3.2,1,6.3,2.3,9.2,3.8 c2.9,1.5,5.4,3.3,7.3,5.2c3,3.4,5.5,7.7,7.4,12.8C491.2,46.9,492.1,53.1,492.1,60.2z"></path> <polygon points="609.3,122.4 551.8,10 543.9,10 543.9,242.7 553.7,242.7 553.7,34.9 606.1,138.5 612.5,138.5 664.5,34.7 664.5,242.7 674.3,242.7 674.3,10 666.7,10 "></polygon> <path d="M762.1,10L715,242.7h10.2l14.8-69.2h52.4l14.2,69.2h10.2L770,10H762.1z M789.9,163.8h-48.3l24.6-126.4L789.9,163.8z"></path> <path d="M956.6,214.7c-0.3-0.8-0.7-1.7-1.1-2.6L867.7,10h-8v232.7h9.8l-0.6-206.1c1.2,2.8,1.9,4.6,2.3,5.6l86.5,199.6l0.4,0.9h8.3 V10h-9.8V214.7z"></path> <rect x="1026.7" y="10" width="9.8" height="232.7"></rect> <path d="M1142,10h-8L1087,242.7h10.2l14.8-69.2h52.4l14.2,69.2h10.2L1142,10z M1161.9,163.8h-48.3l24.6-126.4L1161.9,163.8z"></path> </g> <g> <path class="st0" d="M19.7,420.6c-5.5-6.3-8.2-13.9-8.2-22.7c0-8.7,2.7-16.1,8.2-22.3c5.5-6.2,12.1-9.3,19.8-9.3 c6.4,0,11.8,1.9,16.4,5.7c4.5,3.9,6.8,8.5,6.8,13.9h-5.5c0-3.9-1.7-7.2-5.1-10c-3.4-2.8-7.6-4.2-12.5-4.2c-6.2,0-11.5,2.5-15.9,7.6 c-4.3,5.2-6.5,11.4-6.5,18.6c0,7.4,2.2,13.7,6.5,19c4.4,5.3,9.8,7.9,15.9,7.9c4.8,0,8.9-1.4,12.2-4.3c3.4-2.9,5.1-6.3,5.1-10.3h5.8 c0,5.5-2.3,10.1-6.8,14c-4.5,3.9-10,5.8-16.4,5.8C31.8,430.1,25.1,426.9,19.7,420.6z"></path> <path class="st0" d="M100.9,420.1c-5.1-5.5-7.6-12.9-7.6-22.2c0-9.5,2.5-17.2,7.6-23c5-5.7,11.7-8.6,20.1-8.6 c8.3,0,15,2.9,20.1,8.6c5,5.8,7.5,13.5,7.5,23c0,9.2-2.5,16.6-7.5,22.2c-5.1,5.5-11.8,8.3-20.1,8.3 C112.6,428.4,105.9,425.6,100.9,420.1z M137.1,416.8c4-4.7,6-11,6-18.9c0-8.1-2-14.6-6-19.4c-4.1-4.9-9.4-7.3-16.1-7.3 c-6.7,0-12.1,2.4-16.1,7.3c-4.1,4.8-6.1,11.3-6.1,19.4c0,7.9,2,14.1,6.1,18.9c4,4.7,9.3,7.1,16.1,7.1 C127.7,423.8,133,421.5,137.1,416.8z"></path> <path class="st0" d="M178,368.4h5.3l16.9,51.7l13.7-51.7h6.2l13.7,50.6l16.8-50.6h5.4l-19.5,59.1h-5.3l-14.3-51.1l-14.1,51.1h-5.3 L178,368.4z"></path> <path class="st0" d="M293,420.1c-5.1-5.5-7.6-12.9-7.6-22.2c0-9.5,2.5-17.2,7.6-23c5-5.7,11.7-8.6,20.1-8.6c8.3,0,15,2.9,20.1,8.6 c5,5.8,7.5,13.5,7.5,23c0,9.2-2.5,16.6-7.5,22.2c-5.1,5.5-11.8,8.3-20.1,8.3C304.7,428.4,298,425.6,293,420.1z M329.2,416.8 c4-4.7,6-11,6-18.9c0-8.1-2-14.6-6-19.4c-4.1-4.9-9.4-7.3-16.1-7.3c-6.7,0-12.1,2.4-16.1,7.3c-4.1,4.8-6.1,11.3-6.1,19.4 c0,7.9,2,14.1,6.1,18.9c4,4.7,9.3,7.1,16.1,7.1C319.8,423.8,325.2,421.5,329.2,416.8z"></path> <path class="st0" d="M377,427.4v-59.1h5.5v13.3c1.6-4.2,3.9-7.7,6.9-10.4c3.1-2.6,6.5-3.9,10-3.9h3.2v6.4c-0.3,0-0.6-0.1-1-0.3 c-0.3-0.2-0.5-0.3-0.6-0.3c-4.3,0-8.3,1.9-11.8,5.5c-3.5,3.7-5.8,8.4-6.8,14v34.7H377z"></path> <path class="st0" d="M434.7,427.4v-82.2h5.5V399l31.6-30.6h6.9L456.1,390l25.4,37.4h-5.8l-23.1-33.7l-12.2,11.6v22H434.7z"></path> </g> <rect x="11.5" y="304.8" width="1177.2" height="2.5"></rect> </svg> 