<?xml version="1.0" standalone="no"?>
<!DOCTYPE svg PUBLIC "-//W3C//DTD SVG 20010904//EN"
 "http://www.w3.org/TR/2001/REC-SVG-20010904/DTD/svg10.dtd">
<svg version="1.0" xmlns="http://www.w3.org/2000/svg"
 width="1040.000000pt" height="1039.000000pt" viewBox="0 0 1040.000000 1039.000000"
 preserveAspectRatio="xMidYMid meet">

<g transform="translate(0.000000,1039.000000) scale(0.100000,-0.100000)"
fill="#000000" stroke="none">
<path d="M180 8958 c-48 -13 -80 -45 -80 -79 0 -15 16 -90 36 -166 19 -76 69
-268 110 -428 41 -159 93 -353 115 -430 71 -247 618 -1877 657 -1955 48 -97
93 -129 216 -155 96 -20 94 -21 131 46 14 25 12 29 -18 69 -18 24 -42 57 -55
74 -48 64 -84 152 -210 517 -72 205 -162 455 -200 554 -119 309 -196 537 -280
830 -93 322 -122 465 -93 465 14 0 66 -79 248 -375 590 -962 1053 -1794 1053
-1893 0 -46 -25 -87 -240 -392 -393 -557 -697 -1081 -829 -1428 -152 -399
-160 -847 -22 -1312 133 -450 397 -935 696 -1280 200 -231 430 -365 595 -346
150 17 352 186 485 407 217 359 340 1051 306 1728 -39 810 -198 1433 -616
2426 -41 97 -46 117 -43 171 3 56 9 69 69 160 36 54 90 139 119 187 29 48 65
96 80 107 l26 18 49 -141 c88 -256 169 -385 318 -503 145 -115 283 -167 437
-167 180 1 294 67 426 248 l20 29 38 -23 c21 -13 65 -47 98 -76 98 -85 252
-157 408 -191 311 -66 638 106 746 393 21 57 27 95 35 228 22 404 35 499 79
619 23 60 73 126 95 126 28 0 90 -90 160 -235 92 -186 157 -361 233 -625 32
-113 66 -219 75 -235 50 -97 169 -150 247 -110 53 27 55 39 55 305 1 215 4
258 24 350 30 140 89 315 149 442 48 102 66 123 96 112 19 -7 22 -15 51 -162
117 -586 421 -1015 829 -1173 123 -48 205 -62 321 -56 158 8 258 46 456 172
126 80 146 82 251 26 158 -86 408 -171 589 -200 171 -28 677 -31 869 -5 240
32 553 101 641 140 33 15 71 41 85 58 23 27 26 37 22 94 -3 40 -9 67 -19 73
-24 17 -108 2 -256 -44 -249 -80 -471 -114 -788 -124 -295 -9 -509 17 -734 88
-128 41 -296 122 -317 154 -18 27 -26 7 80 190 52 90 116 247 140 345 69 282
71 671 6 925 -87 336 -165 416 -395 402 -147 -9 -262 -57 -356 -150 -103 -102
-268 -395 -294 -523 -62 -304 -31 -583 90 -824 46 -92 81 -144 158 -236 33
-40 68 -86 79 -103 l19 -30 -48 -46 c-28 -27 -87 -66 -142 -93 -83 -42 -103
-47 -172 -51 -124 -5 -241 44 -381 161 -52 44 -151 162 -201 242 -140 220
-200 386 -262 723 -46 253 -76 348 -120 391 -32 30 -40 32 -103 32 -108 0
-166 -22 -232 -88 -112 -113 -192 -246 -289 -484 -29 -69 -58 -134 -65 -144
-12 -16 -21 -3 -81 114 -122 242 -251 409 -350 457 -55 27 -160 24 -238 -5
-116 -44 -189 -125 -247 -275 -44 -116 -58 -198 -70 -411 -19 -361 -39 -470
-100 -558 -40 -58 -77 -90 -140 -123 -48 -24 -66 -27 -145 -28 -75 0 -100 5
-153 27 -162 68 -286 175 -345 299 -20 41 -40 93 -46 115 -6 23 -38 277 -71
564 -39 342 -65 533 -76 555 -21 44 -60 59 -130 51 -62 -7 -99 -23 -128 -55
-19 -20 -19 -30 -7 -274 15 -316 24 -406 62 -637 39 -232 37 -305 -10 -405
-43 -93 -90 -148 -153 -179 -68 -34 -111 -33 -184 4 -175 87 -295 246 -373
491 -75 237 -96 446 -65 644 12 73 19 171 19 250 0 111 -4 137 -22 177 -26 58
-63 83 -117 81 -49 -2 -149 -38 -168 -60 -10 -12 -14 -81 -18 -287 -7 -317 -1
-296 -127 -531 -109 -203 -171 -299 -225 -353 l-44 -42 -20 27 c-12 16 -55 96
-97 178 -103 204 -239 440 -597 1035 -384 639 -532 867 -801 1230 -137 186
-177 210 -289 178z m7946 -1265 c10 -10 30 -45 45 -78 99 -221 89 -664 -22
-997 -49 -146 -123 -274 -184 -320 -22 -17 -24 -16 -71 31 -57 56 -130 176
-172 281 -48 122 -66 220 -65 355 1 260 80 460 249 631 100 102 180 137 220
97z m-6129 -2040 c112 -240 251 -638 342 -977 226 -845 275 -1546 155 -2240
-22 -133 -68 -320 -99 -406 -74 -205 -215 -424 -316 -492 -71 -48 -132 -37
-251 43 -132 90 -259 237 -431 500 -356 545 -542 1085 -524 1519 16 358 154
743 437 1215 162 270 615 935 637 935 2 0 25 -44 50 -97z"/>
</g>
</svg>
