<?xml version="1.0" encoding="utf-8"?>
<!-- Generator: Adobe Illustrator 26.0.2, SVG Export Plug-In . SVG Version: 6.00 Build 0)  -->
<svg version="1.1" id="Logo-Freiraum" xmlns="http://www.w3.org/2000/svg" xmlns:xlink="http://www.w3.org/1999/xlink"
	x="0px" y="0px" viewBox="0 0 603.9 82.4" style="enable-background:new 0 0 603.9 82.4;" xml:space="preserve">
	<style type="text/css">
		.st0 {
			fill: #102542;
		}
	</style>
	<polygon class="st0"
		points="0,80.9 13.1,80.9 13.1,46.4 50,46.4 50,33.9 13.1,33.9 13.1,12.4 52.9,12.4 52.9,-0.1 0,-0.1 " />
	<path class="st0" d="M129.8,25.6c0-15.3-10-25.7-27.5-25.7H68.8v81h13.1V50.7h12.5l23.1,30.2h16.1L109.4,50
	C122.3,47.6,129.8,38.9,129.8,25.6z M81.9,39.1V12.4h19c10.7,0,15.7,5.4,15.7,13.3s-5,13.4-15.7,13.4H81.9z" />
	<polygon class="st0" points="146.9,80.9 199.8,80.9 199.8,68.4 160,68.4 160,45.9 196.9,45.9 196.9,33.4 160,33.4 160,12.4
	199.8,12.4 199.8,-0.1 146.9,-0.1 " />
	<rect x="219.4" y="-0.1" class="st0" width="13.1" height="81" />
	<path class="st0" d="M314.2,25.6c0-15.3-10-25.7-27.5-25.7h-33.4v81h13.1V50.7h12.5l23,30.2H318L293.8,50
	C306.6,47.6,314.2,38.9,314.2,25.6z M266.3,39.1V12.4h19c10.6,0,15.7,5.4,15.7,13.3s-5,13.4-15.7,13.4H266.3z" />
	<path class="st0" d="M354.1-0.1l-31.4,81h13.9l8.2-21.8H380l8.2,21.8h13.9l-31.3-81C370.8-0.1,354.1-0.1,354.1-0.1z M349.6,46.8
	l12.8-33.9l12.9,33.9H349.6z" />
	<path class="st0" d="M461.9,47.8c0,15.8-8.2,22-19.4,22s-19.5-6.2-19.5-22V-0.1h-13.3v48.7c0,22.6,14.1,33.7,32.8,33.7
	s32.8-11.1,32.8-33.7V-0.1H462v47.9C462,47.8,461.9,47.8,461.9,47.8z" />
	<polygon class="st0" points="534.1,34.9 510.8,-0.1 495.4,-0.1 495.4,80.9 508.5,80.9 508.5,17.6 533.4,55.3 534.7,55.3 559.7,17.6
	559.7,80.9 572.7,80.9 572.7,-0.1 557.4,-0.1 " />
	<rect x="591.1" y="68.1" class="st0" width="12.8" height="12.8" />
</svg>