<svg enable-background="new 0 0 256 256" viewBox="0 0 256 256" xmlns="http://www.w3.org/2000/svg"><path d="m1 1h126.5v126.5h-126.5z" fill="#fff" stroke="#1c1821" stroke-miterlimit="10" stroke-width="2"/><path d="m95.1 90.7v18.6h-61.3v-11.3l35.2-42.2c3.1-3.5 4.9-7 4.9-9.8 0-4.9-4.2-8.4-10.3-8.4-7 0-10.8 5.1-11.9 12.7l-18.3-2.8c2.4-16.6 12.6-28.3 31.2-28.3 18.1 0 29.7 10.8 29.7 27.1 0 9.1-3.9 16.1-9.5 22.3l-19.6 22.1z" fill="#1c1821"/><path d="m127.5 127.5h126.5v126.5h-126.5z" fill="#fff" stroke="#1c1821" stroke-miterlimit="10" stroke-width="2"/><path d="m221.6 217.2v18.6h-61.3v-11.2l35.2-42.3c3.1-3.5 4.9-7 4.9-9.8 0-4.9-4.2-8.4-10.3-8.4-7 0-10.8 5.1-11.9 12.7l-18.3-2.8c2.4-16.7 12.6-28.3 31.3-28.3 18.1 0 29.7 10.8 29.7 27.1 0 9.1-3.9 16.1-9.5 22.3l-19.6 22.1z" fill="#1c1821"/><path d="m14.4 196.1 8.9-8.9 55.1-5c4.5-.3 8-1.4 9.7-3.2 3.1-3.1 2.5-7.9-1.3-11.8-2-2-4.3-3-6.9-3-2.9 0-6 1.2-9.2 3.7l-.8.6-12.1-16.5.8-.6c6.9-5.2 14.3-7.9 21.3-7.9 8 0 15.5 3.4 22.2 10.1 6.4 6.4 10 13.8 10.3 21.2s-2.6 14.4-8.5 20.3c-5.8 5.8-13.2 8.8-23.2 9.4l-27.3 1.6 20.3 20.3-14.5 14.5z" fill="#fff"/><path d="m79.9 144.5c7.4 0 14.7 3 21.4 9.8 12.8 12.8 13.3 28.6 1.8 40.1-6.4 6.4-14.2 8.6-22.5 9.1l-29.5 1.7 21.2 21.2-13.1 13.1-43.4-43.4 7.9-7.9 54.8-5c4.7-.3 8.4-1.5 10.3-3.4 3.4-3.4 3-8.9-1.3-13.2-2.3-2.3-4.9-3.3-7.6-3.3-3.2 0-6.5 1.4-9.8 3.9l-10.9-14.9c6.6-5 13.6-7.8 20.7-7.8m0-2v2-2c-7.2 0-14.8 2.8-21.9 8.1l-1.6 1.2 1.2 1.6 10.9 14.9 1.2 1.6 1.6-1.2c3.1-2.3 6-3.5 8.6-3.5 2.3 0 4.3.9 6.2 2.7 1.7 1.7 2.8 3.8 3 5.7.2 1.8-.4 3.4-1.7 4.7-1.5 1.5-4.9 2.6-9 2.9l-54.8 5-.7.1-.5.5-7.9 7.9-1.4 1.4 1.4 1.4 43.4 43.4 1.4 1.4 1.4-1.4 13.1-13.1 1.4-1.4-1.4-1.4-18-18 25-1.5c10.2-.6 17.8-3.7 23.8-9.7 6.1-6.1 9.1-13.4 8.8-21.1s-4-15.3-10.6-21.9c-7-6.8-14.7-10.3-22.9-10.3z" fill="#1c1821"/><path d="m191 110.9c-23.2 0-34.4-15.2-34.4-46.5 0-31.5 11.3-46.8 34.4-46.8 22.9 0 34 15.3 34 46.8 0 31.3-11.1 46.5-34 46.5zm0-72.9c-10 0-12.1 14.3-12.1 26.4 0 11.8 2.1 25.9 12.1 25.9 7.8 0 11.6-8.5 11.6-25.9 0-17.5-3.9-26.4-11.6-26.4z" fill="#fff"/><path d="m191 18.6c25.9 0 33 20.2 33 45.8 0 25.5-7.2 45.5-33 45.5-26 0-33.4-20-33.4-45.5-.1-25.6 7.4-45.8 33.4-45.8m0 72.7c9.6 0 12.6-11.6 12.6-26.9 0-15.4-3-27.4-12.6-27.4-9.8 0-13.1 11.9-13.1 27.4-.1 15.3 3.3 26.9 13.1 26.9m0-74.7c-12.8 0-22.3 4.8-28.2 14.2-4.9 7.9-7.3 18.9-7.3 33.5s2.4 25.5 7.3 33.4c5.9 9.4 15.3 14.1 28.2 14.1 12.8 0 22.2-4.8 27.9-14.2 4.8-7.8 7.1-18.7 7.1-33.3 0-14.7-2.3-25.7-7.1-33.5-5.8-9.4-15.2-14.2-27.9-14.2zm0 72.7c-9.2 0-11.1-13.6-11.1-24.9 0-11.6 1.9-25.4 11.1-25.4 7 0 10.6 8.5 10.6 25.4 0 8.1-.9 14.3-2.5 18.5-1.9 4.4-4.4 6.4-8.1 6.4z" fill="#1c1821"/></svg>