<svg viewBox="0 0 557.46 687.6" xmlns="http://www.w3.org/2000/svg"><path d="m46.89 76.4h433.47v577.96h-433.47z" fill="#1d1822" transform="matrix(.98480775 -.17364818 .17364818 .98480775 -59.44 51.33)"/><path d="m77.1 33.24h433.47v577.96h-433.47z" fill="#05c13a" transform="matrix(.98480775 -.17364818 .17364818 .98480775 -51.49 55.92)"/><path d="m262.12 266.51v39.65h-131.09v-24.02l75.24-90.29c6.66-7.52 10.42-15.05 10.42-20.84 0-10.42-8.97-17.94-21.99-17.94-15.05 0-23.15 11-25.47 27.2l-39.07-6.08c5.21-35.6 26.91-60.48 66.85-60.48s63.38 23.15 63.38 57.88c0 19.39-8.39 34.44-20.26 47.75l-41.96 47.17h63.96z" fill="#1d1822"/><path d="m139.52 558.05v-26.06l75.59-90.71c6.41-7.25 10.07-14.48 10.07-19.88 0-9.68-8.43-16.44-20.49-16.44-9.25 0-20.92 4.5-23.98 25.92l-.21 1.5-42.04-6.54.21-1.47c5.74-39.25 30.65-61.76 68.33-61.76s64.88 23.31 64.88 59.38c0 17.46-6.56 32.95-20.64 48.75l-39.74 44.67h62.11v42.65h-134.09z" fill="#fff"/><path d="m207 364.1c38.78 0 63.38 23.15 63.38 57.88 0 19.39-8.39 34.44-20.26 47.75l-41.96 47.17h63.96v39.65h-131.09v-24.02l75.24-90.29c6.66-7.52 10.42-15.05 10.42-20.84 0-10.42-8.97-17.94-21.99-17.94-15.05 0-23.15 11-25.47 27.2l-39.07-6.08c5.21-35.6 26.91-60.48 66.85-60.48m-.01-3c-20 0-36.32 5.97-48.53 17.73-11.16 10.76-18.53 26.43-21.29 45.31l-.43 2.94 2.94.46 39.07 6.08 3 .47.43-3.01c1.6-11.23 6.81-24.63 22.5-24.63 11.18 0 18.99 6.14 18.99 14.94 0 5.04-3.52 11.91-9.66 18.85l-.03.03-.03.03-75.24 90.29-.7.83v28.11h137.09v-45.65h-60.27l37.52-42.18c14.34-16.09 21.02-31.89 21.02-49.74s-6.26-33.25-18.11-44.17c-11.87-10.93-28.56-16.71-48.26-16.71z" fill="#1d1822"/><path d="m389.36 288.96c-26.41 0-45.87-9.73-57.85-28.92-10.18-16.32-15.13-39.15-15.13-69.81s4.95-53.79 15.13-70.21c11.98-19.31 31.44-29.11 57.85-29.11 48.52 0 72.11 32.49 72.11 99.31s-23.59 98.74-72.11 98.74zm0-155.69c-21.96 0-26.57 30.97-26.57 56.96s4.61 56.09 26.57 56.09c17.1 0 25.41-18.35 25.41-56.09s-8.55-56.96-25.41-56.96z" fill="#fff"/><g fill="#1d1822"><path d="m389.36 92.41c55.27 0 70.61 43.12 70.61 97.81s-15.34 97.24-70.61 97.24-71.48-42.83-71.48-97.24 15.92-97.81 71.48-97.81m0 155.4c20.55 0 26.91-24.89 26.91-57.59s-6.37-58.46-26.91-58.46-28.07 25.47-28.07 58.46 7.23 57.59 28.07 57.59m0-158.4c-26.96 0-46.86 10.03-59.12 29.82-10.33 16.66-15.35 39.88-15.35 71s5.02 54.05 15.36 70.61c12.27 19.66 32.16 29.63 59.12 29.63s46.52-9.97 58.59-29.65c10.11-16.47 15.02-39.56 15.02-70.59s-4.91-54.41-15.02-70.98c-12.07-19.8-31.79-29.83-58.59-29.83zm0 155.4c-8.61 0-14.85-4.81-19.09-14.71-3.97-9.27-5.98-22.69-5.98-39.88 0-25.3 4.35-55.46 25.07-55.46 8.37 0 14.38 4.89 18.37 14.96 3.68 9.27 5.54 22.89 5.54 40.49s-1.86 30.83-5.53 39.93c-3.98 9.86-9.99 14.65-18.38 14.65z"/><path d="m468.92 496.24h-29.87v35.38h-43.79v-35.38h-89.61v-13.34l103.53-141.52h29.87v117.16h29.87zm-73.66-37.7v-44.08l-31.32 44.08z"/></g></svg>